<?xml version="1.0" encoding="utf-8"?>
<svg xmlns="http://www.w3.org/2000/svg" xmlns:xlink="http://www.w3.org/1999/xlink" width="600" height="600" viewBox="0 0 2400 2400">
<defs>
  <clipPath id="clip940">
    <rect x="0" y="0" width="2400" height="2400"/>
  </clipPath>
</defs>
<path clip-path="url(#clip940)" d="M0 2400 L2400 2400 L2400 0 L0 0  Z" fill="#ffffff" fill-rule="evenodd" fill-opacity="1"/>
<defs>
  <clipPath id="clip941">
    <rect x="480" y="239" width="1681" height="1681"/>
  </clipPath>
</defs>
<path clip-path="url(#clip940)" d="M344.887 2111.46 L2308.5 2111.46 L2308.5 71.4961 L344.887 71.4961  Z" fill="#ffffff" fill-rule="evenodd" fill-opacity="1"/>
<defs>
  <clipPath id="clip942">
    <rect x="344" y="71" width="1965" height="2041"/>
  </clipPath>
</defs>
<polyline clip-path="url(#clip942)" style="stroke:#000000; stroke-linecap:round; stroke-linejoin:round; stroke-width:2; stroke-opacity:0.1; fill:none" points="344.887,2111.46 344.887,71.4961 "/>
<polyline clip-path="url(#clip942)" style="stroke:#000000; stroke-linecap:round; stroke-linejoin:round; stroke-width:2; stroke-opacity:0.1; fill:none" points="835.792,2111.46 835.792,71.4961 "/>
<polyline clip-path="url(#clip942)" style="stroke:#000000; stroke-linecap:round; stroke-linejoin:round; stroke-width:2; stroke-opacity:0.1; fill:none" points="1326.7,2111.46 1326.7,71.4961 "/>
<polyline clip-path="url(#clip942)" style="stroke:#000000; stroke-linecap:round; stroke-linejoin:round; stroke-width:2; stroke-opacity:0.1; fill:none" points="1817.6,2111.46 1817.6,71.4961 "/>
<polyline clip-path="url(#clip942)" style="stroke:#000000; stroke-linecap:round; stroke-linejoin:round; stroke-width:2; stroke-opacity:0.1; fill:none" points="2308.5,2111.46 2308.5,71.4961 "/>
<polyline clip-path="url(#clip942)" style="stroke:#000000; stroke-linecap:round; stroke-linejoin:round; stroke-width:2; stroke-opacity:0.1; fill:none" points="344.887,1674.33 2308.5,1674.33 "/>
<polyline clip-path="url(#clip942)" style="stroke:#000000; stroke-linecap:round; stroke-linejoin:round; stroke-width:2; stroke-opacity:0.1; fill:none" points="344.887,945.768 2308.5,945.768 "/>
<polyline clip-path="url(#clip942)" style="stroke:#000000; stroke-linecap:round; stroke-linejoin:round; stroke-width:2; stroke-opacity:0.1; fill:none" points="344.887,217.208 2308.5,217.208 "/>
<polyline clip-path="url(#clip940)" style="stroke:#000000; stroke-linecap:round; stroke-linejoin:round; stroke-width:4; stroke-opacity:1; fill:none" points="344.887,2111.46 2308.5,2111.46 "/>
<polyline clip-path="url(#clip940)" style="stroke:#000000; stroke-linecap:round; stroke-linejoin:round; stroke-width:4; stroke-opacity:1; fill:none" points="344.887,2111.46 344.887,2092.57 "/>
<polyline clip-path="url(#clip940)" style="stroke:#000000; stroke-linecap:round; stroke-linejoin:round; stroke-width:4; stroke-opacity:1; fill:none" points="835.792,2111.46 835.792,2092.57 "/>
<polyline clip-path="url(#clip940)" style="stroke:#000000; stroke-linecap:round; stroke-linejoin:round; stroke-width:4; stroke-opacity:1; fill:none" points="1326.7,2111.46 1326.7,2092.57 "/>
<polyline clip-path="url(#clip940)" style="stroke:#000000; stroke-linecap:round; stroke-linejoin:round; stroke-width:4; stroke-opacity:1; fill:none" points="1817.6,2111.46 1817.6,2092.57 "/>
<polyline clip-path="url(#clip940)" style="stroke:#000000; stroke-linecap:round; stroke-linejoin:round; stroke-width:4; stroke-opacity:1; fill:none" points="2308.5,2111.46 2308.5,2092.57 "/>
<path clip-path="url(#clip940)" d="M294.307 2185.59 L301.946 2185.59 L301.946 2159.22 L293.636 2160.89 L293.636 2156.63 L301.899 2154.96 L306.575 2154.96 L306.575 2185.59 L314.214 2185.59 L314.214 2189.52 L294.307 2189.52 L294.307 2185.59 Z" fill="#000000" fill-rule="nonzero" fill-opacity="1" /><path clip-path="url(#clip940)" d="M333.659 2158.04 Q330.047 2158.04 328.219 2161.61 Q326.413 2165.15 326.413 2172.28 Q326.413 2179.38 328.219 2182.95 Q330.047 2186.49 333.659 2186.49 Q337.293 2186.49 339.098 2182.95 Q340.927 2179.38 340.927 2172.28 Q340.927 2165.15 339.098 2161.61 Q337.293 2158.04 333.659 2158.04 M333.659 2154.34 Q339.469 2154.34 342.524 2158.94 Q345.603 2163.53 345.603 2172.28 Q345.603 2181 342.524 2185.61 Q339.469 2190.19 333.659 2190.19 Q327.848 2190.19 324.77 2185.61 Q321.714 2181 321.714 2172.28 Q321.714 2163.53 324.77 2158.94 Q327.848 2154.34 333.659 2154.34 Z" fill="#000000" fill-rule="nonzero" fill-opacity="1" /><path clip-path="url(#clip940)" d="M345.603 2148.44 L369.714 2148.44 L369.714 2151.64 L345.603 2151.64 L345.603 2148.44 Z" fill="#000000" fill-rule="nonzero" fill-opacity="1" /><path clip-path="url(#clip940)" d="M388.353 2137.34 L378.761 2152.33 L388.353 2152.33 L388.353 2137.34 M387.356 2134.03 L392.133 2134.03 L392.133 2152.33 L396.139 2152.33 L396.139 2155.49 L392.133 2155.49 L392.133 2162.11 L388.353 2162.11 L388.353 2155.49 L375.677 2155.49 L375.677 2151.82 L387.356 2134.03 Z" fill="#000000" fill-rule="nonzero" fill-opacity="1" /><path clip-path="url(#clip940)" d="M785.672 2185.59 L793.311 2185.59 L793.311 2159.22 L785 2160.89 L785 2156.63 L793.264 2154.96 L797.94 2154.96 L797.94 2185.59 L805.579 2185.59 L805.579 2189.52 L785.672 2189.52 L785.672 2185.59 Z" fill="#000000" fill-rule="nonzero" fill-opacity="1" /><path clip-path="url(#clip940)" d="M825.023 2158.04 Q821.412 2158.04 819.584 2161.61 Q817.778 2165.15 817.778 2172.28 Q817.778 2179.38 819.584 2182.95 Q821.412 2186.49 825.023 2186.49 Q828.658 2186.49 830.463 2182.95 Q832.292 2179.38 832.292 2172.28 Q832.292 2165.15 830.463 2161.61 Q828.658 2158.04 825.023 2158.04 M825.023 2154.34 Q830.834 2154.34 833.889 2158.94 Q836.968 2163.53 836.968 2172.28 Q836.968 2181 833.889 2185.61 Q830.834 2190.19 825.023 2190.19 Q819.213 2190.19 816.135 2185.61 Q813.079 2181 813.079 2172.28 Q813.079 2163.53 816.135 2158.94 Q819.213 2154.34 825.023 2154.34 Z" fill="#000000" fill-rule="nonzero" fill-opacity="1" /><path clip-path="url(#clip940)" d="M836.968 2148.44 L861.079 2148.44 L861.079 2151.64 L836.968 2151.64 L836.968 2148.44 Z" fill="#000000" fill-rule="nonzero" fill-opacity="1" /><path clip-path="url(#clip940)" d="M880.79 2146.97 Q883.517 2147.56 885.04 2149.4 Q886.583 2151.24 886.583 2153.95 Q886.583 2158.11 883.724 2160.38 Q880.865 2162.66 875.599 2162.66 Q873.831 2162.66 871.95 2162.3 Q870.088 2161.96 868.095 2161.27 L868.095 2157.6 Q869.675 2158.52 871.555 2158.99 Q873.436 2159.46 875.486 2159.46 Q879.06 2159.46 880.922 2158.05 Q882.802 2156.64 882.802 2153.95 Q882.802 2151.47 881.053 2150.08 Q879.323 2148.67 876.22 2148.67 L872.947 2148.67 L872.947 2145.54 L876.37 2145.54 Q879.172 2145.54 880.658 2144.43 Q882.144 2143.3 882.144 2141.2 Q882.144 2139.04 880.602 2137.89 Q879.078 2136.72 876.22 2136.72 Q874.659 2136.72 872.872 2137.06 Q871.085 2137.4 868.941 2138.11 L868.941 2134.73 Q871.104 2134.13 872.985 2133.83 Q874.884 2133.52 876.558 2133.52 Q880.884 2133.52 883.404 2135.5 Q885.924 2137.46 885.924 2140.8 Q885.924 2143.14 884.589 2144.75 Q883.254 2146.35 880.79 2146.97 Z" fill="#000000" fill-rule="nonzero" fill-opacity="1" /><path clip-path="url(#clip940)" d="M1276.96 2185.59 L1284.6 2185.59 L1284.6 2159.22 L1276.29 2160.89 L1276.29 2156.63 L1284.55 2154.96 L1289.23 2154.96 L1289.23 2185.59 L1296.87 2185.59 L1296.87 2189.52 L1276.96 2189.52 L1276.96 2185.59 Z" fill="#000000" fill-rule="nonzero" fill-opacity="1" /><path clip-path="url(#clip940)" d="M1316.31 2158.04 Q1312.7 2158.04 1310.87 2161.61 Q1309.07 2165.15 1309.07 2172.28 Q1309.07 2179.38 1310.87 2182.95 Q1312.7 2186.49 1316.31 2186.49 Q1319.95 2186.49 1321.75 2182.95 Q1323.58 2179.38 1323.58 2172.28 Q1323.58 2165.15 1321.75 2161.61 Q1319.95 2158.04 1316.31 2158.04 M1316.31 2154.34 Q1322.12 2154.34 1325.18 2158.94 Q1328.26 2163.53 1328.26 2172.28 Q1328.26 2181 1325.18 2185.61 Q1322.12 2190.19 1316.31 2190.19 Q1310.5 2190.19 1307.42 2185.61 Q1304.37 2181 1304.37 2172.28 Q1304.37 2163.53 1307.42 2158.94 Q1310.5 2154.34 1316.31 2154.34 Z" fill="#000000" fill-rule="nonzero" fill-opacity="1" /><path clip-path="url(#clip940)" d="M1328.26 2148.44 L1352.37 2148.44 L1352.37 2151.64 L1328.26 2151.64 L1328.26 2148.44 Z" fill="#000000" fill-rule="nonzero" fill-opacity="1" /><path clip-path="url(#clip940)" d="M1363.84 2158.92 L1377.1 2158.92 L1377.1 2162.11 L1359.27 2162.11 L1359.27 2158.92 Q1361.43 2156.68 1365.16 2152.92 Q1368.9 2149.14 1369.86 2148.04 Q1371.68 2145.99 1372.4 2144.58 Q1373.13 2143.15 1373.13 2141.78 Q1373.13 2139.54 1371.55 2138.13 Q1369.99 2136.72 1367.47 2136.72 Q1365.68 2136.72 1363.69 2137.34 Q1361.72 2137.96 1359.46 2139.22 L1359.46 2135.39 Q1361.75 2134.47 1363.75 2134 Q1365.74 2133.52 1367.4 2133.52 Q1371.76 2133.52 1374.36 2135.71 Q1376.95 2137.89 1376.95 2141.54 Q1376.95 2143.27 1376.29 2144.83 Q1375.65 2146.37 1373.94 2148.48 Q1373.47 2149.02 1370.95 2151.64 Q1368.43 2154.23 1363.84 2158.92 Z" fill="#000000" fill-rule="nonzero" fill-opacity="1" /><path clip-path="url(#clip940)" d="M1767.72 2185.59 L1775.35 2185.59 L1775.35 2159.22 L1767.04 2160.89 L1767.04 2156.63 L1775.31 2154.96 L1779.98 2154.96 L1779.98 2185.59 L1787.62 2185.59 L1787.62 2189.52 L1767.72 2189.52 L1767.72 2185.59 Z" fill="#000000" fill-rule="nonzero" fill-opacity="1" /><path clip-path="url(#clip940)" d="M1807.07 2158.04 Q1803.46 2158.04 1801.63 2161.61 Q1799.82 2165.15 1799.82 2172.28 Q1799.82 2179.38 1801.63 2182.95 Q1803.46 2186.49 1807.07 2186.49 Q1810.7 2186.49 1812.51 2182.95 Q1814.34 2179.38 1814.34 2172.28 Q1814.34 2165.15 1812.51 2161.61 Q1810.7 2158.04 1807.07 2158.04 M1807.07 2154.34 Q1812.88 2154.34 1815.93 2158.94 Q1819.01 2163.53 1819.01 2172.28 Q1819.01 2181 1815.93 2185.61 Q1812.88 2190.19 1807.07 2190.19 Q1801.26 2190.19 1798.18 2185.61 Q1795.12 2181 1795.12 2172.28 Q1795.12 2163.53 1798.18 2158.94 Q1801.26 2154.34 1807.07 2154.34 Z" fill="#000000" fill-rule="nonzero" fill-opacity="1" /><path clip-path="url(#clip940)" d="M1819.01 2148.44 L1843.12 2148.44 L1843.12 2151.64 L1819.01 2151.64 L1819.01 2148.44 Z" fill="#000000" fill-rule="nonzero" fill-opacity="1" /><path clip-path="url(#clip940)" d="M1851.98 2158.92 L1858.19 2158.92 L1858.19 2137.49 L1851.44 2138.85 L1851.44 2135.39 L1858.15 2134.03 L1861.95 2134.03 L1861.95 2158.92 L1868.16 2158.92 L1868.16 2162.11 L1851.98 2162.11 L1851.98 2158.92 Z" fill="#000000" fill-rule="nonzero" fill-opacity="1" /><path clip-path="url(#clip940)" d="M2273.49 2185.59 L2281.13 2185.59 L2281.13 2159.22 L2272.82 2160.89 L2272.82 2156.63 L2281.08 2154.96 L2285.76 2154.96 L2285.76 2185.59 L2293.39 2185.59 L2293.39 2189.52 L2273.49 2189.52 L2273.49 2185.59 Z" fill="#000000" fill-rule="nonzero" fill-opacity="1" /><path clip-path="url(#clip940)" d="M2312.84 2158.04 Q2309.23 2158.04 2307.4 2161.61 Q2305.59 2165.15 2305.59 2172.28 Q2305.59 2179.38 2307.4 2182.95 Q2309.23 2186.49 2312.84 2186.49 Q2316.47 2186.49 2318.28 2182.95 Q2320.11 2179.38 2320.11 2172.28 Q2320.11 2165.15 2318.28 2161.61 Q2316.47 2158.04 2312.84 2158.04 M2312.84 2154.34 Q2318.65 2154.34 2321.7 2158.94 Q2324.78 2163.53 2324.78 2172.28 Q2324.78 2181 2321.7 2185.61 Q2318.65 2190.19 2312.84 2190.19 Q2307.03 2190.19 2303.95 2185.61 Q2300.89 2181 2300.89 2172.28 Q2300.89 2163.53 2303.95 2158.94 Q2307.03 2154.34 2312.84 2154.34 Z" fill="#000000" fill-rule="nonzero" fill-opacity="1" /><path clip-path="url(#clip940)" d="M2334.49 2136.53 Q2331.55 2136.53 2330.07 2139.43 Q2328.6 2142.31 2328.6 2148.1 Q2328.6 2153.87 2330.07 2156.77 Q2331.55 2159.65 2334.49 2159.65 Q2337.44 2159.65 2338.91 2156.77 Q2340.39 2153.87 2340.39 2148.1 Q2340.39 2142.31 2338.91 2139.43 Q2337.44 2136.53 2334.49 2136.53 M2334.49 2133.52 Q2339.21 2133.52 2341.69 2137.27 Q2344.19 2140.99 2344.19 2148.1 Q2344.19 2155.19 2341.69 2158.93 Q2339.21 2162.66 2334.49 2162.66 Q2329.77 2162.66 2327.27 2158.93 Q2324.78 2155.19 2324.78 2148.1 Q2324.78 2140.99 2327.27 2137.27 Q2329.77 2133.52 2334.49 2133.52 Z" fill="#000000" fill-rule="nonzero" fill-opacity="1" /><path clip-path="url(#clip940)" d="M1341.62 2253.24 L1341.62 2274.75 L1335.77 2274.75 L1335.77 2253.43 Q1335.77 2248.37 1333.79 2245.85 Q1331.82 2243.34 1327.87 2243.34 Q1323.13 2243.34 1320.39 2246.36 Q1317.66 2249.38 1317.66 2254.6 L1317.66 2274.75 L1311.77 2274.75 L1311.77 2225.23 L1317.66 2225.23 L1317.66 2244.64 Q1319.76 2241.43 1322.59 2239.84 Q1325.45 2238.24 1329.18 2238.24 Q1335.32 2238.24 1338.47 2242.06 Q1341.62 2245.85 1341.62 2253.24 Z" fill="#000000" fill-rule="nonzero" fill-opacity="1" /><polyline clip-path="url(#clip940)" style="stroke:#000000; stroke-linecap:round; stroke-linejoin:round; stroke-width:4; stroke-opacity:1; fill:none" points="344.887,2111.46 344.887,71.4961 "/>
<polyline clip-path="url(#clip940)" style="stroke:#000000; stroke-linecap:round; stroke-linejoin:round; stroke-width:4; stroke-opacity:1; fill:none" points="344.887,1674.33 363.785,1674.33 "/>
<polyline clip-path="url(#clip940)" style="stroke:#000000; stroke-linecap:round; stroke-linejoin:round; stroke-width:4; stroke-opacity:1; fill:none" points="344.887,945.768 363.785,945.768 "/>
<polyline clip-path="url(#clip940)" style="stroke:#000000; stroke-linecap:round; stroke-linejoin:round; stroke-width:4; stroke-opacity:1; fill:none" points="344.887,217.208 363.785,217.208 "/>
<path clip-path="url(#clip940)" d="M182.943 1694.12 L190.582 1694.12 L190.582 1667.75 L182.272 1669.42 L182.272 1665.16 L190.536 1663.49 L195.212 1663.49 L195.212 1694.12 L202.851 1694.12 L202.851 1698.05 L182.943 1698.05 L182.943 1694.12 Z" fill="#000000" fill-rule="nonzero" fill-opacity="1" /><path clip-path="url(#clip940)" d="M222.295 1666.57 Q218.684 1666.57 216.855 1670.14 Q215.05 1673.68 215.05 1680.81 Q215.05 1687.92 216.855 1691.48 Q218.684 1695.02 222.295 1695.02 Q225.929 1695.02 227.735 1691.48 Q229.564 1687.92 229.564 1680.81 Q229.564 1673.68 227.735 1670.14 Q225.929 1666.57 222.295 1666.57 M222.295 1662.87 Q228.105 1662.87 231.161 1667.48 Q234.239 1672.06 234.239 1680.81 Q234.239 1689.54 231.161 1694.14 Q228.105 1698.73 222.295 1698.73 Q216.485 1698.73 213.406 1694.14 Q210.351 1689.54 210.351 1680.81 Q210.351 1672.06 213.406 1667.48 Q216.485 1662.87 222.295 1662.87 Z" fill="#000000" fill-rule="nonzero" fill-opacity="1" /><path clip-path="url(#clip940)" d="M234.239 1656.97 L258.351 1656.97 L258.351 1660.17 L234.239 1660.17 L234.239 1656.97 Z" fill="#000000" fill-rule="nonzero" fill-opacity="1" /><path clip-path="url(#clip940)" d="M267.209 1667.45 L273.416 1667.45 L273.416 1646.03 L266.664 1647.38 L266.664 1643.92 L273.378 1642.56 L277.178 1642.56 L277.178 1667.45 L283.384 1667.45 L283.384 1670.64 L267.209 1670.64 L267.209 1667.45 Z" fill="#000000" fill-rule="nonzero" fill-opacity="1" /><path clip-path="url(#clip940)" d="M299.183 1645.07 Q296.249 1645.07 294.763 1647.96 Q293.296 1650.84 293.296 1656.63 Q293.296 1662.41 294.763 1665.3 Q296.249 1668.18 299.183 1668.18 Q302.135 1668.18 303.602 1665.3 Q305.088 1662.41 305.088 1656.63 Q305.088 1650.84 303.602 1647.96 Q302.135 1645.07 299.183 1645.07 M299.183 1642.06 Q303.903 1642.06 306.386 1645.8 Q308.887 1649.52 308.887 1656.63 Q308.887 1663.72 306.386 1667.47 Q303.903 1671.19 299.183 1671.19 Q294.462 1671.19 291.96 1667.47 Q289.478 1663.72 289.478 1656.63 Q289.478 1649.52 291.96 1645.8 Q294.462 1642.06 299.183 1642.06 Z" fill="#000000" fill-rule="nonzero" fill-opacity="1" /><path clip-path="url(#clip940)" d="M208.259 965.56 L215.898 965.56 L215.898 939.194 L207.587 940.861 L207.587 936.602 L215.851 934.935 L220.527 934.935 L220.527 965.56 L228.166 965.56 L228.166 969.495 L208.259 969.495 L208.259 965.56 Z" fill="#000000" fill-rule="nonzero" fill-opacity="1" /><path clip-path="url(#clip940)" d="M247.61 938.014 Q243.999 938.014 242.171 941.579 Q240.365 945.12 240.365 952.25 Q240.365 959.356 242.171 962.921 Q243.999 966.463 247.61 966.463 Q251.245 966.463 253.05 962.921 Q254.879 959.356 254.879 952.25 Q254.879 945.12 253.05 941.579 Q251.245 938.014 247.61 938.014 M247.61 934.31 Q253.42 934.31 256.476 938.917 Q259.555 943.5 259.555 952.25 Q259.555 960.977 256.476 965.583 Q253.42 970.167 247.61 970.167 Q241.8 970.167 238.721 965.583 Q235.666 960.977 235.666 952.25 Q235.666 943.5 238.721 938.917 Q241.8 934.31 247.61 934.31 Z" fill="#000000" fill-rule="nonzero" fill-opacity="1" /><path clip-path="url(#clip940)" d="M259.555 928.412 L283.666 928.412 L283.666 931.609 L259.555 931.609 L259.555 928.412 Z" fill="#000000" fill-rule="nonzero" fill-opacity="1" /><path clip-path="url(#clip940)" d="M291.904 914.005 L306.819 914.005 L306.819 917.202 L295.383 917.202 L295.383 924.086 Q296.211 923.804 297.039 923.672 Q297.866 923.522 298.694 923.522 Q303.396 923.522 306.142 926.098 Q308.887 928.675 308.887 933.076 Q308.887 937.609 306.066 940.129 Q303.245 942.63 298.111 942.63 Q296.343 942.63 294.5 942.329 Q292.675 942.028 290.719 941.427 L290.719 937.609 Q292.412 938.53 294.217 938.982 Q296.023 939.433 298.035 939.433 Q301.289 939.433 303.189 937.721 Q305.088 936.01 305.088 933.076 Q305.088 930.142 303.189 928.43 Q301.289 926.719 298.035 926.719 Q296.512 926.719 294.989 927.057 Q293.484 927.396 291.904 928.111 L291.904 914.005 Z" fill="#000000" fill-rule="nonzero" fill-opacity="1" /><path clip-path="url(#clip940)" d="M238.182 237 L245.821 237 L245.821 210.635 L237.511 212.301 L237.511 208.042 L245.774 206.376 L250.45 206.376 L250.45 237 L258.089 237 L258.089 240.936 L238.182 240.936 L238.182 237 Z" fill="#000000" fill-rule="nonzero" fill-opacity="1" /><path clip-path="url(#clip940)" d="M277.533 209.454 Q273.922 209.454 272.094 213.019 Q270.288 216.561 270.288 223.69 Q270.288 230.797 272.094 234.362 Q273.922 237.903 277.533 237.903 Q281.168 237.903 282.973 234.362 Q284.802 230.797 284.802 223.69 Q284.802 216.561 282.973 213.019 Q281.168 209.454 277.533 209.454 M277.533 205.751 Q283.344 205.751 286.399 210.357 Q289.478 214.94 289.478 223.69 Q289.478 232.417 286.399 237.024 Q283.344 241.607 277.533 241.607 Q271.723 241.607 268.645 237.024 Q265.589 232.417 265.589 223.69 Q265.589 214.94 268.645 210.357 Q271.723 205.751 277.533 205.751 Z" fill="#000000" fill-rule="nonzero" fill-opacity="1" /><path clip-path="url(#clip940)" d="M299.183 187.947 Q296.249 187.947 294.763 190.843 Q293.296 193.721 293.296 199.513 Q293.296 205.287 294.763 208.184 Q296.249 211.061 299.183 211.061 Q302.135 211.061 303.602 208.184 Q305.088 205.287 305.088 199.513 Q305.088 193.721 303.602 190.843 Q302.135 187.947 299.183 187.947 M299.183 184.937 Q303.903 184.937 306.386 188.68 Q308.887 192.404 308.887 199.513 Q308.887 206.604 306.386 210.347 Q303.903 214.071 299.183 214.071 Q294.462 214.071 291.96 210.347 Q289.478 206.604 289.478 199.513 Q289.478 192.404 291.96 188.68 Q294.462 184.937 299.183 184.937 Z" fill="#000000" fill-rule="nonzero" fill-opacity="1" /><path clip-path="url(#clip940)" d="M84.4961 1167.72 L84.4961 1137.68 L89.907 1137.68 L89.907 1161.3 L103.975 1161.3 L103.975 1138.67 L109.386 1138.67 L109.386 1161.3 L126.605 1161.3 L126.605 1137.11 L132.016 1137.11 L132.016 1167.72 L84.4961 1167.72 Z" fill="#000000" fill-rule="nonzero" fill-opacity="1" /><path clip-path="url(#clip940)" d="M101.843 1106.14 Q101.27 1107.12 101.015 1108.3 Q100.729 1109.45 100.729 1110.85 Q100.729 1115.81 103.975 1118.49 Q107.19 1121.13 113.237 1121.13 L132.016 1121.13 L132.016 1127.02 L96.3682 1127.02 L96.3682 1121.13 L101.906 1121.13 Q98.6598 1119.28 97.1002 1116.32 Q95.5088 1113.36 95.5088 1109.13 Q95.5088 1108.52 95.6043 1107.79 Q95.6679 1107.06 95.8271 1106.17 L101.843 1106.14 Z" fill="#000000" fill-rule="nonzero" fill-opacity="1" /><path clip-path="url(#clip940)" d="M101.843 1080.48 Q101.27 1081.47 101.015 1082.65 Q100.729 1083.79 100.729 1085.19 Q100.729 1090.16 103.975 1092.83 Q107.19 1095.47 113.237 1095.47 L132.016 1095.47 L132.016 1101.36 L96.3682 1101.36 L96.3682 1095.47 L101.906 1095.47 Q98.6598 1093.63 97.1002 1090.67 Q95.5088 1087.71 95.5088 1083.47 Q95.5088 1082.87 95.6043 1082.14 Q95.6679 1081.41 95.8271 1080.51 L101.843 1080.48 Z" fill="#000000" fill-rule="nonzero" fill-opacity="1" /><path clip-path="url(#clip940)" d="M100.474 1061.96 Q100.474 1066.67 104.166 1069.41 Q107.826 1072.14 114.224 1072.14 Q120.622 1072.14 124.314 1069.44 Q127.974 1066.7 127.974 1061.96 Q127.974 1057.28 124.282 1054.54 Q120.59 1051.81 114.224 1051.81 Q107.89 1051.81 104.198 1054.54 Q100.474 1057.28 100.474 1061.96 M95.5088 1061.96 Q95.5088 1054.32 100.474 1049.96 Q105.439 1045.6 114.224 1045.6 Q122.977 1045.6 127.974 1049.96 Q132.939 1054.32 132.939 1061.96 Q132.939 1069.63 127.974 1073.99 Q122.977 1078.32 114.224 1078.32 Q105.439 1078.32 100.474 1073.99 Q95.5088 1069.63 95.5088 1061.96 Z" fill="#000000" fill-rule="nonzero" fill-opacity="1" /><path clip-path="url(#clip940)" d="M101.843 1015.23 Q101.27 1016.22 101.015 1017.4 Q100.729 1018.54 100.729 1019.94 Q100.729 1024.91 103.975 1027.58 Q107.19 1030.23 113.237 1030.23 L132.016 1030.23 L132.016 1036.11 L96.3682 1036.11 L96.3682 1030.23 L101.906 1030.23 Q98.6598 1028.38 97.1002 1025.42 Q95.5088 1022.46 95.5088 1018.23 Q95.5088 1017.62 95.6043 1016.89 Q95.6679 1016.16 95.8271 1015.27 L101.843 1015.23 Z" fill="#000000" fill-rule="nonzero" fill-opacity="1" /><polyline clip-path="url(#clip942)" style="stroke:#009af9; stroke-linecap:round; stroke-linejoin:round; stroke-width:4; stroke-opacity:1; fill:none" points="344.887,810.53 448.236,779.851 551.584,749.174 654.932,718.493 758.28,687.808 861.629,657.137 964.977,626.45 1068.33,595.741 1171.67,565.05 1275.02,534.239 1378.37,503.394 1481.72,472.69 1585.07,441.553 1688.41,410.632 1791.76,379.645 1895.11,348.17 1998.46,316.063 2101.81,283.083 2205.16,247.319 2308.5,217.208 "/>
<circle clip-path="url(#clip942)" cx="344.887" cy="810.53" r="14.4" fill="#009af9" fill-rule="evenodd" fill-opacity="1" stroke="#000000" stroke-opacity="1" stroke-width="4.8"/>
<circle clip-path="url(#clip942)" cx="448.236" cy="779.851" r="14.4" fill="#009af9" fill-rule="evenodd" fill-opacity="1" stroke="#000000" stroke-opacity="1" stroke-width="4.8"/>
<circle clip-path="url(#clip942)" cx="551.584" cy="749.174" r="14.4" fill="#009af9" fill-rule="evenodd" fill-opacity="1" stroke="#000000" stroke-opacity="1" stroke-width="4.8"/>
<circle clip-path="url(#clip942)" cx="654.932" cy="718.493" r="14.4" fill="#009af9" fill-rule="evenodd" fill-opacity="1" stroke="#000000" stroke-opacity="1" stroke-width="4.8"/>
<circle clip-path="url(#clip942)" cx="758.28" cy="687.808" r="14.4" fill="#009af9" fill-rule="evenodd" fill-opacity="1" stroke="#000000" stroke-opacity="1" stroke-width="4.8"/>
<circle clip-path="url(#clip942)" cx="861.629" cy="657.137" r="14.4" fill="#009af9" fill-rule="evenodd" fill-opacity="1" stroke="#000000" stroke-opacity="1" stroke-width="4.8"/>
<circle clip-path="url(#clip942)" cx="964.977" cy="626.45" r="14.4" fill="#009af9" fill-rule="evenodd" fill-opacity="1" stroke="#000000" stroke-opacity="1" stroke-width="4.8"/>
<circle clip-path="url(#clip942)" cx="1068.33" cy="595.741" r="14.4" fill="#009af9" fill-rule="evenodd" fill-opacity="1" stroke="#000000" stroke-opacity="1" stroke-width="4.8"/>
<circle clip-path="url(#clip942)" cx="1171.67" cy="565.05" r="14.4" fill="#009af9" fill-rule="evenodd" fill-opacity="1" stroke="#000000" stroke-opacity="1" stroke-width="4.8"/>
<circle clip-path="url(#clip942)" cx="1275.02" cy="534.239" r="14.4" fill="#009af9" fill-rule="evenodd" fill-opacity="1" stroke="#000000" stroke-opacity="1" stroke-width="4.8"/>
<circle clip-path="url(#clip942)" cx="1378.37" cy="503.394" r="14.4" fill="#009af9" fill-rule="evenodd" fill-opacity="1" stroke="#000000" stroke-opacity="1" stroke-width="4.8"/>
<circle clip-path="url(#clip942)" cx="1481.72" cy="472.69" r="14.4" fill="#009af9" fill-rule="evenodd" fill-opacity="1" stroke="#000000" stroke-opacity="1" stroke-width="4.8"/>
<circle clip-path="url(#clip942)" cx="1585.07" cy="441.553" r="14.4" fill="#009af9" fill-rule="evenodd" fill-opacity="1" stroke="#000000" stroke-opacity="1" stroke-width="4.8"/>
<circle clip-path="url(#clip942)" cx="1688.41" cy="410.632" r="14.4" fill="#009af9" fill-rule="evenodd" fill-opacity="1" stroke="#000000" stroke-opacity="1" stroke-width="4.8"/>
<circle clip-path="url(#clip942)" cx="1791.76" cy="379.645" r="14.4" fill="#009af9" fill-rule="evenodd" fill-opacity="1" stroke="#000000" stroke-opacity="1" stroke-width="4.8"/>
<circle clip-path="url(#clip942)" cx="1895.11" cy="348.17" r="14.4" fill="#009af9" fill-rule="evenodd" fill-opacity="1" stroke="#000000" stroke-opacity="1" stroke-width="4.8"/>
<circle clip-path="url(#clip942)" cx="1998.46" cy="316.063" r="14.4" fill="#009af9" fill-rule="evenodd" fill-opacity="1" stroke="#000000" stroke-opacity="1" stroke-width="4.8"/>
<circle clip-path="url(#clip942)" cx="2101.81" cy="283.083" r="14.4" fill="#009af9" fill-rule="evenodd" fill-opacity="1" stroke="#000000" stroke-opacity="1" stroke-width="4.8"/>
<circle clip-path="url(#clip942)" cx="2205.16" cy="247.319" r="14.4" fill="#009af9" fill-rule="evenodd" fill-opacity="1" stroke="#000000" stroke-opacity="1" stroke-width="4.8"/>
<circle clip-path="url(#clip942)" cx="2308.5" cy="217.208" r="14.4" fill="#009af9" fill-rule="evenodd" fill-opacity="1" stroke="#000000" stroke-opacity="1" stroke-width="4.8"/>
<polyline clip-path="url(#clip942)" style="stroke:#e26f46; stroke-linecap:round; stroke-linejoin:round; stroke-width:4; stroke-opacity:1; fill:none" points="344.887,1510.21 448.236,1448.86 551.584,1387.52 654.932,1326.17 758.28,1264.82 861.629,1203.52 964.977,1142.2 1068.33,1080.88 1171.67,1019.65 1275.02,958.285 1378.37,897.003 1481.72,836.227 1585.07,774.997 1688.41,714.938 1791.76,655.652 1895.11,591.648 1998.46,519.841 2101.81,439.808 2205.16,329.088 2308.5,343.772 "/>
<circle clip-path="url(#clip942)" cx="344.887" cy="1510.21" r="14.4" fill="#e26f46" fill-rule="evenodd" fill-opacity="1" stroke="#000000" stroke-opacity="1" stroke-width="4.8"/>
<circle clip-path="url(#clip942)" cx="448.236" cy="1448.86" r="14.4" fill="#e26f46" fill-rule="evenodd" fill-opacity="1" stroke="#000000" stroke-opacity="1" stroke-width="4.8"/>
<circle clip-path="url(#clip942)" cx="551.584" cy="1387.52" r="14.4" fill="#e26f46" fill-rule="evenodd" fill-opacity="1" stroke="#000000" stroke-opacity="1" stroke-width="4.8"/>
<circle clip-path="url(#clip942)" cx="654.932" cy="1326.17" r="14.4" fill="#e26f46" fill-rule="evenodd" fill-opacity="1" stroke="#000000" stroke-opacity="1" stroke-width="4.8"/>
<circle clip-path="url(#clip942)" cx="758.28" cy="1264.82" r="14.4" fill="#e26f46" fill-rule="evenodd" fill-opacity="1" stroke="#000000" stroke-opacity="1" stroke-width="4.8"/>
<circle clip-path="url(#clip942)" cx="861.629" cy="1203.52" r="14.4" fill="#e26f46" fill-rule="evenodd" fill-opacity="1" stroke="#000000" stroke-opacity="1" stroke-width="4.8"/>
<circle clip-path="url(#clip942)" cx="964.977" cy="1142.2" r="14.4" fill="#e26f46" fill-rule="evenodd" fill-opacity="1" stroke="#000000" stroke-opacity="1" stroke-width="4.8"/>
<circle clip-path="url(#clip942)" cx="1068.33" cy="1080.88" r="14.4" fill="#e26f46" fill-rule="evenodd" fill-opacity="1" stroke="#000000" stroke-opacity="1" stroke-width="4.8"/>
<circle clip-path="url(#clip942)" cx="1171.67" cy="1019.65" r="14.4" fill="#e26f46" fill-rule="evenodd" fill-opacity="1" stroke="#000000" stroke-opacity="1" stroke-width="4.8"/>
<circle clip-path="url(#clip942)" cx="1275.02" cy="958.285" r="14.4" fill="#e26f46" fill-rule="evenodd" fill-opacity="1" stroke="#000000" stroke-opacity="1" stroke-width="4.8"/>
<circle clip-path="url(#clip942)" cx="1378.37" cy="897.003" r="14.4" fill="#e26f46" fill-rule="evenodd" fill-opacity="1" stroke="#000000" stroke-opacity="1" stroke-width="4.8"/>
<circle clip-path="url(#clip942)" cx="1481.72" cy="836.227" r="14.4" fill="#e26f46" fill-rule="evenodd" fill-opacity="1" stroke="#000000" stroke-opacity="1" stroke-width="4.8"/>
<circle clip-path="url(#clip942)" cx="1585.07" cy="774.997" r="14.4" fill="#e26f46" fill-rule="evenodd" fill-opacity="1" stroke="#000000" stroke-opacity="1" stroke-width="4.8"/>
<circle clip-path="url(#clip942)" cx="1688.41" cy="714.938" r="14.4" fill="#e26f46" fill-rule="evenodd" fill-opacity="1" stroke="#000000" stroke-opacity="1" stroke-width="4.8"/>
<circle clip-path="url(#clip942)" cx="1791.76" cy="655.652" r="14.4" fill="#e26f46" fill-rule="evenodd" fill-opacity="1" stroke="#000000" stroke-opacity="1" stroke-width="4.8"/>
<circle clip-path="url(#clip942)" cx="1895.11" cy="591.648" r="14.4" fill="#e26f46" fill-rule="evenodd" fill-opacity="1" stroke="#000000" stroke-opacity="1" stroke-width="4.8"/>
<circle clip-path="url(#clip942)" cx="1998.46" cy="519.841" r="14.4" fill="#e26f46" fill-rule="evenodd" fill-opacity="1" stroke="#000000" stroke-opacity="1" stroke-width="4.8"/>
<circle clip-path="url(#clip942)" cx="2101.81" cy="439.808" r="14.4" fill="#e26f46" fill-rule="evenodd" fill-opacity="1" stroke="#000000" stroke-opacity="1" stroke-width="4.8"/>
<circle clip-path="url(#clip942)" cx="2205.16" cy="329.088" r="14.4" fill="#e26f46" fill-rule="evenodd" fill-opacity="1" stroke="#000000" stroke-opacity="1" stroke-width="4.8"/>
<circle clip-path="url(#clip942)" cx="2308.5" cy="343.772" r="14.4" fill="#e26f46" fill-rule="evenodd" fill-opacity="1" stroke="#000000" stroke-opacity="1" stroke-width="4.8"/>
<polyline clip-path="url(#clip942)" style="stroke:#3da44d; stroke-linecap:round; stroke-linejoin:round; stroke-width:4; stroke-opacity:1; fill:none" points="344.887,2126.61 448.236,2054.9 551.584,1954.97 654.932,1860.99 758.28,1768.77 861.629,1676.74 964.977,1584.62 1068.33,1492.42 1171.67,1400.22 1275.02,1307.58 1378.37,1214.71 1481.72,1122.02 1585.07,1027.66 1688.41,933.608 1791.76,838.136 1895.11,740.1 1998.46,639.05 2101.81,535.575 2205.16,414.428 2308.5,229.341 "/>
<circle clip-path="url(#clip942)" cx="448.236" cy="2054.9" r="14.4" fill="#3da44d" fill-rule="evenodd" fill-opacity="1" stroke="#000000" stroke-opacity="1" stroke-width="4.8"/>
<circle clip-path="url(#clip942)" cx="551.584" cy="1954.97" r="14.4" fill="#3da44d" fill-rule="evenodd" fill-opacity="1" stroke="#000000" stroke-opacity="1" stroke-width="4.8"/>
<circle clip-path="url(#clip942)" cx="654.932" cy="1860.99" r="14.4" fill="#3da44d" fill-rule="evenodd" fill-opacity="1" stroke="#000000" stroke-opacity="1" stroke-width="4.8"/>
<circle clip-path="url(#clip942)" cx="758.28" cy="1768.77" r="14.4" fill="#3da44d" fill-rule="evenodd" fill-opacity="1" stroke="#000000" stroke-opacity="1" stroke-width="4.8"/>
<circle clip-path="url(#clip942)" cx="861.629" cy="1676.74" r="14.4" fill="#3da44d" fill-rule="evenodd" fill-opacity="1" stroke="#000000" stroke-opacity="1" stroke-width="4.8"/>
<circle clip-path="url(#clip942)" cx="964.977" cy="1584.62" r="14.4" fill="#3da44d" fill-rule="evenodd" fill-opacity="1" stroke="#000000" stroke-opacity="1" stroke-width="4.8"/>
<circle clip-path="url(#clip942)" cx="1068.33" cy="1492.42" r="14.4" fill="#3da44d" fill-rule="evenodd" fill-opacity="1" stroke="#000000" stroke-opacity="1" stroke-width="4.8"/>
<circle clip-path="url(#clip942)" cx="1171.67" cy="1400.22" r="14.4" fill="#3da44d" fill-rule="evenodd" fill-opacity="1" stroke="#000000" stroke-opacity="1" stroke-width="4.8"/>
<circle clip-path="url(#clip942)" cx="1275.02" cy="1307.58" r="14.4" fill="#3da44d" fill-rule="evenodd" fill-opacity="1" stroke="#000000" stroke-opacity="1" stroke-width="4.8"/>
<circle clip-path="url(#clip942)" cx="1378.37" cy="1214.71" r="14.4" fill="#3da44d" fill-rule="evenodd" fill-opacity="1" stroke="#000000" stroke-opacity="1" stroke-width="4.8"/>
<circle clip-path="url(#clip942)" cx="1481.72" cy="1122.02" r="14.4" fill="#3da44d" fill-rule="evenodd" fill-opacity="1" stroke="#000000" stroke-opacity="1" stroke-width="4.8"/>
<circle clip-path="url(#clip942)" cx="1585.07" cy="1027.66" r="14.4" fill="#3da44d" fill-rule="evenodd" fill-opacity="1" stroke="#000000" stroke-opacity="1" stroke-width="4.8"/>
<circle clip-path="url(#clip942)" cx="1688.41" cy="933.608" r="14.4" fill="#3da44d" fill-rule="evenodd" fill-opacity="1" stroke="#000000" stroke-opacity="1" stroke-width="4.8"/>
<circle clip-path="url(#clip942)" cx="1791.76" cy="838.136" r="14.4" fill="#3da44d" fill-rule="evenodd" fill-opacity="1" stroke="#000000" stroke-opacity="1" stroke-width="4.8"/>
<circle clip-path="url(#clip942)" cx="1895.11" cy="740.1" r="14.4" fill="#3da44d" fill-rule="evenodd" fill-opacity="1" stroke="#000000" stroke-opacity="1" stroke-width="4.8"/>
<circle clip-path="url(#clip942)" cx="1998.46" cy="639.05" r="14.4" fill="#3da44d" fill-rule="evenodd" fill-opacity="1" stroke="#000000" stroke-opacity="1" stroke-width="4.8"/>
<circle clip-path="url(#clip942)" cx="2101.81" cy="535.575" r="14.4" fill="#3da44d" fill-rule="evenodd" fill-opacity="1" stroke="#000000" stroke-opacity="1" stroke-width="4.8"/>
<circle clip-path="url(#clip942)" cx="2205.16" cy="414.428" r="14.4" fill="#3da44d" fill-rule="evenodd" fill-opacity="1" stroke="#000000" stroke-opacity="1" stroke-width="4.8"/>
<circle clip-path="url(#clip942)" cx="2308.5" cy="229.341" r="14.4" fill="#3da44d" fill-rule="evenodd" fill-opacity="1" stroke="#000000" stroke-opacity="1" stroke-width="4.8"/>
<polyline clip-path="url(#clip942)" style="stroke:#c271d2; stroke-linecap:round; stroke-linejoin:round; stroke-width:4; stroke-opacity:1; fill:none" points="861.629,2090.03 964.977,1974.87 1068.33,1851.75 1171.67,1728.91 1275.02,1605.48 1378.37,1481.81 1481.72,1358.48 1585.07,1233.09 1688.41,1108.35 1791.76,981.802 1895.11,852.034 1998.46,718.203 2101.81,576.89 2205.16,404.831 2308.5,238.019 "/>
<circle clip-path="url(#clip942)" cx="861.629" cy="2090.03" r="14.4" fill="#c271d2" fill-rule="evenodd" fill-opacity="1" stroke="#000000" stroke-opacity="1" stroke-width="4.8"/>
<circle clip-path="url(#clip942)" cx="964.977" cy="1974.87" r="14.4" fill="#c271d2" fill-rule="evenodd" fill-opacity="1" stroke="#000000" stroke-opacity="1" stroke-width="4.8"/>
<circle clip-path="url(#clip942)" cx="1068.33" cy="1851.75" r="14.4" fill="#c271d2" fill-rule="evenodd" fill-opacity="1" stroke="#000000" stroke-opacity="1" stroke-width="4.8"/>
<circle clip-path="url(#clip942)" cx="1171.67" cy="1728.91" r="14.4" fill="#c271d2" fill-rule="evenodd" fill-opacity="1" stroke="#000000" stroke-opacity="1" stroke-width="4.8"/>
<circle clip-path="url(#clip942)" cx="1275.02" cy="1605.48" r="14.4" fill="#c271d2" fill-rule="evenodd" fill-opacity="1" stroke="#000000" stroke-opacity="1" stroke-width="4.8"/>
<circle clip-path="url(#clip942)" cx="1378.37" cy="1481.81" r="14.4" fill="#c271d2" fill-rule="evenodd" fill-opacity="1" stroke="#000000" stroke-opacity="1" stroke-width="4.8"/>
<circle clip-path="url(#clip942)" cx="1481.72" cy="1358.48" r="14.4" fill="#c271d2" fill-rule="evenodd" fill-opacity="1" stroke="#000000" stroke-opacity="1" stroke-width="4.8"/>
<circle clip-path="url(#clip942)" cx="1585.07" cy="1233.09" r="14.4" fill="#c271d2" fill-rule="evenodd" fill-opacity="1" stroke="#000000" stroke-opacity="1" stroke-width="4.8"/>
<circle clip-path="url(#clip942)" cx="1688.41" cy="1108.35" r="14.4" fill="#c271d2" fill-rule="evenodd" fill-opacity="1" stroke="#000000" stroke-opacity="1" stroke-width="4.8"/>
<circle clip-path="url(#clip942)" cx="1791.76" cy="981.802" r="14.4" fill="#c271d2" fill-rule="evenodd" fill-opacity="1" stroke="#000000" stroke-opacity="1" stroke-width="4.8"/>
<circle clip-path="url(#clip942)" cx="1895.11" cy="852.034" r="14.4" fill="#c271d2" fill-rule="evenodd" fill-opacity="1" stroke="#000000" stroke-opacity="1" stroke-width="4.8"/>
<circle clip-path="url(#clip942)" cx="1998.46" cy="718.203" r="14.4" fill="#c271d2" fill-rule="evenodd" fill-opacity="1" stroke="#000000" stroke-opacity="1" stroke-width="4.8"/>
<circle clip-path="url(#clip942)" cx="2101.81" cy="576.89" r="14.4" fill="#c271d2" fill-rule="evenodd" fill-opacity="1" stroke="#000000" stroke-opacity="1" stroke-width="4.8"/>
<circle clip-path="url(#clip942)" cx="2205.16" cy="404.831" r="14.4" fill="#c271d2" fill-rule="evenodd" fill-opacity="1" stroke="#000000" stroke-opacity="1" stroke-width="4.8"/>
<circle clip-path="url(#clip942)" cx="2308.5" cy="238.019" r="14.4" fill="#c271d2" fill-rule="evenodd" fill-opacity="1" stroke="#000000" stroke-opacity="1" stroke-width="4.8"/>
<path clip-path="url(#clip940)" d="M410.341 398.695 L749.688 398.695 L749.688 139.495 L410.341 139.495  Z" fill="#ffffff" fill-rule="evenodd" fill-opacity="1"/>
<polyline clip-path="url(#clip940)" style="stroke:#000000; stroke-linecap:round; stroke-linejoin:round; stroke-width:4; stroke-opacity:1; fill:none" points="410.341,398.695 749.688,398.695 749.688,139.495 410.341,139.495 410.341,398.695 "/>
<polyline clip-path="url(#clip940)" style="stroke:#009af9; stroke-linecap:round; stroke-linejoin:round; stroke-width:4; stroke-opacity:1; fill:none" points="432.159,191.335 563.067,191.335 "/>
<circle clip-path="url(#clip940)" cx="497.613" cy="191.335" r="18.1816" fill="#009af9" fill-rule="evenodd" fill-opacity="1" stroke="#000000" stroke-opacity="1" stroke-width="6.82667"/>
<path clip-path="url(#clip940)" d="M584.885 174.055 L606.737 174.055 L606.737 177.99 L589.561 177.99 L589.561 188.222 L606.019 188.222 L606.019 192.157 L589.561 192.157 L589.561 204.68 L607.153 204.68 L607.153 208.615 L584.885 208.615 L584.885 174.055 Z" fill="#000000" fill-rule="nonzero" fill-opacity="1" /><path clip-path="url(#clip940)" d="M614.214 198.384 L614.214 182.689 L618.473 182.689 L618.473 198.222 Q618.473 201.902 619.908 203.754 Q621.343 205.583 624.214 205.583 Q627.663 205.583 629.653 203.384 Q631.667 201.184 631.667 197.388 L631.667 182.689 L635.926 182.689 L635.926 208.615 L631.667 208.615 L631.667 204.634 Q630.116 206.995 628.056 208.152 Q626.019 209.286 623.311 209.286 Q618.843 209.286 616.528 206.508 Q614.214 203.731 614.214 198.384 M624.931 182.064 L624.931 182.064 Z" fill="#000000" fill-rule="nonzero" fill-opacity="1" /><path clip-path="url(#clip940)" d="M644.7 172.597 L648.959 172.597 L648.959 208.615 L644.7 208.615 L644.7 172.597 Z" fill="#000000" fill-rule="nonzero" fill-opacity="1" /><path clip-path="url(#clip940)" d="M680.047 194.587 L680.047 196.671 L660.463 196.671 Q660.741 201.069 663.102 203.384 Q665.486 205.675 669.723 205.675 Q672.176 205.675 674.468 205.073 Q676.783 204.471 679.051 203.268 L679.051 207.296 Q676.76 208.268 674.352 208.777 Q671.945 209.286 669.468 209.286 Q663.264 209.286 659.63 205.675 Q656.019 202.064 656.019 195.907 Q656.019 189.541 659.445 185.814 Q662.894 182.064 668.727 182.064 Q673.959 182.064 676.991 185.444 Q680.047 188.8 680.047 194.587 M675.787 193.337 Q675.741 189.842 673.82 187.759 Q671.922 185.675 668.773 185.675 Q665.209 185.675 663.056 187.689 Q660.926 189.703 660.602 193.36 L675.787 193.337 Z" fill="#000000" fill-rule="nonzero" fill-opacity="1" /><path clip-path="url(#clip940)" d="M702.06 186.671 Q701.343 186.254 700.486 186.069 Q699.653 185.86 698.634 185.86 Q695.023 185.86 693.079 188.222 Q691.158 190.56 691.158 194.958 L691.158 208.615 L686.875 208.615 L686.875 182.689 L691.158 182.689 L691.158 186.717 Q692.5 184.356 694.653 183.222 Q696.806 182.064 699.884 182.064 Q700.324 182.064 700.857 182.134 Q701.389 182.18 702.037 182.296 L702.06 186.671 Z" fill="#000000" fill-rule="nonzero" fill-opacity="1" /><polyline clip-path="url(#clip940)" style="stroke:#e26f46; stroke-linecap:round; stroke-linejoin:round; stroke-width:4; stroke-opacity:1; fill:none" points="432.159,243.175 563.067,243.175 "/>
<circle clip-path="url(#clip940)" cx="497.613" cy="243.175" r="18.1816" fill="#e26f46" fill-rule="evenodd" fill-opacity="1" stroke="#000000" stroke-opacity="1" stroke-width="6.82667"/>
<path clip-path="url(#clip940)" d="M601.274 244.251 Q602.778 244.761 604.19 246.427 Q605.626 248.094 607.061 251.011 L611.806 260.455 L606.783 260.455 L602.362 251.589 Q600.649 248.117 599.028 246.983 Q597.431 245.849 594.654 245.849 L589.561 245.849 L589.561 260.455 L584.885 260.455 L584.885 225.895 L595.441 225.895 Q601.366 225.895 604.283 228.372 Q607.2 230.849 607.2 235.849 Q607.2 239.112 605.672 241.265 Q604.167 243.418 601.274 244.251 M589.561 229.738 L589.561 242.006 L595.441 242.006 Q598.82 242.006 600.533 240.455 Q602.269 238.881 602.269 235.849 Q602.269 232.816 600.533 231.288 Q598.82 229.738 595.441 229.738 L589.561 229.738 Z" fill="#000000" fill-rule="nonzero" fill-opacity="1" /><path clip-path="url(#clip940)" d="M615.07 250.224 L615.07 234.529 L619.329 234.529 L619.329 250.062 Q619.329 253.742 620.764 255.594 Q622.2 257.423 625.07 257.423 Q628.519 257.423 630.51 255.224 Q632.524 253.024 632.524 249.228 L632.524 234.529 L636.783 234.529 L636.783 260.455 L632.524 260.455 L632.524 256.474 Q630.973 258.835 628.913 259.992 Q626.876 261.126 624.167 261.126 Q619.7 261.126 617.385 258.348 Q615.07 255.571 615.07 250.224 M625.788 233.904 L625.788 233.904 Z" fill="#000000" fill-rule="nonzero" fill-opacity="1" /><path clip-path="url(#clip940)" d="M667.107 244.807 L667.107 260.455 L662.848 260.455 L662.848 244.946 Q662.848 241.265 661.412 239.437 Q659.977 237.608 657.107 237.608 Q653.658 237.608 651.667 239.807 Q649.676 242.006 649.676 245.802 L649.676 260.455 L645.394 260.455 L645.394 234.529 L649.676 234.529 L649.676 238.557 Q651.204 236.219 653.264 235.062 Q655.348 233.904 658.056 233.904 Q662.524 233.904 664.815 236.682 Q667.107 239.437 667.107 244.807 Z" fill="#000000" fill-rule="nonzero" fill-opacity="1" /><path clip-path="url(#clip940)" d="M692.662 247.191 Q692.662 242.562 690.741 240.015 Q688.843 237.469 685.394 237.469 Q681.968 237.469 680.047 240.015 Q678.148 242.562 678.148 247.191 Q678.148 251.798 680.047 254.344 Q681.968 256.89 685.394 256.89 Q688.843 256.89 690.741 254.344 Q692.662 251.798 692.662 247.191 M696.921 257.237 Q696.921 263.858 693.982 267.075 Q691.042 270.316 684.977 270.316 Q682.732 270.316 680.741 269.969 Q678.75 269.645 676.875 268.95 L676.875 264.807 Q678.75 265.825 680.579 266.311 Q682.408 266.798 684.306 266.798 Q688.496 266.798 690.579 264.598 Q692.662 262.423 692.662 258.001 L692.662 255.895 Q691.343 258.186 689.283 259.321 Q687.222 260.455 684.352 260.455 Q679.584 260.455 676.667 256.821 Q673.75 253.186 673.75 247.191 Q673.75 241.173 676.667 237.538 Q679.584 233.904 684.352 233.904 Q687.222 233.904 689.283 235.038 Q691.343 236.173 692.662 238.464 L692.662 234.529 L696.921 234.529 L696.921 257.237 Z" fill="#000000" fill-rule="nonzero" fill-opacity="1" /><path clip-path="url(#clip940)" d="M727.87 246.427 L727.87 248.511 L708.287 248.511 Q708.565 252.909 710.926 255.224 Q713.31 257.515 717.546 257.515 Q720 257.515 722.292 256.913 Q724.607 256.311 726.875 255.108 L726.875 259.136 Q724.583 260.108 722.176 260.617 Q719.769 261.126 717.292 261.126 Q711.088 261.126 707.454 257.515 Q703.843 253.904 703.843 247.747 Q703.843 241.381 707.269 237.654 Q710.718 233.904 716.551 233.904 Q721.782 233.904 724.815 237.284 Q727.87 240.64 727.87 246.427 M723.611 245.177 Q723.565 241.682 721.644 239.599 Q719.745 237.515 716.597 237.515 Q713.033 237.515 710.88 239.529 Q708.75 241.543 708.426 245.2 L723.611 245.177 Z" fill="#000000" fill-rule="nonzero" fill-opacity="1" /><polyline clip-path="url(#clip940)" style="stroke:#3da44d; stroke-linecap:round; stroke-linejoin:round; stroke-width:4; stroke-opacity:1; fill:none" points="432.159,295.015 563.067,295.015 "/>
<circle clip-path="url(#clip940)" cx="497.613" cy="295.015" r="18.1816" fill="#3da44d" fill-rule="evenodd" fill-opacity="1" stroke="#000000" stroke-opacity="1" stroke-width="6.82667"/>
<path clip-path="url(#clip940)" d="M584.885 277.735 L589.561 277.735 L589.561 291.902 L606.552 291.902 L606.552 277.735 L611.227 277.735 L611.227 312.295 L606.552 312.295 L606.552 295.837 L589.561 295.837 L589.561 312.295 L584.885 312.295 L584.885 277.735 Z" fill="#000000" fill-rule="nonzero" fill-opacity="1" /><path clip-path="url(#clip940)" d="M642.524 298.267 L642.524 300.351 L622.94 300.351 Q623.218 304.749 625.579 307.064 Q627.964 309.355 632.2 309.355 Q634.653 309.355 636.945 308.753 Q639.26 308.151 641.528 306.948 L641.528 310.976 Q639.237 311.948 636.829 312.457 Q634.422 312.966 631.945 312.966 Q625.741 312.966 622.107 309.355 Q618.496 305.744 618.496 299.587 Q618.496 293.221 621.922 289.494 Q625.371 285.744 631.204 285.744 Q636.436 285.744 639.468 289.124 Q642.524 292.48 642.524 298.267 M638.264 297.017 Q638.218 293.522 636.297 291.439 Q634.399 289.355 631.251 289.355 Q627.686 289.355 625.533 291.369 Q623.403 293.383 623.079 297.04 L638.264 297.017 Z" fill="#000000" fill-rule="nonzero" fill-opacity="1" /><path clip-path="url(#clip940)" d="M649.075 302.064 L649.075 286.369 L653.334 286.369 L653.334 301.902 Q653.334 305.582 654.769 307.434 Q656.204 309.263 659.074 309.263 Q662.524 309.263 664.514 307.064 Q666.528 304.864 666.528 301.068 L666.528 286.369 L670.787 286.369 L670.787 312.295 L666.528 312.295 L666.528 308.314 Q664.977 310.675 662.917 311.832 Q660.88 312.966 658.172 312.966 Q653.704 312.966 651.389 310.188 Q649.075 307.411 649.075 302.064 M659.792 285.744 L659.792 285.744 Z" fill="#000000" fill-rule="nonzero" fill-opacity="1" /><path clip-path="url(#clip940)" d="M701.111 296.647 L701.111 312.295 L696.852 312.295 L696.852 296.786 Q696.852 293.105 695.417 291.277 Q693.982 289.448 691.111 289.448 Q687.662 289.448 685.672 291.647 Q683.681 293.846 683.681 297.642 L683.681 312.295 L679.398 312.295 L679.398 286.369 L683.681 286.369 L683.681 290.397 Q685.209 288.059 687.269 286.902 Q689.352 285.744 692.06 285.744 Q696.528 285.744 698.82 288.522 Q701.111 291.277 701.111 296.647 Z" fill="#000000" fill-rule="nonzero" fill-opacity="1" /><polyline clip-path="url(#clip940)" style="stroke:#c271d2; stroke-linecap:round; stroke-linejoin:round; stroke-width:4; stroke-opacity:1; fill:none" points="432.159,346.855 563.067,346.855 "/>
<circle clip-path="url(#clip940)" cx="497.613" cy="346.855" r="18.1816" fill="#c271d2" fill-rule="evenodd" fill-opacity="1" stroke="#000000" stroke-opacity="1" stroke-width="6.82667"/>
<path clip-path="url(#clip940)" d="M601.274 347.931 Q602.778 348.441 604.19 350.107 Q605.626 351.774 607.061 354.691 L611.806 364.135 L606.783 364.135 L602.362 355.269 Q600.649 351.797 599.028 350.663 Q597.431 349.529 594.654 349.529 L589.561 349.529 L589.561 364.135 L584.885 364.135 L584.885 329.575 L595.441 329.575 Q601.366 329.575 604.283 332.052 Q607.2 334.529 607.2 339.529 Q607.2 342.792 605.672 344.945 Q604.167 347.098 601.274 347.931 M589.561 333.418 L589.561 345.686 L595.441 345.686 Q598.82 345.686 600.533 344.135 Q602.269 342.561 602.269 339.529 Q602.269 336.496 600.533 334.968 Q598.82 333.418 595.441 333.418 L589.561 333.418 Z" fill="#000000" fill-rule="nonzero" fill-opacity="1" /><path clip-path="url(#clip940)" d="M617.825 329.575 L622.501 329.575 L622.501 344.181 L638.01 329.575 L644.028 329.575 L626.876 345.686 L645.255 364.135 L639.098 364.135 L622.501 347.492 L622.501 364.135 L617.825 364.135 L617.825 329.575 Z" fill="#000000" fill-rule="nonzero" fill-opacity="1" /><path clip-path="url(#clip940)" d="M662.176 333.649 L650.371 352.098 L662.176 352.098 L662.176 333.649 M660.949 329.575 L666.829 329.575 L666.829 352.098 L671.76 352.098 L671.76 355.987 L666.829 355.987 L666.829 364.135 L662.176 364.135 L662.176 355.987 L646.575 355.987 L646.575 351.473 L660.949 329.575 Z" fill="#000000" fill-rule="nonzero" fill-opacity="1" /></svg>
