<?xml version="1.0" encoding="utf-8"?>
<!-- Generator: Adobe Illustrator 26.2.1, SVG Export Plug-In . SVG Version: 6.00 Build 0)  -->
<svg version="1.1" id="Calque_1" xmlns="http://www.w3.org/2000/svg" xmlns:xlink="http://www.w3.org/1999/xlink" x="0px" y="0px"
	 viewBox="0 0 2189.6 642.8" style="enable-background:new 0 0 2189.6 642.8;" xml:space="preserve">
<style type="text/css">
	.st0{fill:#FFFFFF;}
	.st1{fill:#1E1E1C;}
	.st2{fill:#253473;}
	.st3{fill:#E20E17;}
	.st4{fill:#9C9B9B;}
	.st5{fill:#2B2D46;}
	.st6{fill:#0047BA;}
</style>
<g>
	<g>
		<rect id="SVGID_00000104685953898876888560000000832664186407323280_" class="st0" width="709.8" height="642.8"/>
	</g>
</g>
<g>
	<g>
		<rect id="SVGID_00000127040796625996649120000004370105430450888858_" class="st0" width="709.8" height="642.8"/>
	</g>
</g>
<g>
	<path class="st1" d="M84,209.6h19.3c13.9,0,22.5,7.1,22.5,18.9c0,7.6-3.7,13.3-10.1,16.3l19.9,28h-15.3l-16.8-25.5h-6.6v25.5H84
		V209.6z M96.8,220.5v15.8h7.2c5.4,0,8.6-2.9,8.6-8c0-4.8-3.2-7.8-8.6-7.8H96.8z"/>
	<path class="st1" d="M143.4,209.6h36.8v10.9h-24v14.6h20.4V246h-20.4v15.8h24v10.9h-36.8V209.6z M155.9,204.2l10.2-12.2h13.2
		l-11.7,12.2H155.9z"/>
	<path class="st1" d="M195.1,209.6h20.8c13.9,0,22.4,7.1,22.4,18.9c0,11.6-8.5,18.8-22.4,18.8h-8v25.5h-12.8V209.6z M207.9,220.5
		v15.8h8.6c5.4,0,8.7-2.9,8.7-8c0-4.8-3.2-7.8-8.7-7.8H207.9z"/>
	<path class="st1" d="M286.2,209.6H299V248c0,16.6-9.7,26.5-25.6,26.5c-15.8,0-25.5-9.9-25.5-26.5v-38.4h12.8v39.5
		c0,8.5,4.8,13.4,12.8,13.4c7.9,0,12.7-5,12.7-13.4L286.2,209.6L286.2,209.6z"/>
	<path class="st1" d="M314.9,209.6h18c13.2,0,21.1,6.5,21.1,17.1c0,5.1-2.3,9.5-6.7,12.5c6.7,3,10.4,8.4,10.4,15
		c0,11.5-8.9,18.6-23.5,18.6h-19.3V209.6z M327.7,220.5v13.8h5.4c4.9,0,7.7-2.4,7.7-6.9c0-4.2-2.8-6.9-7.7-6.9L327.7,220.5
		L327.7,220.5z M327.7,245.3v16.5h7.2c6,0,9.6-3.2,9.6-8.4s-3.6-8.1-9.6-8.1L327.7,245.3L327.7,245.3z"/>
	<polygon class="st1" points="370.7,209.6 383.5,209.6 383.5,261.1 407.5,261.1 407.5,272.7 370.7,272.7 	"/>
	<rect x="418.8" y="209.6" class="st1" width="12.8" height="63.2"/>
	<path class="st1" d="M515.5,277.2c1.4,0,3.2-0.2,4.5-0.7v10.8c-2.1,0.8-3.9,1.2-6.7,1.2c-7,0-13.5-2.9-19.8-8.3l-7.5-6.7
		c-2.7,0.7-5.6,1.1-8.7,1.1c-19.9,0-33.6-15.3-33.6-33.4c0-18,13.6-33.4,33.6-33.4c19.9,0,33.5,15.3,33.5,33.4
		c0,10.6-4.7,20.2-12.5,26.3l3.8,3.6C507.1,275.5,511.5,277.2,515.5,277.2 M497.7,241.2c0-12.1-8.5-21.4-20.3-21.4
		c-11.9,0-20.4,9.3-20.4,21.4c0,12.1,8.5,21.4,20.4,21.4C489.3,262.5,497.7,253.2,497.7,241.2"/>
	<path class="st1" d="M560.5,209.6h12.8V248c0,16.6-9.7,26.5-25.6,26.5c-15.8,0-25.5-9.9-25.5-26.5v-38.4H535v39.5
		c0,8.5,4.8,13.4,12.8,13.4c7.9,0,12.7-5,12.7-13.4V209.6z"/>
	<polygon class="st1" points="589.1,209.6 626,209.6 626,220.5 602,220.5 602,235.1 622.4,235.1 622.4,246 602,246 602,261.8 
		626,261.8 626,272.7 589.1,272.7 	"/>
	<polygon class="st1" points="84,300.6 120.8,300.6 120.8,311.6 96.8,311.6 96.8,326.2 117.2,326.2 117.2,337.1 96.8,337.1 
		96.8,363.8 84,363.8 	"/>
	<path class="st1" d="M132.1,300.6h19.3c13.9,0,22.5,7.1,22.5,18.9c0,7.6-3.7,13.3-10.1,16.3l19.9,28h-15.3l-16.8-25.5H145v25.5
		h-12.8L132.1,300.6L132.1,300.6z M144.9,311.6v15.8h7.2c5.4,0,8.6-2.9,8.6-8c0-4.8-3.2-7.8-8.6-7.8H144.9z"/>
	<path class="st1" d="M210.2,300.6H227l23.9,63.2h-13.6l-6-16.4H206l-6,16.4h-13.7L210.2,300.6z M227.2,336.5l-8.7-23.7l-8.7,23.7
		H227.2z"/>
	<polygon class="st1" points="260.6,300.6 277.1,300.6 305.3,345.9 305.3,300.6 318.1,300.6 318.1,363.8 301.7,363.8 273.4,318.4 
		273.4,363.8 260.6,363.8 	"/>
	<path class="st1" d="M380.5,344.9l10.1,7.8c-4.9,6.7-12.5,11.4-21.7,12.5l-7.8,13.1h-11.4l7.9-13.3c-16.4-2.9-27.2-16.8-27.2-32.8
		c0-18,13.6-33.4,33.6-33.4c11.5,0,20.8,5.1,26.6,12.8l-10.1,7.8c-3.6-5.1-9.3-8.7-16.5-8.7c-11.9,0-20.4,9.3-20.4,21.4
		s8.5,21.4,20.4,21.4C371.2,353.6,376.8,350.1,380.5,344.9"/>
	<path class="st1" d="M417.2,300.6H434l23.9,63.2h-13.6l-6-16.4H413l-6,16.4h-13.7L417.2,300.6z M434.2,336.5l-8.7-23.7l-8.7,23.7
		H434.2z"/>
	<rect x="467.6" y="300.6" class="st1" width="12.8" height="63.2"/>
	<path class="st1" d="M501.7,346.5c3.8,4.9,8.8,7.8,14,7.8c5.1,0,8.1-2.7,8.1-7.3c0-11.3-28.9-8.8-28.9-29.8
		c0-10,8.2-18.3,20.2-18.3c9.5,0,16.8,4.2,22.1,10.6l-9.4,8.4c-3.7-4.8-7.9-7.8-12.6-7.8c-4.4,0-7.3,2.9-7.3,6.6
		c0,11.3,28.9,8.7,28.9,30c-0.2,11.7-9.4,18.9-20.9,18.9c-10.6,0-17.9-3.9-23.5-10.6L501.7,346.5z"/>
	<polygon class="st1" points="550.3,300.6 587.1,300.6 587.1,311.6 563.1,311.6 563.1,326.2 583.5,326.2 583.5,337.1 563.1,337.1 
		563.1,352.9 587.1,352.9 587.1,363.8 550.3,363.8 	"/>
	<path class="st1" d="M289.5,538.2c1.7,0,3.2,1.3,2.4,4.6l-8,1.9C285.3,540.9,287.6,538.2,289.5,538.2 M293.9,551h-1.6
		c-2,2.4-4.1,4.2-6.3,4.2c-2.2,0-3.3-1.3-3.3-4.2c0-1.2,0.1-2.4,0.4-3.5l12.8-4.2c2.5-5.9-0.5-8.5-4-8.5c-6.1,0-13,10.1-13,19
		c0,4,1.9,6.2,4.9,6.2C287.3,560,290.9,556.6,293.9,551 M291.3,532.4l9-8.4v-1h-4.9l-5.6,9.4H291.3z M263.6,538.3h4.3l-6.8,18.5
		c-0.6,1.6,0.2,3.1,1.9,3.1c3.8,0,10-3.8,12.2-9H274c-1.7,1.8-5,4.2-7.8,4.7l6.2-17.4h6.3l0.8-2.6h-6.2l2.4-6.7h-2.4l-4.4,6.7
		l-5.2,0.7L263.6,538.3L263.6,538.3z M257.9,537.5c0.5-1.7-0.6-2.7-1.5-2.7c-3.7,0-8.1,3.3-9.9,8h1.2c1.2-1.7,3.2-3.6,5.1-3.9
		l-7.1,18.4c-0.6,1.7,0.6,2.7,1.5,2.7c3.5,0,7.6-3.4,9.4-8h-1.2c-1.2,1.7-3.2,3.6-5.1,3.9L257.9,537.5z M259.2,528.2
		c1.7,0,3.1-1.3,3.1-3.1c0-1.7-1.4-3.1-3.1-3.1s-3.1,1.4-3.1,3.1C256.1,526.9,257.5,528.2,259.2,528.2 M218.4,556.5
		c-0.9,2.1,0,3.4,2.1,3.4c1.2,0,1.8-0.3,2.3-1.7l4.9-13c2.3-2.8,6.9-5.7,8.8-5.7c1.3,0,1.2,1.1,0.3,2.8l-7.5,14.5
		c-0.7,1.4,0.2,3.1,1.9,3.1c3.7,0,8.1-3.3,9.9-8h-1.2c-1.2,1.7-3.2,3.6-5.1,3.9l6.5-13.1c0.8-1.7,1.3-3.2,1.3-4.5
		c0-2.1-1.2-3.5-3.4-3.5c-3.2,0-6.4,3.6-10.3,8.1v-3.4c0-2.5-0.8-4.6-3-4.6c-1.4,0-2.7,1.2-4,2.9v0.5c2.4-0.1,3.5,3.5,1.8,7.3
		L218.4,556.5z M218.3,540.4c0.9-3,0.4-5.7-1.9-5.7c-2.7,0-3.4,2.1-6.2,8.1v-3.4c0-2.5-0.8-4.6-3-4.6c-2.6,0-5,4-6.8,8h1.2
		c1.2-1.8,2.4-2.9,3.3-2.9c1.1,0,1.7,1.7,0,5.5l-5,11.1c-0.9,2.1,0,3.4,2.1,3.4c1.3,0,1.8-0.3,2.3-1.7l4.9-13
		c1.4-1.7,2.6-3.2,4.2-4.9h4.9V540.4z M189.9,538.2c1.7,0,3.2,1.3,2.4,4.6l-8,1.9C185.7,540.9,188,538.2,189.9,538.2 M194.3,551
		h-1.6c-2,2.4-4.1,4.2-6.3,4.2s-3.3-1.3-3.3-4.2c0-1.2,0.1-2.4,0.4-3.5l12.8-4.2c2.5-5.9-0.5-8.5-4-8.5c-6.1,0-13,10.1-13,19
		c0,4,1.9,6.2,4.9,6.2C187.7,560,191.3,556.6,194.3,551 M164,538.3h4.3l-6.8,18.5c-0.6,1.6,0.2,3.1,1.9,3.1c3.8,0,10-3.8,12.2-9
		h-1.2c-1.7,1.8-5,4.2-7.8,4.7l6.2-17.4h6.3l0.8-2.6h-6.2l2.4-6.7h-2.5l-4.4,6.7l-5.2,0.7V538.3z M140.7,552.7
		c0-5.7,6.3-13.4,9.9-13.4c0.8,0,1.5,0.1,2.2,0.3l-3.7,9.9c-2.1,2.6-5.4,5.7-6.9,5.7C141.2,555.2,140.7,554.5,140.7,552.7
		 M160.1,533.7l-1.9-0.1l-2.2,2.1h-0.5c-10.6,0-19.7,11.9-19.7,20.5c0,2.4,1.5,3.8,3.8,3.8c2.7,0,5.4-3.9,8.4-8.1l-0.1,1.5
		c-0.4,4.3,0.9,6.6,3.1,6.6c2.6,0,5-4,6.8-8h-1.2c-1.2,1.8-2.4,2.9-3.3,2.9c-1,0-1.7-1.8,0-5.5L160.1,533.7z M137.6,540.4
		c0.9-3,0.4-5.7-1.9-5.7c-2.7,0-3.4,2.1-6.2,8.1v-3.4c0-2.5-0.8-4.6-3-4.6c-2.6,0-5,4-6.8,8h1.2c1.2-1.8,2.4-2.9,3.3-2.9
		c1.1,0,1.7,1.7,0,5.5l-5,11.1c-0.9,2.1,0,3.4,2.1,3.4c1.2,0,1.8-0.3,2.3-1.7l4.9-13c1.4-1.7,2.6-3.2,4.2-4.9h4.9V540.4z M102.2,559
		l0.5-1.4c-6.2-1.2-6.9-1.2-4.5-7.9l2.5-6.9h6.8c3.1,0,3.1,1.3,2.6,4.6h1.8l4.1-11.2h-1.8c-1.5,2.6-2.7,4.6-6.1,4.6h-6.7l3.6-9.8
		c1.1-3.1,1.8-3.8,5.9-3.8h3c4.3,0,4.8,1.2,4.8,5.5h1.7l1.4-7.6H96.2l-0.5,1.4c5,1,5.4,1.5,3.1,7.9l-5.5,15.3
		c-2.3,6.3-3.3,6.9-9,7.9l-0.4,1.4H102.2L102.2,559z"/>
	<path class="st1" d="M227.5,480.3c1.7,0,3.2,1.3,2.4,4.6l-8,1.9C223.3,483,225.6,480.3,227.5,480.3 M231.9,493.1h-1.6
		c-2,2.4-4.1,4.2-6.3,4.2s-3.3-1.3-3.3-4.2c0-1.2,0.1-2.4,0.4-3.5l12.8-4.2c2.5-5.9-0.5-8.5-4-8.5c-6.1,0-13,10.1-13,19
		c0,4,1.9,6.2,4.9,6.2C225.3,502.1,228.9,498.7,231.9,493.1 M229.3,474.5l9-8.4v-1h-4.9l-5.6,9.4H229.3z M201.6,480.5h4.3l-6.8,18.5
		c-0.6,1.6,0.2,3.1,1.9,3.1c3.8,0,10-3.8,12.2-9H212c-1.7,1.8-5,4.2-7.8,4.7l6.2-17.4h6.3l0.8-2.6h-6.2l2.4-6.7h-2.4l-4.4,6.7
		l-5.2,0.7v2L201.6,480.5L201.6,480.5z M195.9,479.6c0.5-1.7-0.6-2.7-1.5-2.7c-3.7,0-8.1,3.3-9.9,8h1.2c1.2-1.7,3.2-3.6,5.1-3.9
		l-7.1,18.4c-0.6,1.7,0.6,2.7,1.5,2.7c3.5,0,7.6-3.4,9.4-8h-1.2c-1.2,1.7-3.2,3.6-5.1,3.9L195.9,479.6z M197.2,470.3
		c1.7,0,3.1-1.3,3.1-3.1c0-1.7-1.4-3.1-3.1-3.1c-1.7,0-3.1,1.4-3.1,3.1C194.1,469,195.5,470.3,197.2,470.3 M172.6,498l12.9-33.8
		l-0.4-0.5l-8.1,0.9v1l1.6,1.2c1.4,1.1,1,2.2-0.3,5.6L168.2,499c-0.7,1.4,0.2,3.1,1.9,3.1c3.7,0,7.6-3.3,9.4-8h-1.2
		C177,495.8,174.5,497.7,172.6,498 M148,494.9c0-5.7,6.3-13.4,9.9-13.4c0.8,0,1.5,0.1,2.2,0.3l-3.7,9.9c-2.1,2.6-5.4,5.7-6.9,5.7
		C148.6,497.3,148,496.6,148,494.9 M167.5,475.8l-1.9-0.1l-2.2,2.1h-0.5c-10.6,0-19.7,11.9-19.7,20.5c0,2.4,1.5,3.8,3.8,3.8
		c2.7,0,5.4-3.9,8.4-8.1l-0.1,1.5c-0.4,4.3,0.9,6.6,3.1,6.6c2.6,0,5-4,6.8-8H164c-1.3,1.8-2.4,2.9-3.3,2.9c-1,0-1.7-1.8,0-5.5
		L167.5,475.8z M120.4,506.6c0-2.5,2.4-4,5.7-5.3c1.1,0.6,2.8,1.2,5,1.9c3.5,1.2,4.9,1.6,4.9,2.7c0,2.3-3.8,4-9.1,4
		C122.5,509.8,120.4,508.9,120.4,506.6 M130,491.6c-1.5,0-2.1-1.3-2.1-2.8c0-4.1,2.2-10.2,5.7-10.2c1.5,0,2.1,1.3,2.1,2.8
		C135.7,485.5,133.4,491.6,130,491.6 M140,504.3c0-3-2.6-4-6.9-5.3c-3.7-1.1-5.4-1.4-5.4-2.6c0-1,0.8-2.1,2.4-3
		c6.1-0.3,10-5.8,10-10.4c0-1-0.2-1.8-0.5-2.5h5.1l0.8-2.6h-8.2c-1-0.6-2.1-0.9-3.3-0.9c-6.4,0-10.6,5.6-10.6,10.2
		c0,3.5,2.2,5.6,4.9,6.2c-3,1.3-4.7,2.9-4.7,4.8c0,1.1,0.4,1.8,1.2,2.5c-6.9,2-9.7,4.4-9.7,7.6s4.2,4.5,9.2,4.5
		C132.9,512.7,140,508.1,140,504.3 M107.6,484.5c3.1,0,3.1,1.3,2.6,4.6h1.8l4.1-11.2h-1.8c-1.5,2.6-2.7,4.6-6.1,4.6h-6.7l3.4-9.3
		c1.1-3.1,1.8-3.7,5.9-3.7h3c4.3,0,4.8,1.2,4.8,5.5h1.7l1.4-7.6H96.2l-0.5,1.4c5,1,5.4,1.5,3.1,7.9l-5.5,15.1
		c-2.3,6.3-3.3,6.9-9,7.9l-0.4,1.4h28.4l5.1-8.1h-1.9c-3.2,3.1-7.3,6-13,6c-7.5,0-6.9-0.3-4.4-7.2l2.7-7.4h6.8
		C107.6,484.4,107.6,484.5,107.6,484.5z M111.3,465.1l9-6.2v-1h-5.5l-5,7.2H111.3z"/>
	<path class="st1" d="M224.5,422.4c1.7,0,3.2,1.3,2.4,4.6l-8,1.9C220.3,425.2,222.6,422.4,224.5,422.4 M228.9,435.3h-1.6
		c-2,2.4-4.1,4.2-6.3,4.2s-3.3-1.3-3.3-4.2c0-1.2,0.1-2.4,0.4-3.5l12.8-4.2c2.5-5.9-0.5-8.5-4-8.5c-6.1,0-13,10.1-13,19
		c0,4,1.9,6.2,4.9,6.2C222.3,444.2,225.9,440.8,228.9,435.3 M226.3,416.6l9-8.4v-1h-4.9l-5.6,9.4H226.3z M199.8,422.6h3.4l-6.8,18.5
		c-0.6,1.6,0.2,3.1,1.9,3.1c3.8,0,10-3.8,12.2-9h-1.2c-1.7,1.8-5,4.2-7.8,4.7l6.2-17.4h6.3l0.8-2.6h-6.2l2.4-6.7h-2.5l-4.4,6.7
		l-4.4,0.7L199.8,422.6L199.8,422.6z M196.4,424.7c0.9-3,0.4-5.6-1.9-5.6c-2.7,0-3.4,2.1-6.2,8.1v-3.4c0-2.5-0.8-4.6-3-4.6
		c-2.6,0-5,4-6.8,8h1.2c1.2-1.8,2.4-2.9,3.3-2.9c1.1,0,1.7,1.7,0,5.5l-5,11.1c-0.9,2.1,0,3.4,2.1,3.4c1.2,0,1.8-0.3,2.3-1.7l4.9-13
		c1.4-1.7,2.6-3.2,4.2-4.9H196.4z M168,422.4c1.7,0,3.2,1.3,2.4,4.6l-8,1.9C163.8,425.2,166.2,422.4,168,422.4 M172.4,435.3h-1.6
		c-2,2.4-4.1,4.2-6.3,4.2s-3.3-1.3-3.3-4.2c0-1.2,0.1-2.4,0.4-3.5l12.8-4.2c2.5-5.9-0.5-8.5-4-8.5c-6.1,0-13,10.1-13,19
		c0,4,1.9,6.2,4.9,6.2C165.8,444.2,169.5,440.8,172.4,435.3 M141,440.4c-1.2,0-3.1-1.2-3.1-2.2c0-0.3,0.6-1.8,1.2-3.6l2.1-5.5
		c2.2-2.6,5.6-5.5,7.5-5.5c1.2,0,2,0.7,2,2.5C150.8,431.2,146.1,440.4,141,440.4 M155.6,424.1c0-3.8-1.4-5.1-4-5.1
		c-3.2,0-6.3,3.4-9.4,7.6l7.7-20.3l-0.4-0.5l-8.1,0.9v1l1.6,1.2c1.4,1.1,1,2.3-0.3,5.6l-8.3,21.5c-0.6,1.6-1.3,3.4-1.3,3.9
		c0,2.2,3,4.3,5.7,4.3C145,444.2,155.6,432.9,155.6,424.1 M130.4,421.7c0.5-1.7-0.6-2.7-1.5-2.7c-3.7,0-8.1,3.3-9.9,8h1.2
		c1.2-1.7,3.2-3.6,5.1-3.9l-7.1,18.4c-0.6,1.7,0.6,2.7,1.5,2.7c3.5,0,7.6-3.4,9.4-8h-1.2c-1.2,1.7-3.2,3.6-5.1,3.9L130.4,421.7z
		 M131.7,412.4c1.7,0,3.1-1.3,3.1-3.1c0-1.7-1.4-3.1-3.1-3.1c-1.7,0-3.1,1.4-3.1,3.1C128.6,411.1,130,412.4,131.7,412.4 M113,409.5
		H96.2l-0.5,1.4c5,1,5.4,1.5,3.1,7.9L93.3,434c-2.3,6.3-3.3,6.9-9,7.9l-0.4,1.4h25.7l5.6-9.9h-1.9c-3.1,3.5-6.9,7.8-12.5,7.8
		c-4.3,0-4.8-0.7-2.5-7.2l5.5-15.2c2.3-6.3,3.3-6.9,9-7.9L113,409.5z"/>
	<path class="st2" d="M179.1,157.8c0.9-0.9,1.8-1.9,2.7-2.8l0,0c1.7-1.9,3.3-3.7,5.3-5.4c0.6-0.5,1.2-1,1.7-1.4
		c0.2-0.2,0.2-0.5,0.3-0.6c-0.8,0.3-1.3,1-2.1,1.3c-0.2,0-0.3-0.2-0.2-0.3c0.6-0.4,1.1-0.8,1.7-1.3h-0.1c-0.2,0-0.2-0.2-0.2-0.3
		c-2.1-0.3-3.6,1.1-5.1,2.4c-0.3,0.2-0.6-0.2-0.8-0.2c-2.4,0.8-4.1,2.9-6.5,3.8v-0.3c-1,0.3-1.9,0.9-2.9,1.1c-1.4,0.3-2.7,0.2-4,0.2
		c-1.9,0.2-3.8,0.6-5.8,1c-0.1,0-0.1,0-0.2,0c-1,0.3-2,0.7-3,1.2c0,0-0.1,0-0.1,0.1c-0.1,0.1-0.2,0.2-0.2,0.3
		c-0.3,0.4-0.6,0.7-1.1,0.9c-1,0.5-1.8,1.4-2.6,2.1c-0.1,0.1-0.2,0.1-0.3,0.1c-0.9,0.8-1.7,1.6-2.6,2.4c-0.1,0.1-0.3,0.1-0.5,0.1
		l0,0c0,0,0.1-0.1,0.1-0.2c0.1-0.2,0.3-0.4,0.4-0.7c0.2-0.2,0.3-0.5,0.5-0.7c0.2-0.3,0.4-0.7,0.7-1c0.1-0.1,0-0.2,0-0.2
		c0-0.1-0.1-0.1-0.2-0.1c0.8-0.8,1.7-1.4,2.7-2l0,0c-0.1,0-0.3,0-0.2-0.2c0.1-0.1,0.2-0.3,0.3-0.4c0,0,0-0.1,0.1-0.1l-0.1-0.1
		c-0.3,0.2-0.5,0.3-0.7,0.5c-0.4,0.3-0.7,1-1.3,1c0,0-0.1,0-0.2,0c-0.1,0-0.1,0-0.2-0.1l0,0l0,0l0,0l0.1-0.1l0.1-0.1
		c0,0,0-0.1,0.1-0.1c0-0.1,0.1-0.1,0.1-0.2l0.1-0.1c0.1-0.1,0.1-0.2,0.2-0.3c0-0.1,0.1-0.1,0.1-0.2c0.1-0.1,0.1-0.2,0.2-0.3
		c0.1-0.1,0-0.2-0.1-0.3c0.3-0.4,0.7-0.7,1.1-0.9l0,0c0.6-0.3,1.2-0.7,1.8-1c0.1-0.1,0.2-0.2,0.3-0.2c-0.9,0.3-1.7,0.7-2.5,1.2
		c0,0-0.2,0.1-0.3,0.1c0,0-0.2,0.1-0.4-0.1v-0.1c0.2-0.3,0.6-0.5,1-0.8c0.2,0,0.3,0,0.3,0.2c5.1-4,12-3,17.9-5.1
		c0.5-0.3,0.9-0.6,1.4-0.9c0.8-0.3,1.4-1.1,2.4-1.6c1.3-1,2.2-2.1,2.7-3.6c0-0.2-0.2-0.3-0.2-0.3c-2.1,2.2-4.4,4-7,5.2
		c-3.3,1.7-7,1.4-10.5,1.9c0.2-0.3,0.5-0.3,0.8-0.3c0-0.5,0.3-0.6,0.6-1h0.5c0.2,0,0.2-0.3,0.3-0.3c0.3,0,0.8-0.2,0.6-0.2
		c-0.5-0.6-1.4,0.5-2.2,0c0.3-0.3,0.2-0.8,0.5-1h0.6c0-0.3,0.3-0.6,0.3-0.6c2.4-1.4,4.6-2.5,6.8-3.8c-0.5,0-0.8,0.5-1.3,0.2
		c0.3,0,0-0.5,0.3-0.5c1.7-0.5,3.2-1.4,4.9-2.1c-0.6,0-1.1,0.5-1.7,0c0.3-0.2,0.5-0.5,0.9-0.5v-0.5c0-0.2,0.2-0.2,0.3-0.2
		c-0.2,0-0.3-0.2-0.3-0.2c0.2-0.3,0.6-0.2,1-0.5c-0.2,0-0.5,0-0.5-0.2c0.5-0.6,1.3-0.8,2.1-1c-0.2-0.3-0.6,0-0.6-0.3
		c0-0.2,0.2-0.2,0.3-0.2h-0.3c-0.3-0.2-0.2-0.5-0.2-0.6c1-1.1,1-2.5,1.4-3.8c-0.2,0-0.3,0-0.3-0.2c-1.6,1.7-4.1,2.4-6.5,3h-0.8
		c-0.8,0.3-1.9,0.3-2.7-0.2c-0.6-0.3-1-0.8-1.6-1.3c-1.3-0.8-2.5-1.4-4-1.9c-4-1.3-8.1-1.9-12.2-1.7c1.7-1,3.7-1,5.5-1.6
		c2.7-0.8,5.2-1.7,8.1-1.6c-0.5-0.2-1.1,0-1.6,0c-2.2-0.2-4.4,0.5-6.8,1c-1.6,0.3-3,1-4.6,1.3c-0.9,0.3-1.4,1.3-2.5,1.1V130
		c1.6-1.9,3.5-3.8,6-4c2.9-0.5,5.5,0,8.4,0.3c2.1,0.2,4,0.6,6,1.1c0.8,0,1,1.3,1.6,1.4c1,0.3,1.9,0,2.9,0.6c0-0.3-0.2-0.6,0-1
		c0.6-0.6,1.4,0.2,2.1-0.2c1.3-0.8-1.1-2.2-1.7-3.3c0-0.2,0.2-0.3,0.2-0.3c1.3,1.1,2.2,2.4,3.8,3.2c0.8,0.3,2.7,0.8,2.4-0.2
		c-0.8-1.7-2.4-3.2-3.6-4.8v-0.6c-0.3,0-0.3-0.2-0.5-0.3v-0.6c-0.6-0.3-0.5-1-0.8-1.4c-0.5-0.8-0.2-1.9-0.5-2.9s-0.5-1.7-0.6-2.7
		c-0.5-2.7-1.1-5.1-1.4-7.6c-0.3-3,1.7-5.4,3.2-8.1c1.1-1.9,2.4-3.8,4.4-5.1c0.5-1.9,1.7-3.5,3-5.1c1.3-1.5,3.4-2.5,4.9-3.2
		c2.2-1,4.2-1.6,4.2-1.6H83.7v83.9h77c3-2.2,6-3.2,10.2-5.3C173,161.4,177.5,159.3,179.1,157.8 M154.7,146.4c-0.3,0-1,0.2-0.8-0.2
		c0.2-0.8,1.3-0.8,1.9-1.1c0.3-0.2,0.8-0.5,1.1-0.3c0.3,0.5,0.8,0.3,1.1,0.6C157.1,146.4,155.8,145.9,154.7,146.4 M130.5,142.9
		c0,0-0.2-0.2-0.2-0.3c2.1-2.7,3.6-5.2,5.1-8.1c2.1-1.1,3.8-2.7,5.4-4.4c2.7-2.9,5.5-5.4,8.9-7c1.3-0.5,2.9-0.3,4.1,0.2
		c-0.5,0.6-1.3,0.5-1.9,1c-0.2,0-0.3,0-0.5-0.2c0.2-0.2,0.2-0.3,0.2-0.5c-1.6,1.7-3.8,2.5-5.1,4.6c-1,1.6-1.6,3.6-3.6,4.1
		c-0.6,0.2,0.2-0.5-0.2-0.3C137.8,135,134.3,138.6,130.5,142.9 M143.6,132.5c-0.2,0.3-0.3,0.4-0.5,0.6c-0.2,0.3-0.3,0.5-0.6,0.6
		c-0.2,0-0.3,0-0.3-0.2c0.2-0.6,0.6-1.3,1.3-1.4C143.6,132.1,143.6,132.3,143.6,132.5 M151,156.2c-0.1,0.2-0.2,0.3-0.4,0.5
		c0.2,0,0.3,0.1,0.2,0.2c-0.4,0.3-0.7,0.7-1.2,0.8c0,0-0.1,0-0.2,0c-0.2,0.2-0.4,0.4-0.6,0.6c-0.2,0.2-1.1,0-0.8-0.2
		c0.4-0.4,0.8-0.7,1.2-1.1c0.2-0.2,0.5-0.4,0.7-0.6c0.1-0.1,0.2-0.3,0.3-0.4C150.3,156,151.1,155.9,151,156.2 M148.1,154.9
		L148.1,154.9c-0.6,0.4-1.2,0.9-1.8,1.2c-0.7,0.4-1.4,0.7-2.1,1l0,0c-0.1-0.1-0.2-0.1-0.3-0.1c-0.6,0.3-1.1,0.8-1.6,1.2
		c-0.1,0.1-0.1,0.1-0.2,0.2l0,0l0,0c-0.1,0.1-0.2,0.1-0.2,0.2l0,0l0,0c-0.1,0.1-0.2,0.2-0.3,0.4c-0.1,0.1-0.1,0.2-0.2,0.2
		c-0.1,0.1-0.4,0.1-0.3-0.1l0,0c-0.1,0.1-0.2,0.1-0.3,0.1s-0.2,0.1-0.2,0.1h-0.1h-0.1c-0.2,0.2-0.4,0.3-0.6,0.5
		c-0.3,0.3-0.6,0.6-0.9,1l0,0l0,0c0,0,0,0,0,0.1c0,0,0,0-0.1,0.1l0,0c0,0.1-0.1,0.1-0.1,0.2l0,0l-0.1,0.1c0,0,0-0.1-0.1-0.1v-0.1
		c0-0.1-0.1-0.2-0.1-0.3l0,0v-0.1c0.2-0.2,0.3-0.4,0.5-0.6l0,0c0.1-0.1,0.1-0.1,0.2-0.2c0.1-0.1,0.2-0.2,0.3-0.3l0.1-0.1
		c0.2-0.2,0.3-0.4,0.5-0.7l0,0c0,0,0-0.1,0.1-0.1c0.1-0.1,0.1-0.2,0.2-0.3c0.1-0.1,0.1-0.2,0.2-0.3l0,0l0,0c0,0,0,0,0-0.1
		c0.1-0.1,0.1-0.2,0.2-0.4l0,0v-0.1c0-0.1,0-0.1,0-0.2l0,0l0,0c0-0.1,0-0.2,0.1-0.2V157c0.2-0.3,0.4-0.6,0.6-0.9h-0.1
		c-0.2,0.1-0.4,0.3-0.6,0.5c-0.2,0.1-0.5-0.1-0.3-0.2c0.1-0.1,0.2-0.2,0.4-0.3l0,0c0.3-0.3,0.5-0.6,0.8-0.8c0.2-0.1,0.3-0.2,0.5-0.4
		c0,0,0,0,0.1-0.1s0.2-0.3,0.4-0.4l0,0c1.5-1.5,4.1-1.4,6.1-2.3c0.8-0.3,1.7,0.2,2.5,0c0.5,0,1,0,1.4,0.3
		C150.8,153.2,149.4,154.1,148.1,154.9 M151.4,143.9c-0.2-0.2,0.5,0,0.6-0.3h-1.3c-0.2,0-0.2-0.2-0.2-0.3c-0.8,0.2-1.7,0.5-2.5,0.6
		c-1.1,0.3-2.1,1.1-3.3,1.4c-1.7,0.6-3.2,2.1-5.1,2.7c-0.2,0-0.2-0.2-0.2-0.3c0.2-0.5,0.8-0.6,1.1-1.1c0-0.2,0-0.3-0.2-0.3
		c1.3-1.7,3-2.7,4.6-4.1v-0.5c0.5-0.6,1.3-1,1.6-1.7c0.2-0.5,0.8-1.1,1.6-1.4c-0.2-0.2-0.5-0.2-0.5-0.5c-0.6,0-1.3,0.3-1.9-0.2
		c0.3-0.3,0.6-0.5,1-0.6c-0.1,0-0.3-0.1-0.4-0.2c-0.2-0.3,0.3-0.7,0.8-0.8c0.6-0.2,1.4-0.2,1.9-0.6c-1.1-0.2-2.4,0.3-3.5-0.3
		c0.8-2.1,2.1-3.8,4-4.8c0.2,0,0.5,0,0.5,0.2c0,0.8-0.5,1.4-1.3,1.6c1.3,0.3,2.5,0.3,3.8,1c-0.2,0.3-0.5,0.2-0.6,0.2
		c0.8,0.5,1.7,0.2,2.5,0.8c-0.5,0.5-0.9,0-1.4,0c4.9,1.4,10.1,2.5,14.3,5.7c-3.5,1.7-7.1,2.5-10.9,3.3c-0.5,0-0.8,0-1.3-0.2
		c0,0.2,0,0.5-0.2,0.5c-0.6,0-1.1,0-1.6,0.3C152.8,144.2,151.9,144.3,151.4,143.9"/>
	<path class="st3" d="M314.4,83.8h-90.2c0,0,0.2,0,0.9,0.4s1.7,0.9,2.3,1.2c1.2,0.6,2.3,1.4,3,2.5c0.3,0.5,0.8,1.4,0.5,2.1
		c-0.3,0.8-0.5,2.1-1.3,2.4c-1,0.5-2.2,0.5-3.3,0.3c-0.6,0-1.3-0.2-1.9-0.3c2.4,1,4.6,2.1,6.2,4.3c0.2,0.3,0.8,0.5,1.4,0.5
		c0.2,0,0.2,0.3,0.2,0.5c-0.3,0.3-0.6,0.5-0.5,1h0.5c0.8-0.3,0.6-1.9,1.7-1.4c0.8,0.5,1.1,1.6,0.6,2.4c-0.6,0.6-1.3,1.1-1.9,1.6
		c-0.2,0.3-0.2,0.8,0,1.1c0.5,0.6,0.6,1.3,0.8,1.9c0.5,1.1,0.6,2.4,1.1,3.5c0.6,2.4,1.3,4.8,1.1,7.1c0,1.3-0.6,2.4-0.2,3.6
		c0.3,1.3,1.1,2.2,1.7,3.3c0.6,1,1.3,1.6,1.7,2.5c1,1.6,2.7,3.2,1.9,5.1c-0.5,1.1-2.2,1-3.3,1.6c-1,0.8-0.2,2.1,0.3,2.9
		c0.8,1.4-1,2.4-2.1,2.9c0.3,0.5,0.9,0.3,1.1,0.6c0.2,0.8,1,1.3,0.5,2.1c-0.6,1-2.5,1.4-1.6,2.9c0.6,1.1,0.2,2.3-0.2,3.5
		c-0.5,1.4-1.7,2.1-2.9,2.4c-1,0.3-2.1,0.3-3,0.2c-0.3-0.2-0.6-0.3-1-0.3c-2.7-0.3-5.4-1.1-8.1-1.1c-0.8,0.2-1.6,0.3-2.2,0.6
		c-0.7,0.5-1.4,1.1-1.9,1.7l0,0c-0.1,0.1-0.2,0.3-0.3,0.4c-0.1,0.1-0.1,0.2-0.2,0.2c0,0.1-0.1,0.1-0.1,0.2c-0.5,0.6-0.9,1.2-1.2,1.8
		c0,0,0,0.1-0.1,0.1c0,0.1-0.1,0.1-0.1,0.2c-0.5,1-0.9,1.9-1.2,2.9c-1.1,3.6-0.6,6.7,0.2,7.5c0.2,0.2,5.2,1.8,8.7,3.3
		c1.6,0.7,2.8,1.3,3.7,1.9h88.6V83.8H314.4z"/>
	<path class="st4" d="M229.5,114.4c0.6,0.2,1.6,0.2,1.6,0.5c-0.3,1.3-2.2,1.6-3.2,2.9h-0.5c-0.5,0.3-0.3,1.1-0.8,1.1
		c-0.5-0.2-1,0-1.4,0.2c0.6,0.6,1.4,1.1,2.4,1c0.2,0,0.5,0.3,0.5,0.6c0,0,0.2,0,0.3-0.2c0.2,0,0.3,0,0.3,0.2v0.6
		c-0.5,0.6-1.3,0.3-1.9,0.5c1.3,0.3,2.5,0.3,3.6,0c1-0.3,0-1.9,0.6-2.7c-0.3,0,0-0.5-0.3-0.5c0.3-0.3,0.6-0.8,0.9-1
		c0.3,0,0.8-0.2,1-0.5c0-0.3-0.6-0.5-0.5-0.8c1-0.6,1.7-1.6,1.4-2.5c-0.2-0.5-1.4-0.5-2.2-0.8s-1.7,0-2.7,0.2
		c-0.8,0-1.6,0.5-2.4,0.6c-1.1,0.3-2.1,1-3,1.6c1.1-0.5,2.2-0.6,3.5-1C227.8,114.4,228.6,114.1,229.5,114.4"/>
	<path class="st1" d="M84,209.6h19.3c13.9,0,22.5,7.1,22.5,18.9c0,7.6-3.7,13.3-10.1,16.3l19.9,28h-15.3l-16.8-25.5h-6.6v25.5H84
		V209.6z M96.8,220.5v15.8h7.2c5.4,0,8.6-2.9,8.6-8c0-4.8-3.2-7.8-8.6-7.8H96.8z"/>
	<path class="st1" d="M143.4,209.6h36.8v10.9h-24v14.6h20.4V246h-20.4v15.8h24v10.9h-36.8V209.6z M155.9,204.2l10.2-12.2h13.2
		l-11.7,12.2H155.9z"/>
	<path class="st1" d="M195.1,209.6h20.8c13.9,0,22.4,7.1,22.4,18.9c0,11.6-8.5,18.8-22.4,18.8h-8v25.5h-12.8V209.6z M207.9,220.5
		v15.8h8.6c5.4,0,8.7-2.9,8.7-8c0-4.8-3.2-7.8-8.7-7.8H207.9z"/>
	<path class="st1" d="M286.2,209.6H299V248c0,16.6-9.7,26.5-25.6,26.5c-15.8,0-25.5-9.9-25.5-26.5v-38.4h12.8v39.5
		c0,8.5,4.8,13.4,12.8,13.4c7.9,0,12.7-5,12.7-13.4L286.2,209.6L286.2,209.6z"/>
	<path class="st1" d="M314.9,209.6h18c13.2,0,21.1,6.5,21.1,17.1c0,5.1-2.3,9.5-6.7,12.5c6.7,3,10.4,8.4,10.4,15
		c0,11.5-8.9,18.6-23.5,18.6h-19.3V209.6z M327.7,220.5v13.8h5.4c4.9,0,7.7-2.4,7.7-6.9c0-4.2-2.8-6.9-7.7-6.9L327.7,220.5
		L327.7,220.5z M327.7,245.3v16.5h7.2c6,0,9.6-3.2,9.6-8.4s-3.6-8.1-9.6-8.1L327.7,245.3L327.7,245.3z"/>
	<polygon class="st1" points="370.7,209.6 383.5,209.6 383.5,261.1 407.5,261.1 407.5,272.7 370.7,272.7 	"/>
	<rect x="418.8" y="209.6" class="st1" width="12.8" height="63.2"/>
	<path class="st1" d="M515.5,277.2c1.4,0,3.2-0.2,4.5-0.7v10.8c-2.1,0.8-3.9,1.2-6.7,1.2c-7,0-13.5-2.9-19.8-8.3l-7.5-6.7
		c-2.7,0.7-5.6,1.1-8.7,1.1c-19.9,0-33.6-15.3-33.6-33.4c0-18,13.6-33.4,33.6-33.4c19.9,0,33.5,15.3,33.5,33.4
		c0,10.6-4.7,20.2-12.5,26.3l3.8,3.6C507.1,275.5,511.5,277.2,515.5,277.2 M497.7,241.2c0-12.1-8.5-21.4-20.3-21.4
		c-11.9,0-20.4,9.3-20.4,21.4c0,12.1,8.5,21.4,20.4,21.4C489.3,262.5,497.7,253.2,497.7,241.2"/>
	<path class="st1" d="M560.5,209.6h12.8V248c0,16.6-9.7,26.5-25.6,26.5c-15.8,0-25.5-9.9-25.5-26.5v-38.4H535v39.5
		c0,8.5,4.8,13.4,12.8,13.4c7.9,0,12.7-5,12.7-13.4V209.6z"/>
	<polygon class="st1" points="589.1,209.6 626,209.6 626,220.5 602,220.5 602,235.1 622.4,235.1 622.4,246 602,246 602,261.8 
		626,261.8 626,272.7 589.1,272.7 	"/>
	<polygon class="st1" points="84,300.6 120.8,300.6 120.8,311.6 96.8,311.6 96.8,326.2 117.2,326.2 117.2,337.1 96.8,337.1 
		96.8,363.8 84,363.8 	"/>
	<path class="st1" d="M132.1,300.6h19.3c13.9,0,22.5,7.1,22.5,18.9c0,7.6-3.7,13.3-10.1,16.3l19.9,28h-15.3l-16.8-25.5H145v25.5
		h-12.8L132.1,300.6L132.1,300.6z M144.9,311.6v15.8h7.2c5.4,0,8.6-2.9,8.6-8c0-4.8-3.2-7.8-8.6-7.8H144.9z"/>
	<path class="st1" d="M210.2,300.6H227l23.9,63.2h-13.6l-6-16.4H206l-6,16.4h-13.7L210.2,300.6z M227.2,336.5l-8.7-23.7l-8.7,23.7
		H227.2z"/>
	<polygon class="st1" points="260.6,300.6 277.1,300.6 305.3,345.9 305.3,300.6 318.1,300.6 318.1,363.8 301.7,363.8 273.4,318.4 
		273.4,363.8 260.6,363.8 	"/>
	<path class="st1" d="M380.5,344.9l10.1,7.8c-4.9,6.7-12.5,11.4-21.7,12.5l-7.8,13.1h-11.4l7.9-13.3c-16.4-2.9-27.2-16.8-27.2-32.8
		c0-18,13.6-33.4,33.6-33.4c11.5,0,20.8,5.1,26.6,12.8l-10.1,7.8c-3.6-5.1-9.3-8.7-16.5-8.7c-11.9,0-20.4,9.3-20.4,21.4
		s8.5,21.4,20.4,21.4C371.2,353.6,376.8,350.1,380.5,344.9"/>
	<path class="st1" d="M417.2,300.6H434l23.9,63.2h-13.6l-6-16.4H413l-6,16.4h-13.7L417.2,300.6z M434.2,336.5l-8.7-23.7l-8.7,23.7
		H434.2z"/>
	<rect x="467.6" y="300.6" class="st1" width="12.8" height="63.2"/>
	<path class="st1" d="M501.7,346.5c3.8,4.9,8.8,7.8,14,7.8c5.1,0,8.1-2.7,8.1-7.3c0-11.3-28.9-8.8-28.9-29.8
		c0-10,8.2-18.3,20.2-18.3c9.5,0,16.8,4.2,22.1,10.6l-9.4,8.4c-3.7-4.8-7.9-7.8-12.6-7.8c-4.4,0-7.3,2.9-7.3,6.6
		c0,11.3,28.9,8.7,28.9,30c-0.2,11.7-9.4,18.9-20.9,18.9c-10.6,0-17.9-3.9-23.5-10.6L501.7,346.5z"/>
	<polygon class="st1" points="550.3,300.6 587.1,300.6 587.1,311.6 563.1,311.6 563.1,326.2 583.5,326.2 583.5,337.1 563.1,337.1 
		563.1,352.9 587.1,352.9 587.1,363.8 550.3,363.8 	"/>
	<path class="st1" d="M289.5,538.2c1.7,0,3.2,1.3,2.4,4.6l-8,1.9C285.3,540.9,287.6,538.2,289.5,538.2 M293.9,551h-1.6
		c-2,2.4-4.1,4.2-6.3,4.2c-2.2,0-3.3-1.3-3.3-4.2c0-1.2,0.1-2.4,0.4-3.5l12.8-4.2c2.5-5.9-0.5-8.5-4-8.5c-6.1,0-13,10.1-13,19
		c0,4,1.9,6.2,4.9,6.2C287.3,560,290.9,556.6,293.9,551 M291.3,532.4l9-8.4v-1h-4.9l-5.6,9.4H291.3z M263.6,538.3h4.3l-6.8,18.5
		c-0.6,1.6,0.2,3.1,1.9,3.1c3.8,0,10-3.8,12.2-9H274c-1.7,1.8-5,4.2-7.8,4.7l6.2-17.4h6.3l0.8-2.6h-6.2l2.4-6.7h-2.4l-4.4,6.7
		l-5.2,0.7L263.6,538.3L263.6,538.3z M257.9,537.5c0.5-1.7-0.6-2.7-1.5-2.7c-3.7,0-8.1,3.3-9.9,8h1.2c1.2-1.7,3.2-3.6,5.1-3.9
		l-7.1,18.4c-0.6,1.7,0.6,2.7,1.5,2.7c3.5,0,7.6-3.4,9.4-8h-1.2c-1.2,1.7-3.2,3.6-5.1,3.9L257.9,537.5z M259.2,528.2
		c1.7,0,3.1-1.3,3.1-3.1c0-1.7-1.4-3.1-3.1-3.1s-3.1,1.4-3.1,3.1C256.1,526.9,257.5,528.2,259.2,528.2 M218.4,556.5
		c-0.9,2.1,0,3.4,2.1,3.4c1.2,0,1.8-0.3,2.3-1.7l4.9-13c2.3-2.8,6.9-5.7,8.8-5.7c1.3,0,1.2,1.1,0.3,2.8l-7.5,14.5
		c-0.7,1.4,0.2,3.1,1.9,3.1c3.7,0,8.1-3.3,9.9-8h-1.2c-1.2,1.7-3.2,3.6-5.1,3.9l6.5-13.1c0.8-1.7,1.3-3.2,1.3-4.5
		c0-2.1-1.2-3.5-3.4-3.5c-3.2,0-6.4,3.6-10.3,8.1v-3.4c0-2.5-0.8-4.6-3-4.6c-1.4,0-2.7,1.2-4,2.9v0.5c2.4-0.1,3.5,3.5,1.8,7.3
		L218.4,556.5z M218.3,540.4c0.9-3,0.4-5.7-1.9-5.7c-2.7,0-3.4,2.1-6.2,8.1v-3.4c0-2.5-0.8-4.6-3-4.6c-2.6,0-5,4-6.8,8h1.2
		c1.2-1.8,2.4-2.9,3.3-2.9c1.1,0,1.7,1.7,0,5.5l-5,11.1c-0.9,2.1,0,3.4,2.1,3.4c1.3,0,1.8-0.3,2.3-1.7l4.9-13
		c1.4-1.7,2.6-3.2,4.2-4.9h4.9V540.4z M189.9,538.2c1.7,0,3.2,1.3,2.4,4.6l-8,1.9C185.7,540.9,188,538.2,189.9,538.2 M194.3,551
		h-1.6c-2,2.4-4.1,4.2-6.3,4.2s-3.3-1.3-3.3-4.2c0-1.2,0.1-2.4,0.4-3.5l12.8-4.2c2.5-5.9-0.5-8.5-4-8.5c-6.1,0-13,10.1-13,19
		c0,4,1.9,6.2,4.9,6.2C187.7,560,191.3,556.6,194.3,551 M164,538.3h4.3l-6.8,18.5c-0.6,1.6,0.2,3.1,1.9,3.1c3.8,0,10-3.8,12.2-9
		h-1.2c-1.7,1.8-5,4.2-7.8,4.7l6.2-17.4h6.3l0.8-2.6h-6.2l2.4-6.7h-2.5l-4.4,6.7l-5.2,0.7V538.3z M140.7,552.7
		c0-5.7,6.3-13.4,9.9-13.4c0.8,0,1.5,0.1,2.2,0.3l-3.7,9.9c-2.1,2.6-5.4,5.7-6.9,5.7C141.2,555.2,140.7,554.5,140.7,552.7
		 M160.1,533.7l-1.9-0.1l-2.2,2.1h-0.5c-10.6,0-19.7,11.9-19.7,20.5c0,2.4,1.5,3.8,3.8,3.8c2.7,0,5.4-3.9,8.4-8.1l-0.1,1.5
		c-0.4,4.3,0.9,6.6,3.1,6.6c2.6,0,5-4,6.8-8h-1.2c-1.2,1.8-2.4,2.9-3.3,2.9c-1,0-1.7-1.8,0-5.5L160.1,533.7z M137.6,540.4
		c0.9-3,0.4-5.7-1.9-5.7c-2.7,0-3.4,2.1-6.2,8.1v-3.4c0-2.5-0.8-4.6-3-4.6c-2.6,0-5,4-6.8,8h1.2c1.2-1.8,2.4-2.9,3.3-2.9
		c1.1,0,1.7,1.7,0,5.5l-5,11.1c-0.9,2.1,0,3.4,2.1,3.4c1.2,0,1.8-0.3,2.3-1.7l4.9-13c1.4-1.7,2.6-3.2,4.2-4.9h4.9V540.4z M102.2,559
		l0.5-1.4c-6.2-1.2-6.9-1.2-4.5-7.9l2.5-6.9h6.8c3.1,0,3.1,1.3,2.6,4.6h1.8l4.1-11.2h-1.8c-1.5,2.6-2.7,4.6-6.1,4.6h-6.7l3.6-9.8
		c1.1-3.1,1.8-3.8,5.9-3.8h3c4.3,0,4.8,1.2,4.8,5.5h1.7l1.4-7.6H96.2l-0.5,1.4c5,1,5.4,1.5,3.1,7.9l-5.5,15.3
		c-2.3,6.3-3.3,6.9-9,7.9l-0.4,1.4H102.2L102.2,559z"/>
	<path class="st1" d="M227.5,480.3c1.7,0,3.2,1.3,2.4,4.6l-8,1.9C223.3,483,225.6,480.3,227.5,480.3 M231.9,493.1h-1.6
		c-2,2.4-4.1,4.2-6.3,4.2s-3.3-1.3-3.3-4.2c0-1.2,0.1-2.4,0.4-3.5l12.8-4.2c2.5-5.9-0.5-8.5-4-8.5c-6.1,0-13,10.1-13,19
		c0,4,1.9,6.2,4.9,6.2C225.3,502.1,228.9,498.7,231.9,493.1 M229.3,474.5l9-8.4v-1h-4.9l-5.6,9.4H229.3z M201.6,480.5h4.3l-6.8,18.5
		c-0.6,1.6,0.2,3.1,1.9,3.1c3.8,0,10-3.8,12.2-9H212c-1.7,1.8-5,4.2-7.8,4.7l6.2-17.4h6.3l0.8-2.6h-6.2l2.4-6.7h-2.4l-4.4,6.7
		l-5.2,0.7v2L201.6,480.5L201.6,480.5z M195.9,479.6c0.5-1.7-0.6-2.7-1.5-2.7c-3.7,0-8.1,3.3-9.9,8h1.2c1.2-1.7,3.2-3.6,5.1-3.9
		l-7.1,18.4c-0.6,1.7,0.6,2.7,1.5,2.7c3.5,0,7.6-3.4,9.4-8h-1.2c-1.2,1.7-3.2,3.6-5.1,3.9L195.9,479.6z M197.2,470.3
		c1.7,0,3.1-1.3,3.1-3.1c0-1.7-1.4-3.1-3.1-3.1c-1.7,0-3.1,1.4-3.1,3.1C194.1,469,195.5,470.3,197.2,470.3 M172.6,498l12.9-33.8
		l-0.4-0.5l-8.1,0.9v1l1.6,1.2c1.4,1.1,1,2.2-0.3,5.6L168.2,499c-0.7,1.4,0.2,3.1,1.9,3.1c3.7,0,7.6-3.3,9.4-8h-1.2
		C177,495.8,174.5,497.7,172.6,498 M148,494.9c0-5.7,6.3-13.4,9.9-13.4c0.8,0,1.5,0.1,2.2,0.3l-3.7,9.9c-2.1,2.6-5.4,5.7-6.9,5.7
		C148.6,497.3,148,496.6,148,494.9 M167.5,475.8l-1.9-0.1l-2.2,2.1h-0.5c-10.6,0-19.7,11.9-19.7,20.5c0,2.4,1.5,3.8,3.8,3.8
		c2.7,0,5.4-3.9,8.4-8.1l-0.1,1.5c-0.4,4.3,0.9,6.6,3.1,6.6c2.6,0,5-4,6.8-8H164c-1.3,1.8-2.4,2.9-3.3,2.9c-1,0-1.7-1.8,0-5.5
		L167.5,475.8z M120.4,506.6c0-2.5,2.4-4,5.7-5.3c1.1,0.6,2.8,1.2,5,1.9c3.5,1.2,4.9,1.6,4.9,2.7c0,2.3-3.8,4-9.1,4
		C122.5,509.8,120.4,508.9,120.4,506.6 M130,491.6c-1.5,0-2.1-1.3-2.1-2.8c0-4.1,2.2-10.2,5.7-10.2c1.5,0,2.1,1.3,2.1,2.8
		C135.7,485.5,133.4,491.6,130,491.6 M140,504.3c0-3-2.6-4-6.9-5.3c-3.7-1.1-5.4-1.4-5.4-2.6c0-1,0.8-2.1,2.4-3
		c6.1-0.3,10-5.8,10-10.4c0-1-0.2-1.8-0.5-2.5h5.1l0.8-2.6h-8.2c-1-0.6-2.1-0.9-3.3-0.9c-6.4,0-10.6,5.6-10.6,10.2
		c0,3.5,2.2,5.6,4.9,6.2c-3,1.3-4.7,2.9-4.7,4.8c0,1.1,0.4,1.8,1.2,2.5c-6.9,2-9.7,4.4-9.7,7.6s4.2,4.5,9.2,4.5
		C132.9,512.7,140,508.1,140,504.3 M107.6,484.5c3.1,0,3.1,1.3,2.6,4.6h1.8l4.1-11.2h-1.8c-1.5,2.6-2.7,4.6-6.1,4.6h-6.7l3.4-9.3
		c1.1-3.1,1.8-3.7,5.9-3.7h3c4.3,0,4.8,1.2,4.8,5.5h1.7l1.4-7.6H96.2l-0.5,1.4c5,1,5.4,1.5,3.1,7.9l-5.5,15.1
		c-2.3,6.3-3.3,6.9-9,7.9l-0.4,1.4h28.4l5.1-8.1h-1.9c-3.2,3.1-7.3,6-13,6c-7.5,0-6.9-0.3-4.4-7.2l2.7-7.4h6.8
		C107.6,484.4,107.6,484.5,107.6,484.5z M111.3,465.1l9-6.2v-1h-5.5l-5,7.2H111.3z"/>
	<path class="st1" d="M224.5,422.4c1.7,0,3.2,1.3,2.4,4.6l-8,1.9C220.3,425.2,222.6,422.4,224.5,422.4 M228.9,435.3h-1.6
		c-2,2.4-4.1,4.2-6.3,4.2s-3.3-1.3-3.3-4.2c0-1.2,0.1-2.4,0.4-3.5l12.8-4.2c2.5-5.9-0.5-8.5-4-8.5c-6.1,0-13,10.1-13,19
		c0,4,1.9,6.2,4.9,6.2C222.3,444.2,225.9,440.8,228.9,435.3 M226.3,416.6l9-8.4v-1h-4.9l-5.6,9.4H226.3z M199.8,422.6h3.4l-6.8,18.5
		c-0.6,1.6,0.2,3.1,1.9,3.1c3.8,0,10-3.8,12.2-9h-1.2c-1.7,1.8-5,4.2-7.8,4.7l6.2-17.4h6.3l0.8-2.6h-6.2l2.4-6.7h-2.5l-4.4,6.7
		l-4.4,0.7L199.8,422.6L199.8,422.6z M196.4,424.7c0.9-3,0.4-5.6-1.9-5.6c-2.7,0-3.4,2.1-6.2,8.1v-3.4c0-2.5-0.8-4.6-3-4.6
		c-2.6,0-5,4-6.8,8h1.2c1.2-1.8,2.4-2.9,3.3-2.9c1.1,0,1.7,1.7,0,5.5l-5,11.1c-0.9,2.1,0,3.4,2.1,3.4c1.2,0,1.8-0.3,2.3-1.7l4.9-13
		c1.4-1.7,2.6-3.2,4.2-4.9H196.4z M168,422.4c1.7,0,3.2,1.3,2.4,4.6l-8,1.9C163.8,425.2,166.2,422.4,168,422.4 M172.4,435.3h-1.6
		c-2,2.4-4.1,4.2-6.3,4.2s-3.3-1.3-3.3-4.2c0-1.2,0.1-2.4,0.4-3.5l12.8-4.2c2.5-5.9-0.5-8.5-4-8.5c-6.1,0-13,10.1-13,19
		c0,4,1.9,6.2,4.9,6.2C165.8,444.2,169.5,440.8,172.4,435.3 M141,440.4c-1.2,0-3.1-1.2-3.1-2.2c0-0.3,0.6-1.8,1.2-3.6l2.1-5.5
		c2.2-2.6,5.6-5.5,7.5-5.5c1.2,0,2,0.7,2,2.5C150.8,431.2,146.1,440.4,141,440.4 M155.6,424.1c0-3.8-1.4-5.1-4-5.1
		c-3.2,0-6.3,3.4-9.4,7.6l7.7-20.3l-0.4-0.5l-8.1,0.9v1l1.6,1.2c1.4,1.1,1,2.3-0.3,5.6l-8.3,21.5c-0.6,1.6-1.3,3.4-1.3,3.9
		c0,2.2,3,4.3,5.7,4.3C145,444.2,155.6,432.9,155.6,424.1 M130.4,421.7c0.5-1.7-0.6-2.7-1.5-2.7c-3.7,0-8.1,3.3-9.9,8h1.2
		c1.2-1.7,3.2-3.6,5.1-3.9l-7.1,18.4c-0.6,1.7,0.6,2.7,1.5,2.7c3.5,0,7.6-3.4,9.4-8h-1.2c-1.2,1.7-3.2,3.6-5.1,3.9L130.4,421.7z
		 M131.7,412.4c1.7,0,3.1-1.3,3.1-3.1c0-1.7-1.4-3.1-3.1-3.1c-1.7,0-3.1,1.4-3.1,3.1C128.6,411.1,130,412.4,131.7,412.4 M113,409.5
		H96.2l-0.5,1.4c5,1,5.4,1.5,3.1,7.9L93.3,434c-2.3,6.3-3.3,6.9-9,7.9l-0.4,1.4h25.7l5.6-9.9h-1.9c-3.1,3.5-6.9,7.8-12.5,7.8
		c-4.3,0-4.8-0.7-2.5-7.2l5.5-15.2c2.3-6.3,3.3-6.9,9-7.9L113,409.5z"/>
	<path class="st2" d="M179.1,157.8c0.9-0.9,1.8-1.9,2.7-2.8l0,0c1.7-1.9,3.3-3.7,5.3-5.4c0.6-0.5,1.2-1,1.7-1.4
		c0.2-0.2,0.2-0.5,0.3-0.6c-0.8,0.3-1.3,1-2.1,1.3c-0.2,0-0.3-0.2-0.2-0.3c0.6-0.4,1.1-0.8,1.7-1.3h-0.1c-0.2,0-0.2-0.2-0.2-0.3
		c-2.1-0.3-3.6,1.1-5.1,2.4c-0.3,0.2-0.6-0.2-0.8-0.2c-2.4,0.8-4.1,2.9-6.5,3.8v-0.3c-1,0.3-1.9,0.9-2.9,1.1c-1.4,0.3-2.7,0.2-4,0.2
		c-1.9,0.2-3.8,0.6-5.8,1c-0.1,0-0.1,0-0.2,0c-1,0.3-2,0.7-3,1.2c0,0-0.1,0-0.1,0.1c-0.1,0.1-0.2,0.2-0.2,0.3
		c-0.3,0.4-0.6,0.7-1.1,0.9c-1,0.5-1.8,1.4-2.6,2.1c-0.1,0.1-0.2,0.1-0.3,0.1c-0.9,0.8-1.7,1.6-2.6,2.4c-0.1,0.1-0.3,0.1-0.5,0.1
		l0,0c0,0,0.1-0.1,0.1-0.2c0.1-0.2,0.3-0.4,0.4-0.7c0.2-0.2,0.3-0.5,0.5-0.7c0.2-0.3,0.4-0.7,0.7-1c0.1-0.1,0-0.2,0-0.2
		c0-0.1-0.1-0.1-0.2-0.1c0.8-0.8,1.7-1.4,2.7-2l0,0c-0.1,0-0.3,0-0.2-0.2c0.1-0.1,0.2-0.3,0.3-0.4c0,0,0-0.1,0.1-0.1l-0.1-0.1
		c-0.3,0.2-0.5,0.3-0.7,0.5c-0.4,0.3-0.7,1-1.3,1c0,0-0.1,0-0.2,0c-0.1,0-0.1,0-0.2-0.1l0,0l0,0l0,0l0.1-0.1l0.1-0.1
		c0,0,0-0.1,0.1-0.1c0-0.1,0.1-0.1,0.1-0.2l0.1-0.1c0.1-0.1,0.1-0.2,0.2-0.3c0-0.1,0.1-0.1,0.1-0.2c0.1-0.1,0.1-0.2,0.2-0.3
		c0.1-0.1,0-0.2-0.1-0.3c0.3-0.4,0.7-0.7,1.1-0.9l0,0c0.6-0.3,1.2-0.7,1.8-1c0.1-0.1,0.2-0.2,0.3-0.2c-0.9,0.3-1.7,0.7-2.5,1.2
		c0,0-0.2,0.1-0.3,0.1c0,0-0.2,0.1-0.4-0.1v-0.1c0.2-0.3,0.6-0.5,1-0.8c0.2,0,0.3,0,0.3,0.2c5.1-4,12-3,17.9-5.1
		c0.5-0.3,0.9-0.6,1.4-0.9c0.8-0.3,1.4-1.1,2.4-1.6c1.3-1,2.2-2.1,2.7-3.6c0-0.2-0.2-0.3-0.2-0.3c-2.1,2.2-4.4,4-7,5.2
		c-3.3,1.7-7,1.4-10.5,1.9c0.2-0.3,0.5-0.3,0.8-0.3c0-0.5,0.3-0.6,0.6-1h0.5c0.2,0,0.2-0.3,0.3-0.3c0.3,0,0.8-0.2,0.6-0.2
		c-0.5-0.6-1.4,0.5-2.2,0c0.3-0.3,0.2-0.8,0.5-1h0.6c0-0.3,0.3-0.6,0.3-0.6c2.4-1.4,4.6-2.5,6.8-3.8c-0.5,0-0.8,0.5-1.3,0.2
		c0.3,0,0-0.5,0.3-0.5c1.7-0.5,3.2-1.4,4.9-2.1c-0.6,0-1.1,0.5-1.7,0c0.3-0.2,0.5-0.5,0.9-0.5v-0.5c0-0.2,0.2-0.2,0.3-0.2
		c-0.2,0-0.3-0.2-0.3-0.2c0.2-0.3,0.6-0.2,1-0.5c-0.2,0-0.5,0-0.5-0.2c0.5-0.6,1.3-0.8,2.1-1c-0.2-0.3-0.6,0-0.6-0.3
		c0-0.2,0.2-0.2,0.3-0.2h-0.3c-0.3-0.2-0.2-0.5-0.2-0.6c1-1.1,1-2.5,1.4-3.8c-0.2,0-0.3,0-0.3-0.2c-1.6,1.7-4.1,2.4-6.5,3h-0.8
		c-0.8,0.3-1.9,0.3-2.7-0.2c-0.6-0.3-1-0.8-1.6-1.3c-1.3-0.8-2.5-1.4-4-1.9c-4-1.3-8.1-1.9-12.2-1.7c1.7-1,3.7-1,5.5-1.6
		c2.7-0.8,5.2-1.7,8.1-1.6c-0.5-0.2-1.1,0-1.6,0c-2.2-0.2-4.4,0.5-6.8,1c-1.6,0.3-3,1-4.6,1.3c-0.9,0.3-1.4,1.3-2.5,1.1V130
		c1.6-1.9,3.5-3.8,6-4c2.9-0.5,5.5,0,8.4,0.3c2.1,0.2,4,0.6,6,1.1c0.8,0,1,1.3,1.6,1.4c1,0.3,1.9,0,2.9,0.6c0-0.3-0.2-0.6,0-1
		c0.6-0.6,1.4,0.2,2.1-0.2c1.3-0.8-1.1-2.2-1.7-3.3c0-0.2,0.2-0.3,0.2-0.3c1.3,1.1,2.2,2.4,3.8,3.2c0.8,0.3,2.7,0.8,2.4-0.2
		c-0.8-1.7-2.4-3.2-3.6-4.8v-0.6c-0.3,0-0.3-0.2-0.5-0.3v-0.6c-0.6-0.3-0.5-1-0.8-1.4c-0.5-0.8-0.2-1.9-0.5-2.9s-0.5-1.7-0.6-2.7
		c-0.5-2.7-1.1-5.1-1.4-7.6c-0.3-3,1.7-5.4,3.2-8.1c1.1-1.9,2.4-3.8,4.4-5.1c0.5-1.9,1.7-3.5,3-5.1c1.3-1.5,3.4-2.5,4.9-3.2
		c2.2-1,4.2-1.6,4.2-1.6H83.7v83.9h77c3-2.2,6-3.2,10.2-5.3C173,161.4,177.5,159.3,179.1,157.8 M154.7,146.4c-0.3,0-1,0.2-0.8-0.2
		c0.2-0.8,1.3-0.8,1.9-1.1c0.3-0.2,0.8-0.5,1.1-0.3c0.3,0.5,0.8,0.3,1.1,0.6C157.1,146.4,155.8,145.9,154.7,146.4 M130.5,142.9
		c0,0-0.2-0.2-0.2-0.3c2.1-2.7,3.6-5.2,5.1-8.1c2.1-1.1,3.8-2.7,5.4-4.4c2.7-2.9,5.5-5.4,8.9-7c1.3-0.5,2.9-0.3,4.1,0.2
		c-0.5,0.6-1.3,0.5-1.9,1c-0.2,0-0.3,0-0.5-0.2c0.2-0.2,0.2-0.3,0.2-0.5c-1.6,1.7-3.8,2.5-5.1,4.6c-1,1.6-1.6,3.6-3.6,4.1
		c-0.6,0.2,0.2-0.5-0.2-0.3C137.8,135,134.3,138.6,130.5,142.9 M143.6,132.5c-0.2,0.3-0.3,0.4-0.5,0.6c-0.2,0.3-0.3,0.5-0.6,0.6
		c-0.2,0-0.3,0-0.3-0.2c0.2-0.6,0.6-1.3,1.3-1.4C143.6,132.1,143.6,132.3,143.6,132.5 M151,156.2c-0.1,0.2-0.2,0.3-0.4,0.5
		c0.2,0,0.3,0.1,0.2,0.2c-0.4,0.3-0.7,0.7-1.2,0.8c0,0-0.1,0-0.2,0c-0.2,0.2-0.4,0.4-0.6,0.6c-0.2,0.2-1.1,0-0.8-0.2
		c0.4-0.4,0.8-0.7,1.2-1.1c0.2-0.2,0.5-0.4,0.7-0.6c0.1-0.1,0.2-0.3,0.3-0.4C150.3,156,151.1,155.9,151,156.2 M148.1,154.9
		L148.1,154.9c-0.6,0.4-1.2,0.9-1.8,1.2c-0.7,0.4-1.4,0.7-2.1,1l0,0c-0.1-0.1-0.2-0.1-0.3-0.1c-0.6,0.3-1.1,0.8-1.6,1.2
		c-0.1,0.1-0.1,0.1-0.2,0.2l0,0l0,0c-0.1,0.1-0.2,0.1-0.2,0.2l0,0l0,0c-0.1,0.1-0.2,0.2-0.3,0.4c-0.1,0.1-0.1,0.2-0.2,0.2
		c-0.1,0.1-0.4,0.1-0.3-0.1l0,0c-0.1,0.1-0.2,0.1-0.3,0.1s-0.2,0.1-0.2,0.1h-0.1h-0.1c-0.2,0.2-0.4,0.3-0.6,0.5
		c-0.3,0.3-0.6,0.6-0.9,1l0,0l0,0c0,0,0,0,0,0.1c0,0,0,0-0.1,0.1l0,0c0,0.1-0.1,0.1-0.1,0.2l0,0l-0.1,0.1c0,0,0-0.1-0.1-0.1v-0.1
		c0-0.1-0.1-0.2-0.1-0.3l0,0v-0.1c0.2-0.2,0.3-0.4,0.5-0.6l0,0c0.1-0.1,0.1-0.1,0.2-0.2c0.1-0.1,0.2-0.2,0.3-0.3l0.1-0.1
		c0.2-0.2,0.3-0.4,0.5-0.7l0,0c0,0,0-0.1,0.1-0.1c0.1-0.1,0.1-0.2,0.2-0.3c0.1-0.1,0.1-0.2,0.2-0.3l0,0l0,0c0,0,0,0,0-0.1
		c0.1-0.1,0.1-0.2,0.2-0.4l0,0v-0.1c0-0.1,0-0.1,0-0.2l0,0l0,0c0-0.1,0-0.2,0.1-0.2V157c0.2-0.3,0.4-0.6,0.6-0.9h-0.1
		c-0.2,0.1-0.4,0.3-0.6,0.5c-0.2,0.1-0.5-0.1-0.3-0.2c0.1-0.1,0.2-0.2,0.4-0.3l0,0c0.3-0.3,0.5-0.6,0.8-0.8c0.2-0.1,0.3-0.2,0.5-0.4
		c0,0,0,0,0.1-0.1s0.2-0.3,0.4-0.4l0,0c1.5-1.5,4.1-1.4,6.1-2.3c0.8-0.3,1.7,0.2,2.5,0c0.5,0,1,0,1.4,0.3
		C150.8,153.2,149.4,154.1,148.1,154.9 M151.4,143.9c-0.2-0.2,0.5,0,0.6-0.3h-1.3c-0.2,0-0.2-0.2-0.2-0.3c-0.8,0.2-1.7,0.5-2.5,0.6
		c-1.1,0.3-2.1,1.1-3.3,1.4c-1.7,0.6-3.2,2.1-5.1,2.7c-0.2,0-0.2-0.2-0.2-0.3c0.2-0.5,0.8-0.6,1.1-1.1c0-0.2,0-0.3-0.2-0.3
		c1.3-1.7,3-2.7,4.6-4.1v-0.5c0.5-0.6,1.3-1,1.6-1.7c0.2-0.5,0.8-1.1,1.6-1.4c-0.2-0.2-0.5-0.2-0.5-0.5c-0.6,0-1.3,0.3-1.9-0.2
		c0.3-0.3,0.6-0.5,1-0.6c-0.1,0-0.3-0.1-0.4-0.2c-0.2-0.3,0.3-0.7,0.8-0.8c0.6-0.2,1.4-0.2,1.9-0.6c-1.1-0.2-2.4,0.3-3.5-0.3
		c0.8-2.1,2.1-3.8,4-4.8c0.2,0,0.5,0,0.5,0.2c0,0.8-0.5,1.4-1.3,1.6c1.3,0.3,2.5,0.3,3.8,1c-0.2,0.3-0.5,0.2-0.6,0.2
		c0.8,0.5,1.7,0.2,2.5,0.8c-0.5,0.5-0.9,0-1.4,0c4.9,1.4,10.1,2.5,14.3,5.7c-3.5,1.7-7.1,2.5-10.9,3.3c-0.5,0-0.8,0-1.3-0.2
		c0,0.2,0,0.5-0.2,0.5c-0.6,0-1.1,0-1.6,0.3C152.8,144.2,151.9,144.3,151.4,143.9"/>
	<path class="st3" d="M314.4,83.8h-90.2c0,0,0.2,0,0.9,0.4s1.7,0.9,2.3,1.2c1.2,0.6,2.3,1.4,3,2.5c0.3,0.5,0.8,1.4,0.5,2.1
		c-0.3,0.8-0.5,2.1-1.3,2.4c-1,0.5-2.2,0.5-3.3,0.3c-0.6,0-1.3-0.2-1.9-0.3c2.4,1,4.6,2.1,6.2,4.3c0.2,0.3,0.8,0.5,1.4,0.5
		c0.2,0,0.2,0.3,0.2,0.5c-0.3,0.3-0.6,0.5-0.5,1h0.5c0.8-0.3,0.6-1.9,1.7-1.4c0.8,0.5,1.1,1.6,0.6,2.4c-0.6,0.6-1.3,1.1-1.9,1.6
		c-0.2,0.3-0.2,0.8,0,1.1c0.5,0.6,0.6,1.3,0.8,1.9c0.5,1.1,0.6,2.4,1.1,3.5c0.6,2.4,1.3,4.8,1.1,7.1c0,1.3-0.6,2.4-0.2,3.6
		c0.3,1.3,1.1,2.2,1.7,3.3c0.6,1,1.3,1.6,1.7,2.5c1,1.6,2.7,3.2,1.9,5.1c-0.5,1.1-2.2,1-3.3,1.6c-1,0.8-0.2,2.1,0.3,2.9
		c0.8,1.4-1,2.4-2.1,2.9c0.3,0.5,0.9,0.3,1.1,0.6c0.2,0.8,1,1.3,0.5,2.1c-0.6,1-2.5,1.4-1.6,2.9c0.6,1.1,0.2,2.3-0.2,3.5
		c-0.5,1.4-1.7,2.1-2.9,2.4c-1,0.3-2.1,0.3-3,0.2c-0.3-0.2-0.6-0.3-1-0.3c-2.7-0.3-5.4-1.1-8.1-1.1c-0.8,0.2-1.6,0.3-2.2,0.6
		c-0.7,0.5-1.4,1.1-1.9,1.7l0,0c-0.1,0.1-0.2,0.3-0.3,0.4c-0.1,0.1-0.1,0.2-0.2,0.2c0,0.1-0.1,0.1-0.1,0.2c-0.5,0.6-0.9,1.2-1.2,1.8
		c0,0,0,0.1-0.1,0.1c0,0.1-0.1,0.1-0.1,0.2c-0.5,1-0.9,1.9-1.2,2.9c-1.1,3.6-0.6,6.7,0.2,7.5c0.2,0.2,5.2,1.8,8.7,3.3
		c1.6,0.7,2.8,1.3,3.7,1.9h88.6V83.8H314.4z"/>
	<path class="st4" d="M229.5,114.4c0.6,0.2,1.6,0.2,1.6,0.5c-0.3,1.3-2.2,1.6-3.2,2.9h-0.5c-0.5,0.3-0.3,1.1-0.8,1.1
		c-0.5-0.2-1,0-1.4,0.2c0.6,0.6,1.4,1.1,2.4,1c0.2,0,0.5,0.3,0.5,0.6c0,0,0.2,0,0.3-0.2c0.2,0,0.3,0,0.3,0.2v0.6
		c-0.5,0.6-1.3,0.3-1.9,0.5c1.3,0.3,2.5,0.3,3.6,0c1-0.3,0-1.9,0.6-2.7c-0.3,0,0-0.5-0.3-0.5c0.3-0.3,0.6-0.8,0.9-1
		c0.3,0,0.8-0.2,1-0.5c0-0.3-0.6-0.5-0.5-0.8c1-0.6,1.7-1.6,1.4-2.5c-0.2-0.5-1.4-0.5-2.2-0.8s-1.7,0-2.7,0.2
		c-0.8,0-1.6,0.5-2.4,0.6c-1.1,0.3-2.1,1-3,1.6c1.1-0.5,2.2-0.6,3.5-1C227.8,114.4,228.6,114.1,229.5,114.4"/>
</g>
<g>
	<path class="st5" d="M1542.9,203.4h-89.8c-29.9,0-54.2,24.3-54.2,54.2v299.3h69V267.5h76c45.8,0,61.5,23.7,61.5,55.5
		c0,32.3-15.6,56.1-61.5,56.1H1496v63.6h46.9c91.7,0,132.6-50.7,132.6-119.7C1675.6,254,1634.6,203.4,1542.9,203.4"/>
	<rect x="876.1" y="202.5" class="st5" width="64.2" height="354.4"/>
	<path class="st6" d="M876.2,161.2h64.2V83.7c-35.4,0-64.2,28.7-64.2,64.2V161.2z"/>
	<path class="st5" d="M1241.5,332.3L1070.9,209v0.1c-6.7-4.2-14.7-6.6-23.2-6.6c-24.4,0-44.2,19.8-44.2,44.2v310.2h64.5V289.7
		l173.5,125.5V332.3z"/>
	<path class="st6" d="M1094,426.9l170.6,123.2V550c6.7,4.2,14.7,6.6,23.2,6.6c24.4,0,44.2-19.8,44.2-44.2V202.2h-64.5v267.2
		L1094,344V426.9z"/>
	<polygon class="st5" points="1003.5,102.5 1024.9,102.5 1024.9,161.5 1045,161.5 1045,102.5 1066.4,102.5 1066.4,84 1003.5,84 	"/>
	<path class="st5" d="M1118.4,82c-24.3,0-41.2,16.6-41.2,40.3c0,23.6,17.3,40.7,41.2,40.7c24,0,41.5-17.1,41.5-40.7
		C1159.9,98.6,1142.9,82,1118.4,82 M1118.5,144.2c-11.8,0-20.1-9-20.1-21.9c0-12.8,8.3-21.7,20.1-21.7c11.9,0,20.2,8.9,20.2,21.7
		C1138.8,135.2,1130.4,144.2,1118.5,144.2"/>
	<path class="st5" d="M1229.3,131.3c0,5.9-2.1,12.9-11.8,12.9c-9.8,0-11.8-7-11.8-12.9V83.8h-20.1v48c0,18.4,13.1,31.2,31.9,31.2
		s31.9-12.8,31.9-31.2v-48h-20.1V131.3z"/>
	<polygon class="st5" points="1296.3,83.8 1276.2,83.8 1276.2,161.2 1325.9,161.2 1325.9,142.5 1296.3,142.5 	"/>
	<path class="st5" d="M1380.8,82c-24.3,0-41.2,16.6-41.2,40.3c0,23.6,17.3,40.7,41.2,40.7c24,0,41.5-17.1,41.5-40.7
		C1422.3,98.6,1405.2,82,1380.8,82 M1380.9,144.2c-11.8,0-20.1-9-20.1-21.9c0-12.8,8.3-21.7,20.1-21.7c11.9,0,20.2,8.9,20.2,21.7
		C1401.1,135.2,1392.8,144.2,1380.9,144.2"/>
	<path class="st5" d="M1487.8,131.3c0,5.9-2.1,12.9-11.8,12.9c-9.8,0-11.8-7-11.8-12.9V83.8H1444v48c0,18.4,13.1,31.2,31.9,31.2
		s31.9-12.8,31.9-31.2v-48h-20.1L1487.8,131.3L1487.8,131.3z"/>
	<path class="st5" d="M1563.1,100c3.6,0,7.8,1.9,9.8,4.5l2.8,3.6l13.7-15l-2.7-2.6c-5.7-5.3-14.2-8.5-22.9-8.5
		c-14.1,0-29.4,7.6-29.4,24.3c0,17.1,14.2,21.6,20.3,23.5l0.8,0.2c9,2.8,12.6,4.3,12.6,8.2c0,6.2-7.3,6.5-8.8,6.5
		c-4.5,0-9.6-2.5-12.2-6.1l-2.6-3.5l-14.7,13.7l2.4,2.8c6,7.1,16.1,11.3,26.9,11.3c17.5,0,29.3-10.5,29.3-26.1
		c0-16.9-15-21.6-23.1-24.1c-8.7-2.7-10.6-4-10.6-7.1C1554.6,100.1,1562.8,100,1563.1,100"/>
	<polygon class="st5" points="1637.8,142.5 1637.8,130.5 1669.8,130.5 1669.8,112.4 1637.8,112.4 1637.8,102.3 1671.6,102.3 
		1671.6,83.8 1617.7,83.8 1617.7,161.2 1673.4,161.2 1673.4,142.5 	"/>
	<path class="st6" d="M2142.9,245c-28.5,0-56.6,0-85.4,0c0-14.4,0.2-42.8,0.2-42.8h5.4c0,0,76.8,0,115.2-0.1c6.1,0,9.2,0.8,9.9,8.3
		c4.3,40.7-2.5,80.1-13.2,118.9c-7,25.4-17.6,49.8-25.1,75.1c-8,27.1-15.4,54.5-20.7,82.3c-4.4,23.1-5.5,46.9-8.1,71
		c-13.8,0-28.4,0-44.6,0c0-6.3-0.5-12.8,0.1-19.1c1.7-17.1,2.9-34.3,6-51.1c4.3-23.4,8.8-46.9,15.6-69.7c8.3-27.7,19.4-54.6,28.7-82
		c9.3-27.6,15-56.1,16.6-85.2C2143.5,249,2143.1,247.4,2142.9,245z"/>
	<path class="st6" d="M1858.4,331.3l98.1,208.9l0,0c4.1,10,14.5,17.5,25.1,17.5c25.5,0,25.5,0,25.5-17.5l0,0v-3.5l0,0l-0.1-311.5
		c0,0,0,0,0,0.1v-0.1c0-12.9-12.7-23.1-28.4-23.3c-20.3-0.2-19.8,0-19.8,23.4c0,0.1,0-0.1,0,0l0,0v169.2c0,5.3,0,22,0,32.2
		l-98.2-206.1l0,0c-4-9.5-13.8-18.8-25.5-18.8c-25.8,0.1-25.8,0.1-25.8,18.9l0,0l0.1,313.4l0,0c0,0,0,0,0,0.1
		c0,12.9,12.7,23.3,28.4,23.3c20.3,0,20.3,0,20.3-23.3"/>
</g>
</svg>
