<?xml version="1.0" encoding="utf-8"?>
<svg xmlns="http://www.w3.org/2000/svg" xmlns:xlink="http://www.w3.org/1999/xlink" width="600" height="400" viewBox="0 0 2400 1600">
<defs>
  <clipPath id="clip610">
    <rect x="0" y="0" width="2400" height="1600"/>
  </clipPath>
</defs>
<path clip-path="url(#clip610)" d="M0 1600 L2400 1600 L2400 8.88178e-14 L0 8.88178e-14  Z" fill="#ffffff" fill-rule="evenodd" fill-opacity="1"/>
<defs>
  <clipPath id="clip611">
    <rect x="480" y="0" width="1681" height="1600"/>
  </clipPath>
</defs>
<path clip-path="url(#clip610)" d="M47.2441 1552.76 L2352.76 1552.76 L2352.76 47.2441 L47.2441 47.2441  Z" fill="#ffffff" fill-rule="evenodd" fill-opacity="1"/>
<defs>
  <clipPath id="clip612">
    <rect x="47" y="47" width="2307" height="1507"/>
  </clipPath>
</defs>
<polyline clip-path="url(#clip612)" style="stroke:#0000ff; stroke-linecap:round; stroke-linejoin:round; stroke-width:8; stroke-opacity:1; fill:none" points="47.2441,1682.02 70.5321,1664.74 93.8201,1647.46 117.108,1630.17 140.396,1612.89 163.684,1595.61 186.972,1578.33 210.26,1561.05 233.548,1543.77 256.836,1526.49 280.124,1509.21 303.412,1491.93 326.7,1474.65 349.988,1457.37 373.276,1440.08 396.564,1422.8 419.852,1405.52 443.14,1388.24 466.428,1370.96 489.716,1353.68 513.004,1336.4 536.292,1319.12 559.58,1301.84 582.868,1284.56 606.156,1267.28 629.444,1249.99 652.732,1232.71 676.02,1215.43 699.308,1198.15 722.596,1180.87 745.884,1163.59 769.172,1146.31 792.46,1129.03 815.748,1111.75 839.036,1094.47 862.324,1077.19 885.612,1059.9 908.9,1042.62 932.188,1025.34 955.476,1008.06 978.764,990.781 1002.05,973.5 1025.34,956.219 1048.63,938.938 1071.92,921.658 1095.2,904.377 1118.49,887.096 1141.78,869.815 1165.07,852.534 1188.36,835.253 1211.64,817.972 1234.93,800.691 1258.22,783.41 1281.51,766.129 1304.8,748.849 1328.08,731.568 1351.37,714.287 1374.66,697.006 1397.95,679.725 1421.24,662.444 1444.52,645.163 1467.81,627.882 1491.1,610.601 1514.39,593.32 1537.68,576.04 1560.96,558.759 1584.25,541.478 1607.54,524.197 1630.83,506.916 1654.12,489.635 1677.4,472.354 1700.69,455.073 1723.98,437.792 1747.27,420.511 1770.56,403.231 1793.84,385.95 1817.13,368.669 1840.42,351.388 1863.71,334.107 1887,316.826 1910.28,299.545 1933.57,282.264 1956.86,264.983 1980.15,247.703 2003.44,230.422 2026.72,213.141 2050.01,195.86 2073.3,178.579 2096.59,161.298 2119.88,144.017 2143.16,126.736 2166.45,109.455 2189.74,92.1744 2213.03,74.8935 2236.32,57.6126 2259.6,40.3317 2282.89,23.0508 2306.18,5.76994 2329.47,-11.511 2352.76,-28.7919 "/>
<polyline clip-path="url(#clip612)" style="stroke:#ff0000; stroke-linecap:round; stroke-linejoin:round; stroke-width:8; stroke-opacity:1; fill:none" points="47.2441,1415.89 70.5321,1404.37 93.8201,1392.85 117.108,1381.33 140.396,1369.81 163.684,1358.29 186.972,1346.77 210.26,1335.25 233.548,1323.73 256.836,1312.21 280.124,1300.69 303.412,1289.16 326.7,1277.64 349.988,1266.12 373.276,1254.6 396.564,1243.08 419.852,1231.56 443.14,1220.04 466.428,1208.52 489.716,1197 513.004,1185.48 536.292,1173.96 559.58,1162.44 582.868,1150.92 606.156,1139.4 629.444,1127.88 652.732,1116.36 676.02,1104.84 699.308,1093.31 722.596,1081.79 745.884,1070.27 769.172,1058.75 792.46,1047.23 815.748,1035.71 839.036,1024.19 862.324,1012.67 885.612,1001.15 908.9,989.629 932.188,978.108 955.476,966.588 978.764,955.067 1002.05,943.547 1025.34,932.026 1048.63,920.505 1071.92,908.985 1095.2,897.464 1118.49,885.944 1141.78,874.423 1165.07,862.902 1188.36,851.382 1211.64,839.861 1234.93,828.341 1258.22,816.82 1281.51,805.299 1304.8,793.779 1328.08,782.258 1351.37,770.738 1374.66,759.217 1397.95,747.696 1421.24,736.176 1444.52,724.655 1467.81,713.135 1491.1,701.614 1514.39,690.093 1537.68,678.573 1560.96,667.052 1584.25,655.532 1607.54,644.011 1630.83,632.49 1654.12,620.97 1677.4,609.449 1700.69,597.929 1723.98,586.408 1747.27,574.888 1770.56,563.367 1793.84,551.846 1817.13,540.326 1840.42,528.805 1863.71,517.285 1887,505.764 1910.28,494.243 1933.57,482.723 1956.86,471.202 1980.15,459.682 2003.44,448.161 2026.72,436.64 2050.01,425.12 2073.3,413.599 2096.59,402.079 2119.88,390.558 2143.16,379.037 2166.45,367.517 2189.74,355.996 2213.03,344.476 2236.32,332.955 2259.6,321.434 2282.89,309.914 2306.18,298.393 2329.47,286.873 2352.76,275.352 "/>
<polyline clip-path="url(#clip612)" style="stroke:#000000; stroke-linecap:round; stroke-linejoin:round; stroke-width:4; stroke-opacity:1; fill:none" points="47.2441,1415.89 2352.76,1415.89 "/>
<polyline clip-path="url(#clip612)" style="stroke:#000000; stroke-linecap:round; stroke-linejoin:round; stroke-width:4; stroke-opacity:1; fill:none" points="2316.76,1397.89 2352.76,1415.89 2316.76,1433.89 "/>
<polyline clip-path="url(#clip612)" style="stroke:#000000; stroke-linecap:round; stroke-linejoin:round; stroke-width:4; stroke-opacity:1; fill:none" points="2352.76,1415.89 47.2441,1415.89 "/>
<circle clip-path="url(#clip612)" cx="969.449" cy="959.675" r="14.4" fill="#000000" fill-rule="evenodd" fill-opacity="1" stroke="none"/>
<circle clip-path="url(#clip612)" cx="1430.55" cy="731.568" r="14.4" fill="#000000" fill-rule="evenodd" fill-opacity="1" stroke="none"/>
<circle clip-path="url(#clip612)" cx="1891.65" cy="275.352" r="14.4" fill="#000000" fill-rule="evenodd" fill-opacity="1" stroke="none"/>
<polyline clip-path="url(#clip612)" style="stroke:#000000; stroke-linecap:round; stroke-linejoin:round; stroke-width:4; stroke-opacity:1; fill:none" points="508.346,1552.76 508.346,47.2441 "/>
<polyline clip-path="url(#clip612)" style="stroke:#000000; stroke-linecap:round; stroke-linejoin:round; stroke-width:4; stroke-opacity:1; fill:none" points="490.346,83.2441 508.346,47.2441 526.346,83.2441 "/>
<polyline clip-path="url(#clip612)" style="stroke:#000000; stroke-linecap:round; stroke-linejoin:round; stroke-width:4; stroke-opacity:1; fill:none" points="508.346,47.2441 508.346,1552.76 "/>
<path clip-path="url(#clip610)" d="M2323.59 1514.71 Q2323.59 1516.51 2322.75 1516.96 Q2321.91 1517.35 2319.59 1517.35 L2307.23 1517.35 L2297.44 1556.25 Q2296.66 1559.67 2296.66 1562.57 Q2296.66 1565.79 2297.63 1567.2 Q2298.66 1568.62 2300.79 1568.62 Q2304.97 1568.62 2309.48 1564.82 Q2314.05 1561.02 2317.92 1551.74 Q2318.43 1550.52 2318.69 1550.26 Q2319.01 1549.94 2319.85 1549.94 Q2321.46 1549.94 2321.46 1551.23 Q2321.46 1551.68 2320.56 1553.74 Q2319.72 1555.8 2317.86 1558.83 Q2316.05 1561.86 2313.67 1564.69 Q2311.35 1567.52 2307.81 1569.59 Q2304.26 1571.58 2300.46 1571.58 Q2295.12 1571.58 2291.7 1568.17 Q2288.35 1564.76 2288.35 1559.41 Q2288.35 1557.67 2289.71 1552.13 Q2291.06 1546.53 2298.4 1517.35 L2286.74 1517.35 Q2285.13 1517.35 2284.49 1517.28 Q2283.91 1517.22 2283.46 1516.9 Q2283.07 1516.51 2283.07 1515.74 Q2283.07 1514.51 2283.59 1514 Q2284.1 1513.42 2284.75 1513.35 Q2285.46 1513.23 2287.07 1513.23 L2299.43 1513.23 L2304.59 1492.29 Q2305.1 1490.23 2306.39 1489.07 Q2307.74 1487.85 2308.52 1487.72 Q2309.29 1487.53 2309.87 1487.53 Q2311.61 1487.53 2312.64 1488.49 Q2313.67 1489.39 2313.67 1491.07 Q2313.67 1491.97 2308.26 1513.23 L2319.85 1513.23 Q2321.33 1513.23 2321.91 1513.29 Q2322.56 1513.35 2323.07 1513.68 Q2323.59 1514 2323.59 1514.71 Z" fill="#000000" fill-rule="nonzero" fill-opacity="1" /><path clip-path="url(#clip610)" d="M398.363 48.5907 Q398.363 52.1977 396.108 54.2589 Q393.854 56.2557 391.277 56.2557 Q388.83 56.2557 387.541 54.8386 Q386.253 53.4215 386.253 51.618 Q386.253 49.1704 388.057 47.0448 Q389.86 44.9192 392.566 44.4683 Q389.925 42.7936 385.996 42.7936 Q383.419 42.7936 381.165 44.1463 Q378.975 45.4989 377.622 47.238 Q376.334 48.9771 375.174 51.4892 Q374.079 53.9368 373.628 55.4183 Q373.242 56.8354 372.92 58.3812 L368.411 76.4165 Q366.221 84.9833 366.221 88.0106 Q366.221 91.7465 368.025 94.2586 Q369.828 96.7062 373.435 96.7062 Q374.852 96.7062 376.463 96.3198 Q378.073 95.8689 380.134 94.7095 Q382.26 93.4856 384.128 91.6821 Q386.06 89.8142 387.928 86.658 Q389.796 83.5018 391.02 79.4439 Q391.406 78.0268 392.694 78.0268 Q394.305 78.0268 394.305 79.3151 Q394.305 80.4101 393.403 82.7289 Q392.566 84.9833 390.698 87.9462 Q388.894 90.8448 386.511 93.4856 Q384.128 96.0621 380.585 97.8656 Q377.042 99.6692 373.178 99.6692 Q367.638 99.6692 363.967 96.7062 Q360.295 93.7433 358.943 89.6209 Q358.621 90.2006 358.17 90.9736 Q357.719 91.7465 356.366 93.4856 Q355.078 95.1603 353.596 96.4486 Q352.115 97.6724 349.796 98.6386 Q347.542 99.6692 345.094 99.6692 Q342.002 99.6692 339.233 98.7674 Q336.527 97.8656 334.595 95.8045 Q332.663 93.7433 332.663 90.9092 Q332.663 87.753 334.788 85.563 Q336.978 83.3086 339.941 83.3086 Q341.809 83.3086 343.291 84.4036 Q344.836 85.4986 344.836 87.8818 Q344.836 90.5227 343.033 92.5195 Q341.229 94.5162 338.653 95.0315 Q341.294 96.7062 345.223 96.7062 Q349.474 96.7062 352.823 92.9703 Q356.173 89.2345 357.783 82.9865 Q361.777 67.9786 363.323 61.2798 Q364.868 54.5165 364.868 51.618 Q364.868 48.9127 364.16 47.0448 Q363.451 45.1768 362.228 44.3395 Q361.068 43.4377 359.973 43.1157 Q358.943 42.7936 357.783 42.7936 Q355.851 42.7936 353.661 43.5666 Q351.535 44.3395 348.959 46.143 Q346.447 47.8821 344.063 51.4892 Q341.68 55.0962 340.07 60.056 Q339.748 61.5374 338.331 61.5374 Q336.785 61.473 336.785 60.1848 Q336.785 59.0898 337.622 56.8354 Q338.524 54.5165 340.328 51.618 Q342.196 48.7195 344.579 46.143 Q347.026 43.5021 350.569 41.6986 Q354.176 39.8951 358.041 39.8951 Q359.78 39.8951 361.455 40.2816 Q363.194 40.6036 365.255 41.5698 Q367.381 42.536 369.248 44.6616 Q371.116 46.7871 372.276 49.8789 Q373.049 48.3974 374.079 46.9804 Q375.174 45.5633 376.849 43.8242 Q378.588 42.0207 380.971 40.9901 Q383.419 39.8951 386.124 39.8951 Q388.765 39.8951 391.342 40.6036 Q393.918 41.2477 396.108 43.3733 Q398.363 45.4345 398.363 48.5907 Z" fill="#000000" fill-rule="nonzero" fill-opacity="1" /><path clip-path="url(#clip610)" d="M687.089 842.635 Q687.089 820.349 695.398 802.378 Q698.941 794.842 703.9 788.529 Q708.86 782.217 712.145 779.447 Q715.43 776.678 716.332 776.678 Q717.62 776.678 717.684 777.966 Q717.684 778.61 715.945 780.22 Q694.689 801.862 694.754 842.635 Q694.754 883.537 715.43 904.342 Q717.684 906.596 717.684 907.304 Q717.684 908.593 716.332 908.593 Q715.43 908.593 712.274 905.952 Q709.118 903.311 704.222 897.256 Q699.327 891.202 695.784 883.794 Q687.089 865.823 687.089 842.635 Z" fill="#000000" fill-rule="nonzero" fill-opacity="1" /><path clip-path="url(#clip610)" d="M778.259 820.22 Q778.259 822.023 777.421 822.474 Q776.584 822.861 774.265 822.861 L761.898 822.861 L752.107 861.765 Q751.334 865.179 751.334 868.078 Q751.334 871.298 752.301 872.715 Q753.331 874.132 755.457 874.132 Q759.644 874.132 764.152 870.332 Q768.726 866.532 772.59 857.257 Q773.106 856.033 773.363 855.775 Q773.685 855.453 774.523 855.453 Q776.133 855.453 776.133 856.741 Q776.133 857.192 775.231 859.253 Q774.394 861.315 772.526 864.342 Q770.722 867.369 768.339 870.203 Q766.02 873.037 762.478 875.099 Q758.935 877.095 755.135 877.095 Q749.789 877.095 746.375 873.682 Q743.025 870.268 743.025 864.922 Q743.025 863.182 744.378 857.643 Q745.731 852.039 753.074 822.861 L741.415 822.861 Q739.805 822.861 739.161 822.796 Q738.581 822.732 738.13 822.41 Q737.744 822.023 737.744 821.25 Q737.744 820.027 738.259 819.511 Q738.774 818.932 739.418 818.867 Q740.127 818.738 741.737 818.738 L754.104 818.738 L759.257 797.805 Q759.772 795.743 761.061 794.584 Q762.413 793.36 763.186 793.231 Q763.959 793.038 764.539 793.038 Q766.278 793.038 767.309 794.004 Q768.339 794.906 768.339 796.581 Q768.339 797.482 762.929 818.738 L774.523 818.738 Q776.004 818.738 776.584 818.803 Q777.228 818.867 777.743 819.189 Q778.259 819.511 778.259 820.22 Z" fill="#000000" fill-rule="nonzero" fill-opacity="1" /><path clip-path="url(#clip610)" d="M791.949 860.921 L791.949 858.035 Q803.04 858.035 808.766 852.129 Q810.345 852.129 810.615 852.49 Q810.886 852.85 810.886 854.519 L810.886 906.325 Q810.886 909.075 812.238 909.932 Q813.591 910.789 819.497 910.789 L822.428 910.789 L822.428 913.629 Q819.182 913.359 807.459 913.359 Q795.736 913.359 792.535 913.629 L792.535 910.789 L795.465 910.789 Q801.282 910.789 802.68 909.977 Q804.077 909.12 804.077 906.325 L804.077 858.486 Q799.253 860.921 791.949 860.921 Z" fill="#000000" fill-rule="nonzero" fill-opacity="1" /><path clip-path="url(#clip610)" d="M838.084 873.488 Q836.216 871.363 836.216 868.593 Q836.216 865.823 838.02 863.762 Q839.888 861.637 843.237 861.637 Q847.166 861.637 849.42 865.437 Q851.675 869.173 851.675 875.485 Q851.675 882.313 848.905 888.625 Q846.135 895.002 843.43 898.029 Q840.725 901.057 839.63 901.057 Q838.342 901.057 838.342 899.639 Q838.342 899.124 839.243 898.158 Q848.712 887.981 848.776 875.485 Q848.776 873.488 848.519 873.488 L848.197 873.746 Q845.942 875.614 843.237 875.614 Q839.952 875.614 838.084 873.488 Z" fill="#000000" fill-rule="nonzero" fill-opacity="1" /><path clip-path="url(#clip610)" d="M959.003 826.017 Q959.003 829.624 956.749 831.685 Q954.494 833.682 951.918 833.682 Q949.47 833.682 948.182 832.265 Q946.894 830.848 946.894 829.044 Q946.894 826.597 948.697 824.471 Q950.501 822.345 953.206 821.895 Q950.565 820.22 946.636 820.22 Q944.06 820.22 941.805 821.572 Q939.615 822.925 938.263 824.664 Q936.974 826.403 935.815 828.915 Q934.72 831.363 934.269 832.845 Q933.883 834.262 933.56 835.807 L929.052 853.843 Q926.862 862.41 926.862 865.437 Q926.862 869.173 928.665 871.685 Q930.469 874.132 934.076 874.132 Q935.493 874.132 937.103 873.746 Q938.713 873.295 940.775 872.136 Q942.9 870.912 944.768 869.108 Q946.7 867.24 948.568 864.084 Q950.436 860.928 951.66 856.87 Q952.047 855.453 953.335 855.453 Q954.945 855.453 954.945 856.741 Q954.945 857.836 954.043 860.155 Q953.206 862.41 951.338 865.372 Q949.535 868.271 947.151 870.912 Q944.768 873.488 941.225 875.292 Q937.683 877.095 933.818 877.095 Q928.279 877.095 924.607 874.132 Q920.936 871.17 919.583 867.047 Q919.261 867.627 918.81 868.4 Q918.359 869.173 917.007 870.912 Q915.718 872.587 914.237 873.875 Q912.755 875.099 910.437 876.065 Q908.182 877.095 905.735 877.095 Q902.643 877.095 899.873 876.194 Q897.168 875.292 895.235 873.231 Q893.303 871.17 893.303 868.335 Q893.303 865.179 895.429 862.989 Q897.619 860.735 900.582 860.735 Q902.45 860.735 903.931 861.83 Q905.477 862.925 905.477 865.308 Q905.477 867.949 903.673 869.946 Q901.87 871.942 899.293 872.458 Q901.934 874.132 905.863 874.132 Q910.115 874.132 913.464 870.397 Q916.813 866.661 918.424 860.413 Q922.417 845.405 923.963 838.706 Q925.509 831.943 925.509 829.044 Q925.509 826.339 924.8 824.471 Q924.092 822.603 922.868 821.766 Q921.709 820.864 920.614 820.542 Q919.583 820.22 918.424 820.22 Q916.491 820.22 914.301 820.993 Q912.176 821.766 909.599 823.569 Q907.087 825.308 904.704 828.915 Q902.321 832.522 900.71 837.482 Q900.388 838.964 898.971 838.964 Q897.425 838.899 897.425 837.611 Q897.425 836.516 898.263 834.262 Q899.165 831.943 900.968 829.044 Q902.836 826.146 905.219 823.569 Q907.667 820.928 911.21 819.125 Q914.817 817.321 918.681 817.321 Q920.42 817.321 922.095 817.708 Q923.834 818.03 925.895 818.996 Q928.021 819.962 929.889 822.088 Q931.757 824.213 932.916 827.305 Q933.689 825.824 934.72 824.407 Q935.815 822.99 937.49 821.25 Q939.229 819.447 941.612 818.416 Q944.06 817.321 946.765 817.321 Q949.406 817.321 951.982 818.03 Q954.559 818.674 956.749 820.8 Q959.003 822.861 959.003 826.017 Z" fill="#000000" fill-rule="nonzero" fill-opacity="1" /><path clip-path="url(#clip610)" d="M972.446 860.921 L972.446 858.035 Q983.537 858.035 989.264 852.129 Q990.842 852.129 991.112 852.49 Q991.383 852.85 991.383 854.519 L991.383 906.325 Q991.383 909.075 992.735 909.932 Q994.088 910.789 999.995 910.789 L1002.93 910.789 L1002.93 913.629 Q999.679 913.359 987.956 913.359 Q976.233 913.359 973.032 913.629 L973.032 910.789 L975.963 910.789 Q981.779 910.789 983.177 909.977 Q984.574 909.12 984.574 906.325 L984.574 858.486 Q979.75 860.921 972.446 860.921 Z" fill="#000000" fill-rule="nonzero" fill-opacity="1" /><path clip-path="url(#clip610)" d="M1016.71 907.304 Q1016.71 906.66 1018.39 905.05 Q1039.64 883.408 1039.64 842.635 Q1039.64 801.734 1019.23 781.058 Q1016.71 778.674 1016.71 777.966 Q1016.71 776.678 1018 776.678 Q1018.9 776.678 1022.06 779.318 Q1025.28 781.959 1030.11 788.014 Q1035.01 794.069 1038.61 801.476 Q1047.31 819.447 1047.31 842.635 Q1047.31 864.922 1039 882.892 Q1035.46 890.429 1030.5 896.741 Q1025.54 903.053 1022.25 905.823 Q1018.97 908.593 1018 908.593 Q1016.71 908.593 1016.71 907.304 Z" fill="#000000" fill-rule="nonzero" fill-opacity="1" /><path clip-path="url(#clip610)" d="M1326.3 842.635 Q1326.3 820.349 1334.61 802.378 Q1338.15 794.842 1343.11 788.529 Q1348.07 782.217 1351.36 779.447 Q1354.64 776.678 1355.54 776.678 Q1356.83 776.678 1356.89 777.966 Q1356.89 778.61 1355.16 780.22 Q1333.9 801.862 1333.96 842.635 Q1333.96 883.537 1354.64 904.342 Q1356.89 906.596 1356.89 907.304 Q1356.89 908.593 1355.54 908.593 Q1354.64 908.593 1351.48 905.952 Q1348.33 903.311 1343.43 897.256 Q1338.54 891.202 1334.99 883.794 Q1326.3 865.823 1326.3 842.635 Z" fill="#000000" fill-rule="nonzero" fill-opacity="1" /><path clip-path="url(#clip610)" d="M1417.47 820.22 Q1417.47 822.023 1416.63 822.474 Q1415.79 822.861 1413.48 822.861 L1401.11 822.861 L1391.32 861.765 Q1390.54 865.179 1390.54 868.078 Q1390.54 871.298 1391.51 872.715 Q1392.54 874.132 1394.67 874.132 Q1398.85 874.132 1403.36 870.332 Q1407.94 866.532 1411.8 857.257 Q1412.32 856.033 1412.57 855.775 Q1412.9 855.453 1413.73 855.453 Q1415.34 855.453 1415.34 856.741 Q1415.34 857.192 1414.44 859.253 Q1413.6 861.315 1411.74 864.342 Q1409.93 867.369 1407.55 870.203 Q1405.23 873.037 1401.69 875.099 Q1398.15 877.095 1394.35 877.095 Q1389 877.095 1385.59 873.682 Q1382.24 870.268 1382.24 864.922 Q1382.24 863.182 1383.59 857.643 Q1384.94 852.039 1392.28 822.861 L1380.63 822.861 Q1379.02 822.861 1378.37 822.796 Q1377.79 822.732 1377.34 822.41 Q1376.95 822.023 1376.95 821.25 Q1376.95 820.027 1377.47 819.511 Q1377.98 818.932 1378.63 818.867 Q1379.34 818.738 1380.95 818.738 L1393.31 818.738 L1398.47 797.805 Q1398.98 795.743 1400.27 794.584 Q1401.62 793.36 1402.4 793.231 Q1403.17 793.038 1403.75 793.038 Q1405.49 793.038 1406.52 794.004 Q1407.55 794.906 1407.55 796.581 Q1407.55 797.482 1402.14 818.738 L1413.73 818.738 Q1415.21 818.738 1415.79 818.803 Q1416.44 818.867 1416.95 819.189 Q1417.47 819.511 1417.47 820.22 Z" fill="#000000" fill-rule="nonzero" fill-opacity="1" /><path clip-path="url(#clip610)" d="M1431.16 913.629 Q1431.16 911.961 1431.29 911.465 Q1431.47 910.969 1432.2 910.203 L1449.92 890.454 Q1459.61 879.543 1459.61 870.029 Q1459.61 863.852 1456.36 859.433 Q1453.16 855.015 1447.26 855.015 Q1443.2 855.015 1439.77 857.494 Q1436.34 859.974 1434.77 864.393 Q1435.04 864.303 1435.98 864.303 Q1438.28 864.303 1439.55 865.746 Q1440.85 867.188 1440.85 869.127 Q1440.85 871.607 1439.23 872.824 Q1437.65 873.997 1436.07 873.997 Q1435.44 873.997 1434.59 873.861 Q1433.77 873.726 1432.47 872.464 Q1431.16 871.156 1431.16 868.857 Q1431.16 862.409 1436.03 857.269 Q1440.94 852.129 1448.43 852.129 Q1456.9 852.129 1462.45 857.179 Q1468.04 862.184 1468.04 870.029 Q1468.04 872.779 1467.18 875.304 Q1466.37 877.784 1465.25 879.723 Q1464.16 881.662 1461.19 884.773 Q1458.21 887.884 1455.82 890.093 Q1453.43 892.303 1448.07 896.992 L1438.28 906.505 L1454.92 906.505 Q1463.04 906.505 1463.67 905.784 Q1464.57 904.476 1465.7 897.578 L1468.04 897.578 L1465.43 913.629 L1431.16 913.629 Z" fill="#000000" fill-rule="nonzero" fill-opacity="1" /><path clip-path="url(#clip610)" d="M1483.63 873.488 Q1481.76 871.363 1481.76 868.593 Q1481.76 865.823 1483.56 863.762 Q1485.43 861.637 1488.78 861.637 Q1492.71 861.637 1494.96 865.437 Q1497.22 869.173 1497.22 875.485 Q1497.22 882.313 1494.45 888.625 Q1491.68 895.002 1488.97 898.029 Q1486.27 901.057 1485.17 901.057 Q1483.88 901.057 1483.88 899.639 Q1483.88 899.124 1484.79 898.158 Q1494.26 887.981 1494.32 875.485 Q1494.32 873.488 1494.06 873.488 L1493.74 873.746 Q1491.49 875.614 1488.78 875.614 Q1485.5 875.614 1483.63 873.488 Z" fill="#000000" fill-rule="nonzero" fill-opacity="1" /><path clip-path="url(#clip610)" d="M1604.55 826.017 Q1604.55 829.624 1602.29 831.685 Q1600.04 833.682 1597.46 833.682 Q1595.01 833.682 1593.73 832.265 Q1592.44 830.848 1592.44 829.044 Q1592.44 826.597 1594.24 824.471 Q1596.04 822.345 1598.75 821.895 Q1596.11 820.22 1592.18 820.22 Q1589.6 820.22 1587.35 821.572 Q1585.16 822.925 1583.81 824.664 Q1582.52 826.403 1581.36 828.915 Q1580.26 831.363 1579.81 832.845 Q1579.43 834.262 1579.1 835.807 L1574.59 853.843 Q1572.4 862.41 1572.4 865.437 Q1572.4 869.173 1574.21 871.685 Q1576.01 874.132 1579.62 874.132 Q1581.04 874.132 1582.65 873.746 Q1584.26 873.295 1586.32 872.136 Q1588.44 870.912 1590.31 869.108 Q1592.24 867.24 1594.11 864.084 Q1595.98 860.928 1597.2 856.87 Q1597.59 855.453 1598.88 855.453 Q1600.49 855.453 1600.49 856.741 Q1600.49 857.836 1599.59 860.155 Q1598.75 862.41 1596.88 865.372 Q1595.08 868.271 1592.69 870.912 Q1590.31 873.488 1586.77 875.292 Q1583.23 877.095 1579.36 877.095 Q1573.82 877.095 1570.15 874.132 Q1566.48 871.17 1565.13 867.047 Q1564.8 867.627 1564.35 868.4 Q1563.9 869.173 1562.55 870.912 Q1561.26 872.587 1559.78 873.875 Q1558.3 875.099 1555.98 876.065 Q1553.73 877.095 1551.28 877.095 Q1548.19 877.095 1545.42 876.194 Q1542.71 875.292 1540.78 873.231 Q1538.85 871.17 1538.85 868.335 Q1538.85 865.179 1540.97 862.989 Q1543.16 860.735 1546.12 860.735 Q1547.99 860.735 1549.47 861.83 Q1551.02 862.925 1551.02 865.308 Q1551.02 867.949 1549.22 869.946 Q1547.41 871.942 1544.84 872.458 Q1547.48 874.132 1551.41 874.132 Q1555.66 874.132 1559.01 870.397 Q1562.36 866.661 1563.97 860.413 Q1567.96 845.405 1569.51 838.706 Q1571.05 831.943 1571.05 829.044 Q1571.05 826.339 1570.34 824.471 Q1569.64 822.603 1568.41 821.766 Q1567.25 820.864 1566.16 820.542 Q1565.13 820.22 1563.97 820.22 Q1562.03 820.22 1559.84 820.993 Q1557.72 821.766 1555.14 823.569 Q1552.63 825.308 1550.25 828.915 Q1547.86 832.522 1546.25 837.482 Q1545.93 838.964 1544.51 838.964 Q1542.97 838.899 1542.97 837.611 Q1542.97 836.516 1543.81 834.262 Q1544.71 831.943 1546.51 829.044 Q1548.38 826.146 1550.76 823.569 Q1553.21 820.928 1556.75 819.125 Q1560.36 817.321 1564.22 817.321 Q1565.96 817.321 1567.64 817.708 Q1569.38 818.03 1571.44 818.996 Q1573.56 819.962 1575.43 822.088 Q1577.3 824.213 1578.46 827.305 Q1579.23 825.824 1580.26 824.407 Q1581.36 822.99 1583.03 821.25 Q1584.77 819.447 1587.16 818.416 Q1589.6 817.321 1592.31 817.321 Q1594.95 817.321 1597.53 818.03 Q1600.1 818.674 1602.29 820.8 Q1604.55 822.861 1604.55 826.017 Z" fill="#000000" fill-rule="nonzero" fill-opacity="1" /><path clip-path="url(#clip610)" d="M1617.99 913.629 Q1617.99 911.961 1618.12 911.465 Q1618.3 910.969 1619.03 910.203 L1636.75 890.454 Q1646.44 879.543 1646.44 870.029 Q1646.44 863.852 1643.19 859.433 Q1639.99 855.015 1634.09 855.015 Q1630.03 855.015 1626.6 857.494 Q1623.17 859.974 1621.6 864.393 Q1621.87 864.303 1622.81 864.303 Q1625.11 864.303 1626.38 865.746 Q1627.68 867.188 1627.68 869.127 Q1627.68 871.607 1626.06 872.824 Q1624.48 873.997 1622.9 873.997 Q1622.27 873.997 1621.42 873.861 Q1620.6 873.726 1619.3 872.464 Q1617.99 871.156 1617.99 868.857 Q1617.99 862.409 1622.86 857.269 Q1627.77 852.129 1635.26 852.129 Q1643.73 852.129 1649.28 857.179 Q1654.87 862.184 1654.87 870.029 Q1654.87 872.779 1654.01 875.304 Q1653.2 877.784 1652.08 879.723 Q1650.99 881.662 1648.02 884.773 Q1645.04 887.884 1642.65 890.093 Q1640.26 892.303 1634.9 896.992 L1625.11 906.505 L1641.75 906.505 Q1649.87 906.505 1650.5 905.784 Q1651.4 904.476 1652.53 897.578 L1654.87 897.578 L1652.26 913.629 L1617.99 913.629 Z" fill="#000000" fill-rule="nonzero" fill-opacity="1" /><path clip-path="url(#clip610)" d="M1668.59 907.304 Q1668.59 906.66 1670.26 905.05 Q1691.52 883.408 1691.52 842.635 Q1691.52 801.734 1671.1 781.058 Q1668.59 778.674 1668.59 777.966 Q1668.59 776.678 1669.88 776.678 Q1670.78 776.678 1673.94 779.318 Q1677.16 781.959 1681.99 788.014 Q1686.88 794.069 1690.49 801.476 Q1699.18 819.447 1699.18 842.635 Q1699.18 864.922 1690.88 882.892 Q1687.33 890.429 1682.37 896.741 Q1677.41 903.053 1674.13 905.823 Q1670.84 908.593 1669.88 908.593 Q1668.59 908.593 1668.59 907.304 Z" fill="#000000" fill-rule="nonzero" fill-opacity="1" /><path clip-path="url(#clip610)" d="M1601.53 157.305 Q1601.53 135.019 1609.84 117.048 Q1613.38 109.512 1618.34 103.199 Q1623.3 96.8871 1626.58 94.1174 Q1629.87 91.3477 1630.77 91.3477 Q1632.06 91.3477 1632.12 92.6359 Q1632.12 93.2801 1630.38 94.8904 Q1609.13 116.533 1609.19 157.305 Q1609.19 198.207 1629.87 219.012 Q1632.12 221.266 1632.12 221.975 Q1632.12 223.263 1630.77 223.263 Q1629.87 223.263 1626.71 220.622 Q1623.56 217.981 1618.66 211.926 Q1613.77 205.872 1610.22 198.464 Q1601.53 180.494 1601.53 157.305 Z" fill="#000000" fill-rule="nonzero" fill-opacity="1" /><path clip-path="url(#clip610)" d="M1692.7 134.89 Q1692.7 136.694 1691.86 137.144 Q1691.02 137.531 1688.7 137.531 L1676.34 137.531 L1666.55 176.436 Q1665.77 179.849 1665.77 182.748 Q1665.77 185.969 1666.74 187.386 Q1667.77 188.803 1669.9 188.803 Q1674.08 188.803 1678.59 185.002 Q1683.16 181.202 1687.03 171.927 Q1687.54 170.703 1687.8 170.445 Q1688.12 170.123 1688.96 170.123 Q1690.57 170.123 1690.57 171.411 Q1690.57 171.862 1689.67 173.924 Q1688.83 175.985 1686.97 179.012 Q1685.16 182.039 1682.78 184.874 Q1680.46 187.708 1676.92 189.769 Q1673.37 191.766 1669.57 191.766 Q1664.23 191.766 1660.81 188.352 Q1657.46 184.938 1657.46 179.592 Q1657.46 177.853 1658.82 172.313 Q1660.17 166.709 1667.51 137.531 L1655.85 137.531 Q1654.24 137.531 1653.6 137.467 Q1653.02 137.402 1652.57 137.08 Q1652.18 136.694 1652.18 135.921 Q1652.18 134.697 1652.7 134.182 Q1653.21 133.602 1653.86 133.537 Q1654.57 133.409 1656.18 133.409 L1668.54 133.409 L1673.7 112.475 Q1674.21 110.414 1675.5 109.254 Q1676.85 108.03 1677.63 107.902 Q1678.4 107.708 1678.98 107.708 Q1680.72 107.708 1681.75 108.674 Q1682.78 109.576 1682.78 111.251 Q1682.78 112.153 1677.37 133.409 L1688.96 133.409 Q1690.44 133.409 1691.02 133.473 Q1691.67 133.537 1692.18 133.859 Q1692.7 134.182 1692.7 134.89 Z" fill="#000000" fill-rule="nonzero" fill-opacity="1" /><path clip-path="url(#clip610)" d="M1706.39 215.855 Q1706.39 213.105 1707.97 211.797 Q1709.54 210.49 1711.57 210.49 Q1713.69 210.49 1715.18 211.887 Q1716.71 213.24 1716.71 215.63 Q1716.71 218.2 1714.91 219.642 Q1713.15 221.085 1710.63 220.725 Q1712.84 224.422 1716.89 226.09 Q1721 227.758 1724.78 227.758 Q1728.75 227.758 1731.95 224.332 Q1735.2 220.905 1735.2 212.519 Q1735.2 205.395 1732.4 201.292 Q1729.65 197.189 1724.2 197.189 L1720.14 197.189 Q1718.74 197.189 1718.34 197.053 Q1717.93 196.918 1717.93 196.152 Q1717.93 195.25 1719.33 195.069 Q1720.73 195.069 1722.94 194.799 Q1728.3 194.619 1731.14 189.974 Q1733.71 185.646 1733.71 179.469 Q1733.71 173.833 1731.01 171.488 Q1728.35 169.099 1724.87 169.099 Q1721.63 169.099 1718.07 170.451 Q1714.5 171.804 1712.56 174.825 Q1718.29 174.825 1718.29 179.469 Q1718.29 181.498 1716.98 182.851 Q1715.72 184.158 1713.6 184.158 Q1711.57 184.158 1710.22 182.896 Q1708.87 181.588 1708.87 179.379 Q1708.87 174.103 1713.56 170.451 Q1718.29 166.799 1725.23 166.799 Q1732.09 166.799 1737.14 170.406 Q1742.23 174.013 1742.23 179.559 Q1742.23 185.015 1738.63 189.478 Q1735.02 193.942 1729.29 195.791 Q1736.33 197.189 1740.52 201.968 Q1744.71 206.702 1744.71 212.519 Q1744.71 219.733 1739.03 225.053 Q1733.35 230.328 1725.05 230.328 Q1717.39 230.328 1711.89 226.18 Q1706.39 222.032 1706.39 215.855 Z" fill="#000000" fill-rule="nonzero" fill-opacity="1" /><path clip-path="url(#clip610)" d="M1760.29 188.159 Q1758.42 186.033 1758.42 183.263 Q1758.42 180.494 1760.22 178.432 Q1762.09 176.307 1765.44 176.307 Q1769.37 176.307 1771.63 180.107 Q1773.88 183.843 1773.88 190.155 Q1773.88 196.983 1771.11 203.295 Q1768.34 209.672 1765.63 212.699 Q1762.93 215.727 1761.83 215.727 Q1760.55 215.727 1760.55 214.31 Q1760.55 213.794 1761.45 212.828 Q1770.92 202.651 1770.98 190.155 Q1770.98 188.159 1770.72 188.159 L1770.4 188.416 Q1768.15 190.284 1765.44 190.284 Q1762.16 190.284 1760.29 188.159 Z" fill="#000000" fill-rule="nonzero" fill-opacity="1" /><path clip-path="url(#clip610)" d="M1881.21 140.687 Q1881.21 144.294 1878.95 146.355 Q1876.7 148.352 1874.12 148.352 Q1871.67 148.352 1870.39 146.935 Q1869.1 145.518 1869.1 143.714 Q1869.1 141.267 1870.9 139.141 Q1872.71 137.016 1875.41 136.565 Q1872.77 134.89 1868.84 134.89 Q1866.26 134.89 1864.01 136.243 Q1861.82 137.595 1860.47 139.334 Q1859.18 141.074 1858.02 143.586 Q1856.92 146.033 1856.47 147.515 Q1856.09 148.932 1855.77 150.478 L1851.26 168.513 Q1849.07 177.08 1849.07 180.107 Q1849.07 183.843 1850.87 186.355 Q1852.67 188.803 1856.28 188.803 Q1857.7 188.803 1859.31 188.416 Q1860.92 187.965 1862.98 186.806 Q1865.1 185.582 1866.97 183.779 Q1868.91 181.911 1870.77 178.754 Q1872.64 175.598 1873.86 171.54 Q1874.25 170.123 1875.54 170.123 Q1877.15 170.123 1877.15 171.411 Q1877.15 172.506 1876.25 174.825 Q1875.41 177.08 1873.54 180.043 Q1871.74 182.941 1869.36 185.582 Q1866.97 188.159 1863.43 189.962 Q1859.89 191.766 1856.02 191.766 Q1850.48 191.766 1846.81 188.803 Q1843.14 185.84 1841.79 181.717 Q1841.47 182.297 1841.01 183.07 Q1840.56 183.843 1839.21 185.582 Q1837.92 187.257 1836.44 188.545 Q1834.96 189.769 1832.64 190.735 Q1830.39 191.766 1827.94 191.766 Q1824.85 191.766 1822.08 190.864 Q1819.37 189.962 1817.44 187.901 Q1815.51 185.84 1815.51 183.006 Q1815.51 179.849 1817.63 177.659 Q1819.82 175.405 1822.79 175.405 Q1824.65 175.405 1826.14 176.5 Q1827.68 177.595 1827.68 179.978 Q1827.68 182.619 1825.88 184.616 Q1824.07 186.613 1821.5 187.128 Q1824.14 188.803 1828.07 188.803 Q1832.32 188.803 1835.67 185.067 Q1839.02 181.331 1840.63 175.083 Q1844.62 160.075 1846.17 153.376 Q1847.71 146.613 1847.71 143.714 Q1847.71 141.009 1847.01 139.141 Q1846.3 137.273 1845.07 136.436 Q1843.91 135.534 1842.82 135.212 Q1841.79 134.89 1840.63 134.89 Q1838.7 134.89 1836.51 135.663 Q1834.38 136.436 1831.8 138.239 Q1829.29 139.979 1826.91 143.586 Q1824.53 147.193 1822.92 152.152 Q1822.59 153.634 1821.18 153.634 Q1819.63 153.569 1819.63 152.281 Q1819.63 151.186 1820.47 148.932 Q1821.37 146.613 1823.17 143.714 Q1825.04 140.816 1827.42 138.239 Q1829.87 135.599 1833.41 133.795 Q1837.02 131.992 1840.89 131.992 Q1842.63 131.992 1844.3 132.378 Q1846.04 132.7 1848.1 133.666 Q1850.23 134.632 1852.09 136.758 Q1853.96 138.884 1855.12 141.975 Q1855.89 140.494 1856.92 139.077 Q1858.02 137.66 1859.69 135.921 Q1861.43 134.117 1863.82 133.087 Q1866.26 131.992 1868.97 131.992 Q1871.61 131.992 1874.19 132.7 Q1876.76 133.344 1878.95 135.47 Q1881.21 137.531 1881.21 140.687 Z" fill="#000000" fill-rule="nonzero" fill-opacity="1" /><path clip-path="url(#clip610)" d="M1894.65 215.855 Q1894.65 213.105 1896.23 211.797 Q1897.81 210.49 1899.84 210.49 Q1901.95 210.49 1903.44 211.887 Q1904.98 213.24 1904.98 215.63 Q1904.98 218.2 1903.17 219.642 Q1901.41 221.085 1898.89 220.725 Q1901.1 224.422 1905.16 226.09 Q1909.26 227.758 1913.05 227.758 Q1917.01 227.758 1920.22 224.332 Q1923.46 220.905 1923.46 212.519 Q1923.46 205.395 1920.67 201.292 Q1917.92 197.189 1912.46 197.189 L1908.4 197.189 Q1907 197.189 1906.6 197.053 Q1906.19 196.918 1906.19 196.152 Q1906.19 195.25 1907.59 195.069 Q1908.99 195.069 1911.2 194.799 Q1916.56 194.619 1919.4 189.974 Q1921.97 185.646 1921.97 179.469 Q1921.97 173.833 1919.27 171.488 Q1916.61 169.099 1913.14 169.099 Q1909.89 169.099 1906.33 170.451 Q1902.77 171.804 1900.83 174.825 Q1906.55 174.825 1906.55 179.469 Q1906.55 181.498 1905.25 182.851 Q1903.98 184.158 1901.86 184.158 Q1899.84 184.158 1898.48 182.896 Q1897.13 181.588 1897.13 179.379 Q1897.13 174.103 1901.82 170.451 Q1906.55 166.799 1913.5 166.799 Q1920.35 166.799 1925.4 170.406 Q1930.5 174.013 1930.5 179.559 Q1930.5 185.015 1926.89 189.478 Q1923.28 193.942 1917.56 195.791 Q1924.59 197.189 1928.78 201.968 Q1932.98 206.702 1932.98 212.519 Q1932.98 219.733 1927.29 225.053 Q1921.61 230.328 1913.32 230.328 Q1905.65 230.328 1900.15 226.18 Q1894.65 222.032 1894.65 215.855 Z" fill="#000000" fill-rule="nonzero" fill-opacity="1" /><path clip-path="url(#clip610)" d="M1946.68 221.975 Q1946.68 221.331 1948.36 219.72 Q1969.61 198.078 1969.61 157.305 Q1969.61 116.404 1949.2 95.7277 Q1946.68 93.3445 1946.68 92.6359 Q1946.68 91.3477 1947.97 91.3477 Q1948.87 91.3477 1952.03 93.9886 Q1955.25 96.6295 1960.08 102.684 Q1964.98 108.739 1968.58 116.146 Q1977.28 134.117 1977.28 157.305 Q1977.28 179.592 1968.97 197.563 Q1965.43 205.099 1960.47 211.411 Q1955.51 217.724 1952.22 220.493 Q1948.94 223.263 1947.97 223.263 Q1946.68 223.263 1946.68 221.975 Z" fill="#000000" fill-rule="nonzero" fill-opacity="1" /></svg>
