<?xml version="1.0" encoding="utf-8"?>
<svg xmlns="http://www.w3.org/2000/svg" xmlns:xlink="http://www.w3.org/1999/xlink" width="600" height="400" viewBox="0 0 2400 1600">
<defs>
  <clipPath id="clip260">
    <rect x="0" y="0" width="2400" height="1600"/>
  </clipPath>
</defs>
<path clip-path="url(#clip260)" d="M0 1600 L2400 1600 L2400 8.88178e-14 L0 8.88178e-14  Z" fill="#ffffff" fill-rule="evenodd" fill-opacity="1"/>
<defs>
  <clipPath id="clip261">
    <rect x="480" y="0" width="1681" height="1600"/>
  </clipPath>
</defs>
<path clip-path="url(#clip260)" d="M47.2441 1552.76 L2352.76 1552.76 L2352.76 47.2441 L47.2441 47.2441  Z" fill="#ffffff" fill-rule="evenodd" fill-opacity="1"/>
<defs>
  <clipPath id="clip262">
    <rect x="47" y="47" width="2307" height="1507"/>
  </clipPath>
</defs>
<path clip-path="url(#clip262)" d="M571.224 1415.89 L581.81 1415.89 L592.395 1415.89 L602.98 1415.89 L613.566 1415.89 L624.151 1415.89 L634.737 1415.89 L645.322 1415.89 L655.908 1415.89 L666.493 1415.89 L677.079 1415.89 L687.664 1415.89 L698.249 1415.89 L708.835 1415.89 L719.42 1415.89 L730.006 1415.89 L740.591 1415.89 L751.177 1415.89 L761.762 1415.89 L772.348 1415.89 L782.933 1415.89 L793.519 1415.89 L804.104 1415.89 L814.689 1415.89 L825.275 1415.89 L835.86 1415.89 L846.446 1415.89 L857.031 1415.89 L867.617 1415.89 L878.202 1415.89 L888.788 1415.89 L899.373 1415.89 L909.959 1415.89 L920.544 1415.89 L931.129 1415.89 L941.715 1415.89 L952.3 1415.89 L962.886 1415.89 L973.471 1415.89 L984.057 1415.89 L994.642 1415.89 L1005.23 1415.89 L1015.81 1415.89 L1026.4 1415.89 L1036.98 1415.89 L1047.57 1415.89 L1058.15 1415.89 L1068.74 1415.89 L1079.33 1415.89 L1089.91 1415.89 L1100.5 1415.89 L1111.08 1415.89 L1121.67 1415.89 L1132.25 1415.89 L1142.84 1415.89 L1153.42 1415.89 L1164.01 1415.89 L1174.59 1415.89 L1185.18 1415.89 L1195.77 1415.89 L1206.35 1415.89 L1216.94 1415.89 L1227.52 1415.89 L1238.11 1415.89 L1248.69 1415.89 L1259.28 1415.89 L1269.86 1415.89 L1280.45 1415.89 L1291.03 1415.89 L1301.62 1415.89 L1312.21 1415.89 L1322.79 1415.89 L1333.38 1415.89 L1343.96 1415.89 L1354.55 1415.89 L1365.13 1415.89 L1375.72 1415.89 L1386.3 1415.89 L1396.89 1415.89 L1407.47 1415.89 L1418.06 1415.89 L1428.65 1415.89 L1439.23 1415.89 L1449.82 1415.89 L1460.4 1415.89 L1470.99 1415.89 L1481.57 1415.89 L1492.16 1415.89 L1502.74 1415.89 L1513.33 1415.89 L1523.91 1415.89 L1534.5 1415.89 L1545.09 1415.89 L1555.67 1415.89 L1566.26 1415.89 L1576.84 1415.89 L1587.43 1415.89 L1598.01 1415.89 L1608.6 1415.89 L1619.18 1415.89 L1619.18 358.611 L1608.6 367.562 L1598.01 376.444 L1587.43 385.255 L1576.84 393.997 L1566.26 402.669 L1555.67 411.271 L1545.09 419.803 L1534.5 428.266 L1523.91 436.658 L1513.33 444.981 L1502.74 453.234 L1492.16 461.417 L1481.57 469.53 L1470.99 477.574 L1460.4 485.547 L1449.82 493.451 L1439.23 501.285 L1428.65 509.049 L1418.06 516.744 L1407.47 524.368 L1396.89 531.923 L1386.3 539.408 L1375.72 546.823 L1365.13 554.168 L1354.55 561.444 L1343.96 568.649 L1333.38 575.785 L1322.79 582.851 L1312.21 589.847 L1301.62 596.774 L1291.03 603.63 L1280.45 610.417 L1269.86 617.134 L1259.28 623.781 L1248.69 630.358 L1238.11 636.865 L1227.52 643.303 L1216.94 649.671 L1206.35 655.968 L1195.77 662.197 L1185.18 668.355 L1174.59 674.443 L1164.01 680.462 L1153.42 686.411 L1142.84 692.29 L1132.25 698.099 L1121.67 703.838 L1111.08 709.508 L1100.5 715.108 L1089.91 720.637 L1079.33 726.097 L1068.74 731.488 L1058.15 736.808 L1047.57 742.059 L1036.98 747.239 L1026.4 752.35 L1015.81 757.392 L1005.23 762.363 L994.642 767.264 L984.057 772.096 L973.471 776.858 L962.886 781.55 L952.3 786.172 L941.715 790.725 L931.129 795.207 L920.544 799.62 L909.959 803.963 L899.373 808.236 L888.788 812.439 L878.202 816.573 L867.617 820.636 L857.031 824.63 L846.446 828.554 L835.86 832.408 L825.275 836.192 L814.689 839.907 L804.104 843.552 L793.519 847.127 L782.933 850.632 L772.348 854.067 L761.762 857.432 L751.177 860.728 L740.591 863.954 L730.006 867.11 L719.42 870.196 L708.835 873.212 L698.249 876.158 L687.664 879.035 L677.079 881.842 L666.493 884.579 L655.908 887.246 L645.322 889.844 L634.737 892.371 L624.151 894.829 L613.566 897.217 L602.98 899.535 L592.395 901.783 L581.81 903.962 L571.224 906.07  Z" fill="#ff00ff" fill-rule="evenodd" fill-opacity="0.1"/>
<polyline clip-path="url(#clip262)" style="stroke:#ff00ff; stroke-linecap:round; stroke-linejoin:round; stroke-width:4; stroke-opacity:1; fill:none" points="571.224,1415.89 581.81,1415.89 592.395,1415.89 602.98,1415.89 613.566,1415.89 624.151,1415.89 634.737,1415.89 645.322,1415.89 655.908,1415.89 666.493,1415.89 677.079,1415.89 687.664,1415.89 698.249,1415.89 708.835,1415.89 719.42,1415.89 730.006,1415.89 740.591,1415.89 751.177,1415.89 761.762,1415.89 772.348,1415.89 782.933,1415.89 793.519,1415.89 804.104,1415.89 814.689,1415.89 825.275,1415.89 835.86,1415.89 846.446,1415.89 857.031,1415.89 867.617,1415.89 878.202,1415.89 888.788,1415.89 899.373,1415.89 909.959,1415.89 920.544,1415.89 931.129,1415.89 941.715,1415.89 952.3,1415.89 962.886,1415.89 973.471,1415.89 984.057,1415.89 994.642,1415.89 1005.23,1415.89 1015.81,1415.89 1026.4,1415.89 1036.98,1415.89 1047.57,1415.89 1058.15,1415.89 1068.74,1415.89 1079.33,1415.89 1089.91,1415.89 1100.5,1415.89 1111.08,1415.89 1121.67,1415.89 1132.25,1415.89 1142.84,1415.89 1153.42,1415.89 1164.01,1415.89 1174.59,1415.89 1185.18,1415.89 1195.77,1415.89 1206.35,1415.89 1216.94,1415.89 1227.52,1415.89 1238.11,1415.89 1248.69,1415.89 1259.28,1415.89 1269.86,1415.89 1280.45,1415.89 1291.03,1415.89 1301.62,1415.89 1312.21,1415.89 1322.79,1415.89 1333.38,1415.89 1343.96,1415.89 1354.55,1415.89 1365.13,1415.89 1375.72,1415.89 1386.3,1415.89 1396.89,1415.89 1407.47,1415.89 1418.06,1415.89 1428.65,1415.89 1439.23,1415.89 1449.82,1415.89 1460.4,1415.89 1470.99,1415.89 1481.57,1415.89 1492.16,1415.89 1502.74,1415.89 1513.33,1415.89 1523.91,1415.89 1534.5,1415.89 1545.09,1415.89 1555.67,1415.89 1566.26,1415.89 1576.84,1415.89 1587.43,1415.89 1598.01,1415.89 1608.6,1415.89 1619.18,1415.89 "/>
<polyline clip-path="url(#clip262)" style="stroke:#000000; stroke-linecap:round; stroke-linejoin:round; stroke-width:12; stroke-opacity:1; fill:none" points="571.224,906.07 581.81,906.07 592.395,906.07 602.98,906.07 613.566,906.07 624.151,906.07 634.737,906.07 645.322,906.07 655.908,906.07 666.493,906.07 677.079,906.07 687.664,906.07 698.249,906.07 708.835,906.07 719.42,906.07 730.006,906.07 740.591,906.07 751.177,906.07 761.762,906.07 772.348,906.07 782.933,906.07 793.519,906.07 804.104,906.07 814.689,906.07 825.275,906.07 835.86,906.07 846.446,906.07 857.031,906.07 867.617,906.07 878.202,906.07 888.788,906.07 899.373,906.07 909.959,906.07 920.544,906.07 931.129,906.07 941.715,906.07 952.3,906.07 962.886,906.07 973.471,906.07 984.057,906.07 994.642,906.07 1005.23,906.07 1015.81,906.07 1026.4,906.07 1036.98,906.07 1047.57,906.07 1058.15,906.07 1068.74,906.07 1079.33,906.07 1089.91,906.07 1100.5,906.07 1111.08,906.07 1121.67,906.07 1132.25,906.07 1142.84,906.07 1153.42,906.07 1164.01,906.07 1174.59,906.07 1185.18,906.07 1195.77,906.07 1206.35,906.07 1216.94,906.07 1227.52,906.07 1238.11,906.07 1248.69,906.07 1259.28,906.07 1269.86,906.07 1280.45,906.07 1291.03,906.07 1301.62,906.07 1312.21,906.07 1322.79,906.07 1333.38,906.07 1343.96,906.07 1354.55,906.07 1365.13,906.07 1375.72,906.07 1386.3,906.07 1396.89,906.07 1407.47,906.07 1418.06,906.07 1428.65,906.07 1439.23,906.07 1449.82,906.07 1460.4,906.07 1470.99,906.07 1481.57,906.07 1492.16,906.07 1502.74,906.07 1513.33,906.07 1523.91,906.07 1534.5,906.07 1545.09,906.07 1555.67,906.07 1566.26,906.07 1576.84,906.07 1587.43,906.07 1598.01,906.07 1608.6,906.07 1619.18,906.07 "/>
<path clip-path="url(#clip262)" d="M571.224 1415.89 L581.81 1415.89 L592.395 1415.89 L602.98 1415.89 L613.566 1415.89 L624.151 1415.89 L634.737 1415.89 L645.322 1415.89 L655.908 1415.89 L666.493 1415.89 L677.079 1415.89 L687.664 1415.89 L698.249 1415.89 L708.835 1415.89 L719.42 1415.89 L730.006 1415.89 L740.591 1415.89 L751.177 1415.89 L761.762 1415.89 L772.348 1415.89 L782.933 1415.89 L793.519 1415.89 L804.104 1415.89 L814.689 1415.89 L825.275 1415.89 L835.86 1415.89 L846.446 1415.89 L857.031 1415.89 L867.617 1415.89 L878.202 1415.89 L888.788 1415.89 L899.373 1415.89 L909.959 1415.89 L920.544 1415.89 L931.129 1415.89 L941.715 1415.89 L952.3 1415.89 L962.886 1415.89 L973.471 1415.89 L984.057 1415.89 L994.642 1415.89 L1005.23 1415.89 L1015.81 1415.89 L1026.4 1415.89 L1036.98 1415.89 L1047.57 1415.89 L1058.15 1415.89 L1068.74 1415.89 L1079.33 1415.89 L1089.91 1415.89 L1100.5 1415.89 L1111.08 1415.89 L1121.67 1415.89 L1132.25 1415.89 L1142.84 1415.89 L1153.42 1415.89 L1164.01 1415.89 L1174.59 1415.89 L1185.18 1415.89 L1195.77 1415.89 L1206.35 1415.89 L1216.94 1415.89 L1227.52 1415.89 L1238.11 1415.89 L1248.69 1415.89 L1259.28 1415.89 L1269.86 1415.89 L1280.45 1415.89 L1291.03 1415.89 L1301.62 1415.89 L1312.21 1415.89 L1322.79 1415.89 L1333.38 1415.89 L1343.96 1415.89 L1354.55 1415.89 L1365.13 1415.89 L1375.72 1415.89 L1386.3 1415.89 L1396.89 1415.89 L1407.47 1415.89 L1418.06 1415.89 L1428.65 1415.89 L1439.23 1415.89 L1449.82 1415.89 L1460.4 1415.89 L1470.99 1415.89 L1481.57 1415.89 L1492.16 1415.89 L1502.74 1415.89 L1513.33 1415.89 L1523.91 1415.89 L1534.5 1415.89 L1545.09 1415.89 L1555.67 1415.89 L1566.26 1415.89 L1576.84 1415.89 L1587.43 1415.89 L1598.01 1415.89 L1608.6 1415.89 L1619.18 1415.89 L1619.18 906.07 L1608.6 906.07 L1598.01 906.07 L1587.43 906.07 L1576.84 906.07 L1566.26 906.07 L1555.67 906.07 L1545.09 906.07 L1534.5 906.07 L1523.91 906.07 L1513.33 906.07 L1502.74 906.07 L1492.16 906.07 L1481.57 906.07 L1470.99 906.07 L1460.4 906.07 L1449.82 906.07 L1439.23 906.07 L1428.65 906.07 L1418.06 906.07 L1407.47 906.07 L1396.89 906.07 L1386.3 906.07 L1375.72 906.07 L1365.13 906.07 L1354.55 906.07 L1343.96 906.07 L1333.38 906.07 L1322.79 906.07 L1312.21 906.07 L1301.62 906.07 L1291.03 906.07 L1280.45 906.07 L1269.86 906.07 L1259.28 906.07 L1248.69 906.07 L1238.11 906.07 L1227.52 906.07 L1216.94 906.07 L1206.35 906.07 L1195.77 906.07 L1185.18 906.07 L1174.59 906.07 L1164.01 906.07 L1153.42 906.07 L1142.84 906.07 L1132.25 906.07 L1121.67 906.07 L1111.08 906.07 L1100.5 906.07 L1089.91 906.07 L1079.33 906.07 L1068.74 906.07 L1058.15 906.07 L1047.57 906.07 L1036.98 906.07 L1026.4 906.07 L1015.81 906.07 L1005.23 906.07 L994.642 906.07 L984.057 906.07 L973.471 906.07 L962.886 906.07 L952.3 906.07 L941.715 906.07 L931.129 906.07 L920.544 906.07 L909.959 906.07 L899.373 906.07 L888.788 906.07 L878.202 906.07 L867.617 906.07 L857.031 906.07 L846.446 906.07 L835.86 906.07 L825.275 906.07 L814.689 906.07 L804.104 906.07 L793.519 906.07 L782.933 906.07 L772.348 906.07 L761.762 906.07 L751.177 906.07 L740.591 906.07 L730.006 906.07 L719.42 906.07 L708.835 906.07 L698.249 906.07 L687.664 906.07 L677.079 906.07 L666.493 906.07 L655.908 906.07 L645.322 906.07 L634.737 906.07 L624.151 906.07 L613.566 906.07 L602.98 906.07 L592.395 906.07 L581.81 906.07 L571.224 906.07  Z" fill="#009af9" fill-rule="evenodd" fill-opacity="0.3"/>
<polyline clip-path="url(#clip262)" style="stroke:#009af9; stroke-linecap:round; stroke-linejoin:round; stroke-width:4; stroke-opacity:1; fill:none" points="571.224,1415.89 581.81,1415.89 592.395,1415.89 602.98,1415.89 613.566,1415.89 624.151,1415.89 634.737,1415.89 645.322,1415.89 655.908,1415.89 666.493,1415.89 677.079,1415.89 687.664,1415.89 698.249,1415.89 708.835,1415.89 719.42,1415.89 730.006,1415.89 740.591,1415.89 751.177,1415.89 761.762,1415.89 772.348,1415.89 782.933,1415.89 793.519,1415.89 804.104,1415.89 814.689,1415.89 825.275,1415.89 835.86,1415.89 846.446,1415.89 857.031,1415.89 867.617,1415.89 878.202,1415.89 888.788,1415.89 899.373,1415.89 909.959,1415.89 920.544,1415.89 931.129,1415.89 941.715,1415.89 952.3,1415.89 962.886,1415.89 973.471,1415.89 984.057,1415.89 994.642,1415.89 1005.23,1415.89 1015.81,1415.89 1026.4,1415.89 1036.98,1415.89 1047.57,1415.89 1058.15,1415.89 1068.74,1415.89 1079.33,1415.89 1089.91,1415.89 1100.5,1415.89 1111.08,1415.89 1121.67,1415.89 1132.25,1415.89 1142.84,1415.89 1153.42,1415.89 1164.01,1415.89 1174.59,1415.89 1185.18,1415.89 1195.77,1415.89 1206.35,1415.89 1216.94,1415.89 1227.52,1415.89 1238.11,1415.89 1248.69,1415.89 1259.28,1415.89 1269.86,1415.89 1280.45,1415.89 1291.03,1415.89 1301.62,1415.89 1312.21,1415.89 1322.79,1415.89 1333.38,1415.89 1343.96,1415.89 1354.55,1415.89 1365.13,1415.89 1375.72,1415.89 1386.3,1415.89 1396.89,1415.89 1407.47,1415.89 1418.06,1415.89 1428.65,1415.89 1439.23,1415.89 1449.82,1415.89 1460.4,1415.89 1470.99,1415.89 1481.57,1415.89 1492.16,1415.89 1502.74,1415.89 1513.33,1415.89 1523.91,1415.89 1534.5,1415.89 1545.09,1415.89 1555.67,1415.89 1566.26,1415.89 1576.84,1415.89 1587.43,1415.89 1598.01,1415.89 1608.6,1415.89 1619.18,1415.89 "/>
<polyline clip-path="url(#clip262)" style="stroke:#000000; stroke-linecap:round; stroke-linejoin:round; stroke-width:4; stroke-opacity:1; fill:none" points="256.836,1552.76 256.836,47.2441 "/>
<polyline clip-path="url(#clip262)" style="stroke:#000000; stroke-linecap:round; stroke-linejoin:round; stroke-width:4; stroke-opacity:1; fill:none" points="238.836,83.2441 256.836,47.2441 274.836,83.2441 "/>
<polyline clip-path="url(#clip262)" style="stroke:#000000; stroke-linecap:round; stroke-linejoin:round; stroke-width:4; stroke-opacity:1; fill:none" points="256.836,47.2441 256.836,1552.76 "/>
<polyline clip-path="url(#clip262)" style="stroke:#0000ff; stroke-linecap:round; stroke-linejoin:round; stroke-width:12; stroke-opacity:1; fill:none" points="571.224,906.07 581.81,903.962 592.395,901.783 602.98,899.535 613.566,897.217 624.151,894.829 634.737,892.371 645.322,889.844 655.908,887.246 666.493,884.579 677.079,881.842 687.664,879.035 698.249,876.158 708.835,873.212 719.42,870.196 730.006,867.11 740.591,863.954 751.177,860.728 761.762,857.432 772.348,854.067 782.933,850.632 793.519,847.127 804.104,843.552 814.689,839.907 825.275,836.192 835.86,832.408 846.446,828.554 857.031,824.63 867.617,820.636 878.202,816.573 888.788,812.439 899.373,808.236 909.959,803.963 920.544,799.62 931.129,795.207 941.715,790.725 952.3,786.172 962.886,781.55 973.471,776.858 984.057,772.096 994.642,767.264 1005.23,762.363 1015.81,757.392 1026.4,752.35 1036.98,747.239 1047.57,742.059 1058.15,736.808 1068.74,731.488 1079.33,726.097 1089.91,720.637 1100.5,715.108 1111.08,709.508 1121.67,703.838 1132.25,698.099 1142.84,692.29 1153.42,686.411 1164.01,680.462 1174.59,674.443 1185.18,668.355 1195.77,662.197 1206.35,655.968 1216.94,649.671 1227.52,643.303 1238.11,636.865 1248.69,630.358 1259.28,623.781 1269.86,617.134 1280.45,610.417 1291.03,603.63 1301.62,596.774 1312.21,589.847 1322.79,582.851 1333.38,575.785 1343.96,568.649 1354.55,561.444 1365.13,554.168 1375.72,546.823 1386.3,539.408 1396.89,531.923 1407.47,524.368 1418.06,516.744 1428.65,509.049 1439.23,501.285 1449.82,493.451 1460.4,485.547 1470.99,477.574 1481.57,469.53 1492.16,461.417 1502.74,453.234 1513.33,444.981 1523.91,436.658 1534.5,428.266 1545.09,419.803 1555.67,411.271 1566.26,402.669 1576.84,393.997 1587.43,385.255 1598.01,376.444 1608.6,367.562 1619.18,358.611 "/>
<circle clip-path="url(#clip262)" cx="571.224" cy="906.07" r="14.4" fill="#000000" fill-rule="evenodd" fill-opacity="1" stroke="none"/>
<polyline clip-path="url(#clip262)" style="stroke:#000000; stroke-linecap:round; stroke-linejoin:round; stroke-width:4; stroke-opacity:1; fill:none" stroke-dasharray="16, 10" points="256.836,906.07 1619.18,906.07 "/>
<polyline clip-path="url(#clip262)" style="stroke:#000000; stroke-linecap:round; stroke-linejoin:round; stroke-width:4; stroke-opacity:1; fill:none" stroke-dasharray="16, 10" points="1619.18,1415.89 1619.18,358.611 "/>
<polyline clip-path="url(#clip262)" style="stroke:#000000; stroke-linecap:round; stroke-linejoin:round; stroke-width:4; stroke-opacity:1; fill:none" stroke-dasharray="16, 10" points="571.224,1415.89 571.224,906.07 "/>
<polyline clip-path="url(#clip262)" style="stroke:#000000; stroke-linecap:round; stroke-linejoin:round; stroke-width:4; stroke-opacity:1; fill:none" points="47.2441,1415.89 2352.76,1415.89 "/>
<polyline clip-path="url(#clip262)" style="stroke:#000000; stroke-linecap:round; stroke-linejoin:round; stroke-width:4; stroke-opacity:1; fill:none" points="2316.76,1397.89 2352.76,1415.89 2316.76,1433.89 "/>
<polyline clip-path="url(#clip262)" style="stroke:#000000; stroke-linecap:round; stroke-linejoin:round; stroke-width:4; stroke-opacity:1; fill:none" points="2352.76,1415.89 47.2441,1415.89 "/>
<path clip-path="url(#clip260)" d="M2366.62 1499.23 Q2366.62 1500.7 2365.93 1501.07 Q2365.25 1501.39 2363.35 1501.39 L2353.23 1501.39 L2345.22 1533.22 Q2344.59 1536.01 2344.59 1538.38 Q2344.59 1541.02 2345.38 1542.18 Q2346.22 1543.34 2347.96 1543.34 Q2351.39 1543.34 2355.08 1540.23 Q2358.82 1537.12 2361.98 1529.53 Q2362.4 1528.53 2362.61 1528.32 Q2362.88 1528.05 2363.56 1528.05 Q2364.88 1528.05 2364.88 1529.11 Q2364.88 1529.48 2364.14 1531.16 Q2363.46 1532.85 2361.93 1535.33 Q2360.45 1537.8 2358.5 1540.12 Q2356.61 1542.44 2353.71 1544.13 Q2350.81 1545.76 2347.7 1545.76 Q2343.33 1545.76 2340.53 1542.97 Q2337.79 1540.17 2337.79 1535.8 Q2337.79 1534.38 2338.9 1529.84 Q2340.01 1525.26 2346.01 1501.39 L2336.47 1501.39 Q2335.16 1501.39 2334.63 1501.33 Q2334.16 1501.28 2333.79 1501.02 Q2333.47 1500.7 2333.47 1500.07 Q2333.47 1499.07 2333.89 1498.65 Q2334.31 1498.17 2334.84 1498.12 Q2335.42 1498.01 2336.74 1498.01 L2346.86 1498.01 L2351.07 1480.89 Q2351.49 1479.2 2352.55 1478.25 Q2353.66 1477.25 2354.29 1477.14 Q2354.92 1476.99 2355.39 1476.99 Q2356.82 1476.99 2357.66 1477.78 Q2358.5 1478.51 2358.5 1479.88 Q2358.5 1480.62 2354.08 1498.01 L2363.56 1498.01 Q2364.77 1498.01 2365.25 1498.07 Q2365.78 1498.12 2366.2 1498.38 Q2366.62 1498.65 2366.62 1499.23 Z" fill="#000000" fill-rule="nonzero" fill-opacity="1" /><path clip-path="url(#clip260)" d="M196.627 30.0035 Q196.627 30.7413 196.152 32.4804 L185.823 73.6922 Q183.557 82.8621 176.179 89.2916 Q168.853 95.721 160.527 95.721 Q155.52 95.721 152.306 93.0333 Q149.091 90.3983 149.091 86.3403 Q149.091 82.7567 150.988 81.0176 Q152.885 79.3312 155.151 79.3312 Q155.889 79.3312 156.68 79.542 Q157.47 79.7528 158.313 80.6487 Q159.157 81.5446 159.157 83.0729 Q159.157 85.5498 156.996 87.4997 Q155.942 88.3957 154.941 88.6065 Q153.992 88.8173 152.358 88.8173 Q152.991 90.2929 154.15 91.2942 Q155.309 92.2955 156.627 92.6644 Q157.944 93.086 158.788 93.1914 Q159.684 93.3495 160.527 93.3495 Q167.272 93.3495 172.437 86.5511 Q173.965 84.4958 175.072 82.4405 Q176.232 80.4379 177.075 77.961 Q177.918 75.5367 178.287 74.2192 Q178.708 72.9017 179.446 69.8978 Q174.545 74.7989 168.537 74.7989 Q166.008 74.7989 163.742 74.1138 Q161.528 73.4287 159.578 72.0058 Q157.628 70.5302 156.469 67.9479 Q155.362 65.3655 155.362 61.94 Q155.362 58.3037 156.785 53.3498 Q158.208 48.396 161.633 39.2788 Q163.478 34.1668 163.478 31.6899 Q163.478 30.4778 163.215 29.74 Q162.951 28.9495 162.424 28.686 Q161.897 28.3698 161.581 28.3171 Q161.317 28.2644 160.79 28.2644 Q157.681 28.2644 154.782 31.4264 Q151.884 34.5884 149.881 41.6503 Q149.46 42.9678 149.196 43.284 Q148.933 43.6002 148.142 43.6002 Q146.825 43.5475 146.825 42.4935 Q146.825 42.0719 147.299 40.4382 Q147.773 38.7518 148.88 36.2749 Q150.039 33.7452 151.62 31.4791 Q153.201 29.1603 155.678 27.5266 Q158.208 25.8929 161.106 25.8929 Q165.059 25.8929 167.483 28.4752 Q169.96 31.0048 169.96 34.7465 Q169.96 36.2749 169.539 37.6451 Q169.17 38.9626 167.799 42.4935 Q162.266 56.7227 162.266 63.6791 Q162.266 65.3655 162.529 66.7885 Q162.846 68.1587 163.531 69.5289 Q164.216 70.8464 165.586 71.6369 Q167.009 72.3747 168.959 72.3747 Q171.436 72.3747 173.755 71.2153 Q176.126 70.0032 177.602 68.3695 Q179.13 66.7358 180.026 65.3655 Q180.975 63.9426 181.185 63.2048 L186.034 43.811 L188.195 35.1682 Q189.196 30.4778 189.67 29.3184 Q190.303 28.2117 191.409 27.632 Q192.516 27.0523 193.465 27.0523 Q194.782 27.0523 195.678 27.8428 Q196.627 28.6333 196.627 30.0035 Z" fill="#000000" fill-rule="nonzero" fill-opacity="1" /><path clip-path="url(#clip260)" d="M1405.95 259.636 Q1405.95 260.374 1405.47 262.113 L1395.14 303.324 Q1392.88 312.494 1385.5 318.924 Q1378.17 325.353 1369.85 325.353 Q1364.84 325.353 1361.63 322.666 Q1358.41 320.031 1358.41 315.973 Q1358.41 312.389 1360.31 310.65 Q1362.21 308.963 1364.47 308.963 Q1365.21 308.963 1366 309.174 Q1366.79 309.385 1367.63 310.281 Q1368.48 311.177 1368.48 312.705 Q1368.48 315.182 1366.32 317.132 Q1365.26 318.028 1364.26 318.239 Q1363.31 318.449 1361.68 318.449 Q1362.31 319.925 1363.47 320.926 Q1364.63 321.928 1365.95 322.297 Q1367.27 322.718 1368.11 322.824 Q1369 322.982 1369.85 322.982 Q1376.59 322.982 1381.76 316.183 Q1383.29 314.128 1384.39 312.073 Q1385.55 310.07 1386.4 307.593 Q1387.24 305.169 1387.61 303.851 Q1388.03 302.534 1388.77 299.53 Q1383.87 304.431 1377.86 304.431 Q1375.33 304.431 1373.06 303.746 Q1370.85 303.061 1368.9 301.638 Q1366.95 300.162 1365.79 297.58 Q1364.68 294.998 1364.68 291.572 Q1364.68 287.936 1366.11 282.982 Q1367.53 278.028 1370.95 268.911 Q1372.8 263.799 1372.8 261.322 Q1372.8 260.11 1372.54 259.372 Q1372.27 258.582 1371.74 258.318 Q1371.22 258.002 1370.9 257.949 Q1370.64 257.897 1370.11 257.897 Q1367 257.897 1364.1 261.059 Q1361.2 264.221 1359.2 271.283 Q1358.78 272.6 1358.52 272.916 Q1358.25 273.232 1357.46 273.232 Q1356.15 273.18 1356.15 272.126 Q1356.15 271.704 1356.62 270.07 Q1357.09 268.384 1358.2 265.907 Q1359.36 263.377 1360.94 261.111 Q1362.52 258.793 1365 257.159 Q1367.53 255.525 1370.43 255.525 Q1374.38 255.525 1376.8 258.107 Q1379.28 260.637 1379.28 264.379 Q1379.28 265.907 1378.86 267.277 Q1378.49 268.595 1377.12 272.126 Q1371.59 286.355 1371.59 293.311 Q1371.59 294.998 1371.85 296.421 Q1372.17 297.791 1372.85 299.161 Q1373.54 300.479 1374.91 301.269 Q1376.33 302.007 1378.28 302.007 Q1380.76 302.007 1383.08 300.848 Q1385.45 299.635 1386.92 298.002 Q1388.45 296.368 1389.35 294.998 Q1390.3 293.575 1390.51 292.837 L1395.35 273.443 L1397.52 264.8 Q1398.52 260.11 1398.99 258.951 Q1399.62 257.844 1400.73 257.264 Q1401.84 256.685 1402.79 256.685 Q1404.1 256.685 1405 257.475 Q1405.95 258.266 1405.95 259.636 Z" fill="#0000ff" fill-rule="nonzero" fill-opacity="1" /><path clip-path="url(#clip260)" d="M1438.44 286.829 Q1438.54 285.512 1440.6 285.512 L1506.74 285.512 Q1509.85 285.512 1509.9 286.724 Q1509.9 288.041 1506.95 287.989 L1441.34 287.989 Q1438.44 288.041 1438.44 286.829 M1438.44 265.749 Q1438.44 264.431 1440.7 264.484 L1506.63 264.484 Q1509.85 264.484 1509.9 265.749 Q1509.9 266.961 1507.16 266.961 L1440.6 266.961 Q1438.44 266.961 1438.44 265.749 Z" fill="#0000ff" fill-rule="nonzero" fill-opacity="1" /><path clip-path="url(#clip260)" d="M1601.06 260.584 Q1601.06 260.637 1600.75 262.534 L1588.73 310.439 Q1588.1 312.969 1586.31 315.498 Q1584.57 318.081 1581.77 320.294 Q1579.03 322.56 1574.82 323.93 Q1570.65 325.353 1565.86 325.353 Q1558.22 325.353 1554.84 323.72 Q1551.52 322.139 1551.52 318.766 Q1551.52 315.814 1553.37 314.128 Q1555.21 312.494 1557.32 312.494 Q1559.32 312.494 1560.38 313.654 Q1561.43 314.813 1561.43 316.289 Q1561.43 317.922 1560.32 319.556 Q1559.22 321.243 1557 321.875 Q1560.54 322.982 1565.65 322.982 Q1576.45 322.982 1581.09 311.546 Q1581.19 311.388 1581.19 311.335 L1584.78 297.053 L1584.62 296.948 Q1583.72 298.002 1582.3 299.214 Q1580.93 300.373 1577.98 301.796 Q1575.03 303.219 1572.13 303.219 Q1566.07 303.219 1561.91 298.581 Q1557.79 293.891 1557.79 286.144 Q1557.79 280.505 1560.06 274.866 Q1562.38 269.175 1565.96 265.011 Q1569.6 260.795 1574.24 258.16 Q1578.93 255.525 1583.46 255.525 Q1586.62 255.525 1589.31 257.422 Q1592 259.267 1593.47 262.323 Q1593.74 259.794 1595.16 258.74 Q1596.64 257.686 1597.9 257.686 Q1599.32 257.686 1600.17 258.476 Q1601.06 259.214 1601.06 260.584 M1592.21 267.172 Q1592.21 266.856 1592 266.012 Q1591.79 265.117 1591.15 263.694 Q1590.57 262.271 1589.68 261.006 Q1588.78 259.741 1587.15 258.845 Q1585.57 257.897 1583.57 257.897 Q1580.3 257.897 1577.03 260.637 Q1573.76 263.325 1571.5 267.488 Q1569.39 271.493 1567.39 279.24 Q1565.44 286.987 1565.44 290.94 Q1565.44 294.84 1567.12 297.844 Q1568.81 300.848 1572.45 300.848 Q1576.66 300.848 1581.19 296.948 Q1585.88 292.89 1586.67 289.412 L1591.89 268.806 Q1592.21 267.541 1592.21 267.172 Z" fill="#0000ff" fill-rule="nonzero" fill-opacity="1" /><path clip-path="url(#clip260)" d="M1615.86 276.236 Q1615.86 258.002 1622.65 243.299 Q1625.55 237.133 1629.61 231.968 Q1633.67 226.803 1636.36 224.537 Q1639.04 222.271 1639.78 222.271 Q1640.84 222.271 1640.89 223.325 Q1640.89 223.852 1639.47 225.17 Q1622.07 242.877 1622.13 276.236 Q1622.13 309.701 1639.04 326.723 Q1640.89 328.568 1640.89 329.148 Q1640.89 330.202 1639.78 330.202 Q1639.04 330.202 1636.46 328.041 Q1633.88 325.88 1629.87 320.926 Q1625.87 315.973 1622.97 309.912 Q1615.86 295.209 1615.86 276.236 Z" fill="#0000ff" fill-rule="nonzero" fill-opacity="1" /><path clip-path="url(#clip260)" d="M1682.24 257.897 Q1682.24 259.372 1681.55 259.741 Q1680.87 260.057 1678.97 260.057 L1668.85 260.057 L1660.84 291.888 Q1660.21 294.682 1660.21 297.053 Q1660.21 299.688 1661 300.848 Q1661.84 302.007 1663.58 302.007 Q1667.01 302.007 1670.7 298.898 Q1674.44 295.788 1677.6 288.199 Q1678.02 287.198 1678.23 286.987 Q1678.5 286.724 1679.18 286.724 Q1680.5 286.724 1680.5 287.778 Q1680.5 288.147 1679.76 289.833 Q1679.08 291.52 1677.55 293.996 Q1676.07 296.473 1674.12 298.792 Q1672.22 301.111 1669.33 302.797 Q1666.43 304.431 1663.32 304.431 Q1658.94 304.431 1656.15 301.638 Q1653.41 298.845 1653.41 294.471 Q1653.41 293.048 1654.52 288.516 Q1655.62 283.931 1661.63 260.057 L1652.09 260.057 Q1650.78 260.057 1650.25 260.005 Q1649.77 259.952 1649.4 259.688 Q1649.09 259.372 1649.09 258.74 Q1649.09 257.739 1649.51 257.317 Q1649.93 256.843 1650.46 256.79 Q1651.04 256.685 1652.36 256.685 L1662.47 256.685 L1666.69 239.557 Q1667.11 237.87 1668.17 236.922 Q1669.27 235.921 1669.91 235.815 Q1670.54 235.657 1671.01 235.657 Q1672.43 235.657 1673.28 236.448 Q1674.12 237.185 1674.12 238.556 Q1674.12 239.293 1669.69 256.685 L1679.18 256.685 Q1680.39 256.685 1680.87 256.737 Q1681.39 256.79 1681.82 257.053 Q1682.24 257.317 1682.24 257.897 Z" fill="#0000ff" fill-rule="nonzero" fill-opacity="1" /><path clip-path="url(#clip260)" d="M1690.68 329.148 Q1690.68 328.621 1692.05 327.303 Q1709.44 309.596 1709.44 276.236 Q1709.44 242.772 1692.74 225.855 Q1690.68 223.905 1690.68 223.325 Q1690.68 222.271 1691.74 222.271 Q1692.47 222.271 1695.06 224.432 Q1697.69 226.593 1701.64 231.546 Q1705.65 236.5 1708.6 242.561 Q1715.72 257.264 1715.72 276.236 Q1715.72 294.471 1708.92 309.174 Q1706.02 315.34 1701.96 320.505 Q1697.9 325.669 1695.22 327.936 Q1692.53 330.202 1691.74 330.202 Q1690.68 330.202 1690.68 329.148 Z" fill="#0000ff" fill-rule="nonzero" fill-opacity="1" /><path clip-path="url(#clip260)" d="M1847.13 264.221 Q1847.76 264.853 1847.76 265.749 Q1847.76 266.645 1847.13 267.277 Q1846.49 267.91 1845.6 267.91 L1789.47 267.91 Q1788.58 267.91 1787.94 267.277 Q1787.31 266.645 1787.31 265.749 Q1787.31 264.853 1787.94 264.221 Q1788.58 263.588 1789.47 263.588 L1845.6 263.588 Q1846.49 263.588 1847.13 264.221 M1847.13 285.195 Q1847.76 285.828 1847.76 286.724 Q1847.76 287.62 1847.13 288.252 Q1846.49 288.885 1845.6 288.885 L1789.47 288.885 Q1788.58 288.885 1787.94 288.252 Q1787.31 287.62 1787.31 286.724 Q1787.31 285.828 1787.94 285.195 Q1788.58 284.563 1789.47 284.563 L1845.6 284.563 Q1846.49 284.563 1847.13 285.195 M1771.76 259.372 Q1773.5 261.059 1773.5 263.377 Q1773.5 265.696 1771.76 267.435 Q1770.08 269.122 1767.76 269.122 Q1765.44 269.122 1763.75 267.435 Q1762.07 265.696 1762.07 263.377 Q1762.07 261.059 1763.75 259.372 Q1765.44 257.686 1767.76 257.686 Q1770.08 257.686 1771.76 259.372 M1771.76 285.09 Q1773.5 286.776 1773.5 289.095 Q1773.5 291.414 1771.76 293.101 Q1770.08 294.787 1767.76 294.787 Q1765.44 294.787 1763.75 293.101 Q1762.07 291.414 1762.07 289.095 Q1762.07 286.776 1763.75 285.09 Q1765.44 283.351 1767.76 283.351 Q1770.08 283.351 1771.76 285.09 Z" fill="#0000ff" fill-rule="nonzero" fill-opacity="1" /><path clip-path="url(#clip260)" d="M1942.63 234.55 Q1942.63 237.449 1940.79 239.241 Q1939 241.032 1936.73 241.032 Q1935.1 241.032 1933.89 240.031 Q1932.73 239.03 1932.73 237.291 Q1932.73 235.499 1934.1 233.602 Q1935.47 231.704 1938.58 231.441 Q1936.52 229.491 1933.25 229.491 Q1931.62 229.491 1930.25 230.545 Q1928.93 231.546 1928.19 233.18 Q1927.4 234.866 1925.61 244.405 Q1925.03 247.515 1924.51 250.519 Q1923.98 253.522 1923.35 256.685 L1932.31 256.685 Q1933.46 256.685 1933.94 256.737 Q1934.41 256.79 1934.78 257.053 Q1935.2 257.317 1935.2 257.897 Q1935.2 259.372 1934.52 259.741 Q1933.89 260.057 1931.99 260.057 L1922.71 260.057 L1916.23 294.26 Q1916.07 295.261 1915.39 298.423 Q1914.76 301.533 1913.23 306.645 Q1911.7 311.809 1910.17 314.866 Q1909.33 316.605 1908.22 318.239 Q1907.17 319.925 1905.64 321.612 Q1904.11 323.298 1902.11 324.299 Q1900.11 325.353 1898 325.353 Q1894.41 325.353 1891.62 323.351 Q1888.83 321.348 1888.83 317.922 Q1888.83 315.024 1890.62 313.232 Q1892.46 311.44 1894.73 311.44 Q1896.36 311.44 1897.52 312.442 Q1898.73 313.443 1898.73 315.182 Q1898.73 315.92 1898.47 316.763 Q1898.21 317.606 1897.63 318.555 Q1897.05 319.556 1895.78 320.241 Q1894.52 320.926 1892.78 321.032 Q1894.84 322.982 1898 322.982 Q1899 322.982 1899.89 322.56 Q1900.79 322.191 1901.53 321.243 Q1902.32 320.294 1902.9 319.345 Q1903.48 318.449 1904.06 316.71 Q1904.64 315.024 1905.01 313.759 Q1905.38 312.494 1905.85 310.228 Q1906.38 307.962 1906.64 306.592 Q1906.9 305.274 1907.38 302.692 L1915.44 260.057 L1908.33 260.057 Q1907.06 260.057 1906.53 260.005 Q1906.06 259.952 1905.69 259.688 Q1905.32 259.372 1905.32 258.74 Q1905.32 257.739 1905.74 257.317 Q1906.22 256.843 1906.75 256.79 Q1907.27 256.685 1908.54 256.685 L1916.02 256.685 Q1918.55 243.351 1919.55 239.768 Q1920.71 235.973 1922.5 233.338 Q1924.29 230.65 1926.3 229.386 Q1928.3 228.121 1929.93 227.647 Q1931.62 227.12 1933.25 227.12 Q1936.94 227.12 1939.79 229.122 Q1942.63 231.072 1942.63 234.55 Z" fill="#0000ff" fill-rule="nonzero" fill-opacity="1" /><path clip-path="url(#clip260)" d="M1957.16 276.236 Q1957.16 258.002 1963.96 243.299 Q1966.86 237.133 1970.92 231.968 Q1974.97 226.803 1977.66 224.537 Q1980.35 222.271 1981.09 222.271 Q1982.14 222.271 1982.19 223.325 Q1982.19 223.852 1980.77 225.17 Q1963.38 242.877 1963.43 276.236 Q1963.43 309.701 1980.35 326.723 Q1982.19 328.568 1982.19 329.148 Q1982.19 330.202 1981.09 330.202 Q1980.35 330.202 1977.77 328.041 Q1975.18 325.88 1971.18 320.926 Q1967.17 315.973 1964.27 309.912 Q1957.16 295.209 1957.16 276.236 Z" fill="#0000ff" fill-rule="nonzero" fill-opacity="1" /><path clip-path="url(#clip260)" d="M2023.54 257.897 Q2023.54 259.372 2022.86 259.741 Q2022.17 260.057 2020.27 260.057 L2010.16 260.057 L2002.15 291.888 Q2001.51 294.682 2001.51 297.053 Q2001.51 299.688 2002.3 300.848 Q2003.15 302.007 2004.89 302.007 Q2008.31 302.007 2012 298.898 Q2015.74 295.788 2018.9 288.199 Q2019.33 287.198 2019.54 286.987 Q2019.8 286.724 2020.49 286.724 Q2021.8 286.724 2021.8 287.778 Q2021.8 288.147 2021.07 289.833 Q2020.38 291.52 2018.85 293.996 Q2017.38 296.473 2015.43 298.792 Q2013.53 301.111 2010.63 302.797 Q2007.73 304.431 2004.62 304.431 Q2000.25 304.431 1997.46 301.638 Q1994.71 298.845 1994.71 294.471 Q1994.71 293.048 1995.82 288.516 Q1996.93 283.931 2002.94 260.057 L1993.4 260.057 Q1992.08 260.057 1991.55 260.005 Q1991.08 259.952 1990.71 259.688 Q1990.39 259.372 1990.39 258.74 Q1990.39 257.739 1990.82 257.317 Q1991.24 256.843 1991.76 256.79 Q1992.34 256.685 1993.66 256.685 L2003.78 256.685 L2008 239.557 Q2008.42 237.87 2009.47 236.922 Q2010.58 235.921 2011.21 235.815 Q2011.84 235.657 2012.32 235.657 Q2013.74 235.657 2014.58 236.448 Q2015.43 237.185 2015.43 238.556 Q2015.43 239.293 2011 256.685 L2020.49 256.685 Q2021.7 256.685 2022.17 256.737 Q2022.7 256.79 2023.12 257.053 Q2023.54 257.317 2023.54 257.897 Z" fill="#0000ff" fill-rule="nonzero" fill-opacity="1" /><path clip-path="url(#clip260)" d="M2030.49 301.48 Q2028.96 299.741 2028.96 297.475 Q2028.96 295.209 2030.44 293.522 Q2031.97 291.783 2034.71 291.783 Q2037.92 291.783 2039.77 294.892 Q2041.61 297.949 2041.61 303.114 Q2041.61 308.7 2039.35 313.865 Q2037.08 319.082 2034.87 321.559 Q2032.65 324.036 2031.76 324.036 Q2030.7 324.036 2030.7 322.876 Q2030.7 322.455 2031.44 321.664 Q2039.19 313.338 2039.24 303.114 Q2039.24 301.48 2039.03 301.48 L2038.77 301.691 Q2036.92 303.219 2034.71 303.219 Q2032.02 303.219 2030.49 301.48 Z" fill="#0000ff" fill-rule="nonzero" fill-opacity="1" /><path clip-path="url(#clip260)" d="M2129.42 262.64 Q2129.42 265.591 2127.58 267.277 Q2125.73 268.911 2123.62 268.911 Q2121.62 268.911 2120.57 267.752 Q2119.51 266.592 2119.51 265.117 Q2119.51 263.114 2120.99 261.375 Q2122.47 259.636 2124.68 259.267 Q2122.52 257.897 2119.3 257.897 Q2117.2 257.897 2115.35 259.003 Q2113.56 260.11 2112.45 261.533 Q2111.4 262.956 2110.45 265.011 Q2109.55 267.014 2109.18 268.226 Q2108.87 269.385 2108.61 270.65 L2104.92 285.406 Q2103.12 292.415 2103.12 294.892 Q2103.12 297.949 2104.6 300.004 Q2106.08 302.007 2109.03 302.007 Q2110.19 302.007 2111.5 301.691 Q2112.82 301.322 2114.51 300.373 Q2116.25 299.372 2117.77 297.896 Q2119.36 296.368 2120.88 293.786 Q2122.41 291.203 2123.41 287.883 Q2123.73 286.724 2124.78 286.724 Q2126.1 286.724 2126.1 287.778 Q2126.1 288.674 2125.36 290.571 Q2124.68 292.415 2123.15 294.84 Q2121.67 297.211 2119.72 299.372 Q2117.77 301.48 2114.88 302.956 Q2111.98 304.431 2108.82 304.431 Q2104.28 304.431 2101.28 302.007 Q2098.28 299.583 2097.17 296.21 Q2096.91 296.684 2096.54 297.317 Q2096.17 297.949 2095.06 299.372 Q2094.01 300.742 2092.79 301.796 Q2091.58 302.797 2089.69 303.588 Q2087.84 304.431 2085.84 304.431 Q2083.31 304.431 2081.04 303.693 Q2078.83 302.956 2077.25 301.269 Q2075.67 299.583 2075.67 297.264 Q2075.67 294.682 2077.41 292.89 Q2079.2 291.045 2081.62 291.045 Q2083.15 291.045 2084.36 291.941 Q2085.63 292.837 2085.63 294.787 Q2085.63 296.948 2084.15 298.581 Q2082.68 300.215 2080.57 300.637 Q2082.73 302.007 2085.94 302.007 Q2089.42 302.007 2092.16 298.95 Q2094.9 295.894 2096.22 290.782 Q2099.49 278.503 2100.75 273.022 Q2102.02 267.488 2102.02 265.117 Q2102.02 262.903 2101.44 261.375 Q2100.86 259.847 2099.86 259.161 Q2098.91 258.424 2098.01 258.16 Q2097.17 257.897 2096.22 257.897 Q2094.64 257.897 2092.85 258.529 Q2091.11 259.161 2089 260.637 Q2086.95 262.06 2085 265.011 Q2083.05 267.962 2081.73 272.02 Q2081.46 273.232 2080.3 273.232 Q2079.04 273.18 2079.04 272.126 Q2079.04 271.23 2079.73 269.385 Q2080.46 267.488 2081.94 265.117 Q2083.47 262.745 2085.42 260.637 Q2087.42 258.476 2090.32 257.001 Q2093.27 255.525 2096.43 255.525 Q2097.85 255.525 2099.22 255.841 Q2100.65 256.105 2102.33 256.895 Q2104.07 257.686 2105.6 259.425 Q2107.13 261.164 2108.08 263.694 Q2108.71 262.482 2109.55 261.322 Q2110.45 260.163 2111.82 258.74 Q2113.24 257.264 2115.19 256.421 Q2117.2 255.525 2119.41 255.525 Q2121.57 255.525 2123.68 256.105 Q2125.79 256.632 2127.58 258.371 Q2129.42 260.057 2129.42 262.64 Z" fill="#0000ff" fill-rule="nonzero" fill-opacity="1" /><path clip-path="url(#clip260)" d="M2143.7 276.236 Q2143.7 258.002 2150.5 243.299 Q2153.39 237.133 2157.45 231.968 Q2161.51 226.803 2164.2 224.537 Q2166.89 222.271 2167.62 222.271 Q2168.68 222.271 2168.73 223.325 Q2168.73 223.852 2167.31 225.17 Q2149.92 242.877 2149.97 276.236 Q2149.97 309.701 2166.89 326.723 Q2168.73 328.568 2168.73 329.148 Q2168.73 330.202 2167.62 330.202 Q2166.89 330.202 2164.3 328.041 Q2161.72 325.88 2157.72 320.926 Q2153.71 315.973 2150.81 309.912 Q2143.7 295.209 2143.7 276.236 Z" fill="#0000ff" fill-rule="nonzero" fill-opacity="1" /><path clip-path="url(#clip260)" d="M2210.08 257.897 Q2210.08 259.372 2209.39 259.741 Q2208.71 260.057 2206.81 260.057 L2196.69 260.057 L2188.68 291.888 Q2188.05 294.682 2188.05 297.053 Q2188.05 299.688 2188.84 300.848 Q2189.68 302.007 2191.42 302.007 Q2194.85 302.007 2198.54 298.898 Q2202.28 295.788 2205.44 288.199 Q2205.86 287.198 2206.07 286.987 Q2206.34 286.724 2207.02 286.724 Q2208.34 286.724 2208.34 287.778 Q2208.34 288.147 2207.6 289.833 Q2206.92 291.52 2205.39 293.996 Q2203.91 296.473 2201.96 298.792 Q2200.07 301.111 2197.17 302.797 Q2194.27 304.431 2191.16 304.431 Q2186.78 304.431 2183.99 301.638 Q2181.25 298.845 2181.25 294.471 Q2181.25 293.048 2182.36 288.516 Q2183.46 283.931 2189.47 260.057 L2179.93 260.057 Q2178.62 260.057 2178.09 260.005 Q2177.61 259.952 2177.25 259.688 Q2176.93 259.372 2176.93 258.74 Q2176.93 257.739 2177.35 257.317 Q2177.77 256.843 2178.3 256.79 Q2178.88 256.685 2180.2 256.685 L2190.32 256.685 L2194.53 239.557 Q2194.95 237.87 2196.01 236.922 Q2197.11 235.921 2197.75 235.815 Q2198.38 235.657 2198.85 235.657 Q2200.28 235.657 2201.12 236.448 Q2201.96 237.185 2201.96 238.556 Q2201.96 239.293 2197.54 256.685 L2207.02 256.685 Q2208.23 256.685 2208.71 256.737 Q2209.24 256.79 2209.66 257.053 Q2210.08 257.317 2210.08 257.897 Z" fill="#0000ff" fill-rule="nonzero" fill-opacity="1" /><path clip-path="url(#clip260)" d="M2218.52 329.148 Q2218.52 328.621 2219.89 327.303 Q2237.29 309.596 2237.29 276.236 Q2237.29 242.772 2220.58 225.855 Q2218.52 223.905 2218.52 223.325 Q2218.52 222.271 2219.58 222.271 Q2220.32 222.271 2222.9 224.432 Q2225.53 226.593 2229.49 231.546 Q2233.49 236.5 2236.44 242.561 Q2243.56 257.264 2243.56 276.236 Q2243.56 294.471 2236.76 309.174 Q2233.86 315.34 2229.8 320.505 Q2225.74 325.669 2223.06 327.936 Q2220.37 330.202 2219.58 330.202 Q2218.52 330.202 2218.52 329.148 Z" fill="#0000ff" fill-rule="nonzero" fill-opacity="1" /><path clip-path="url(#clip260)" d="M2259.97 329.148 Q2259.97 328.621 2261.34 327.303 Q2278.73 309.596 2278.73 276.236 Q2278.73 242.772 2262.02 225.855 Q2259.97 223.905 2259.97 223.325 Q2259.97 222.271 2261.02 222.271 Q2261.76 222.271 2264.34 224.432 Q2266.97 226.593 2270.93 231.546 Q2274.93 236.5 2277.88 242.561 Q2285 257.264 2285 276.236 Q2285 294.471 2278.2 309.174 Q2275.3 315.34 2271.24 320.505 Q2267.19 325.669 2264.5 327.936 Q2261.81 330.202 2261.02 330.202 Q2259.97 330.202 2259.97 329.148 Z" fill="#0000ff" fill-rule="nonzero" fill-opacity="1" /><path clip-path="url(#clip260)" d="M566.557 1483.96 Q566.557 1485.44 565.871 1485.81 Q565.186 1486.12 563.289 1486.12 L553.171 1486.12 L545.16 1517.96 Q544.528 1520.75 544.528 1523.12 Q544.528 1525.75 545.318 1526.91 Q546.161 1528.07 547.901 1528.07 Q551.326 1528.07 555.015 1524.96 Q558.757 1521.86 561.919 1514.27 Q562.341 1513.26 562.551 1513.05 Q562.815 1512.79 563.5 1512.79 Q564.817 1512.79 564.817 1513.84 Q564.817 1514.21 564.08 1515.9 Q563.395 1517.59 561.866 1520.06 Q560.391 1522.54 558.441 1524.86 Q556.543 1527.18 553.645 1528.86 Q550.746 1530.5 547.637 1530.5 Q543.263 1530.5 540.47 1527.7 Q537.729 1524.91 537.729 1520.54 Q537.729 1519.11 538.836 1514.58 Q539.943 1510 545.951 1486.12 L536.412 1486.12 Q535.094 1486.12 534.567 1486.07 Q534.093 1486.02 533.724 1485.76 Q533.408 1485.44 533.408 1484.81 Q533.408 1483.81 533.83 1483.38 Q534.251 1482.91 534.778 1482.86 Q535.358 1482.75 536.675 1482.75 L546.794 1482.75 L551.01 1465.62 Q551.432 1463.94 552.486 1462.99 Q553.592 1461.99 554.225 1461.88 Q554.857 1461.72 555.331 1461.72 Q556.754 1461.72 557.597 1462.51 Q558.441 1463.25 558.441 1464.62 Q558.441 1465.36 554.014 1482.75 L563.5 1482.75 Q564.712 1482.75 565.186 1482.8 Q565.713 1482.86 566.135 1483.12 Q566.557 1483.38 566.557 1483.96 Z" fill="#000000" fill-rule="nonzero" fill-opacity="1" /><path clip-path="url(#clip260)" d="M597.05 1512.95 Q597.05 1514.57 595.722 1515.79 Q594.431 1516.97 593.029 1516.97 Q591.738 1516.97 590.926 1516.2 Q590.151 1515.39 590.151 1514.24 Q590.151 1512.73 591.442 1511.48 Q592.734 1510.22 594.246 1510.22 Q595.5 1510.22 596.275 1511 Q597.05 1511.77 597.05 1512.95 M597.714 1549.36 Q597.714 1549.66 597.382 1550.84 Q597.05 1551.98 596.238 1553.75 Q595.463 1555.49 594.394 1557.11 Q593.324 1558.73 591.553 1559.88 Q589.819 1561.02 587.827 1561.02 Q585.134 1561.02 583.363 1559.25 Q581.63 1557.48 581.63 1554.82 Q581.63 1553.38 583.363 1548.77 Q588.381 1535.34 588.565 1534.79 Q589.413 1532.69 589.413 1530.84 Q589.413 1529.99 589.229 1529.48 Q589.045 1528.93 588.676 1528.74 Q588.307 1528.52 588.085 1528.48 Q587.901 1528.45 587.532 1528.45 Q585.355 1528.45 583.327 1530.66 Q581.298 1532.87 579.896 1537.82 Q579.601 1538.74 579.416 1538.96 Q579.232 1539.18 578.678 1539.18 Q577.756 1539.14 577.756 1538.41 Q577.756 1538.18 578.014 1537.34 Q578.273 1536.45 578.752 1535.12 Q579.232 1533.76 580.08 1532.36 Q580.929 1530.92 581.962 1529.66 Q583.031 1528.41 584.544 1527.6 Q586.056 1526.79 587.753 1526.79 Q590.52 1526.79 592.217 1528.59 Q593.951 1530.36 593.951 1532.98 Q593.951 1534.42 592.955 1536.97 Q591.738 1540.29 591.295 1541.36 L588.344 1549.29 Q587.274 1552.17 586.942 1553.05 Q586.647 1553.9 586.388 1554.93 Q586.167 1555.93 586.167 1556.85 Q586.167 1558.14 586.573 1558.73 Q587.016 1559.32 587.975 1559.32 Q590.631 1559.32 592.586 1556.7 Q594.541 1554.05 595.685 1549.99 Q595.722 1549.88 595.759 1549.69 Q596.054 1548.77 596.349 1548.66 Q596.496 1548.62 596.792 1548.62 Q597.714 1548.62 597.714 1549.36 Z" fill="#000000" fill-rule="nonzero" fill-opacity="1" /><path clip-path="url(#clip260)" d="M1495.37 1487.6 Q1495.37 1489.07 1494.69 1489.44 Q1494 1489.76 1492.11 1489.76 L1481.99 1489.76 L1473.98 1521.59 Q1473.34 1524.38 1473.34 1526.75 Q1473.34 1529.39 1474.14 1530.55 Q1474.98 1531.71 1476.72 1531.71 Q1480.14 1531.71 1483.83 1528.6 Q1487.57 1525.49 1490.74 1517.9 Q1491.16 1516.9 1491.37 1516.69 Q1491.63 1516.42 1492.32 1516.42 Q1493.63 1516.42 1493.63 1517.48 Q1493.63 1517.85 1492.9 1519.53 Q1492.21 1521.22 1490.68 1523.7 Q1489.21 1526.17 1487.26 1528.49 Q1485.36 1530.81 1482.46 1532.5 Q1479.56 1534.13 1476.45 1534.13 Q1472.08 1534.13 1469.29 1531.34 Q1466.55 1528.54 1466.55 1524.17 Q1466.55 1522.75 1467.65 1518.22 Q1468.76 1513.63 1474.77 1489.76 L1465.23 1489.76 Q1463.91 1489.76 1463.38 1489.7 Q1462.91 1489.65 1462.54 1489.39 Q1462.22 1489.07 1462.22 1488.44 Q1462.22 1487.44 1462.65 1487.02 Q1463.07 1486.54 1463.6 1486.49 Q1464.17 1486.38 1465.49 1486.38 L1475.61 1486.38 L1479.83 1469.26 Q1480.25 1467.57 1481.3 1466.62 Q1482.41 1465.62 1483.04 1465.51 Q1483.67 1465.36 1484.15 1465.36 Q1485.57 1465.36 1486.41 1466.15 Q1487.26 1466.88 1487.26 1468.26 Q1487.26 1468.99 1482.83 1486.38 L1492.32 1486.38 Q1493.53 1486.38 1494 1486.44 Q1494.53 1486.49 1494.95 1486.75 Q1495.37 1487.02 1495.37 1487.6 Z" fill="#000000" fill-rule="nonzero" fill-opacity="1" /><path clip-path="url(#clip260)" d="M1525.87 1516.58 Q1525.87 1518.21 1524.54 1519.42 Q1523.25 1520.61 1521.85 1520.61 Q1520.55 1520.61 1519.74 1519.83 Q1518.97 1519.02 1518.97 1517.88 Q1518.97 1516.36 1520.26 1515.11 Q1521.55 1513.85 1523.06 1513.85 Q1524.32 1513.85 1525.09 1514.63 Q1525.87 1515.4 1525.87 1516.58 M1526.53 1553 Q1526.53 1553.29 1526.2 1554.47 Q1525.87 1555.61 1525.06 1557.39 Q1524.28 1559.12 1523.21 1560.74 Q1522.14 1562.37 1520.37 1563.51 Q1518.64 1564.65 1516.64 1564.65 Q1513.95 1564.65 1512.18 1562.88 Q1510.45 1561.11 1510.45 1558.45 Q1510.45 1557.02 1512.18 1552.4 Q1517.2 1538.98 1517.38 1538.42 Q1518.23 1536.32 1518.23 1534.48 Q1518.23 1533.63 1518.05 1533.11 Q1517.86 1532.56 1517.49 1532.37 Q1517.12 1532.15 1516.9 1532.12 Q1516.72 1532.08 1516.35 1532.08 Q1514.17 1532.08 1512.14 1534.29 Q1510.11 1536.51 1508.71 1541.45 Q1508.42 1542.37 1508.23 1542.59 Q1508.05 1542.81 1507.5 1542.81 Q1506.57 1542.78 1506.57 1542.04 Q1506.57 1541.82 1506.83 1540.97 Q1507.09 1540.08 1507.57 1538.76 Q1508.05 1537.39 1508.9 1535.99 Q1509.75 1534.55 1510.78 1533.3 Q1511.85 1532.04 1513.36 1531.23 Q1514.87 1530.42 1516.57 1530.42 Q1519.34 1530.42 1521.03 1532.23 Q1522.77 1534 1522.77 1536.62 Q1522.77 1538.05 1521.77 1540.6 Q1520.55 1543.92 1520.11 1544.99 L1517.16 1552.92 Q1516.09 1555.8 1515.76 1556.68 Q1515.46 1557.53 1515.21 1558.57 Q1514.98 1559.56 1514.98 1560.48 Q1514.98 1561.78 1515.39 1562.37 Q1515.83 1562.96 1516.79 1562.96 Q1519.45 1562.96 1521.4 1560.34 Q1523.36 1557.68 1524.5 1553.62 Q1524.54 1553.51 1524.58 1553.33 Q1524.87 1552.4 1525.17 1552.29 Q1525.31 1552.26 1525.61 1552.26 Q1526.53 1552.26 1526.53 1553 Z" fill="#000000" fill-rule="nonzero" fill-opacity="1" /><path clip-path="url(#clip260)" d="M1570.28 1507.25 Q1567.8 1507.25 1567.8 1505.94 Q1567.8 1504.62 1570.38 1504.62 Q1570.7 1504.62 1571.23 1504.67 Q1571.81 1504.72 1571.91 1504.72 L1602.32 1504.72 L1602.32 1474.21 Q1602.32 1474.1 1602.27 1473.63 Q1602.21 1473.1 1602.21 1472.79 Q1602.21 1470.21 1603.48 1470.21 Q1604.8 1470.21 1604.8 1472.79 L1604.8 1504.72 L1635.26 1504.72 Q1635.36 1504.72 1635.89 1504.67 Q1636.42 1504.62 1636.73 1504.62 Q1639.21 1504.62 1639.21 1505.94 Q1639.26 1507.25 1636.63 1507.25 Q1636.31 1507.25 1635.84 1507.2 Q1635.36 1507.15 1635.26 1507.15 L1604.8 1507.15 L1604.8 1539.19 Q1604.8 1541.67 1603.48 1541.67 Q1602.21 1541.67 1602.21 1539.08 Q1602.21 1538.77 1602.27 1538.24 Q1602.32 1537.77 1602.32 1537.66 L1602.32 1507.15 L1571.91 1507.15 Q1571.81 1507.15 1571.17 1507.2 Q1570.59 1507.25 1570.28 1507.25 Z" fill="#000000" fill-rule="nonzero" fill-opacity="1" /><path clip-path="url(#clip260)" d="M1733.85 1517.48 Q1733.85 1517.9 1733.38 1519.53 Q1732.9 1521.17 1731.74 1523.7 Q1730.64 1526.23 1729.11 1528.54 Q1727.58 1530.81 1725.05 1532.5 Q1722.57 1534.13 1719.73 1534.13 Q1715.93 1534.13 1713.4 1531.6 Q1710.87 1529.07 1710.87 1525.28 Q1710.87 1524.75 1710.93 1524.22 Q1710.98 1523.7 1711.03 1523.38 Q1711.08 1523.01 1711.24 1522.43 Q1711.45 1521.8 1711.5 1521.54 Q1711.61 1521.27 1711.87 1520.48 Q1712.19 1519.64 1712.3 1519.32 Q1718.99 1502.25 1718.99 1495.13 Q1718.99 1487.6 1713.14 1487.6 Q1707.92 1487.6 1702.76 1491.39 Q1700.38 1493.29 1698.12 1496.66 Q1695.85 1500.03 1695.43 1501.3 Q1694.96 1504.04 1694.27 1506.15 Q1693.96 1507.62 1692.43 1513.37 L1690.06 1523.12 L1688 1531.28 Q1687.58 1532.44 1686.42 1533.29 Q1685.26 1534.13 1684 1534.13 Q1682.94 1534.13 1681.89 1533.39 Q1680.89 1532.71 1680.89 1531.07 Q1680.89 1530.23 1681.31 1528.7 L1696.96 1466.52 L1697.28 1464.41 Q1697.28 1463.78 1697.01 1463.46 Q1696.8 1463.09 1695.54 1462.83 Q1694.32 1462.56 1691.9 1462.56 Q1690.9 1462.56 1690.42 1462.51 Q1690 1462.46 1689.63 1462.19 Q1689.27 1461.88 1689.27 1461.25 Q1689.27 1460.35 1689.63 1459.88 Q1690.06 1459.35 1690.37 1459.24 Q1690.69 1459.14 1691.32 1459.09 Q1692.22 1459.03 1695.22 1458.77 Q1698.22 1458.45 1700.81 1458.24 Q1703.39 1458.03 1704.5 1458.03 Q1705.13 1458.03 1705.44 1458.35 Q1705.81 1458.61 1705.87 1458.93 L1705.92 1459.19 L1697.49 1493.5 Q1704.18 1485.22 1713.45 1485.22 Q1719.46 1485.22 1722.68 1488.33 Q1725.89 1491.39 1725.89 1496.77 Q1725.89 1502.93 1719.3 1520.48 Q1717.35 1525.38 1717.35 1528.18 Q1717.35 1530.02 1717.93 1530.86 Q1718.57 1531.71 1719.94 1531.71 Q1722.04 1531.71 1723.89 1530.49 Q1725.79 1529.23 1727.1 1527.17 Q1728.42 1525.07 1729.32 1522.96 Q1730.27 1520.8 1730.95 1518.37 Q1731.37 1517.06 1731.58 1516.74 Q1731.85 1516.42 1732.58 1516.42 Q1733.85 1516.42 1733.85 1517.48 Z" fill="#000000" fill-rule="nonzero" fill-opacity="1" /><path clip-path="url(#clip260)" d="M1764.15 1516.58 Q1764.15 1518.21 1762.82 1519.42 Q1761.53 1520.61 1760.13 1520.61 Q1758.84 1520.61 1758.03 1519.83 Q1757.25 1519.02 1757.25 1517.88 Q1757.25 1516.36 1758.55 1515.11 Q1759.84 1513.85 1761.35 1513.85 Q1762.6 1513.85 1763.38 1514.63 Q1764.15 1515.4 1764.15 1516.58 M1764.82 1553 Q1764.82 1553.29 1764.48 1554.47 Q1764.15 1555.61 1763.34 1557.39 Q1762.57 1559.12 1761.5 1560.74 Q1760.43 1562.37 1758.66 1563.51 Q1756.92 1564.65 1754.93 1564.65 Q1752.24 1564.65 1750.47 1562.88 Q1748.73 1561.11 1748.73 1558.45 Q1748.73 1557.02 1750.47 1552.4 Q1755.48 1538.98 1755.67 1538.42 Q1756.52 1536.32 1756.52 1534.48 Q1756.52 1533.63 1756.33 1533.11 Q1756.15 1532.56 1755.78 1532.37 Q1755.41 1532.15 1755.19 1532.12 Q1755 1532.08 1754.63 1532.08 Q1752.46 1532.08 1750.43 1534.29 Q1748.4 1536.51 1747 1541.45 Q1746.7 1542.37 1746.52 1542.59 Q1746.33 1542.81 1745.78 1542.81 Q1744.86 1542.78 1744.86 1542.04 Q1744.86 1541.82 1745.12 1540.97 Q1745.38 1540.08 1745.85 1538.76 Q1746.33 1537.39 1747.18 1535.99 Q1748.03 1534.55 1749.06 1533.3 Q1750.13 1532.04 1751.65 1531.23 Q1753.16 1530.42 1754.86 1530.42 Q1757.62 1530.42 1759.32 1532.23 Q1761.05 1534 1761.05 1536.62 Q1761.05 1538.05 1760.06 1540.6 Q1758.84 1543.92 1758.4 1544.99 L1755.45 1552.92 Q1754.38 1555.8 1754.04 1556.68 Q1753.75 1557.53 1753.49 1558.57 Q1753.27 1559.56 1753.27 1560.48 Q1753.27 1561.78 1753.68 1562.37 Q1754.12 1562.96 1755.08 1562.96 Q1757.73 1562.96 1759.69 1560.34 Q1761.64 1557.68 1762.79 1553.62 Q1762.82 1553.51 1762.86 1553.33 Q1763.16 1552.4 1763.45 1552.29 Q1763.6 1552.26 1763.89 1552.26 Q1764.82 1552.26 1764.82 1553 Z" fill="#000000" fill-rule="nonzero" fill-opacity="1" /><path clip-path="url(#clip260)" d="M69.1962 887.658 Q69.1962 887.71 68.88 889.608 L56.8643 937.512 Q56.2319 940.042 54.4401 942.572 Q52.701 945.154 49.9079 947.367 Q47.1674 949.633 42.9514 951.004 Q38.788 952.427 33.9923 952.427 Q26.3507 952.427 22.9779 950.793 Q19.6578 949.212 19.6578 945.839 Q19.6578 942.888 21.5023 941.201 Q23.3468 939.568 25.4548 939.568 Q27.4574 939.568 28.5115 940.727 Q29.5655 941.886 29.5655 943.362 Q29.5655 944.996 28.4588 946.629 Q27.352 948.316 25.1386 948.948 Q28.6696 950.055 33.7815 950.055 Q44.5851 950.055 49.2227 938.619 Q49.3281 938.461 49.3281 938.408 L52.9118 924.126 L52.7537 924.021 Q51.8578 925.075 50.4349 926.287 Q49.0646 927.447 46.1134 928.869 Q43.1622 930.292 40.2637 930.292 Q34.2031 930.292 30.0398 925.655 Q25.9291 920.964 25.9291 913.217 Q25.9291 907.578 28.1952 901.939 Q30.5141 896.248 34.0977 892.084 Q37.734 887.868 42.3717 885.233 Q47.062 882.598 51.5943 882.598 Q54.7563 882.598 57.444 884.496 Q60.1318 886.34 61.6074 889.397 Q61.8709 886.867 63.2938 885.813 Q64.7694 884.759 66.0342 884.759 Q67.4571 884.759 68.3003 885.55 Q69.1962 886.287 69.1962 887.658 M60.3426 894.245 Q60.3426 893.929 60.1318 893.086 Q59.9209 892.19 59.2885 890.767 Q58.7088 889.344 57.8129 888.079 Q56.917 886.814 55.2833 885.919 Q53.7023 884.97 51.6997 884.97 Q48.4322 884.97 45.1648 887.71 Q41.8974 890.398 39.6313 894.561 Q37.5232 898.567 35.5206 906.314 Q33.5707 914.061 33.5707 918.013 Q33.5707 921.913 35.2571 924.917 Q36.9435 927.921 40.5799 927.921 Q44.7959 927.921 49.3281 924.021 Q54.0185 919.963 54.809 916.485 L60.0264 895.879 Q60.3426 894.614 60.3426 894.245 Z" fill="#000000" fill-rule="nonzero" fill-opacity="1" /><path clip-path="url(#clip260)" d="M83.9898 903.31 Q83.9898 885.075 90.7882 870.372 Q93.6867 864.206 97.7447 859.041 Q101.803 853.877 104.49 851.61 Q107.178 849.344 107.916 849.344 Q108.97 849.344 109.023 850.398 Q109.023 850.925 107.6 852.243 Q90.2085 869.95 90.2612 903.31 Q90.2612 936.774 107.178 953.797 Q109.023 955.641 109.023 956.221 Q109.023 957.275 107.916 957.275 Q107.178 957.275 104.596 955.114 Q102.013 952.954 98.0082 948 Q94.0029 943.046 91.1044 936.985 Q83.9898 922.282 83.9898 903.31 Z" fill="#000000" fill-rule="nonzero" fill-opacity="1" /><path clip-path="url(#clip260)" d="M158.579 884.97 Q158.579 886.446 157.894 886.814 Q157.209 887.131 155.312 887.131 L145.194 887.131 L137.183 918.962 Q136.551 921.755 136.551 924.126 Q136.551 926.761 137.341 927.921 Q138.184 929.08 139.923 929.08 Q143.349 929.08 147.038 925.971 Q150.78 922.862 153.942 915.273 Q154.363 914.271 154.574 914.061 Q154.838 913.797 155.523 913.797 Q156.84 913.797 156.84 914.851 Q156.84 915.22 156.103 916.906 Q155.417 918.593 153.889 921.07 Q152.413 923.547 150.464 925.865 Q148.566 928.184 145.668 929.871 Q142.769 931.504 139.66 931.504 Q135.286 931.504 132.493 928.711 Q129.752 925.918 129.752 921.544 Q129.752 920.121 130.859 915.589 Q131.966 911.004 137.974 887.131 L128.435 887.131 Q127.117 887.131 126.59 887.078 Q126.116 887.025 125.747 886.762 Q125.431 886.446 125.431 885.813 Q125.431 884.812 125.852 884.39 Q126.274 883.916 126.801 883.863 Q127.381 883.758 128.698 883.758 L138.817 883.758 L143.033 866.63 Q143.454 864.944 144.508 863.995 Q145.615 862.994 146.248 862.888 Q146.88 862.73 147.354 862.73 Q148.777 862.73 149.62 863.521 Q150.464 864.259 150.464 865.629 Q150.464 866.367 146.037 883.758 L155.523 883.758 Q156.735 883.758 157.209 883.81 Q157.736 883.863 158.158 884.127 Q158.579 884.39 158.579 884.97 Z" fill="#000000" fill-rule="nonzero" fill-opacity="1" /><path clip-path="url(#clip260)" d="M189.073 913.958 Q189.073 915.581 187.745 916.799 Q186.453 917.979 185.052 917.979 Q183.76 917.979 182.949 917.204 Q182.174 916.393 182.174 915.249 Q182.174 913.737 183.465 912.482 Q184.756 911.228 186.269 911.228 Q187.523 911.228 188.298 912.003 Q189.073 912.778 189.073 913.958 M189.737 950.369 Q189.737 950.664 189.405 951.844 Q189.073 952.988 188.261 954.759 Q187.486 956.493 186.416 958.116 Q185.347 959.739 183.576 960.883 Q181.842 962.026 179.85 962.026 Q177.157 962.026 175.386 960.255 Q173.652 958.485 173.652 955.829 Q173.652 954.39 175.386 949.779 Q180.403 936.35 180.588 935.797 Q181.436 933.694 181.436 931.85 Q181.436 931.001 181.252 930.485 Q181.067 929.932 180.698 929.747 Q180.33 929.526 180.108 929.489 Q179.924 929.452 179.555 929.452 Q177.378 929.452 175.349 931.665 Q173.32 933.879 171.919 938.822 Q171.623 939.744 171.439 939.966 Q171.255 940.187 170.701 940.187 Q169.779 940.15 169.779 939.412 Q169.779 939.191 170.037 938.343 Q170.295 937.457 170.775 936.129 Q171.255 934.764 172.103 933.362 Q172.952 931.924 173.984 930.669 Q175.054 929.415 176.567 928.603 Q178.079 927.792 179.776 927.792 Q182.543 927.792 184.24 929.6 Q185.974 931.37 185.974 933.989 Q185.974 935.428 184.978 937.974 Q183.76 941.294 183.318 942.364 L180.366 950.295 Q179.297 953.172 178.965 954.058 Q178.67 954.906 178.411 955.939 Q178.19 956.935 178.19 957.858 Q178.19 959.149 178.596 959.739 Q179.038 960.329 179.998 960.329 Q182.654 960.329 184.609 957.71 Q186.564 955.054 187.708 950.996 Q187.745 950.885 187.781 950.701 Q188.077 949.779 188.372 949.668 Q188.519 949.631 188.814 949.631 Q189.737 949.631 189.737 950.369 Z" fill="#000000" fill-rule="nonzero" fill-opacity="1" /><path clip-path="url(#clip260)" d="M201.063 956.221 Q201.063 955.694 202.433 954.376 Q219.824 936.669 219.824 903.31 Q219.824 869.845 203.118 852.928 Q201.063 850.978 201.063 850.398 Q201.063 849.344 202.117 849.344 Q202.855 849.344 205.437 851.505 Q208.072 853.666 212.025 858.62 Q216.03 863.574 218.981 869.634 Q226.096 884.338 226.096 903.31 Q226.096 921.544 219.297 936.247 Q216.399 942.413 212.341 947.578 Q208.283 952.743 205.595 955.009 Q202.908 957.275 202.117 957.275 Q201.063 957.275 201.063 956.221 Z" fill="#000000" fill-rule="nonzero" fill-opacity="1" /><path clip-path="url(#clip260)" d="M1711.38 886.709 Q1711.38 887.447 1710.91 889.186 L1700.58 930.398 Q1698.31 939.568 1690.94 945.997 Q1683.61 952.427 1675.28 952.427 Q1670.28 952.427 1667.06 949.739 Q1663.85 947.104 1663.85 943.046 Q1663.85 939.462 1665.75 937.723 Q1667.64 936.037 1669.91 936.037 Q1670.65 936.037 1671.44 936.247 Q1672.23 936.458 1673.07 937.354 Q1673.91 938.25 1673.91 939.778 Q1673.91 942.255 1671.75 944.205 Q1670.7 945.101 1669.7 945.312 Q1668.75 945.523 1667.12 945.523 Q1667.75 946.998 1668.91 948 Q1670.07 949.001 1671.38 949.37 Q1672.7 949.792 1673.55 949.897 Q1674.44 950.055 1675.28 950.055 Q1682.03 950.055 1687.19 943.257 Q1688.72 941.201 1689.83 939.146 Q1690.99 937.143 1691.83 934.666 Q1692.68 932.242 1693.04 930.925 Q1693.47 929.607 1694.2 926.603 Q1689.3 931.504 1683.29 931.504 Q1680.77 931.504 1678.5 930.819 Q1676.29 930.134 1674.34 928.711 Q1672.39 927.236 1671.23 924.653 Q1670.12 922.071 1670.12 918.646 Q1670.12 915.009 1671.54 910.055 Q1672.97 905.101 1676.39 895.984 Q1678.24 890.872 1678.24 888.395 Q1678.24 887.183 1677.97 886.446 Q1677.71 885.655 1677.18 885.392 Q1676.65 885.075 1676.34 885.023 Q1676.07 884.97 1675.55 884.97 Q1672.44 884.97 1669.54 888.132 Q1666.64 891.294 1664.64 898.356 Q1664.22 899.673 1663.95 899.99 Q1663.69 900.306 1662.9 900.306 Q1661.58 900.253 1661.58 899.199 Q1661.58 898.777 1662.06 897.144 Q1662.53 895.457 1663.64 892.98 Q1664.8 890.451 1666.38 888.185 Q1667.96 885.866 1670.44 884.232 Q1672.97 882.598 1675.86 882.598 Q1679.82 882.598 1682.24 885.181 Q1684.72 887.71 1684.72 891.452 Q1684.72 892.98 1684.3 894.351 Q1683.93 895.668 1682.56 899.199 Q1677.02 913.428 1677.02 920.385 Q1677.02 922.071 1677.29 923.494 Q1677.6 924.864 1678.29 926.234 Q1678.97 927.552 1680.34 928.342 Q1681.77 929.08 1683.72 929.08 Q1686.19 929.08 1688.51 927.921 Q1690.88 926.709 1692.36 925.075 Q1693.89 923.441 1694.78 922.071 Q1695.73 920.648 1695.94 919.91 L1700.79 900.517 L1702.95 891.874 Q1703.95 887.183 1704.43 886.024 Q1705.06 884.917 1706.17 884.338 Q1707.27 883.758 1708.22 883.758 Q1709.54 883.758 1710.44 884.548 Q1711.38 885.339 1711.38 886.709 Z" fill="#000000" fill-rule="nonzero" fill-opacity="1" /><path clip-path="url(#clip260)" d="M1743.87 913.902 Q1743.98 912.585 1746.04 912.585 L1812.17 912.585 Q1815.28 912.585 1815.34 913.797 Q1815.34 915.115 1812.39 915.062 L1746.77 915.062 Q1743.87 915.115 1743.87 913.902 M1743.87 892.822 Q1743.87 891.505 1746.14 891.557 L1812.07 891.557 Q1815.28 891.557 1815.34 892.822 Q1815.34 894.034 1812.6 894.034 L1746.04 894.034 Q1743.87 894.034 1743.87 892.822 Z" fill="#000000" fill-rule="nonzero" fill-opacity="1" /><path clip-path="url(#clip260)" d="M1906.5 887.658 Q1906.5 887.71 1906.18 889.608 L1894.17 937.512 Q1893.53 940.042 1891.74 942.572 Q1890 945.154 1887.21 947.367 Q1884.47 949.633 1880.25 951.004 Q1876.09 952.427 1871.29 952.427 Q1863.65 952.427 1860.28 950.793 Q1856.96 949.212 1856.96 945.839 Q1856.96 942.888 1858.8 941.201 Q1860.65 939.568 1862.76 939.568 Q1864.76 939.568 1865.81 940.727 Q1866.87 941.886 1866.87 943.362 Q1866.87 944.996 1865.76 946.629 Q1864.65 948.316 1862.44 948.948 Q1865.97 950.055 1871.08 950.055 Q1881.89 950.055 1886.53 938.619 Q1886.63 938.461 1886.63 938.408 L1890.21 924.126 L1890.06 924.021 Q1889.16 925.075 1887.74 926.287 Q1886.37 927.447 1883.42 928.869 Q1880.46 930.292 1877.57 930.292 Q1871.51 930.292 1867.34 925.655 Q1863.23 920.964 1863.23 913.217 Q1863.23 907.578 1865.5 901.939 Q1867.82 896.248 1871.4 892.084 Q1875.04 887.868 1879.67 885.233 Q1884.36 882.598 1888.9 882.598 Q1892.06 882.598 1894.75 884.496 Q1897.43 886.34 1898.91 889.397 Q1899.17 886.867 1900.6 885.813 Q1902.07 884.759 1903.34 884.759 Q1904.76 884.759 1905.6 885.55 Q1906.5 886.287 1906.5 887.658 M1897.64 894.245 Q1897.64 893.929 1897.43 893.086 Q1897.22 892.19 1896.59 890.767 Q1896.01 889.344 1895.12 888.079 Q1894.22 886.814 1892.59 885.919 Q1891 884.97 1889 884.97 Q1885.73 884.97 1882.47 887.71 Q1879.2 890.398 1876.93 894.561 Q1874.83 898.567 1872.82 906.314 Q1870.87 914.061 1870.87 918.013 Q1870.87 921.913 1872.56 924.917 Q1874.25 927.921 1877.88 927.921 Q1882.1 927.921 1886.63 924.021 Q1891.32 919.963 1892.11 916.485 L1897.33 895.879 Q1897.64 894.614 1897.64 894.245 Z" fill="#000000" fill-rule="nonzero" fill-opacity="1" /><path clip-path="url(#clip260)" d="M1921.29 903.31 Q1921.29 885.075 1928.09 870.372 Q1930.99 864.206 1935.05 859.041 Q1939.11 853.877 1941.79 851.61 Q1944.48 849.344 1945.22 849.344 Q1946.27 849.344 1946.32 850.398 Q1946.32 850.925 1944.9 852.243 Q1927.51 869.95 1927.56 903.31 Q1927.56 936.774 1944.48 953.797 Q1946.32 955.641 1946.32 956.221 Q1946.32 957.275 1945.22 957.275 Q1944.48 957.275 1941.9 955.114 Q1939.32 952.954 1935.31 948 Q1931.31 943.046 1928.41 936.985 Q1921.29 922.282 1921.29 903.31 Z" fill="#000000" fill-rule="nonzero" fill-opacity="1" /><path clip-path="url(#clip260)" d="M1995.88 884.97 Q1995.88 886.446 1995.2 886.814 Q1994.51 887.131 1992.61 887.131 L1982.5 887.131 L1974.49 918.962 Q1973.85 921.755 1973.85 924.126 Q1973.85 926.761 1974.64 927.921 Q1975.49 929.08 1977.23 929.08 Q1980.65 929.08 1984.34 925.971 Q1988.08 922.862 1991.24 915.273 Q1991.67 914.271 1991.88 914.061 Q1992.14 913.797 1992.83 913.797 Q1994.14 913.797 1994.14 914.851 Q1994.14 915.22 1993.4 916.906 Q1992.72 918.593 1991.19 921.07 Q1989.72 923.547 1987.77 925.865 Q1985.87 928.184 1982.97 929.871 Q1980.07 931.504 1976.96 931.504 Q1972.59 931.504 1969.8 928.711 Q1967.05 925.918 1967.05 921.544 Q1967.05 920.121 1968.16 915.589 Q1969.27 911.004 1975.28 887.131 L1965.74 887.131 Q1964.42 887.131 1963.89 887.078 Q1963.42 887.025 1963.05 886.762 Q1962.73 886.446 1962.73 885.813 Q1962.73 884.812 1963.15 884.39 Q1963.58 883.916 1964.1 883.863 Q1964.68 883.758 1966 883.758 L1976.12 883.758 L1980.34 866.63 Q1980.76 864.944 1981.81 863.995 Q1982.92 862.994 1983.55 862.888 Q1984.18 862.73 1984.66 862.73 Q1986.08 862.73 1986.92 863.521 Q1987.77 864.259 1987.77 865.629 Q1987.77 866.367 1983.34 883.758 L1992.83 883.758 Q1994.04 883.758 1994.51 883.81 Q1995.04 883.863 1995.46 884.127 Q1995.88 884.39 1995.88 884.97 Z" fill="#000000" fill-rule="nonzero" fill-opacity="1" /><path clip-path="url(#clip260)" d="M2026.38 913.958 Q2026.38 915.581 2025.05 916.799 Q2023.76 917.979 2022.35 917.979 Q2021.06 917.979 2020.25 917.204 Q2019.48 916.393 2019.48 915.249 Q2019.48 913.737 2020.77 912.482 Q2022.06 911.228 2023.57 911.228 Q2024.83 911.228 2025.6 912.003 Q2026.38 912.778 2026.38 913.958 M2027.04 950.369 Q2027.04 950.664 2026.71 951.844 Q2026.38 952.988 2025.56 954.759 Q2024.79 956.493 2023.72 958.116 Q2022.65 959.739 2020.88 960.883 Q2019.14 962.026 2017.15 962.026 Q2014.46 962.026 2012.69 960.255 Q2010.95 958.485 2010.95 955.829 Q2010.95 954.39 2012.69 949.779 Q2017.71 936.35 2017.89 935.797 Q2018.74 933.694 2018.74 931.85 Q2018.74 931.001 2018.55 930.485 Q2018.37 929.932 2018 929.747 Q2017.63 929.526 2017.41 929.489 Q2017.23 929.452 2016.86 929.452 Q2014.68 929.452 2012.65 931.665 Q2010.62 933.879 2009.22 938.822 Q2008.93 939.744 2008.74 939.966 Q2008.56 940.187 2008 940.187 Q2007.08 940.15 2007.08 939.412 Q2007.08 939.191 2007.34 938.343 Q2007.6 937.457 2008.08 936.129 Q2008.56 934.764 2009.41 933.362 Q2010.25 931.924 2011.29 930.669 Q2012.36 929.415 2013.87 928.603 Q2015.38 927.792 2017.08 927.792 Q2019.85 927.792 2021.54 929.6 Q2023.28 931.37 2023.28 933.989 Q2023.28 935.428 2022.28 937.974 Q2021.06 941.294 2020.62 942.364 L2017.67 950.295 Q2016.6 953.172 2016.27 954.058 Q2015.97 954.906 2015.71 955.939 Q2015.49 956.935 2015.49 957.858 Q2015.49 959.149 2015.9 959.739 Q2016.34 960.329 2017.3 960.329 Q2019.96 960.329 2021.91 957.71 Q2023.87 955.054 2025.01 950.996 Q2025.05 950.885 2025.08 950.701 Q2025.38 949.779 2025.67 949.668 Q2025.82 949.631 2026.12 949.631 Q2027.04 949.631 2027.04 950.369 Z" fill="#000000" fill-rule="nonzero" fill-opacity="1" /><path clip-path="url(#clip260)" d="M2038.37 956.221 Q2038.37 955.694 2039.74 954.376 Q2057.13 936.669 2057.13 903.31 Q2057.13 869.845 2040.42 852.928 Q2038.37 850.978 2038.37 850.398 Q2038.37 849.344 2039.42 849.344 Q2040.16 849.344 2042.74 851.505 Q2045.37 853.666 2049.33 858.62 Q2053.33 863.574 2056.28 869.634 Q2063.4 884.338 2063.4 903.31 Q2063.4 921.544 2056.6 936.247 Q2053.7 942.413 2049.64 947.578 Q2045.59 952.743 2042.9 955.009 Q2040.21 957.275 2039.42 957.275 Q2038.37 957.275 2038.37 956.221 Z" fill="#000000" fill-rule="nonzero" fill-opacity="1" /><path clip-path="url(#clip260)" d="M602.866 465.047 L597.859 494.612 L529.033 494.612 L529.033 489.552 L540.679 489.552 L540.679 426.312 L529.033 426.312 L529.033 421.2 L596.068 421.2 L599.388 447.234 L594.328 447.234 Q593.907 444.125 593.485 441.964 Q593.064 439.75 592.273 437.432 Q591.483 435.06 590.429 433.479 Q589.375 431.898 587.741 430.475 Q586.16 429 584.052 428.156 Q581.944 427.313 578.993 426.839 Q576.094 426.312 572.405 426.312 L556.015 426.312 L556.015 454.032 L561.97 454.032 Q565.818 454.032 568.136 453.242 Q570.508 452.451 571.615 450.659 Q572.774 448.815 573.09 446.812 Q573.406 444.81 573.406 441.384 L578.466 441.384 L578.466 471.74 L573.406 471.74 Q573.406 468.314 573.037 466.311 Q572.721 464.309 571.562 462.517 Q570.455 460.673 568.084 459.882 Q565.765 459.092 561.97 459.092 L556.015 459.092 L556.015 489.552 L572.405 489.552 Q576.621 489.552 579.941 488.973 Q583.314 488.34 585.738 487.339 Q588.163 486.338 590.007 484.599 Q591.904 482.807 593.064 481.015 Q594.276 479.17 595.172 476.377 Q596.12 473.584 596.647 471.16 Q597.174 468.683 597.754 465.047 L602.866 465.047 Z" fill="#000000" fill-rule="nonzero" fill-opacity="1" /><path clip-path="url(#clip260)" d="M675.269 494.612 L656.139 495.244 L656.139 486.865 Q651.238 495.244 640.592 495.244 Q636.218 495.244 632.951 494.664 Q629.736 494.085 626.89 492.662 Q624.097 491.186 622.621 488.34 Q621.146 485.494 621.146 481.331 L621.146 456.193 Q621.146 453.136 620.039 452.557 Q618.932 451.977 613.715 451.977 L613.715 446.918 L633.478 446.022 L633.478 482.859 Q633.478 485.442 633.636 486.759 Q633.846 488.024 634.637 489.289 Q635.48 490.501 637.272 490.975 Q639.064 491.397 642.12 491.397 Q648.076 491.397 651.765 487.392 Q655.506 483.386 655.506 476.799 L655.506 456.193 Q655.506 453.136 654.347 452.557 Q653.24 451.977 648.023 451.977 L648.023 446.918 L667.786 446.022 L667.786 485.336 Q667.786 488.393 668.892 488.973 Q670.052 489.552 675.269 489.552 L675.269 494.612 Z" fill="#000000" fill-rule="nonzero" fill-opacity="1" /><path clip-path="url(#clip260)" d="M709.408 494.612 L696.127 494.295 L682.847 494.612 L682.847 489.552 L690.33 489.552 L690.33 429.843 Q690.33 426.786 689.171 426.206 Q688.064 425.627 682.847 425.627 L682.847 420.567 L701.977 419.724 L701.977 489.552 L709.408 489.552 L709.408 494.612 Z" fill="#000000" fill-rule="nonzero" fill-opacity="1" /><path clip-path="url(#clip260)" d="M768.079 481.964 Q768.079 482.649 767.5 484.072 Q766.92 485.442 765.286 487.444 Q763.705 489.394 761.386 491.133 Q759.12 492.82 755.115 494.032 Q751.163 495.244 746.367 495.244 Q733.508 495.244 725.866 488.288 Q718.225 481.331 718.225 470.317 Q718.225 465.205 719.964 460.778 Q721.756 456.351 725.023 452.978 Q728.291 449.605 733.402 447.656 Q738.514 445.706 744.838 445.706 Q756.011 445.706 762.019 451.555 Q764.496 454.032 765.919 457.616 Q767.394 461.147 767.71 463.518 Q768.079 465.89 768.079 468.156 Q768.079 470.159 767.342 470.633 Q766.656 471.107 764.601 471.107 L732.032 471.107 Q732.032 472.846 732.032 474.006 Q732.085 475.112 732.401 477.379 Q732.717 479.645 733.244 481.278 Q733.771 482.859 734.878 484.809 Q736.037 486.759 737.618 488.024 Q739.2 489.236 741.676 490.079 Q744.153 490.923 747.315 490.923 Q752.585 490.923 756.801 488.551 Q761.07 486.18 762.757 482.332 Q763.284 480.91 763.705 480.488 Q764.18 480.066 765.497 480.066 Q768.079 480.066 768.079 481.964 M757.803 467.524 Q757.328 449.605 744.838 449.605 Q742.098 449.605 739.305 450.923 Q736.512 452.24 734.615 455.192 Q733.561 456.878 732.981 459.302 Q732.401 461.674 732.296 463.044 Q732.19 464.362 732.032 467.524 L757.803 467.524 Z" fill="#000000" fill-rule="nonzero" fill-opacity="1" /><path clip-path="url(#clip260)" d="M816.069 454.875 Q816.069 457.932 814.067 459.724 Q812.064 461.463 809.482 461.463 Q806.899 461.463 804.897 459.724 Q802.894 457.985 802.894 454.875 Q802.894 453.505 803.369 452.293 Q803.896 451.028 804.423 450.449 L804.95 449.922 Q801.84 449.922 799.416 451.397 Q796.992 452.82 795.516 455.034 Q794.041 457.247 793.092 460.146 Q792.143 462.991 791.774 465.574 Q791.458 468.156 791.458 470.633 L791.458 489.552 L800.839 489.552 L800.839 494.612 Q796.939 494.295 785.977 494.295 L772.381 494.612 L772.381 489.552 L779.811 489.552 L779.811 456.193 Q779.811 453.136 778.705 452.557 Q777.598 451.977 772.381 451.977 L772.381 446.918 L790.299 446.022 L790.299 458.248 Q794.778 446.022 804.633 446.022 Q809.166 446.022 812.591 448.446 Q816.069 450.818 816.069 454.875 Z" fill="#000000" fill-rule="nonzero" fill-opacity="1" /></svg>
