<?xml version="1.0" encoding="utf-8"?>
<svg xmlns="http://www.w3.org/2000/svg" xmlns:xlink="http://www.w3.org/1999/xlink" width="600" height="600" viewBox="0 0 2400 2400">
<defs>
  <clipPath id="clip160">
    <rect x="0" y="0" width="2400" height="2400"/>
  </clipPath>
</defs>
<path clip-path="url(#clip160)" d="M0 2400 L2400 2400 L2400 0 L0 0  Z" fill="#ffffff" fill-rule="evenodd" fill-opacity="1"/>
<defs>
  <clipPath id="clip161">
    <rect x="480" y="239" width="1681" height="1681"/>
  </clipPath>
</defs>
<path clip-path="url(#clip160)" d="M344.887 2111.46 L2308.5 2111.46 L2308.5 71.4961 L344.887 71.4961  Z" fill="#ffffff" fill-rule="evenodd" fill-opacity="1"/>
<defs>
  <clipPath id="clip162">
    <rect x="344" y="71" width="1965" height="2041"/>
  </clipPath>
</defs>
<polyline clip-path="url(#clip162)" style="stroke:#000000; stroke-linecap:round; stroke-linejoin:round; stroke-width:2; stroke-opacity:0.1; fill:none" points="344.887,2111.46 344.887,71.4961 "/>
<polyline clip-path="url(#clip162)" style="stroke:#000000; stroke-linecap:round; stroke-linejoin:round; stroke-width:2; stroke-opacity:0.1; fill:none" points="999.426,2111.46 999.426,71.4961 "/>
<polyline clip-path="url(#clip162)" style="stroke:#000000; stroke-linecap:round; stroke-linejoin:round; stroke-width:2; stroke-opacity:0.1; fill:none" points="1653.97,2111.46 1653.97,71.4961 "/>
<polyline clip-path="url(#clip162)" style="stroke:#000000; stroke-linecap:round; stroke-linejoin:round; stroke-width:2; stroke-opacity:0.1; fill:none" points="2308.5,2111.46 2308.5,71.4961 "/>
<polyline clip-path="url(#clip162)" style="stroke:#000000; stroke-linecap:round; stroke-linejoin:round; stroke-width:2; stroke-opacity:0.1; fill:none" points="344.887,1567.47 2308.5,1567.47 "/>
<polyline clip-path="url(#clip162)" style="stroke:#000000; stroke-linecap:round; stroke-linejoin:round; stroke-width:2; stroke-opacity:0.1; fill:none" points="344.887,887.483 2308.5,887.483 "/>
<polyline clip-path="url(#clip162)" style="stroke:#000000; stroke-linecap:round; stroke-linejoin:round; stroke-width:2; stroke-opacity:0.1; fill:none" points="344.887,207.494 2308.5,207.494 "/>
<polyline clip-path="url(#clip160)" style="stroke:#000000; stroke-linecap:round; stroke-linejoin:round; stroke-width:4; stroke-opacity:1; fill:none" points="344.887,2111.46 2308.5,2111.46 "/>
<polyline clip-path="url(#clip160)" style="stroke:#000000; stroke-linecap:round; stroke-linejoin:round; stroke-width:4; stroke-opacity:1; fill:none" points="344.887,2111.46 344.887,2092.57 "/>
<polyline clip-path="url(#clip160)" style="stroke:#000000; stroke-linecap:round; stroke-linejoin:round; stroke-width:4; stroke-opacity:1; fill:none" points="999.426,2111.46 999.426,2092.57 "/>
<polyline clip-path="url(#clip160)" style="stroke:#000000; stroke-linecap:round; stroke-linejoin:round; stroke-width:4; stroke-opacity:1; fill:none" points="1653.97,2111.46 1653.97,2092.57 "/>
<polyline clip-path="url(#clip160)" style="stroke:#000000; stroke-linecap:round; stroke-linejoin:round; stroke-width:4; stroke-opacity:1; fill:none" points="2308.5,2111.46 2308.5,2092.57 "/>
<path clip-path="url(#clip160)" d="M294.58 2185.59 L302.218 2185.59 L302.218 2159.22 L293.908 2160.89 L293.908 2156.63 L302.172 2154.96 L306.848 2154.96 L306.848 2185.59 L314.487 2185.59 L314.487 2189.52 L294.58 2189.52 L294.58 2185.59 Z" fill="#000000" fill-rule="nonzero" fill-opacity="1" /><path clip-path="url(#clip160)" d="M333.931 2158.04 Q330.32 2158.04 328.491 2161.61 Q326.686 2165.15 326.686 2172.28 Q326.686 2179.38 328.491 2182.95 Q330.32 2186.49 333.931 2186.49 Q337.565 2186.49 339.371 2182.95 Q341.2 2179.38 341.2 2172.28 Q341.2 2165.15 339.371 2161.61 Q337.565 2158.04 333.931 2158.04 M333.931 2154.34 Q339.741 2154.34 342.797 2158.94 Q345.876 2163.53 345.876 2172.28 Q345.876 2181 342.797 2185.61 Q339.741 2190.19 333.931 2190.19 Q328.121 2190.19 325.042 2185.61 Q321.987 2181 321.987 2172.28 Q321.987 2163.53 325.042 2158.94 Q328.121 2154.34 333.931 2154.34 Z" fill="#000000" fill-rule="nonzero" fill-opacity="1" /><path clip-path="url(#clip160)" d="M345.876 2148.44 L369.987 2148.44 L369.987 2151.64 L345.876 2151.64 L345.876 2148.44 Z" fill="#000000" fill-rule="nonzero" fill-opacity="1" /><path clip-path="url(#clip160)" d="M378.3 2161.53 L378.3 2158.07 Q379.73 2158.75 381.197 2159.1 Q382.664 2159.46 384.074 2159.46 Q387.836 2159.46 389.811 2156.94 Q391.804 2154.4 392.086 2149.25 Q390.995 2150.87 389.322 2151.73 Q387.648 2152.6 385.616 2152.6 Q381.403 2152.6 378.94 2150.06 Q376.495 2147.5 376.495 2143.08 Q376.495 2138.75 379.053 2136.14 Q381.61 2133.52 385.861 2133.52 Q390.732 2133.52 393.29 2137.27 Q395.867 2140.99 395.867 2148.1 Q395.867 2154.74 392.707 2158.71 Q389.566 2162.66 384.243 2162.66 Q382.814 2162.66 381.347 2162.38 Q379.88 2162.09 378.3 2161.53 M385.861 2149.62 Q388.419 2149.62 389.905 2147.88 Q391.409 2146.13 391.409 2143.08 Q391.409 2140.05 389.905 2138.3 Q388.419 2136.53 385.861 2136.53 Q383.303 2136.53 381.798 2138.3 Q380.313 2140.05 380.313 2143.08 Q380.313 2146.13 381.798 2147.88 Q383.303 2149.62 385.861 2149.62 Z" fill="#000000" fill-rule="nonzero" fill-opacity="1" /><path clip-path="url(#clip160)" d="M948.977 2185.59 L956.616 2185.59 L956.616 2159.22 L948.306 2160.89 L948.306 2156.63 L956.57 2154.96 L961.246 2154.96 L961.246 2185.59 L968.885 2185.59 L968.885 2189.52 L948.977 2189.52 L948.977 2185.59 Z" fill="#000000" fill-rule="nonzero" fill-opacity="1" /><path clip-path="url(#clip160)" d="M988.329 2158.04 Q984.718 2158.04 982.889 2161.61 Q981.084 2165.15 981.084 2172.28 Q981.084 2179.38 982.889 2182.95 Q984.718 2186.49 988.329 2186.49 Q991.963 2186.49 993.769 2182.95 Q995.597 2179.38 995.597 2172.28 Q995.597 2165.15 993.769 2161.61 Q991.963 2158.04 988.329 2158.04 M988.329 2154.34 Q994.139 2154.34 997.195 2158.94 Q1000.27 2163.53 1000.27 2172.28 Q1000.27 2181 997.195 2185.61 Q994.139 2190.19 988.329 2190.19 Q982.519 2190.19 979.44 2185.61 Q976.385 2181 976.385 2172.28 Q976.385 2163.53 979.44 2158.94 Q982.519 2154.34 988.329 2154.34 Z" fill="#000000" fill-rule="nonzero" fill-opacity="1" /><path clip-path="url(#clip160)" d="M1000.27 2148.44 L1024.38 2148.44 L1024.38 2151.64 L1000.27 2151.64 L1000.27 2148.44 Z" fill="#000000" fill-rule="nonzero" fill-opacity="1" /><path clip-path="url(#clip160)" d="M1041.18 2146.56 Q1038.62 2146.56 1037.12 2148.31 Q1035.63 2150.06 1035.63 2153.1 Q1035.63 2156.13 1037.12 2157.9 Q1038.62 2159.65 1041.18 2159.65 Q1043.74 2159.65 1045.22 2157.9 Q1046.73 2156.13 1046.73 2153.1 Q1046.73 2150.06 1045.22 2148.31 Q1043.74 2146.56 1041.18 2146.56 M1048.72 2134.65 L1048.72 2138.11 Q1047.29 2137.44 1045.83 2137.08 Q1044.38 2136.72 1042.95 2136.72 Q1039.19 2136.72 1037.19 2139.26 Q1035.22 2141.8 1034.94 2146.93 Q1036.05 2145.3 1037.72 2144.43 Q1039.39 2143.55 1041.41 2143.55 Q1045.64 2143.55 1048.08 2146.13 Q1050.55 2148.68 1050.55 2153.1 Q1050.55 2157.43 1047.99 2160.04 Q1045.43 2162.66 1041.18 2162.66 Q1036.31 2162.66 1033.73 2158.93 Q1031.16 2155.19 1031.16 2148.1 Q1031.16 2141.44 1034.32 2137.49 Q1037.48 2133.52 1042.8 2133.52 Q1044.23 2133.52 1045.68 2133.81 Q1047.14 2134.09 1048.72 2134.65 Z" fill="#000000" fill-rule="nonzero" fill-opacity="1" /><path clip-path="url(#clip160)" d="M1603.85 2185.59 L1611.48 2185.59 L1611.48 2159.22 L1603.17 2160.89 L1603.17 2156.63 L1611.44 2154.96 L1616.11 2154.96 L1616.11 2185.59 L1623.75 2185.59 L1623.75 2189.52 L1603.85 2189.52 L1603.85 2185.59 Z" fill="#000000" fill-rule="nonzero" fill-opacity="1" /><path clip-path="url(#clip160)" d="M1643.2 2158.04 Q1639.59 2158.04 1637.76 2161.61 Q1635.95 2165.15 1635.95 2172.28 Q1635.95 2179.38 1637.76 2182.95 Q1639.59 2186.49 1643.2 2186.49 Q1646.83 2186.49 1648.64 2182.95 Q1650.47 2179.38 1650.47 2172.28 Q1650.47 2165.15 1648.64 2161.61 Q1646.83 2158.04 1643.2 2158.04 M1643.2 2154.34 Q1649.01 2154.34 1652.06 2158.94 Q1655.14 2163.53 1655.14 2172.28 Q1655.14 2181 1652.06 2185.61 Q1649.01 2190.19 1643.2 2190.19 Q1637.39 2190.19 1634.31 2185.61 Q1631.25 2181 1631.25 2172.28 Q1631.25 2163.53 1634.31 2158.94 Q1637.39 2154.34 1643.2 2154.34 Z" fill="#000000" fill-rule="nonzero" fill-opacity="1" /><path clip-path="url(#clip160)" d="M1655.14 2148.44 L1679.25 2148.44 L1679.25 2151.64 L1655.14 2151.64 L1655.14 2148.44 Z" fill="#000000" fill-rule="nonzero" fill-opacity="1" /><path clip-path="url(#clip160)" d="M1698.96 2146.97 Q1701.69 2147.56 1703.21 2149.4 Q1704.76 2151.24 1704.76 2153.95 Q1704.76 2158.11 1701.9 2160.38 Q1699.04 2162.66 1693.77 2162.66 Q1692 2162.66 1690.12 2162.3 Q1688.26 2161.96 1686.27 2161.27 L1686.27 2157.6 Q1687.85 2158.52 1689.73 2158.99 Q1691.61 2159.46 1693.66 2159.46 Q1697.23 2159.46 1699.1 2158.05 Q1700.98 2156.64 1700.98 2153.95 Q1700.98 2151.47 1699.23 2150.08 Q1697.5 2148.67 1694.39 2148.67 L1691.12 2148.67 L1691.12 2145.54 L1694.54 2145.54 Q1697.35 2145.54 1698.83 2144.43 Q1700.32 2143.3 1700.32 2141.2 Q1700.32 2139.04 1698.78 2137.89 Q1697.25 2136.72 1694.39 2136.72 Q1692.83 2136.72 1691.05 2137.06 Q1689.26 2137.4 1687.11 2138.11 L1687.11 2134.73 Q1689.28 2134.13 1691.16 2133.83 Q1693.06 2133.52 1694.73 2133.52 Q1699.06 2133.52 1701.58 2135.5 Q1704.1 2137.46 1704.1 2140.8 Q1704.1 2143.14 1702.76 2144.75 Q1701.43 2146.35 1698.96 2146.97 Z" fill="#000000" fill-rule="nonzero" fill-opacity="1" /><path clip-path="url(#clip160)" d="M2273.49 2185.59 L2281.13 2185.59 L2281.13 2159.22 L2272.82 2160.89 L2272.82 2156.63 L2281.08 2154.96 L2285.76 2154.96 L2285.76 2185.59 L2293.39 2185.59 L2293.39 2189.52 L2273.49 2189.52 L2273.49 2185.59 Z" fill="#000000" fill-rule="nonzero" fill-opacity="1" /><path clip-path="url(#clip160)" d="M2312.84 2158.04 Q2309.23 2158.04 2307.4 2161.61 Q2305.59 2165.15 2305.59 2172.28 Q2305.59 2179.38 2307.4 2182.95 Q2309.23 2186.49 2312.84 2186.49 Q2316.47 2186.49 2318.28 2182.95 Q2320.11 2179.38 2320.11 2172.28 Q2320.11 2165.15 2318.28 2161.61 Q2316.47 2158.04 2312.84 2158.04 M2312.84 2154.34 Q2318.65 2154.34 2321.7 2158.94 Q2324.78 2163.53 2324.78 2172.28 Q2324.78 2181 2321.7 2185.61 Q2318.65 2190.19 2312.84 2190.19 Q2307.03 2190.19 2303.95 2185.61 Q2300.89 2181 2300.89 2172.28 Q2300.89 2163.53 2303.95 2158.94 Q2307.03 2154.34 2312.84 2154.34 Z" fill="#000000" fill-rule="nonzero" fill-opacity="1" /><path clip-path="url(#clip160)" d="M2334.49 2136.53 Q2331.55 2136.53 2330.07 2139.43 Q2328.6 2142.31 2328.6 2148.1 Q2328.6 2153.87 2330.07 2156.77 Q2331.55 2159.65 2334.49 2159.65 Q2337.44 2159.65 2338.91 2156.77 Q2340.39 2153.87 2340.39 2148.1 Q2340.39 2142.31 2338.91 2139.43 Q2337.44 2136.53 2334.49 2136.53 M2334.49 2133.52 Q2339.21 2133.52 2341.69 2137.27 Q2344.19 2140.99 2344.19 2148.1 Q2344.19 2155.19 2341.69 2158.93 Q2339.21 2162.66 2334.49 2162.66 Q2329.77 2162.66 2327.27 2158.93 Q2324.78 2155.19 2324.78 2148.1 Q2324.78 2140.99 2327.27 2137.27 Q2329.77 2133.52 2334.49 2133.52 Z" fill="#000000" fill-rule="nonzero" fill-opacity="1" /><path clip-path="url(#clip160)" d="M1341.62 2253.24 L1341.62 2274.75 L1335.77 2274.75 L1335.77 2253.43 Q1335.77 2248.37 1333.79 2245.85 Q1331.82 2243.34 1327.87 2243.34 Q1323.13 2243.34 1320.39 2246.36 Q1317.66 2249.38 1317.66 2254.6 L1317.66 2274.75 L1311.77 2274.75 L1311.77 2225.23 L1317.66 2225.23 L1317.66 2244.64 Q1319.76 2241.43 1322.59 2239.84 Q1325.45 2238.24 1329.18 2238.24 Q1335.32 2238.24 1338.47 2242.06 Q1341.62 2245.85 1341.62 2253.24 Z" fill="#000000" fill-rule="nonzero" fill-opacity="1" /><polyline clip-path="url(#clip160)" style="stroke:#000000; stroke-linecap:round; stroke-linejoin:round; stroke-width:4; stroke-opacity:1; fill:none" points="344.887,2111.46 344.887,71.4961 "/>
<polyline clip-path="url(#clip160)" style="stroke:#000000; stroke-linecap:round; stroke-linejoin:round; stroke-width:4; stroke-opacity:1; fill:none" points="344.887,1567.47 363.785,1567.47 "/>
<polyline clip-path="url(#clip160)" style="stroke:#000000; stroke-linecap:round; stroke-linejoin:round; stroke-width:4; stroke-opacity:1; fill:none" points="344.887,887.483 363.785,887.483 "/>
<polyline clip-path="url(#clip160)" style="stroke:#000000; stroke-linecap:round; stroke-linejoin:round; stroke-width:4; stroke-opacity:1; fill:none" points="344.887,207.494 363.785,207.494 "/>
<path clip-path="url(#clip160)" d="M182.943 1587.26 L190.582 1587.26 L190.582 1560.9 L182.272 1562.57 L182.272 1558.31 L190.536 1556.64 L195.212 1556.64 L195.212 1587.26 L202.851 1587.26 L202.851 1591.2 L182.943 1591.2 L182.943 1587.26 Z" fill="#000000" fill-rule="nonzero" fill-opacity="1" /><path clip-path="url(#clip160)" d="M222.295 1559.72 Q218.684 1559.72 216.855 1563.28 Q215.05 1566.82 215.05 1573.95 Q215.05 1581.06 216.855 1584.63 Q218.684 1588.17 222.295 1588.17 Q225.929 1588.17 227.735 1584.63 Q229.564 1581.06 229.564 1573.95 Q229.564 1566.82 227.735 1563.28 Q225.929 1559.72 222.295 1559.72 M222.295 1556.01 Q228.105 1556.01 231.161 1560.62 Q234.239 1565.2 234.239 1573.95 Q234.239 1582.68 231.161 1587.29 Q228.105 1591.87 222.295 1591.87 Q216.485 1591.87 213.406 1587.29 Q210.351 1582.68 210.351 1573.95 Q210.351 1565.2 213.406 1560.62 Q216.485 1556.01 222.295 1556.01 Z" fill="#000000" fill-rule="nonzero" fill-opacity="1" /><path clip-path="url(#clip160)" d="M234.239 1550.12 L258.351 1550.12 L258.351 1553.31 L234.239 1553.31 L234.239 1550.12 Z" fill="#000000" fill-rule="nonzero" fill-opacity="1" /><path clip-path="url(#clip160)" d="M267.209 1560.59 L273.416 1560.59 L273.416 1539.17 L266.664 1540.52 L266.664 1537.06 L273.378 1535.71 L277.178 1535.71 L277.178 1560.59 L283.384 1560.59 L283.384 1563.79 L267.209 1563.79 L267.209 1560.59 Z" fill="#000000" fill-rule="nonzero" fill-opacity="1" /><path clip-path="url(#clip160)" d="M299.183 1538.21 Q296.249 1538.21 294.763 1541.11 Q293.296 1543.98 293.296 1549.78 Q293.296 1555.55 294.763 1558.45 Q296.249 1561.33 299.183 1561.33 Q302.135 1561.33 303.602 1558.45 Q305.088 1555.55 305.088 1549.78 Q305.088 1543.98 303.602 1541.11 Q302.135 1538.21 299.183 1538.21 M299.183 1535.2 Q303.903 1535.2 306.386 1538.94 Q308.887 1542.67 308.887 1549.78 Q308.887 1556.87 306.386 1560.61 Q303.903 1564.33 299.183 1564.33 Q294.462 1564.33 291.96 1560.61 Q289.478 1556.87 289.478 1549.78 Q289.478 1542.67 291.96 1538.94 Q294.462 1535.2 299.183 1535.2 Z" fill="#000000" fill-rule="nonzero" fill-opacity="1" /><path clip-path="url(#clip160)" d="M208.259 907.275 L215.898 907.275 L215.898 880.91 L207.587 882.576 L207.587 878.317 L215.851 876.65 L220.527 876.65 L220.527 907.275 L228.166 907.275 L228.166 911.21 L208.259 911.21 L208.259 907.275 Z" fill="#000000" fill-rule="nonzero" fill-opacity="1" /><path clip-path="url(#clip160)" d="M247.61 879.729 Q243.999 879.729 242.171 883.294 Q240.365 886.836 240.365 893.965 Q240.365 901.072 242.171 904.636 Q243.999 908.178 247.61 908.178 Q251.245 908.178 253.05 904.636 Q254.879 901.072 254.879 893.965 Q254.879 886.836 253.05 883.294 Q251.245 879.729 247.61 879.729 M247.61 876.025 Q253.42 876.025 256.476 880.632 Q259.555 885.215 259.555 893.965 Q259.555 902.692 256.476 907.298 Q253.42 911.882 247.61 911.882 Q241.8 911.882 238.721 907.298 Q235.666 902.692 235.666 893.965 Q235.666 885.215 238.721 880.632 Q241.8 876.025 247.61 876.025 Z" fill="#000000" fill-rule="nonzero" fill-opacity="1" /><path clip-path="url(#clip160)" d="M259.555 870.127 L283.666 870.127 L283.666 873.324 L259.555 873.324 L259.555 870.127 Z" fill="#000000" fill-rule="nonzero" fill-opacity="1" /><path clip-path="url(#clip160)" d="M291.904 855.72 L306.819 855.72 L306.819 858.917 L295.383 858.917 L295.383 865.801 Q296.211 865.519 297.039 865.387 Q297.866 865.237 298.694 865.237 Q303.396 865.237 306.142 867.813 Q308.887 870.39 308.887 874.791 Q308.887 879.324 306.066 881.844 Q303.245 884.345 298.111 884.345 Q296.343 884.345 294.5 884.045 Q292.675 883.744 290.719 883.142 L290.719 879.324 Q292.412 880.245 294.217 880.697 Q296.023 881.148 298.035 881.148 Q301.289 881.148 303.189 879.437 Q305.088 877.725 305.088 874.791 Q305.088 871.857 303.189 870.146 Q301.289 868.434 298.035 868.434 Q296.512 868.434 294.989 868.773 Q293.484 869.111 291.904 869.826 L291.904 855.72 Z" fill="#000000" fill-rule="nonzero" fill-opacity="1" /><path clip-path="url(#clip160)" d="M238.182 227.286 L245.821 227.286 L245.821 200.921 L237.511 202.587 L237.511 198.328 L245.774 196.661 L250.45 196.661 L250.45 227.286 L258.089 227.286 L258.089 231.221 L238.182 231.221 L238.182 227.286 Z" fill="#000000" fill-rule="nonzero" fill-opacity="1" /><path clip-path="url(#clip160)" d="M277.533 199.74 Q273.922 199.74 272.094 203.305 Q270.288 206.847 270.288 213.976 Q270.288 221.083 272.094 224.647 Q273.922 228.189 277.533 228.189 Q281.168 228.189 282.973 224.647 Q284.802 221.083 284.802 213.976 Q284.802 206.847 282.973 203.305 Q281.168 199.74 277.533 199.74 M277.533 196.036 Q283.344 196.036 286.399 200.643 Q289.478 205.226 289.478 213.976 Q289.478 222.703 286.399 227.309 Q283.344 231.893 277.533 231.893 Q271.723 231.893 268.645 227.309 Q265.589 222.703 265.589 213.976 Q265.589 205.226 268.645 200.643 Q271.723 196.036 277.533 196.036 Z" fill="#000000" fill-rule="nonzero" fill-opacity="1" /><path clip-path="url(#clip160)" d="M299.183 178.232 Q296.249 178.232 294.763 181.129 Q293.296 184.006 293.296 189.799 Q293.296 195.573 294.763 198.47 Q296.249 201.347 299.183 201.347 Q302.135 201.347 303.602 198.47 Q305.088 195.573 305.088 189.799 Q305.088 184.006 303.602 181.129 Q302.135 178.232 299.183 178.232 M299.183 175.223 Q303.903 175.223 306.386 178.966 Q308.887 182.69 308.887 189.799 Q308.887 196.89 306.386 200.633 Q303.903 204.356 299.183 204.356 Q294.462 204.356 291.96 200.633 Q289.478 196.89 289.478 189.799 Q289.478 182.69 291.96 178.966 Q294.462 175.223 299.183 175.223 Z" fill="#000000" fill-rule="nonzero" fill-opacity="1" /><path clip-path="url(#clip160)" d="M84.4961 1242.08 L84.4961 1212.03 L89.907 1212.03 L89.907 1235.65 L103.975 1235.65 L103.975 1213.02 L109.386 1213.02 L109.386 1235.65 L126.605 1235.65 L126.605 1211.46 L132.016 1211.46 L132.016 1242.08 L84.4961 1242.08 Z" fill="#000000" fill-rule="nonzero" fill-opacity="1" /><path clip-path="url(#clip160)" d="M101.843 1180.49 Q101.27 1181.47 101.015 1182.65 Q100.729 1183.8 100.729 1185.2 Q100.729 1190.16 103.975 1192.84 Q107.19 1195.48 113.237 1195.48 L132.016 1195.48 L132.016 1201.37 L96.3682 1201.37 L96.3682 1195.48 L101.906 1195.48 Q98.6598 1193.63 97.1002 1190.67 Q95.5088 1187.71 95.5088 1183.48 Q95.5088 1182.88 95.6043 1182.14 Q95.6679 1181.41 95.8271 1180.52 L101.843 1180.49 Z" fill="#000000" fill-rule="nonzero" fill-opacity="1" /><path clip-path="url(#clip160)" d="M101.843 1154.83 Q101.27 1155.82 101.015 1157 Q100.729 1158.14 100.729 1159.54 Q100.729 1164.51 103.975 1167.18 Q107.19 1169.83 113.237 1169.83 L132.016 1169.83 L132.016 1175.71 L96.3682 1175.71 L96.3682 1169.83 L101.906 1169.83 Q98.6598 1167.98 97.1002 1165.02 Q95.5088 1162.06 95.5088 1157.83 Q95.5088 1157.22 95.6043 1156.49 Q95.6679 1155.76 95.8271 1154.87 L101.843 1154.83 Z" fill="#000000" fill-rule="nonzero" fill-opacity="1" /><path clip-path="url(#clip160)" d="M112.728 1119.63 L115.593 1119.63 L115.593 1146.56 Q121.64 1146.18 124.823 1142.93 Q127.974 1139.65 127.974 1133.83 Q127.974 1130.45 127.146 1127.3 Q126.319 1124.12 124.664 1121 L130.202 1121 Q131.539 1124.15 132.239 1127.46 Q132.939 1130.77 132.939 1134.18 Q132.939 1142.71 127.974 1147.7 Q123.009 1152.67 114.542 1152.67 Q105.789 1152.67 100.665 1147.96 Q95.5088 1143.22 95.5088 1135.2 Q95.5088 1128 100.156 1123.83 Q104.771 1119.63 112.728 1119.63 M111.009 1125.49 Q106.203 1125.55 103.339 1128.19 Q100.474 1130.8 100.474 1135.13 Q100.474 1140.03 103.243 1142.99 Q106.012 1145.92 111.041 1146.37 L111.009 1125.49 Z" fill="#000000" fill-rule="nonzero" fill-opacity="1" /><path clip-path="url(#clip160)" d="M117.948 1110.62 L96.3682 1110.62 L96.3682 1104.77 L117.725 1104.77 Q122.786 1104.77 125.332 1102.79 Q127.847 1100.82 127.847 1096.87 Q127.847 1092.13 124.823 1089.39 Q121.799 1086.63 116.579 1086.63 L96.3682 1086.63 L96.3682 1080.77 L132.016 1080.77 L132.016 1086.63 L126.542 1086.63 Q129.788 1088.76 131.38 1091.59 Q132.939 1094.39 132.939 1098.12 Q132.939 1104.26 129.12 1107.44 Q125.3 1110.62 117.948 1110.62 M95.5088 1095.89 L95.5088 1095.89 Z" fill="#000000" fill-rule="nonzero" fill-opacity="1" /><path clip-path="url(#clip160)" d="M101.843 1048.05 Q101.27 1049.04 101.015 1050.21 Q100.729 1051.36 100.729 1052.76 Q100.729 1057.73 103.975 1060.4 Q107.19 1063.04 113.237 1063.04 L132.016 1063.04 L132.016 1068.93 L96.3682 1068.93 L96.3682 1063.04 L101.906 1063.04 Q98.6598 1061.19 97.1002 1058.23 Q95.5088 1055.27 95.5088 1051.04 Q95.5088 1050.44 95.6043 1049.7 Q95.6679 1048.97 95.8271 1048.08 L101.843 1048.05 Z" fill="#000000" fill-rule="nonzero" fill-opacity="1" /><path clip-path="url(#clip160)" d="M82.5546 1007.12 Q89.8751 1011.38 97.0366 1013.45 Q104.198 1015.52 111.55 1015.52 Q118.903 1015.52 126.128 1013.45 Q133.321 1011.35 140.61 1007.12 L140.61 1012.21 Q133.13 1016.98 125.905 1019.37 Q118.68 1021.73 111.55 1021.73 Q104.453 1021.73 97.2594 1019.37 Q90.0661 1017.02 82.5546 1012.21 L82.5546 1007.12 Z" fill="#000000" fill-rule="nonzero" fill-opacity="1" /><path clip-path="url(#clip160)" d="M84.4961 995.501 L84.4961 965.454 L89.907 965.454 L89.907 989.071 L103.975 989.071 L103.975 966.441 L109.386 966.441 L109.386 989.071 L126.605 989.071 L126.605 964.882 L132.016 964.882 L132.016 995.501 L84.4961 995.501 Z" fill="#000000" fill-rule="nonzero" fill-opacity="1" /><path clip-path="url(#clip160)" d="M82.5546 955.492 L82.5546 950.4 Q90.0661 945.625 97.2594 943.27 Q104.453 940.883 111.55 940.883 Q118.68 940.883 125.905 943.27 Q133.13 945.625 140.61 950.4 L140.61 955.492 Q133.321 951.259 126.128 949.19 Q118.903 947.089 111.55 947.089 Q104.198 947.089 97.0366 949.19 Q89.8751 951.259 82.5546 955.492 Z" fill="#000000" fill-rule="nonzero" fill-opacity="1" /><polyline clip-path="url(#clip162)" style="stroke:#009af9; stroke-linecap:round; stroke-linejoin:round; stroke-width:4; stroke-opacity:1; fill:none" points="563.067,1297.37 654.932,1246.92 746.797,1190.88 838.662,1133.47 930.527,1076.2 1022.39,1018.94 1114.26,961.68 1206.12,904.418 1297.99,847.156 1389.85,789.892 1481.72,732.627 1573.58,675.36 1665.45,618.094 1757.31,560.791 1849.18,503.389 1941.04,445.943 2032.91,388.023 2124.77,329.725 2216.64,268.977 2308.5,207.494 "/>
<circle clip-path="url(#clip162)" cx="563.067" cy="1297.37" r="14.4" fill="#009af9" fill-rule="evenodd" fill-opacity="1" stroke="#000000" stroke-opacity="1" stroke-width="4.8"/>
<circle clip-path="url(#clip162)" cx="654.932" cy="1246.92" r="14.4" fill="#009af9" fill-rule="evenodd" fill-opacity="1" stroke="#000000" stroke-opacity="1" stroke-width="4.8"/>
<circle clip-path="url(#clip162)" cx="746.797" cy="1190.88" r="14.4" fill="#009af9" fill-rule="evenodd" fill-opacity="1" stroke="#000000" stroke-opacity="1" stroke-width="4.8"/>
<circle clip-path="url(#clip162)" cx="838.662" cy="1133.47" r="14.4" fill="#009af9" fill-rule="evenodd" fill-opacity="1" stroke="#000000" stroke-opacity="1" stroke-width="4.8"/>
<circle clip-path="url(#clip162)" cx="930.527" cy="1076.2" r="14.4" fill="#009af9" fill-rule="evenodd" fill-opacity="1" stroke="#000000" stroke-opacity="1" stroke-width="4.8"/>
<circle clip-path="url(#clip162)" cx="1022.39" cy="1018.94" r="14.4" fill="#009af9" fill-rule="evenodd" fill-opacity="1" stroke="#000000" stroke-opacity="1" stroke-width="4.8"/>
<circle clip-path="url(#clip162)" cx="1114.26" cy="961.68" r="14.4" fill="#009af9" fill-rule="evenodd" fill-opacity="1" stroke="#000000" stroke-opacity="1" stroke-width="4.8"/>
<circle clip-path="url(#clip162)" cx="1206.12" cy="904.418" r="14.4" fill="#009af9" fill-rule="evenodd" fill-opacity="1" stroke="#000000" stroke-opacity="1" stroke-width="4.8"/>
<circle clip-path="url(#clip162)" cx="1297.99" cy="847.156" r="14.4" fill="#009af9" fill-rule="evenodd" fill-opacity="1" stroke="#000000" stroke-opacity="1" stroke-width="4.8"/>
<circle clip-path="url(#clip162)" cx="1389.85" cy="789.892" r="14.4" fill="#009af9" fill-rule="evenodd" fill-opacity="1" stroke="#000000" stroke-opacity="1" stroke-width="4.8"/>
<circle clip-path="url(#clip162)" cx="1481.72" cy="732.627" r="14.4" fill="#009af9" fill-rule="evenodd" fill-opacity="1" stroke="#000000" stroke-opacity="1" stroke-width="4.8"/>
<circle clip-path="url(#clip162)" cx="1573.58" cy="675.36" r="14.4" fill="#009af9" fill-rule="evenodd" fill-opacity="1" stroke="#000000" stroke-opacity="1" stroke-width="4.8"/>
<circle clip-path="url(#clip162)" cx="1665.45" cy="618.094" r="14.4" fill="#009af9" fill-rule="evenodd" fill-opacity="1" stroke="#000000" stroke-opacity="1" stroke-width="4.8"/>
<circle clip-path="url(#clip162)" cx="1757.31" cy="560.791" r="14.4" fill="#009af9" fill-rule="evenodd" fill-opacity="1" stroke="#000000" stroke-opacity="1" stroke-width="4.8"/>
<circle clip-path="url(#clip162)" cx="1849.18" cy="503.389" r="14.4" fill="#009af9" fill-rule="evenodd" fill-opacity="1" stroke="#000000" stroke-opacity="1" stroke-width="4.8"/>
<circle clip-path="url(#clip162)" cx="1941.04" cy="445.943" r="14.4" fill="#009af9" fill-rule="evenodd" fill-opacity="1" stroke="#000000" stroke-opacity="1" stroke-width="4.8"/>
<circle clip-path="url(#clip162)" cx="2032.91" cy="388.023" r="14.4" fill="#009af9" fill-rule="evenodd" fill-opacity="1" stroke="#000000" stroke-opacity="1" stroke-width="4.8"/>
<circle clip-path="url(#clip162)" cx="2124.77" cy="329.725" r="14.4" fill="#009af9" fill-rule="evenodd" fill-opacity="1" stroke="#000000" stroke-opacity="1" stroke-width="4.8"/>
<circle clip-path="url(#clip162)" cx="2216.64" cy="268.977" r="14.4" fill="#009af9" fill-rule="evenodd" fill-opacity="1" stroke="#000000" stroke-opacity="1" stroke-width="4.8"/>
<circle clip-path="url(#clip162)" cx="2308.5" cy="207.494" r="14.4" fill="#009af9" fill-rule="evenodd" fill-opacity="1" stroke="#000000" stroke-opacity="1" stroke-width="4.8"/>
<polyline clip-path="url(#clip162)" style="stroke:#e26f46; stroke-linecap:round; stroke-linejoin:round; stroke-width:4; stroke-opacity:1; fill:none" points="563.067,1397.07 654.932,1433.71 746.797,1492.6 838.662,1653.66 930.527,1580.02 1022.39,1783.82 1114.26,1738.42 1206.12,1699.8 1297.99,1586.08 1389.85,1471.56 1481.72,1357.04 1573.58,1242.52 1665.45,1128.05 1757.31,1013.59 1849.18,899.166 1941.04,785.245 2032.91,672.042 2124.77,556.971 2216.64,415.254 2308.5,325.62 "/>
<circle clip-path="url(#clip162)" cx="563.067" cy="1397.07" r="14.4" fill="#e26f46" fill-rule="evenodd" fill-opacity="1" stroke="#000000" stroke-opacity="1" stroke-width="4.8"/>
<circle clip-path="url(#clip162)" cx="654.932" cy="1433.71" r="14.4" fill="#e26f46" fill-rule="evenodd" fill-opacity="1" stroke="#000000" stroke-opacity="1" stroke-width="4.8"/>
<circle clip-path="url(#clip162)" cx="746.797" cy="1492.6" r="14.4" fill="#e26f46" fill-rule="evenodd" fill-opacity="1" stroke="#000000" stroke-opacity="1" stroke-width="4.8"/>
<circle clip-path="url(#clip162)" cx="838.662" cy="1653.66" r="14.4" fill="#e26f46" fill-rule="evenodd" fill-opacity="1" stroke="#000000" stroke-opacity="1" stroke-width="4.8"/>
<circle clip-path="url(#clip162)" cx="930.527" cy="1580.02" r="14.4" fill="#e26f46" fill-rule="evenodd" fill-opacity="1" stroke="#000000" stroke-opacity="1" stroke-width="4.8"/>
<circle clip-path="url(#clip162)" cx="1022.39" cy="1783.82" r="14.4" fill="#e26f46" fill-rule="evenodd" fill-opacity="1" stroke="#000000" stroke-opacity="1" stroke-width="4.8"/>
<circle clip-path="url(#clip162)" cx="1114.26" cy="1738.42" r="14.4" fill="#e26f46" fill-rule="evenodd" fill-opacity="1" stroke="#000000" stroke-opacity="1" stroke-width="4.8"/>
<circle clip-path="url(#clip162)" cx="1206.12" cy="1699.8" r="14.4" fill="#e26f46" fill-rule="evenodd" fill-opacity="1" stroke="#000000" stroke-opacity="1" stroke-width="4.8"/>
<circle clip-path="url(#clip162)" cx="1297.99" cy="1586.08" r="14.4" fill="#e26f46" fill-rule="evenodd" fill-opacity="1" stroke="#000000" stroke-opacity="1" stroke-width="4.8"/>
<circle clip-path="url(#clip162)" cx="1389.85" cy="1471.56" r="14.4" fill="#e26f46" fill-rule="evenodd" fill-opacity="1" stroke="#000000" stroke-opacity="1" stroke-width="4.8"/>
<circle clip-path="url(#clip162)" cx="1481.72" cy="1357.04" r="14.4" fill="#e26f46" fill-rule="evenodd" fill-opacity="1" stroke="#000000" stroke-opacity="1" stroke-width="4.8"/>
<circle clip-path="url(#clip162)" cx="1573.58" cy="1242.52" r="14.4" fill="#e26f46" fill-rule="evenodd" fill-opacity="1" stroke="#000000" stroke-opacity="1" stroke-width="4.8"/>
<circle clip-path="url(#clip162)" cx="1665.45" cy="1128.05" r="14.4" fill="#e26f46" fill-rule="evenodd" fill-opacity="1" stroke="#000000" stroke-opacity="1" stroke-width="4.8"/>
<circle clip-path="url(#clip162)" cx="1757.31" cy="1013.59" r="14.4" fill="#e26f46" fill-rule="evenodd" fill-opacity="1" stroke="#000000" stroke-opacity="1" stroke-width="4.8"/>
<circle clip-path="url(#clip162)" cx="1849.18" cy="899.166" r="14.4" fill="#e26f46" fill-rule="evenodd" fill-opacity="1" stroke="#000000" stroke-opacity="1" stroke-width="4.8"/>
<circle clip-path="url(#clip162)" cx="1941.04" cy="785.245" r="14.4" fill="#e26f46" fill-rule="evenodd" fill-opacity="1" stroke="#000000" stroke-opacity="1" stroke-width="4.8"/>
<circle clip-path="url(#clip162)" cx="2032.91" cy="672.042" r="14.4" fill="#e26f46" fill-rule="evenodd" fill-opacity="1" stroke="#000000" stroke-opacity="1" stroke-width="4.8"/>
<circle clip-path="url(#clip162)" cx="2124.77" cy="556.971" r="14.4" fill="#e26f46" fill-rule="evenodd" fill-opacity="1" stroke="#000000" stroke-opacity="1" stroke-width="4.8"/>
<circle clip-path="url(#clip162)" cx="2216.64" cy="415.254" r="14.4" fill="#e26f46" fill-rule="evenodd" fill-opacity="1" stroke="#000000" stroke-opacity="1" stroke-width="4.8"/>
<circle clip-path="url(#clip162)" cx="2308.5" cy="325.62" r="14.4" fill="#e26f46" fill-rule="evenodd" fill-opacity="1" stroke="#000000" stroke-opacity="1" stroke-width="4.8"/>
<polyline clip-path="url(#clip162)" style="stroke:#3da44d; stroke-linecap:round; stroke-linejoin:round; stroke-width:4; stroke-opacity:1; fill:none" points="563.067,1397.07 654.932,1433.71 746.797,1492.6 838.662,1653.66 930.527,1580.02 1022.39,1783.45 1114.26,1743.34 1206.12,1838.79 1297.99,1897.72 1389.85,1910.59 1481.72,1922.67 1573.58,1741.69 1665.45,1569.72 1757.31,1397.69 1849.18,1225.17 1941.04,1051.98 2032.91,876.134 2124.77,695.526 2216.64,504.636 2308.5,218.818 "/>
<circle clip-path="url(#clip162)" cx="563.067" cy="1397.07" r="14.4" fill="#3da44d" fill-rule="evenodd" fill-opacity="1" stroke="#000000" stroke-opacity="1" stroke-width="4.8"/>
<circle clip-path="url(#clip162)" cx="654.932" cy="1433.71" r="14.4" fill="#3da44d" fill-rule="evenodd" fill-opacity="1" stroke="#000000" stroke-opacity="1" stroke-width="4.8"/>
<circle clip-path="url(#clip162)" cx="746.797" cy="1492.6" r="14.4" fill="#3da44d" fill-rule="evenodd" fill-opacity="1" stroke="#000000" stroke-opacity="1" stroke-width="4.8"/>
<circle clip-path="url(#clip162)" cx="838.662" cy="1653.66" r="14.4" fill="#3da44d" fill-rule="evenodd" fill-opacity="1" stroke="#000000" stroke-opacity="1" stroke-width="4.8"/>
<circle clip-path="url(#clip162)" cx="930.527" cy="1580.02" r="14.4" fill="#3da44d" fill-rule="evenodd" fill-opacity="1" stroke="#000000" stroke-opacity="1" stroke-width="4.8"/>
<circle clip-path="url(#clip162)" cx="1022.39" cy="1783.45" r="14.4" fill="#3da44d" fill-rule="evenodd" fill-opacity="1" stroke="#000000" stroke-opacity="1" stroke-width="4.8"/>
<circle clip-path="url(#clip162)" cx="1114.26" cy="1743.34" r="14.4" fill="#3da44d" fill-rule="evenodd" fill-opacity="1" stroke="#000000" stroke-opacity="1" stroke-width="4.8"/>
<circle clip-path="url(#clip162)" cx="1206.12" cy="1838.79" r="14.4" fill="#3da44d" fill-rule="evenodd" fill-opacity="1" stroke="#000000" stroke-opacity="1" stroke-width="4.8"/>
<circle clip-path="url(#clip162)" cx="1297.99" cy="1897.72" r="14.4" fill="#3da44d" fill-rule="evenodd" fill-opacity="1" stroke="#000000" stroke-opacity="1" stroke-width="4.8"/>
<circle clip-path="url(#clip162)" cx="1389.85" cy="1910.59" r="14.4" fill="#3da44d" fill-rule="evenodd" fill-opacity="1" stroke="#000000" stroke-opacity="1" stroke-width="4.8"/>
<circle clip-path="url(#clip162)" cx="1481.72" cy="1922.67" r="14.4" fill="#3da44d" fill-rule="evenodd" fill-opacity="1" stroke="#000000" stroke-opacity="1" stroke-width="4.8"/>
<circle clip-path="url(#clip162)" cx="1573.58" cy="1741.69" r="14.4" fill="#3da44d" fill-rule="evenodd" fill-opacity="1" stroke="#000000" stroke-opacity="1" stroke-width="4.8"/>
<circle clip-path="url(#clip162)" cx="1665.45" cy="1569.72" r="14.4" fill="#3da44d" fill-rule="evenodd" fill-opacity="1" stroke="#000000" stroke-opacity="1" stroke-width="4.8"/>
<circle clip-path="url(#clip162)" cx="1757.31" cy="1397.69" r="14.4" fill="#3da44d" fill-rule="evenodd" fill-opacity="1" stroke="#000000" stroke-opacity="1" stroke-width="4.8"/>
<circle clip-path="url(#clip162)" cx="1849.18" cy="1225.17" r="14.4" fill="#3da44d" fill-rule="evenodd" fill-opacity="1" stroke="#000000" stroke-opacity="1" stroke-width="4.8"/>
<circle clip-path="url(#clip162)" cx="1941.04" cy="1051.98" r="14.4" fill="#3da44d" fill-rule="evenodd" fill-opacity="1" stroke="#000000" stroke-opacity="1" stroke-width="4.8"/>
<circle clip-path="url(#clip162)" cx="2032.91" cy="876.134" r="14.4" fill="#3da44d" fill-rule="evenodd" fill-opacity="1" stroke="#000000" stroke-opacity="1" stroke-width="4.8"/>
<circle clip-path="url(#clip162)" cx="2124.77" cy="695.526" r="14.4" fill="#3da44d" fill-rule="evenodd" fill-opacity="1" stroke="#000000" stroke-opacity="1" stroke-width="4.8"/>
<circle clip-path="url(#clip162)" cx="2216.64" cy="504.636" r="14.4" fill="#3da44d" fill-rule="evenodd" fill-opacity="1" stroke="#000000" stroke-opacity="1" stroke-width="4.8"/>
<circle clip-path="url(#clip162)" cx="2308.5" cy="218.818" r="14.4" fill="#3da44d" fill-rule="evenodd" fill-opacity="1" stroke="#000000" stroke-opacity="1" stroke-width="4.8"/>
<polyline clip-path="url(#clip162)" style="stroke:#c271d2; stroke-linecap:round; stroke-linejoin:round; stroke-width:4; stroke-opacity:1; fill:none" points="563.067,1397.07 654.932,1433.71 746.797,1492.6 838.662,1653.66 930.527,1580.02 1022.39,1783.45 1114.26,1743.34 1206.12,1838.79 1297.99,1897.59 1389.85,1910.05 1481.72,1955.97 1573.58,2033.01 1665.45,1955.46 1757.31,1733.07 1849.18,1503.22 1941.04,1272.68 2032.91,1039.23 2124.77,799.998 2216.64,543.197 2308.5,226.917 "/>
<circle clip-path="url(#clip162)" cx="563.067" cy="1397.07" r="14.4" fill="#c271d2" fill-rule="evenodd" fill-opacity="1" stroke="#000000" stroke-opacity="1" stroke-width="4.8"/>
<circle clip-path="url(#clip162)" cx="654.932" cy="1433.71" r="14.4" fill="#c271d2" fill-rule="evenodd" fill-opacity="1" stroke="#000000" stroke-opacity="1" stroke-width="4.8"/>
<circle clip-path="url(#clip162)" cx="746.797" cy="1492.6" r="14.4" fill="#c271d2" fill-rule="evenodd" fill-opacity="1" stroke="#000000" stroke-opacity="1" stroke-width="4.8"/>
<circle clip-path="url(#clip162)" cx="838.662" cy="1653.66" r="14.4" fill="#c271d2" fill-rule="evenodd" fill-opacity="1" stroke="#000000" stroke-opacity="1" stroke-width="4.8"/>
<circle clip-path="url(#clip162)" cx="930.527" cy="1580.02" r="14.4" fill="#c271d2" fill-rule="evenodd" fill-opacity="1" stroke="#000000" stroke-opacity="1" stroke-width="4.8"/>
<circle clip-path="url(#clip162)" cx="1022.39" cy="1783.45" r="14.4" fill="#c271d2" fill-rule="evenodd" fill-opacity="1" stroke="#000000" stroke-opacity="1" stroke-width="4.8"/>
<circle clip-path="url(#clip162)" cx="1114.26" cy="1743.34" r="14.4" fill="#c271d2" fill-rule="evenodd" fill-opacity="1" stroke="#000000" stroke-opacity="1" stroke-width="4.8"/>
<circle clip-path="url(#clip162)" cx="1206.12" cy="1838.79" r="14.4" fill="#c271d2" fill-rule="evenodd" fill-opacity="1" stroke="#000000" stroke-opacity="1" stroke-width="4.8"/>
<circle clip-path="url(#clip162)" cx="1297.99" cy="1897.59" r="14.4" fill="#c271d2" fill-rule="evenodd" fill-opacity="1" stroke="#000000" stroke-opacity="1" stroke-width="4.8"/>
<circle clip-path="url(#clip162)" cx="1389.85" cy="1910.05" r="14.4" fill="#c271d2" fill-rule="evenodd" fill-opacity="1" stroke="#000000" stroke-opacity="1" stroke-width="4.8"/>
<circle clip-path="url(#clip162)" cx="1481.72" cy="1955.97" r="14.4" fill="#c271d2" fill-rule="evenodd" fill-opacity="1" stroke="#000000" stroke-opacity="1" stroke-width="4.8"/>
<circle clip-path="url(#clip162)" cx="1573.58" cy="2033.01" r="14.4" fill="#c271d2" fill-rule="evenodd" fill-opacity="1" stroke="#000000" stroke-opacity="1" stroke-width="4.8"/>
<circle clip-path="url(#clip162)" cx="1665.45" cy="1955.46" r="14.4" fill="#c271d2" fill-rule="evenodd" fill-opacity="1" stroke="#000000" stroke-opacity="1" stroke-width="4.8"/>
<circle clip-path="url(#clip162)" cx="1757.31" cy="1733.07" r="14.4" fill="#c271d2" fill-rule="evenodd" fill-opacity="1" stroke="#000000" stroke-opacity="1" stroke-width="4.8"/>
<circle clip-path="url(#clip162)" cx="1849.18" cy="1503.22" r="14.4" fill="#c271d2" fill-rule="evenodd" fill-opacity="1" stroke="#000000" stroke-opacity="1" stroke-width="4.8"/>
<circle clip-path="url(#clip162)" cx="1941.04" cy="1272.68" r="14.4" fill="#c271d2" fill-rule="evenodd" fill-opacity="1" stroke="#000000" stroke-opacity="1" stroke-width="4.8"/>
<circle clip-path="url(#clip162)" cx="2032.91" cy="1039.23" r="14.4" fill="#c271d2" fill-rule="evenodd" fill-opacity="1" stroke="#000000" stroke-opacity="1" stroke-width="4.8"/>
<circle clip-path="url(#clip162)" cx="2124.77" cy="799.998" r="14.4" fill="#c271d2" fill-rule="evenodd" fill-opacity="1" stroke="#000000" stroke-opacity="1" stroke-width="4.8"/>
<circle clip-path="url(#clip162)" cx="2216.64" cy="543.197" r="14.4" fill="#c271d2" fill-rule="evenodd" fill-opacity="1" stroke="#000000" stroke-opacity="1" stroke-width="4.8"/>
<circle clip-path="url(#clip162)" cx="2308.5" cy="226.917" r="14.4" fill="#c271d2" fill-rule="evenodd" fill-opacity="1" stroke="#000000" stroke-opacity="1" stroke-width="4.8"/>
<path clip-path="url(#clip160)" d="M410.341 398.695 L749.688 398.695 L749.688 139.495 L410.341 139.495  Z" fill="#ffffff" fill-rule="evenodd" fill-opacity="1"/>
<polyline clip-path="url(#clip160)" style="stroke:#000000; stroke-linecap:round; stroke-linejoin:round; stroke-width:4; stroke-opacity:1; fill:none" points="410.341,398.695 749.688,398.695 749.688,139.495 410.341,139.495 410.341,398.695 "/>
<polyline clip-path="url(#clip160)" style="stroke:#009af9; stroke-linecap:round; stroke-linejoin:round; stroke-width:4; stroke-opacity:1; fill:none" points="432.159,191.335 563.067,191.335 "/>
<circle clip-path="url(#clip160)" cx="497.613" cy="191.335" r="18.1816" fill="#009af9" fill-rule="evenodd" fill-opacity="1" stroke="#000000" stroke-opacity="1" stroke-width="6.82667"/>
<path clip-path="url(#clip160)" d="M584.885 174.055 L606.737 174.055 L606.737 177.99 L589.561 177.99 L589.561 188.222 L606.019 188.222 L606.019 192.157 L589.561 192.157 L589.561 204.68 L607.153 204.68 L607.153 208.615 L584.885 208.615 L584.885 174.055 Z" fill="#000000" fill-rule="nonzero" fill-opacity="1" /><path clip-path="url(#clip160)" d="M614.214 198.384 L614.214 182.689 L618.473 182.689 L618.473 198.222 Q618.473 201.902 619.908 203.754 Q621.343 205.583 624.214 205.583 Q627.663 205.583 629.653 203.384 Q631.667 201.184 631.667 197.388 L631.667 182.689 L635.926 182.689 L635.926 208.615 L631.667 208.615 L631.667 204.634 Q630.116 206.995 628.056 208.152 Q626.019 209.286 623.311 209.286 Q618.843 209.286 616.528 206.508 Q614.214 203.731 614.214 198.384 M624.931 182.064 L624.931 182.064 Z" fill="#000000" fill-rule="nonzero" fill-opacity="1" /><path clip-path="url(#clip160)" d="M644.7 172.597 L648.959 172.597 L648.959 208.615 L644.7 208.615 L644.7 172.597 Z" fill="#000000" fill-rule="nonzero" fill-opacity="1" /><path clip-path="url(#clip160)" d="M680.047 194.587 L680.047 196.671 L660.463 196.671 Q660.741 201.069 663.102 203.384 Q665.486 205.675 669.723 205.675 Q672.176 205.675 674.468 205.073 Q676.783 204.471 679.051 203.268 L679.051 207.296 Q676.76 208.268 674.352 208.777 Q671.945 209.286 669.468 209.286 Q663.264 209.286 659.63 205.675 Q656.019 202.064 656.019 195.907 Q656.019 189.541 659.445 185.814 Q662.894 182.064 668.727 182.064 Q673.959 182.064 676.991 185.444 Q680.047 188.8 680.047 194.587 M675.787 193.337 Q675.741 189.842 673.82 187.759 Q671.922 185.675 668.773 185.675 Q665.209 185.675 663.056 187.689 Q660.926 189.703 660.602 193.36 L675.787 193.337 Z" fill="#000000" fill-rule="nonzero" fill-opacity="1" /><path clip-path="url(#clip160)" d="M702.06 186.671 Q701.343 186.254 700.486 186.069 Q699.653 185.86 698.634 185.86 Q695.023 185.86 693.079 188.222 Q691.158 190.56 691.158 194.958 L691.158 208.615 L686.875 208.615 L686.875 182.689 L691.158 182.689 L691.158 186.717 Q692.5 184.356 694.653 183.222 Q696.806 182.064 699.884 182.064 Q700.324 182.064 700.857 182.134 Q701.389 182.18 702.037 182.296 L702.06 186.671 Z" fill="#000000" fill-rule="nonzero" fill-opacity="1" /><polyline clip-path="url(#clip160)" style="stroke:#e26f46; stroke-linecap:round; stroke-linejoin:round; stroke-width:4; stroke-opacity:1; fill:none" points="432.159,243.175 563.067,243.175 "/>
<circle clip-path="url(#clip160)" cx="497.613" cy="243.175" r="18.1816" fill="#e26f46" fill-rule="evenodd" fill-opacity="1" stroke="#000000" stroke-opacity="1" stroke-width="6.82667"/>
<path clip-path="url(#clip160)" d="M601.274 244.251 Q602.778 244.761 604.19 246.427 Q605.626 248.094 607.061 251.011 L611.806 260.455 L606.783 260.455 L602.362 251.589 Q600.649 248.117 599.028 246.983 Q597.431 245.849 594.654 245.849 L589.561 245.849 L589.561 260.455 L584.885 260.455 L584.885 225.895 L595.441 225.895 Q601.366 225.895 604.283 228.372 Q607.2 230.849 607.2 235.849 Q607.2 239.112 605.672 241.265 Q604.167 243.418 601.274 244.251 M589.561 229.738 L589.561 242.006 L595.441 242.006 Q598.82 242.006 600.533 240.455 Q602.269 238.881 602.269 235.849 Q602.269 232.816 600.533 231.288 Q598.82 229.738 595.441 229.738 L589.561 229.738 Z" fill="#000000" fill-rule="nonzero" fill-opacity="1" /><path clip-path="url(#clip160)" d="M615.07 250.224 L615.07 234.529 L619.329 234.529 L619.329 250.062 Q619.329 253.742 620.764 255.594 Q622.2 257.423 625.07 257.423 Q628.519 257.423 630.51 255.224 Q632.524 253.024 632.524 249.228 L632.524 234.529 L636.783 234.529 L636.783 260.455 L632.524 260.455 L632.524 256.474 Q630.973 258.835 628.913 259.992 Q626.876 261.126 624.167 261.126 Q619.7 261.126 617.385 258.348 Q615.07 255.571 615.07 250.224 M625.788 233.904 L625.788 233.904 Z" fill="#000000" fill-rule="nonzero" fill-opacity="1" /><path clip-path="url(#clip160)" d="M667.107 244.807 L667.107 260.455 L662.848 260.455 L662.848 244.946 Q662.848 241.265 661.412 239.437 Q659.977 237.608 657.107 237.608 Q653.658 237.608 651.667 239.807 Q649.676 242.006 649.676 245.802 L649.676 260.455 L645.394 260.455 L645.394 234.529 L649.676 234.529 L649.676 238.557 Q651.204 236.219 653.264 235.062 Q655.348 233.904 658.056 233.904 Q662.524 233.904 664.815 236.682 Q667.107 239.437 667.107 244.807 Z" fill="#000000" fill-rule="nonzero" fill-opacity="1" /><path clip-path="url(#clip160)" d="M692.662 247.191 Q692.662 242.562 690.741 240.015 Q688.843 237.469 685.394 237.469 Q681.968 237.469 680.047 240.015 Q678.148 242.562 678.148 247.191 Q678.148 251.798 680.047 254.344 Q681.968 256.89 685.394 256.89 Q688.843 256.89 690.741 254.344 Q692.662 251.798 692.662 247.191 M696.921 257.237 Q696.921 263.858 693.982 267.075 Q691.042 270.316 684.977 270.316 Q682.732 270.316 680.741 269.969 Q678.75 269.645 676.875 268.95 L676.875 264.807 Q678.75 265.825 680.579 266.311 Q682.408 266.798 684.306 266.798 Q688.496 266.798 690.579 264.598 Q692.662 262.423 692.662 258.001 L692.662 255.895 Q691.343 258.186 689.283 259.321 Q687.222 260.455 684.352 260.455 Q679.584 260.455 676.667 256.821 Q673.75 253.186 673.75 247.191 Q673.75 241.173 676.667 237.538 Q679.584 233.904 684.352 233.904 Q687.222 233.904 689.283 235.038 Q691.343 236.173 692.662 238.464 L692.662 234.529 L696.921 234.529 L696.921 257.237 Z" fill="#000000" fill-rule="nonzero" fill-opacity="1" /><path clip-path="url(#clip160)" d="M727.87 246.427 L727.87 248.511 L708.287 248.511 Q708.565 252.909 710.926 255.224 Q713.31 257.515 717.546 257.515 Q720 257.515 722.292 256.913 Q724.607 256.311 726.875 255.108 L726.875 259.136 Q724.583 260.108 722.176 260.617 Q719.769 261.126 717.292 261.126 Q711.088 261.126 707.454 257.515 Q703.843 253.904 703.843 247.747 Q703.843 241.381 707.269 237.654 Q710.718 233.904 716.551 233.904 Q721.782 233.904 724.815 237.284 Q727.87 240.64 727.87 246.427 M723.611 245.177 Q723.565 241.682 721.644 239.599 Q719.745 237.515 716.597 237.515 Q713.033 237.515 710.88 239.529 Q708.75 241.543 708.426 245.2 L723.611 245.177 Z" fill="#000000" fill-rule="nonzero" fill-opacity="1" /><polyline clip-path="url(#clip160)" style="stroke:#3da44d; stroke-linecap:round; stroke-linejoin:round; stroke-width:4; stroke-opacity:1; fill:none" points="432.159,295.015 563.067,295.015 "/>
<circle clip-path="url(#clip160)" cx="497.613" cy="295.015" r="18.1816" fill="#3da44d" fill-rule="evenodd" fill-opacity="1" stroke="#000000" stroke-opacity="1" stroke-width="6.82667"/>
<path clip-path="url(#clip160)" d="M584.885 277.735 L589.561 277.735 L589.561 291.902 L606.552 291.902 L606.552 277.735 L611.227 277.735 L611.227 312.295 L606.552 312.295 L606.552 295.837 L589.561 295.837 L589.561 312.295 L584.885 312.295 L584.885 277.735 Z" fill="#000000" fill-rule="nonzero" fill-opacity="1" /><path clip-path="url(#clip160)" d="M642.524 298.267 L642.524 300.351 L622.94 300.351 Q623.218 304.749 625.579 307.064 Q627.964 309.355 632.2 309.355 Q634.653 309.355 636.945 308.753 Q639.26 308.151 641.528 306.948 L641.528 310.976 Q639.237 311.948 636.829 312.457 Q634.422 312.966 631.945 312.966 Q625.741 312.966 622.107 309.355 Q618.496 305.744 618.496 299.587 Q618.496 293.221 621.922 289.494 Q625.371 285.744 631.204 285.744 Q636.436 285.744 639.468 289.124 Q642.524 292.48 642.524 298.267 M638.264 297.017 Q638.218 293.522 636.297 291.439 Q634.399 289.355 631.251 289.355 Q627.686 289.355 625.533 291.369 Q623.403 293.383 623.079 297.04 L638.264 297.017 Z" fill="#000000" fill-rule="nonzero" fill-opacity="1" /><path clip-path="url(#clip160)" d="M649.075 302.064 L649.075 286.369 L653.334 286.369 L653.334 301.902 Q653.334 305.582 654.769 307.434 Q656.204 309.263 659.074 309.263 Q662.524 309.263 664.514 307.064 Q666.528 304.864 666.528 301.068 L666.528 286.369 L670.787 286.369 L670.787 312.295 L666.528 312.295 L666.528 308.314 Q664.977 310.675 662.917 311.832 Q660.88 312.966 658.172 312.966 Q653.704 312.966 651.389 310.188 Q649.075 307.411 649.075 302.064 M659.792 285.744 L659.792 285.744 Z" fill="#000000" fill-rule="nonzero" fill-opacity="1" /><path clip-path="url(#clip160)" d="M701.111 296.647 L701.111 312.295 L696.852 312.295 L696.852 296.786 Q696.852 293.105 695.417 291.277 Q693.982 289.448 691.111 289.448 Q687.662 289.448 685.672 291.647 Q683.681 293.846 683.681 297.642 L683.681 312.295 L679.398 312.295 L679.398 286.369 L683.681 286.369 L683.681 290.397 Q685.209 288.059 687.269 286.902 Q689.352 285.744 692.06 285.744 Q696.528 285.744 698.82 288.522 Q701.111 291.277 701.111 296.647 Z" fill="#000000" fill-rule="nonzero" fill-opacity="1" /><polyline clip-path="url(#clip160)" style="stroke:#c271d2; stroke-linecap:round; stroke-linejoin:round; stroke-width:4; stroke-opacity:1; fill:none" points="432.159,346.855 563.067,346.855 "/>
<circle clip-path="url(#clip160)" cx="497.613" cy="346.855" r="18.1816" fill="#c271d2" fill-rule="evenodd" fill-opacity="1" stroke="#000000" stroke-opacity="1" stroke-width="6.82667"/>
<path clip-path="url(#clip160)" d="M601.274 347.931 Q602.778 348.441 604.19 350.107 Q605.626 351.774 607.061 354.691 L611.806 364.135 L606.783 364.135 L602.362 355.269 Q600.649 351.797 599.028 350.663 Q597.431 349.529 594.654 349.529 L589.561 349.529 L589.561 364.135 L584.885 364.135 L584.885 329.575 L595.441 329.575 Q601.366 329.575 604.283 332.052 Q607.2 334.529 607.2 339.529 Q607.2 342.792 605.672 344.945 Q604.167 347.098 601.274 347.931 M589.561 333.418 L589.561 345.686 L595.441 345.686 Q598.82 345.686 600.533 344.135 Q602.269 342.561 602.269 339.529 Q602.269 336.496 600.533 334.968 Q598.82 333.418 595.441 333.418 L589.561 333.418 Z" fill="#000000" fill-rule="nonzero" fill-opacity="1" /><path clip-path="url(#clip160)" d="M617.825 329.575 L622.501 329.575 L622.501 344.181 L638.01 329.575 L644.028 329.575 L626.876 345.686 L645.255 364.135 L639.098 364.135 L622.501 347.492 L622.501 364.135 L617.825 364.135 L617.825 329.575 Z" fill="#000000" fill-rule="nonzero" fill-opacity="1" /><path clip-path="url(#clip160)" d="M662.176 333.649 L650.371 352.098 L662.176 352.098 L662.176 333.649 M660.949 329.575 L666.829 329.575 L666.829 352.098 L671.76 352.098 L671.76 355.987 L666.829 355.987 L666.829 364.135 L662.176 364.135 L662.176 355.987 L646.575 355.987 L646.575 351.473 L660.949 329.575 Z" fill="#000000" fill-rule="nonzero" fill-opacity="1" /></svg>
