<?xml version="1.0" encoding="utf-8"?>
<svg xmlns="http://www.w3.org/2000/svg" xmlns:xlink="http://www.w3.org/1999/xlink" width="600" height="400" viewBox="0 0 2400 1600">
<defs>
  <clipPath id="clip800">
    <rect x="0" y="0" width="2400" height="1600"/>
  </clipPath>
</defs>
<path clip-path="url(#clip800)" d="M0 1600 L2400 1600 L2400 8.88178e-14 L0 8.88178e-14  Z" fill="#ffffff" fill-rule="evenodd" fill-opacity="1"/>
<defs>
  <clipPath id="clip801">
    <rect x="480" y="0" width="1681" height="1600"/>
  </clipPath>
</defs>
<path clip-path="url(#clip800)" d="M47.2441 1552.76 L2352.76 1552.76 L2352.76 47.2441 L47.2441 47.2441  Z" fill="#ffffff" fill-rule="evenodd" fill-opacity="1"/>
<defs>
  <clipPath id="clip802">
    <rect x="47" y="47" width="2307" height="1507"/>
  </clipPath>
</defs>
<polyline clip-path="url(#clip802)" style="stroke:#000000; stroke-linecap:round; stroke-linejoin:round; stroke-width:4; stroke-opacity:1; fill:none" points="347.963,1552.76 347.963,47.2441 "/>
<polyline clip-path="url(#clip802)" style="stroke:#000000; stroke-linecap:round; stroke-linejoin:round; stroke-width:4; stroke-opacity:1; fill:none" points="329.963,83.2441 347.963,47.2441 365.963,83.2441 "/>
<polyline clip-path="url(#clip802)" style="stroke:#000000; stroke-linecap:round; stroke-linejoin:round; stroke-width:4; stroke-opacity:1; fill:none" points="347.963,47.2441 347.963,1552.76 "/>
<polyline clip-path="url(#clip802)" style="stroke:#000000; stroke-linecap:round; stroke-linejoin:round; stroke-width:8; stroke-opacity:1; fill:none" points="47.2441,1254.86 70.5321,1250.39 93.8201,1245.93 117.108,1241.46 140.396,1237 163.684,1232.53 186.972,1228.07 210.26,1223.6 233.548,1219.14 256.836,1214.67 280.124,1210.21 303.412,1205.74 326.7,1201.28 349.988,1196.81 373.276,1192.35 396.564,1187.88 419.852,1183.42 443.14,1178.95 466.428,1174.49 489.716,1170.02 513.004,1165.55 536.292,1161.09 559.58,1156.62 582.868,1152.16 606.156,1147.69 629.444,1143.23 652.732,1138.76 676.02,1134.3 699.308,1129.83 722.596,1125.37 745.884,1120.9 769.172,1116.44 792.46,1111.97 815.748,1107.51 839.036,1103.04 862.324,1098.58 885.612,1094.11 908.9,1089.65 932.188,1085.18 955.476,1080.72 978.764,1076.25 1002.05,1071.79 1025.34,1067.32 1048.63,1062.86 1071.92,1058.39 1095.2,1053.93 1118.49,1049.46 1141.78,1045 1165.07,1040.53 1188.36,1036.07 1211.64,1031.6 1234.93,1027.14 1258.22,1022.67 1281.51,1018.21 1304.8,1013.74 1328.08,1009.28 1351.37,1004.81 1374.66,1000.35 1397.95,995.882 1421.24,991.416 1444.52,986.951 1467.81,982.486 1491.1,978.021 1514.39,973.556 1537.68,969.091 1560.96,964.626 1584.25,960.161 1607.54,955.696 1630.83,951.231 1654.12,946.766 1677.4,942.3 1700.69,937.835 1723.98,933.37 1747.27,928.905 1770.56,924.44 1793.84,919.975 1817.13,915.51 1840.42,911.045 1863.71,906.58 1887,902.115 1910.28,897.65 1933.57,893.184 1956.86,888.719 1980.15,884.254 2003.44,879.789 2026.72,875.324 2050.01,870.859 2073.3,866.394 2096.59,861.929 2119.88,857.464 2143.16,852.999 2166.45,848.534 2189.74,844.068 2213.03,839.603 2236.32,835.138 2259.6,830.673 2282.89,826.208 2306.18,821.743 2329.47,817.278 2352.76,812.813 "/>
<polyline clip-path="url(#clip802)" style="stroke:#0000ff; stroke-linecap:round; stroke-linejoin:round; stroke-width:8; stroke-opacity:1; fill:none" points="47.2441,1139.54 70.5321,1143.83 93.8201,1147.78 117.108,1151.38 140.396,1154.64 163.684,1157.54 186.972,1160.11 210.26,1162.32 233.548,1164.2 256.836,1165.72 280.124,1166.9 303.412,1167.74 326.7,1168.23 349.988,1168.37 373.276,1168.17 396.564,1167.62 419.852,1166.72 443.14,1165.48 466.428,1163.9 489.716,1161.96 513.004,1159.69 536.292,1157.06 559.58,1154.09 582.868,1150.78 606.156,1147.12 629.444,1143.11 652.732,1138.76 676.02,1134.06 699.308,1129.02 722.596,1123.63 745.884,1117.89 769.172,1111.81 792.46,1105.38 815.748,1098.61 839.036,1091.49 862.324,1084.03 885.612,1076.22 908.9,1068.06 932.188,1059.56 955.476,1050.71 978.764,1041.52 1002.05,1031.98 1025.34,1022.1 1048.63,1011.86 1071.92,1001.29 1095.2,990.366 1118.49,979.098 1141.78,967.485 1165.07,955.525 1188.36,943.22 1211.64,930.569 1234.93,917.572 1258.22,904.229 1281.51,890.541 1304.8,876.507 1328.08,862.127 1351.37,847.401 1374.66,832.329 1397.95,816.912 1421.24,801.149 1444.52,785.04 1467.81,768.585 1491.1,751.785 1514.39,734.638 1537.68,717.146 1560.96,699.309 1584.25,681.125 1607.54,662.596 1630.83,643.721 1654.12,624.5 1677.4,604.933 1700.69,585.02 1723.98,564.762 1747.27,544.158 1770.56,523.208 1793.84,501.913 1817.13,480.271 1840.42,458.284 1863.71,435.951 1887,413.272 1910.28,390.248 1933.57,366.877 1956.86,343.161 1980.15,319.099 2003.44,294.692 2026.72,269.938 2050.01,244.839 2073.3,219.394 2096.59,193.603 2119.88,167.467 2143.16,140.985 2166.45,114.156 2189.74,86.9825 2213.03,59.4628 2236.32,31.5973 2259.6,3.38607 2282.89,-25.171 2306.18,-54.0738 2329.47,-83.3224 2352.76,-112.917 "/>
<polyline clip-path="url(#clip802)" style="stroke:#ff0000; stroke-linecap:round; stroke-linejoin:round; stroke-width:12; stroke-opacity:1; fill:none" points="1951.8,619.018 1951.8,889.69 "/>
<polyline clip-path="url(#clip802)" style="stroke:#ff0000; stroke-linecap:round; stroke-linejoin:round; stroke-width:12; stroke-opacity:1; fill:none" points="1969.8,853.69 1951.8,889.69 1933.8,853.69 "/>
<polyline clip-path="url(#clip802)" style="stroke:#ff0000; stroke-linecap:round; stroke-linejoin:round; stroke-width:12; stroke-opacity:1; fill:none" points="1951.8,889.69 1951.8,619.018 "/>
<polyline clip-path="url(#clip802)" style="stroke:#ff0000; stroke-linecap:round; stroke-linejoin:round; stroke-width:12; stroke-opacity:1; fill:none" points="1951.8,619.018 1951.8,348.346 "/>
<polyline clip-path="url(#clip802)" style="stroke:#ff0000; stroke-linecap:round; stroke-linejoin:round; stroke-width:12; stroke-opacity:1; fill:none" points="1933.8,384.346 1951.8,348.346 1969.8,384.346 "/>
<polyline clip-path="url(#clip802)" style="stroke:#ff0000; stroke-linecap:round; stroke-linejoin:round; stroke-width:12; stroke-opacity:1; fill:none" points="1951.8,348.346 1951.8,619.018 "/>
<polyline clip-path="url(#clip802)" style="stroke:#000000; stroke-linecap:round; stroke-linejoin:round; stroke-width:4; stroke-opacity:1; fill:none" stroke-dasharray="16, 10" points="347.963,1139.54 648.682,1139.54 "/>
<circle clip-path="url(#clip802)" cx="1951.8" cy="889.69" r="14.4" fill="#000000" fill-rule="evenodd" fill-opacity="1" stroke="none"/>
<circle clip-path="url(#clip802)" cx="1951.8" cy="348.346" r="14.4" fill="#0000ff" fill-rule="evenodd" fill-opacity="1" stroke="#000000" stroke-opacity="1" stroke-width="3.2"/>
<polyline clip-path="url(#clip802)" style="stroke:#000000; stroke-linecap:round; stroke-linejoin:round; stroke-width:4; stroke-opacity:1; fill:none" stroke-dasharray="16, 10" points="1951.8,1328.53 1951.8,348.346 "/>
<circle clip-path="url(#clip802)" cx="648.682" cy="1139.54" r="14.4" fill="#000000" fill-rule="evenodd" fill-opacity="1" stroke="none"/>
<polyline clip-path="url(#clip802)" style="stroke:#000000; stroke-linecap:round; stroke-linejoin:round; stroke-width:4; stroke-opacity:1; fill:none" stroke-dasharray="16, 10" points="648.682,1328.53 648.682,1139.54 "/>
<polyline clip-path="url(#clip802)" style="stroke:#000000; stroke-linecap:round; stroke-linejoin:round; stroke-width:4; stroke-opacity:1; fill:none" points="47.2441,1328.53 2352.76,1328.53 "/>
<polyline clip-path="url(#clip802)" style="stroke:#000000; stroke-linecap:round; stroke-linejoin:round; stroke-width:4; stroke-opacity:1; fill:none" points="2316.76,1310.53 2352.76,1328.53 2316.76,1346.53 "/>
<polyline clip-path="url(#clip802)" style="stroke:#000000; stroke-linecap:round; stroke-linejoin:round; stroke-width:4; stroke-opacity:1; fill:none" points="2352.76,1328.53 47.2441,1328.53 "/>
<path clip-path="url(#clip800)" d="M2366.62 1412.16 Q2366.62 1413.63 2365.93 1414 Q2365.25 1414.32 2363.35 1414.32 L2353.23 1414.32 L2345.22 1446.15 Q2344.59 1448.94 2344.59 1451.31 Q2344.59 1453.95 2345.38 1455.11 Q2346.22 1456.27 2347.96 1456.27 Q2351.39 1456.27 2355.08 1453.16 Q2358.82 1450.05 2361.98 1442.46 Q2362.4 1441.46 2362.61 1441.25 Q2362.88 1440.98 2363.56 1440.98 Q2364.88 1440.98 2364.88 1442.04 Q2364.88 1442.41 2364.14 1444.09 Q2363.46 1445.78 2361.93 1448.26 Q2360.45 1450.73 2358.5 1453.05 Q2356.61 1455.37 2353.71 1457.06 Q2350.81 1458.69 2347.7 1458.69 Q2343.33 1458.69 2340.53 1455.9 Q2337.79 1453.1 2337.79 1448.73 Q2337.79 1447.31 2338.9 1442.78 Q2340.01 1438.19 2346.01 1414.32 L2336.47 1414.32 Q2335.16 1414.32 2334.63 1414.26 Q2334.16 1414.21 2333.79 1413.95 Q2333.47 1413.63 2333.47 1413 Q2333.47 1412 2333.89 1411.58 Q2334.31 1411.1 2334.84 1411.05 Q2335.42 1410.94 2336.74 1410.94 L2346.86 1410.94 L2351.07 1393.82 Q2351.49 1392.13 2352.55 1391.18 Q2353.66 1390.18 2354.29 1390.07 Q2354.92 1389.92 2355.39 1389.92 Q2356.82 1389.92 2357.66 1390.71 Q2358.5 1391.45 2358.5 1392.82 Q2358.5 1393.55 2354.08 1410.94 L2363.56 1410.94 Q2364.77 1410.94 2365.25 1411 Q2365.78 1411.05 2366.2 1411.31 Q2366.62 1411.58 2366.62 1412.16 Z" fill="#000000" fill-rule="nonzero" fill-opacity="1" /><path clip-path="url(#clip800)" d="M291.399 19.5202 Q291.399 20.2581 290.924 21.9972 L280.595 63.209 Q278.329 72.3788 270.951 78.8083 Q263.625 85.2378 255.299 85.2378 Q250.292 85.2378 247.078 82.55 Q243.863 79.915 243.863 75.8571 Q243.863 72.2734 245.76 70.5343 Q247.657 68.8479 249.923 68.8479 Q250.661 68.8479 251.452 69.0587 Q252.242 69.2695 253.085 70.1654 Q253.929 71.0613 253.929 72.5897 Q253.929 75.0666 251.768 77.0165 Q250.714 77.9124 249.713 78.1232 Q248.764 78.334 247.13 78.334 Q247.763 79.8096 248.922 80.8109 Q250.081 81.8122 251.399 82.1811 Q252.716 82.6027 253.56 82.7081 Q254.456 82.8662 255.299 82.8662 Q262.044 82.8662 267.209 76.0679 Q268.737 74.0126 269.844 71.9572 Q271.004 69.9546 271.847 67.4777 Q272.69 65.0535 273.059 63.736 Q273.48 62.4185 274.218 59.4145 Q269.317 64.3157 263.309 64.3157 Q260.78 64.3157 258.514 63.6306 Q256.3 62.9455 254.35 61.5225 Q252.4 60.0469 251.241 57.4646 Q250.134 54.8823 250.134 51.4568 Q250.134 47.8204 251.557 42.8666 Q252.98 37.9127 256.406 28.7955 Q258.25 23.6836 258.25 21.2067 Q258.25 19.9946 257.987 19.2567 Q257.723 18.4662 257.196 18.2027 Q256.669 17.8865 256.353 17.8338 Q256.089 17.7811 255.562 17.7811 Q252.453 17.7811 249.554 20.9432 Q246.656 24.1052 244.653 31.1671 Q244.232 32.4846 243.968 32.8008 Q243.705 33.117 242.914 33.117 Q241.597 33.0643 241.597 32.0103 Q241.597 31.5887 242.071 29.9549 Q242.545 28.2685 243.652 25.7916 Q244.811 23.262 246.392 20.9959 Q247.973 18.677 250.45 17.0433 Q252.98 15.4096 255.879 15.4096 Q259.831 15.4096 262.255 17.9919 Q264.732 20.5216 264.732 24.2633 Q264.732 25.7916 264.311 27.1618 Q263.942 28.4793 262.571 32.0103 Q257.038 46.2394 257.038 53.1959 Q257.038 54.8823 257.301 56.3052 Q257.618 57.6754 258.303 59.0456 Q258.988 60.3631 260.358 61.1536 Q261.781 61.8914 263.731 61.8914 Q266.208 61.8914 268.527 60.732 Q270.898 59.5199 272.374 57.8862 Q273.902 56.2525 274.798 54.8823 Q275.747 53.4594 275.957 52.7216 L280.806 33.3278 L282.967 24.6849 Q283.968 19.9946 284.442 18.8351 Q285.075 17.7284 286.181 17.1487 Q287.288 16.569 288.237 16.569 Q289.554 16.569 290.45 17.3595 Q291.399 18.15 291.399 19.5202 Z" fill="#000000" fill-rule="nonzero" fill-opacity="1" /><path clip-path="url(#clip800)" d="M1110.08 671.031 Q1110.08 671.768 1109.61 673.508 L1099.28 714.719 Q1097.01 723.889 1089.64 730.319 Q1082.31 736.748 1073.98 736.748 Q1068.98 736.748 1065.76 734.06 Q1062.55 731.425 1062.55 727.368 Q1062.55 723.784 1064.45 722.045 Q1066.34 720.358 1068.61 720.358 Q1069.35 720.358 1070.14 720.569 Q1070.93 720.78 1071.77 721.676 Q1072.61 722.572 1072.61 724.1 Q1072.61 726.577 1070.45 728.527 Q1069.4 729.423 1068.4 729.634 Q1067.45 729.844 1065.82 729.844 Q1066.45 731.32 1067.61 732.321 Q1068.77 733.323 1070.08 733.692 Q1071.4 734.113 1072.24 734.219 Q1073.14 734.377 1073.98 734.377 Q1080.73 734.377 1085.89 727.578 Q1087.42 725.523 1088.53 723.468 Q1089.69 721.465 1090.53 718.988 Q1091.38 716.564 1091.74 715.246 Q1092.17 713.929 1092.9 710.925 Q1088 715.826 1081.99 715.826 Q1079.46 715.826 1077.2 715.141 Q1074.99 714.456 1073.04 713.033 Q1071.09 711.557 1069.93 708.975 Q1068.82 706.393 1068.82 702.967 Q1068.82 699.331 1070.24 694.377 Q1071.67 689.423 1075.09 680.306 Q1076.94 675.194 1076.94 672.717 Q1076.94 671.505 1076.67 670.767 Q1076.41 669.977 1075.88 669.713 Q1075.35 669.397 1075.04 669.344 Q1074.77 669.292 1074.25 669.292 Q1071.14 669.292 1068.24 672.454 Q1065.34 675.616 1063.34 682.677 Q1062.92 683.995 1062.65 684.311 Q1062.39 684.627 1061.6 684.627 Q1060.28 684.575 1060.28 683.521 Q1060.28 683.099 1060.76 681.465 Q1061.23 679.779 1062.34 677.302 Q1063.5 674.772 1065.08 672.506 Q1066.66 670.187 1069.14 668.554 Q1071.67 666.92 1074.56 666.92 Q1078.52 666.92 1080.94 669.502 Q1083.42 672.032 1083.42 675.774 Q1083.42 677.302 1083 678.672 Q1082.63 679.99 1081.26 683.521 Q1075.72 697.75 1075.72 704.706 Q1075.72 706.393 1075.99 707.816 Q1076.3 709.186 1076.99 710.556 Q1077.67 711.874 1079.04 712.664 Q1080.47 713.402 1082.42 713.402 Q1084.89 713.402 1087.21 712.242 Q1089.58 711.03 1091.06 709.397 Q1092.59 707.763 1093.48 706.393 Q1094.43 704.97 1094.64 704.232 L1099.49 684.838 L1101.65 676.195 Q1102.65 671.505 1103.13 670.346 Q1103.76 669.239 1104.87 668.659 Q1105.97 668.079 1106.92 668.079 Q1108.24 668.079 1109.14 668.87 Q1110.08 669.66 1110.08 671.031 Z" fill="#0000ff" fill-rule="nonzero" fill-opacity="1" /><path clip-path="url(#clip800)" d="M1142.57 698.224 Q1142.68 696.907 1144.73 696.907 L1210.87 696.907 Q1213.98 696.907 1214.04 698.119 Q1214.04 699.436 1211.08 699.384 L1145.47 699.384 Q1142.57 699.436 1142.57 698.224 M1142.57 677.144 Q1142.57 675.826 1144.84 675.879 L1210.77 675.879 Q1213.98 675.879 1214.04 677.144 Q1214.04 678.356 1211.3 678.356 L1144.73 678.356 Q1142.57 678.356 1142.57 677.144 Z" fill="#0000ff" fill-rule="nonzero" fill-opacity="1" /><path clip-path="url(#clip800)" d="M1309.41 674.035 Q1309.41 676.986 1307.57 678.672 Q1305.73 680.306 1303.62 680.306 Q1301.61 680.306 1300.56 679.147 Q1299.51 677.987 1299.51 676.512 Q1299.51 674.509 1300.98 672.77 Q1302.46 671.031 1304.67 670.662 Q1302.51 669.292 1299.3 669.292 Q1297.19 669.292 1295.34 670.398 Q1293.55 671.505 1292.44 672.928 Q1291.39 674.351 1290.44 676.406 Q1289.55 678.409 1289.18 679.621 Q1288.86 680.78 1288.6 682.045 L1284.91 696.801 Q1283.12 703.81 1283.12 706.287 Q1283.12 709.344 1284.59 711.399 Q1286.07 713.402 1289.02 713.402 Q1290.18 713.402 1291.5 713.086 Q1292.81 712.717 1294.5 711.768 Q1296.24 710.767 1297.77 709.291 Q1299.35 707.763 1300.88 705.181 Q1302.41 702.598 1303.41 699.278 Q1303.72 698.119 1304.78 698.119 Q1306.09 698.119 1306.09 699.173 Q1306.09 700.069 1305.36 701.966 Q1304.67 703.81 1303.14 706.235 Q1301.67 708.606 1299.72 710.767 Q1297.77 712.875 1294.87 714.35 Q1291.97 715.826 1288.81 715.826 Q1284.28 715.826 1281.27 713.402 Q1278.27 710.978 1277.16 707.605 Q1276.9 708.079 1276.53 708.712 Q1276.16 709.344 1275.05 710.767 Q1274 712.137 1272.79 713.191 Q1271.58 714.192 1269.68 714.983 Q1267.83 715.826 1265.83 715.826 Q1263.3 715.826 1261.04 715.088 Q1258.82 714.35 1257.24 712.664 Q1255.66 710.978 1255.66 708.659 Q1255.66 706.076 1257.4 704.285 Q1259.19 702.44 1261.61 702.44 Q1263.14 702.44 1264.36 703.336 Q1265.62 704.232 1265.62 706.182 Q1265.62 708.343 1264.14 709.976 Q1262.67 711.61 1260.56 712.032 Q1262.72 713.402 1265.94 713.402 Q1269.41 713.402 1272.16 710.345 Q1274.9 707.289 1276.21 702.177 Q1279.48 689.897 1280.75 684.417 Q1282.01 678.883 1282.01 676.512 Q1282.01 674.298 1281.43 672.77 Q1280.85 671.241 1279.85 670.556 Q1278.9 669.819 1278 669.555 Q1277.16 669.292 1276.21 669.292 Q1274.63 669.292 1272.84 669.924 Q1271.1 670.556 1268.99 672.032 Q1266.94 673.455 1264.99 676.406 Q1263.04 679.357 1261.72 683.415 Q1261.46 684.627 1260.3 684.627 Q1259.03 684.575 1259.03 683.521 Q1259.03 682.625 1259.72 680.78 Q1260.46 678.883 1261.93 676.512 Q1263.46 674.14 1265.41 672.032 Q1267.41 669.871 1270.31 668.396 Q1273.26 666.92 1276.42 666.92 Q1277.85 666.92 1279.22 667.236 Q1280.64 667.5 1282.33 668.29 Q1284.07 669.081 1285.59 670.82 Q1287.12 672.559 1288.07 675.089 Q1288.7 673.876 1289.55 672.717 Q1290.44 671.558 1291.81 670.135 Q1293.24 668.659 1295.19 667.816 Q1297.19 666.92 1299.4 666.92 Q1301.56 666.92 1303.67 667.5 Q1305.78 668.027 1307.57 669.766 Q1309.41 671.452 1309.41 674.035 Z" fill="#0000ff" fill-rule="nonzero" fill-opacity="1" /><path clip-path="url(#clip800)" d="M1323.69 687.631 Q1323.69 669.397 1330.49 654.694 Q1333.39 648.528 1337.44 643.363 Q1341.5 638.198 1344.19 635.932 Q1346.88 633.666 1347.62 633.666 Q1348.67 633.666 1348.72 634.72 Q1348.72 635.247 1347.3 636.565 Q1329.91 654.272 1329.96 687.631 Q1329.96 721.096 1346.88 738.118 Q1348.72 739.963 1348.72 740.543 Q1348.72 741.597 1347.62 741.597 Q1346.88 741.597 1344.3 739.436 Q1341.71 737.275 1337.71 732.321 Q1333.7 727.368 1330.8 721.307 Q1323.69 706.604 1323.69 687.631 Z" fill="#0000ff" fill-rule="nonzero" fill-opacity="1" /><path clip-path="url(#clip800)" d="M1390.07 669.292 Q1390.07 670.767 1389.39 671.136 Q1388.7 671.452 1386.8 671.452 L1376.69 671.452 L1368.67 703.283 Q1368.04 706.076 1368.04 708.448 Q1368.04 711.083 1368.83 712.242 Q1369.68 713.402 1371.42 713.402 Q1374.84 713.402 1378.53 710.293 Q1382.27 707.183 1385.43 699.594 Q1385.85 698.593 1386.07 698.382 Q1386.33 698.119 1387.01 698.119 Q1388.33 698.119 1388.33 699.173 Q1388.33 699.542 1387.59 701.228 Q1386.91 702.914 1385.38 705.391 Q1383.91 707.868 1381.96 710.187 Q1380.06 712.506 1377.16 714.192 Q1374.26 715.826 1371.15 715.826 Q1366.78 715.826 1363.98 713.033 Q1361.24 710.24 1361.24 705.866 Q1361.24 704.443 1362.35 699.911 Q1363.46 695.326 1369.47 671.452 L1359.93 671.452 Q1358.61 671.452 1358.08 671.4 Q1357.61 671.347 1357.24 671.083 Q1356.92 670.767 1356.92 670.135 Q1356.92 669.133 1357.34 668.712 Q1357.77 668.238 1358.29 668.185 Q1358.87 668.079 1360.19 668.079 L1370.31 668.079 L1374.52 650.952 Q1374.95 649.265 1376 648.317 Q1377.11 647.315 1377.74 647.21 Q1378.37 647.052 1378.85 647.052 Q1380.27 647.052 1381.11 647.842 Q1381.96 648.58 1381.96 649.95 Q1381.96 650.688 1377.53 668.079 L1387.01 668.079 Q1388.23 668.079 1388.7 668.132 Q1389.23 668.185 1389.65 668.448 Q1390.07 668.712 1390.07 669.292 Z" fill="#0000ff" fill-rule="nonzero" fill-opacity="1" /><path clip-path="url(#clip800)" d="M1398.52 740.543 Q1398.52 740.016 1399.89 738.698 Q1417.28 720.991 1417.28 687.631 Q1417.28 654.167 1400.57 637.25 Q1398.52 635.3 1398.52 634.72 Q1398.52 633.666 1399.57 633.666 Q1400.31 633.666 1402.89 635.827 Q1405.53 637.987 1409.48 642.941 Q1413.48 647.895 1416.43 653.956 Q1423.55 668.659 1423.55 687.631 Q1423.55 705.866 1416.75 720.569 Q1413.85 726.735 1409.79 731.9 Q1405.74 737.064 1403.05 739.331 Q1400.36 741.597 1399.57 741.597 Q1398.52 741.597 1398.52 740.543 Z" fill="#0000ff" fill-rule="nonzero" fill-opacity="1" /><path clip-path="url(#clip800)" d="M644.014 1396.89 Q644.014 1398.37 643.329 1398.74 Q642.644 1399.05 640.747 1399.05 L630.629 1399.05 L622.618 1430.89 Q621.986 1433.68 621.986 1436.05 Q621.986 1438.69 622.776 1439.85 Q623.619 1441 625.359 1441 Q628.784 1441 632.473 1437.9 Q636.215 1434.79 639.377 1427.2 Q639.798 1426.2 640.009 1425.98 Q640.273 1425.72 640.958 1425.72 Q642.275 1425.72 642.275 1426.78 Q642.275 1427.14 641.538 1428.83 Q640.852 1430.52 639.324 1432.99 Q637.849 1435.47 635.899 1437.79 Q634.001 1440.11 631.103 1441.8 Q628.204 1443.43 625.095 1443.43 Q620.721 1443.43 617.928 1440.64 Q615.187 1437.84 615.187 1433.47 Q615.187 1432.05 616.294 1427.51 Q617.401 1422.93 623.409 1399.05 L613.87 1399.05 Q612.552 1399.05 612.025 1399 Q611.551 1398.95 611.182 1398.69 Q610.866 1398.37 610.866 1397.74 Q610.866 1396.74 611.287 1396.31 Q611.709 1395.84 612.236 1395.79 Q612.816 1395.68 614.133 1395.68 L624.252 1395.68 L628.468 1378.55 Q628.889 1376.87 629.943 1375.92 Q631.05 1374.92 631.683 1374.81 Q632.315 1374.65 632.789 1374.65 Q634.212 1374.65 635.055 1375.45 Q635.899 1376.18 635.899 1377.55 Q635.899 1378.29 631.472 1395.68 L640.958 1395.68 Q642.17 1395.68 642.644 1395.73 Q643.171 1395.79 643.593 1396.05 Q644.014 1396.31 644.014 1396.89 Z" fill="#000000" fill-rule="nonzero" fill-opacity="1" /><path clip-path="url(#clip800)" d="M674.508 1425.88 Q674.508 1427.51 673.18 1428.72 Q671.888 1429.9 670.487 1429.9 Q669.195 1429.9 668.384 1429.13 Q667.609 1428.32 667.609 1427.17 Q667.609 1425.66 668.9 1424.41 Q670.191 1423.15 671.704 1423.15 Q672.958 1423.15 673.733 1423.93 Q674.508 1424.7 674.508 1425.88 M675.172 1462.29 Q675.172 1462.59 674.84 1463.77 Q674.508 1464.91 673.696 1466.68 Q672.921 1468.42 671.852 1470.04 Q670.782 1471.66 669.011 1472.81 Q667.277 1473.95 665.285 1473.95 Q662.592 1473.95 660.821 1472.18 Q659.087 1470.41 659.087 1467.75 Q659.087 1466.31 660.821 1461.7 Q665.838 1448.27 666.023 1447.72 Q666.871 1445.62 666.871 1443.77 Q666.871 1442.93 666.687 1442.41 Q666.502 1441.86 666.134 1441.67 Q665.765 1441.45 665.543 1441.41 Q665.359 1441.38 664.99 1441.38 Q662.813 1441.38 660.784 1443.59 Q658.755 1445.8 657.354 1450.75 Q657.059 1451.67 656.874 1451.89 Q656.69 1452.11 656.136 1452.11 Q655.214 1452.07 655.214 1451.34 Q655.214 1451.12 655.472 1450.27 Q655.73 1449.38 656.21 1448.05 Q656.69 1446.69 657.538 1445.29 Q658.387 1443.85 659.419 1442.59 Q660.489 1441.34 662.002 1440.53 Q663.514 1439.72 665.211 1439.72 Q667.978 1439.72 669.675 1441.52 Q671.409 1443.29 671.409 1445.91 Q671.409 1447.35 670.413 1449.9 Q669.195 1453.22 668.753 1454.29 L665.802 1462.22 Q664.732 1465.1 664.4 1465.98 Q664.105 1466.83 663.846 1467.86 Q663.625 1468.86 663.625 1469.78 Q663.625 1471.07 664.031 1471.66 Q664.473 1472.25 665.433 1472.25 Q668.089 1472.25 670.044 1469.63 Q671.999 1466.98 673.143 1462.92 Q673.18 1462.81 673.216 1462.63 Q673.512 1461.7 673.807 1461.59 Q673.954 1461.56 674.249 1461.56 Q675.172 1461.56 675.172 1462.29 Z" fill="#000000" fill-rule="nonzero" fill-opacity="1" /><path clip-path="url(#clip800)" d="M1848.03 1400.53 Q1848.03 1402 1847.35 1402.37 Q1846.66 1402.69 1844.77 1402.69 L1834.65 1402.69 L1826.64 1434.52 Q1826.01 1437.31 1826.01 1439.68 Q1826.01 1442.32 1826.8 1443.48 Q1827.64 1444.64 1829.38 1444.64 Q1832.8 1444.64 1836.49 1441.53 Q1840.24 1438.42 1843.4 1430.83 Q1843.82 1429.83 1844.03 1429.62 Q1844.29 1429.35 1844.98 1429.35 Q1846.3 1429.35 1846.3 1430.41 Q1846.3 1430.78 1845.56 1432.46 Q1844.87 1434.15 1843.34 1436.63 Q1841.87 1439.1 1839.92 1441.42 Q1838.02 1443.74 1835.12 1445.43 Q1832.22 1447.06 1829.12 1447.06 Q1824.74 1447.06 1821.95 1444.27 Q1819.21 1441.48 1819.21 1437.1 Q1819.21 1435.68 1820.31 1431.15 Q1821.42 1426.56 1827.43 1402.69 L1817.89 1402.69 Q1816.57 1402.69 1816.05 1402.64 Q1815.57 1402.58 1815.2 1402.32 Q1814.89 1402 1814.89 1401.37 Q1814.89 1400.37 1815.31 1399.95 Q1815.73 1399.47 1816.26 1399.42 Q1816.84 1399.31 1818.15 1399.31 L1828.27 1399.31 L1832.49 1382.19 Q1832.91 1380.5 1833.96 1379.55 Q1835.07 1378.55 1835.7 1378.45 Q1836.34 1378.29 1836.81 1378.29 Q1838.23 1378.29 1839.08 1379.08 Q1839.92 1379.82 1839.92 1381.19 Q1839.92 1381.92 1835.49 1399.31 L1844.98 1399.31 Q1846.19 1399.31 1846.66 1399.37 Q1847.19 1399.42 1847.61 1399.68 Q1848.03 1399.95 1848.03 1400.53 Z" fill="#000000" fill-rule="nonzero" fill-opacity="1" /><path clip-path="url(#clip800)" d="M1878.53 1429.52 Q1878.53 1431.14 1877.2 1432.36 Q1875.91 1433.54 1874.51 1433.54 Q1873.22 1433.54 1872.4 1432.76 Q1871.63 1431.95 1871.63 1430.81 Q1871.63 1429.29 1872.92 1428.04 Q1874.21 1426.79 1875.72 1426.79 Q1876.98 1426.79 1877.75 1427.56 Q1878.53 1428.33 1878.53 1429.52 M1879.19 1465.93 Q1879.19 1466.22 1878.86 1467.4 Q1878.53 1468.55 1877.72 1470.32 Q1876.94 1472.05 1875.87 1473.67 Q1874.8 1475.3 1873.03 1476.44 Q1871.3 1477.58 1869.31 1477.58 Q1866.61 1477.58 1864.84 1475.81 Q1863.11 1474.04 1863.11 1471.39 Q1863.11 1469.95 1864.84 1465.34 Q1869.86 1451.91 1870.04 1451.35 Q1870.89 1449.25 1870.89 1447.41 Q1870.89 1446.56 1870.71 1446.04 Q1870.52 1445.49 1870.15 1445.3 Q1869.79 1445.08 1869.56 1445.05 Q1869.38 1445.01 1869.01 1445.01 Q1866.83 1445.01 1864.8 1447.22 Q1862.78 1449.44 1861.37 1454.38 Q1861.08 1455.3 1860.89 1455.52 Q1860.71 1455.74 1860.16 1455.74 Q1859.23 1455.71 1859.23 1454.97 Q1859.23 1454.75 1859.49 1453.9 Q1859.75 1453.01 1860.23 1451.69 Q1860.71 1450.32 1861.56 1448.92 Q1862.41 1447.48 1863.44 1446.23 Q1864.51 1444.97 1866.02 1444.16 Q1867.53 1443.35 1869.23 1443.35 Q1872 1443.35 1873.7 1445.16 Q1875.43 1446.93 1875.43 1449.55 Q1875.43 1450.99 1874.43 1453.53 Q1873.22 1456.85 1872.77 1457.92 L1869.82 1465.85 Q1868.75 1468.73 1868.42 1469.61 Q1868.12 1470.46 1867.87 1471.5 Q1867.65 1472.49 1867.65 1473.41 Q1867.65 1474.71 1868.05 1475.3 Q1868.49 1475.89 1869.45 1475.89 Q1872.11 1475.89 1874.06 1473.27 Q1876.02 1470.61 1877.16 1466.55 Q1877.2 1466.44 1877.24 1466.26 Q1877.53 1465.34 1877.83 1465.22 Q1877.97 1465.19 1878.27 1465.19 Q1879.19 1465.19 1879.19 1465.93 Z" fill="#000000" fill-rule="nonzero" fill-opacity="1" /><path clip-path="url(#clip800)" d="M1922.94 1420.18 Q1920.46 1420.18 1920.46 1418.87 Q1920.46 1417.55 1923.04 1417.55 Q1923.36 1417.55 1923.89 1417.6 Q1924.47 1417.65 1924.57 1417.65 L1954.98 1417.65 L1954.98 1387.14 Q1954.98 1387.04 1954.93 1386.56 Q1954.87 1386.03 1954.87 1385.72 Q1954.87 1383.14 1956.14 1383.14 Q1957.46 1383.14 1957.46 1385.72 L1957.46 1417.65 L1987.92 1417.65 Q1988.02 1417.65 1988.55 1417.6 Q1989.08 1417.55 1989.39 1417.55 Q1991.87 1417.55 1991.87 1418.87 Q1991.92 1420.18 1989.29 1420.18 Q1988.97 1420.18 1988.5 1420.13 Q1988.02 1420.08 1987.92 1420.08 L1957.46 1420.08 L1957.46 1452.12 Q1957.46 1454.6 1956.14 1454.6 Q1954.87 1454.6 1954.87 1452.02 Q1954.87 1451.7 1954.93 1451.17 Q1954.98 1450.7 1954.98 1450.59 L1954.98 1420.08 L1924.57 1420.08 Q1924.47 1420.08 1923.83 1420.13 Q1923.25 1420.18 1922.94 1420.18 Z" fill="#000000" fill-rule="nonzero" fill-opacity="1" /><path clip-path="url(#clip800)" d="M2086.51 1430.41 Q2086.51 1430.83 2086.04 1432.46 Q2085.56 1434.1 2084.4 1436.63 Q2083.3 1439.16 2081.77 1441.48 Q2080.24 1443.74 2077.71 1445.43 Q2075.23 1447.06 2072.39 1447.06 Q2068.59 1447.06 2066.06 1444.53 Q2063.53 1442 2063.53 1438.21 Q2063.53 1437.68 2063.59 1437.15 Q2063.64 1436.63 2063.69 1436.31 Q2063.74 1435.94 2063.9 1435.36 Q2064.11 1434.73 2064.17 1434.47 Q2064.27 1434.2 2064.53 1433.41 Q2064.85 1432.57 2064.96 1432.25 Q2071.65 1415.18 2071.65 1408.06 Q2071.65 1400.53 2065.8 1400.53 Q2060.58 1400.53 2055.42 1404.32 Q2053.05 1406.22 2050.78 1409.59 Q2048.51 1412.96 2048.09 1414.23 Q2047.62 1416.97 2046.93 1419.08 Q2046.62 1420.55 2045.09 1426.3 L2042.72 1436.05 L2040.66 1444.22 Q2040.24 1445.38 2039.08 1446.22 Q2037.92 1447.06 2036.66 1447.06 Q2035.6 1447.06 2034.55 1446.32 Q2033.55 1445.64 2033.55 1444 Q2033.55 1443.16 2033.97 1441.63 L2049.62 1379.45 L2049.94 1377.34 Q2049.94 1376.71 2049.67 1376.39 Q2049.46 1376.02 2048.2 1375.76 Q2046.99 1375.49 2044.56 1375.49 Q2043.56 1375.49 2043.09 1375.44 Q2042.66 1375.39 2042.3 1375.13 Q2041.93 1374.81 2041.93 1374.18 Q2041.93 1373.28 2042.3 1372.81 Q2042.72 1372.28 2043.03 1372.17 Q2043.35 1372.07 2043.98 1372.02 Q2044.88 1371.96 2047.88 1371.7 Q2050.89 1371.38 2053.47 1371.17 Q2056.05 1370.96 2057.16 1370.96 Q2057.79 1370.96 2058.11 1371.28 Q2058.47 1371.54 2058.53 1371.86 L2058.58 1372.12 L2050.15 1406.43 Q2056.84 1398.16 2066.12 1398.16 Q2072.12 1398.16 2075.34 1401.26 Q2078.55 1404.32 2078.55 1409.7 Q2078.55 1415.86 2071.97 1433.41 Q2070.02 1438.31 2070.02 1441.11 Q2070.02 1442.95 2070.6 1443.79 Q2071.23 1444.64 2072.6 1444.64 Q2074.71 1444.64 2076.55 1443.43 Q2078.45 1442.16 2079.77 1440.11 Q2081.08 1438 2081.98 1435.89 Q2082.93 1433.73 2083.61 1431.3 Q2084.03 1429.99 2084.24 1429.67 Q2084.51 1429.35 2085.25 1429.35 Q2086.51 1429.35 2086.51 1430.41 Z" fill="#000000" fill-rule="nonzero" fill-opacity="1" /><path clip-path="url(#clip800)" d="M2116.81 1429.52 Q2116.81 1431.14 2115.49 1432.36 Q2114.19 1433.54 2112.79 1433.54 Q2111.5 1433.54 2110.69 1432.76 Q2109.92 1431.95 2109.92 1430.81 Q2109.92 1429.29 2111.21 1428.04 Q2112.5 1426.79 2114.01 1426.79 Q2115.26 1426.79 2116.04 1427.56 Q2116.81 1428.33 2116.81 1429.52 M2117.48 1465.93 Q2117.48 1466.22 2117.15 1467.4 Q2116.81 1468.55 2116 1470.32 Q2115.23 1472.05 2114.16 1473.67 Q2113.09 1475.3 2111.32 1476.44 Q2109.58 1477.58 2107.59 1477.58 Q2104.9 1477.58 2103.13 1475.81 Q2101.39 1474.04 2101.39 1471.39 Q2101.39 1469.95 2103.13 1465.34 Q2108.14 1451.91 2108.33 1451.35 Q2109.18 1449.25 2109.18 1447.41 Q2109.18 1446.56 2108.99 1446.04 Q2108.81 1445.49 2108.44 1445.3 Q2108.07 1445.08 2107.85 1445.05 Q2107.67 1445.01 2107.3 1445.01 Q2105.12 1445.01 2103.09 1447.22 Q2101.06 1449.44 2099.66 1454.38 Q2099.36 1455.3 2099.18 1455.52 Q2099 1455.74 2098.44 1455.74 Q2097.52 1455.71 2097.52 1454.97 Q2097.52 1454.75 2097.78 1453.9 Q2098.04 1453.01 2098.52 1451.69 Q2099 1450.32 2099.84 1448.92 Q2100.69 1447.48 2101.73 1446.23 Q2102.8 1444.97 2104.31 1444.16 Q2105.82 1443.35 2107.52 1443.35 Q2110.28 1443.35 2111.98 1445.16 Q2113.72 1446.93 2113.72 1449.55 Q2113.72 1450.99 2112.72 1453.53 Q2111.5 1456.85 2111.06 1457.92 L2108.11 1465.85 Q2107.04 1468.73 2106.71 1469.61 Q2106.41 1470.46 2106.15 1471.5 Q2105.93 1472.49 2105.93 1473.41 Q2105.93 1474.71 2106.34 1475.3 Q2106.78 1475.89 2107.74 1475.89 Q2110.39 1475.89 2112.35 1473.27 Q2114.31 1470.61 2115.45 1466.55 Q2115.49 1466.44 2115.52 1466.26 Q2115.82 1465.34 2116.11 1465.22 Q2116.26 1465.19 2116.56 1465.19 Q2117.48 1465.19 2117.48 1465.93 Z" fill="#000000" fill-rule="nonzero" fill-opacity="1" /><path clip-path="url(#clip800)" d="M168.158 1084.75 Q168.158 1087.7 166.314 1089.38 Q164.469 1091.02 162.361 1091.02 Q160.358 1091.02 159.304 1089.86 Q158.25 1088.7 158.25 1087.22 Q158.25 1085.22 159.726 1083.48 Q161.202 1081.74 163.415 1081.37 Q161.254 1080 158.04 1080 Q155.932 1080 154.087 1081.11 Q152.295 1082.22 151.188 1083.64 Q150.134 1085.06 149.186 1087.12 Q148.29 1089.12 147.921 1090.33 Q147.605 1091.49 147.341 1092.76 L143.652 1107.51 Q141.861 1114.52 141.861 1117 Q141.861 1120.05 143.336 1122.11 Q144.812 1124.11 147.763 1124.11 Q148.922 1124.11 150.24 1123.8 Q151.557 1123.43 153.244 1122.48 Q154.983 1121.48 156.511 1120 Q158.092 1118.47 159.621 1115.89 Q161.149 1113.31 162.15 1109.99 Q162.466 1108.83 163.52 1108.83 Q164.838 1108.83 164.838 1109.88 Q164.838 1110.78 164.1 1112.68 Q163.415 1114.52 161.887 1116.95 Q160.411 1119.32 158.461 1121.48 Q156.511 1123.59 153.613 1125.06 Q150.714 1126.54 147.552 1126.54 Q143.02 1126.54 140.016 1124.11 Q137.012 1121.69 135.905 1118.32 Q135.642 1118.79 135.273 1119.42 Q134.904 1120.05 133.797 1121.48 Q132.743 1122.85 131.531 1123.9 Q130.319 1124.9 128.422 1125.69 Q126.577 1126.54 124.575 1126.54 Q122.045 1126.54 119.779 1125.8 Q117.566 1125.06 115.985 1123.37 Q114.404 1121.69 114.404 1119.37 Q114.404 1116.79 116.143 1115 Q117.934 1113.15 120.359 1113.15 Q121.887 1113.15 123.099 1114.05 Q124.364 1114.94 124.364 1116.89 Q124.364 1119.05 122.888 1120.69 Q121.413 1122.32 119.305 1122.74 Q121.465 1124.11 124.68 1124.11 Q128.158 1124.11 130.899 1121.06 Q133.639 1118 134.957 1112.89 Q138.224 1100.61 139.489 1095.13 Q140.754 1089.59 140.754 1087.22 Q140.754 1085.01 140.174 1083.48 Q139.594 1081.95 138.593 1081.27 Q137.644 1080.53 136.749 1080.27 Q135.905 1080 134.957 1080 Q133.376 1080 131.584 1080.63 Q129.845 1081.27 127.737 1082.74 Q125.681 1084.17 123.732 1087.12 Q121.782 1090.07 120.464 1094.13 Q120.201 1095.34 119.041 1095.34 Q117.776 1095.29 117.776 1094.23 Q117.776 1093.34 118.461 1091.49 Q119.199 1089.59 120.675 1087.22 Q122.203 1084.85 124.153 1082.74 Q126.156 1080.58 129.054 1079.11 Q132.006 1077.63 135.168 1077.63 Q136.59 1077.63 137.961 1077.95 Q139.384 1078.21 141.07 1079 Q142.809 1079.79 144.337 1081.53 Q145.866 1083.27 146.814 1085.8 Q147.447 1084.59 148.29 1083.43 Q149.186 1082.27 150.556 1080.85 Q151.979 1079.37 153.929 1078.53 Q155.932 1077.63 158.145 1077.63 Q160.306 1077.63 162.414 1078.21 Q164.522 1078.74 166.314 1080.48 Q168.158 1082.16 168.158 1084.75 Z" fill="#000000" fill-rule="nonzero" fill-opacity="1" /><path clip-path="url(#clip800)" d="M182.433 1098.34 Q182.433 1080.11 189.232 1065.4 Q192.13 1059.24 196.188 1054.07 Q200.246 1048.91 202.934 1046.64 Q205.621 1044.38 206.359 1044.38 Q207.413 1044.38 207.466 1045.43 Q207.466 1045.96 206.043 1047.28 Q188.652 1064.98 188.705 1098.34 Q188.705 1131.81 205.621 1148.83 Q207.466 1150.67 207.466 1151.25 Q207.466 1152.31 206.359 1152.31 Q205.621 1152.31 203.039 1150.15 Q200.457 1147.99 196.452 1143.03 Q192.446 1138.08 189.548 1132.02 Q182.433 1117.31 182.433 1098.34 Z" fill="#000000" fill-rule="nonzero" fill-opacity="1" /><path clip-path="url(#clip800)" d="M257.023 1080 Q257.023 1081.48 256.338 1081.85 Q255.653 1082.16 253.755 1082.16 L243.637 1082.16 L235.626 1113.99 Q234.994 1116.79 234.994 1119.16 Q234.994 1121.79 235.784 1122.95 Q236.628 1124.11 238.367 1124.11 Q241.792 1124.11 245.481 1121 Q249.223 1117.89 252.385 1110.3 Q252.807 1109.3 253.018 1109.09 Q253.281 1108.83 253.966 1108.83 Q255.284 1108.83 255.284 1109.88 Q255.284 1110.25 254.546 1111.94 Q253.861 1113.63 252.332 1116.1 Q250.857 1118.58 248.907 1120.9 Q247.01 1123.22 244.111 1124.9 Q241.213 1126.54 238.103 1126.54 Q233.729 1126.54 230.936 1123.74 Q228.196 1120.95 228.196 1116.58 Q228.196 1115.15 229.302 1110.62 Q230.409 1106.04 236.417 1082.16 L226.878 1082.16 Q225.561 1082.16 225.034 1082.11 Q224.559 1082.06 224.19 1081.79 Q223.874 1081.48 223.874 1080.85 Q223.874 1079.84 224.296 1079.42 Q224.717 1078.95 225.244 1078.9 Q225.824 1078.79 227.142 1078.79 L237.26 1078.79 L241.476 1061.66 Q241.898 1059.98 242.952 1059.03 Q244.058 1058.03 244.691 1057.92 Q245.323 1057.76 245.798 1057.76 Q247.22 1057.76 248.064 1058.55 Q248.907 1059.29 248.907 1060.66 Q248.907 1061.4 244.48 1078.79 L253.966 1078.79 Q255.178 1078.79 255.653 1078.84 Q256.18 1078.9 256.601 1079.16 Q257.023 1079.42 257.023 1080 Z" fill="#000000" fill-rule="nonzero" fill-opacity="1" /><path clip-path="url(#clip800)" d="M287.516 1108.99 Q287.516 1110.61 286.188 1111.83 Q284.897 1113.01 283.495 1113.01 Q282.204 1113.01 281.392 1112.24 Q280.617 1111.42 280.617 1110.28 Q280.617 1108.77 281.909 1107.51 Q283.2 1106.26 284.712 1106.26 Q285.967 1106.26 286.741 1107.04 Q287.516 1107.81 287.516 1108.99 M288.18 1145.4 Q288.18 1145.7 287.848 1146.88 Q287.516 1148.02 286.704 1149.79 Q285.93 1151.52 284.86 1153.15 Q283.79 1154.77 282.019 1155.91 Q280.285 1157.06 278.293 1157.06 Q275.6 1157.06 273.83 1155.29 Q272.096 1153.52 272.096 1150.86 Q272.096 1149.42 273.83 1144.81 Q278.847 1131.38 279.031 1130.83 Q279.88 1128.73 279.88 1126.88 Q279.88 1126.03 279.695 1125.52 Q279.511 1124.96 279.142 1124.78 Q278.773 1124.56 278.552 1124.52 Q278.367 1124.48 277.998 1124.48 Q275.822 1124.48 273.793 1126.7 Q271.764 1128.91 270.362 1133.85 Q270.067 1134.78 269.882 1135 Q269.698 1135.22 269.145 1135.22 Q268.222 1135.18 268.222 1134.44 Q268.222 1134.22 268.481 1133.37 Q268.739 1132.49 269.218 1131.16 Q269.698 1129.8 270.546 1128.39 Q271.395 1126.96 272.428 1125.7 Q273.498 1124.45 275.01 1123.64 Q276.523 1122.82 278.22 1122.82 Q280.986 1122.82 282.683 1124.63 Q284.417 1126.4 284.417 1129.02 Q284.417 1130.46 283.421 1133.01 Q282.204 1136.33 281.761 1137.4 L278.81 1145.33 Q277.74 1148.2 277.408 1149.09 Q277.113 1149.94 276.855 1150.97 Q276.633 1151.97 276.633 1152.89 Q276.633 1154.18 277.039 1154.77 Q277.482 1155.36 278.441 1155.36 Q281.097 1155.36 283.052 1152.74 Q285.007 1150.09 286.151 1146.03 Q286.188 1145.92 286.225 1145.73 Q286.52 1144.81 286.815 1144.7 Q286.963 1144.66 287.258 1144.66 Q288.18 1144.66 288.18 1145.4 Z" fill="#000000" fill-rule="nonzero" fill-opacity="1" /><path clip-path="url(#clip800)" d="M299.506 1151.25 Q299.506 1150.73 300.877 1149.41 Q318.268 1131.7 318.268 1098.34 Q318.268 1064.88 301.562 1047.96 Q299.506 1046.01 299.506 1045.43 Q299.506 1044.38 300.56 1044.38 Q301.298 1044.38 303.881 1046.54 Q306.516 1048.7 310.468 1053.65 Q314.473 1058.61 317.425 1064.67 Q324.539 1079.37 324.539 1098.34 Q324.539 1116.58 317.741 1131.28 Q314.842 1137.45 310.784 1142.61 Q306.726 1147.77 304.039 1150.04 Q301.351 1152.31 300.56 1152.31 Q299.506 1152.31 299.506 1151.25 Z" fill="#000000" fill-rule="nonzero" fill-opacity="1" /><path clip-path="url(#clip800)" d="M675.768 406.806 L670.761 436.371 L601.934 436.371 L601.934 431.312 L613.581 431.312 L613.581 368.072 L601.934 368.072 L601.934 362.96 L668.969 362.96 L672.289 388.994 L667.23 388.994 Q666.808 385.884 666.387 383.724 Q665.965 381.51 665.175 379.191 Q664.384 376.82 663.33 375.239 Q662.276 373.658 660.642 372.235 Q659.061 370.759 656.953 369.916 Q654.845 369.073 651.894 368.599 Q648.996 368.072 645.307 368.072 L628.917 368.072 L628.917 395.792 L634.872 395.792 Q638.719 395.792 641.038 395.001 Q643.409 394.211 644.516 392.419 Q645.676 390.575 645.992 388.572 Q646.308 386.569 646.308 383.144 L651.367 383.144 L651.367 413.499 L646.308 413.499 Q646.308 410.074 645.939 408.071 Q645.623 406.069 644.463 404.277 Q643.357 402.432 640.985 401.642 Q638.666 400.851 634.872 400.851 L628.917 400.851 L628.917 431.312 L645.307 431.312 Q649.523 431.312 652.843 430.732 Q656.216 430.1 658.64 429.099 Q661.064 428.097 662.909 426.358 Q664.806 424.566 665.965 422.775 Q667.177 420.93 668.073 418.137 Q669.022 415.344 669.549 412.92 Q670.076 410.443 670.656 406.806 L675.768 406.806 Z" fill="#000000" fill-rule="nonzero" fill-opacity="1" /><path clip-path="url(#clip800)" d="M748.171 436.371 L729.04 437.004 L729.04 428.624 Q724.139 437.004 713.494 437.004 Q709.12 437.004 705.852 436.424 Q702.637 435.844 699.792 434.421 Q696.998 432.946 695.523 430.1 Q694.047 427.254 694.047 423.091 L694.047 397.953 Q694.047 394.896 692.94 394.316 Q691.834 393.737 686.616 393.737 L686.616 388.677 L706.379 387.781 L706.379 424.619 Q706.379 427.201 706.537 428.519 Q706.748 429.784 707.539 431.049 Q708.382 432.261 710.174 432.735 Q711.965 433.157 715.022 433.157 Q720.977 433.157 724.666 429.151 Q728.408 425.146 728.408 418.559 L728.408 397.953 Q728.408 394.896 727.248 394.316 Q726.142 393.737 720.924 393.737 L720.924 388.677 L740.687 387.781 L740.687 427.096 Q740.687 430.153 741.794 430.732 Q742.953 431.312 748.171 431.312 L748.171 436.371 Z" fill="#000000" fill-rule="nonzero" fill-opacity="1" /><path clip-path="url(#clip800)" d="M782.309 436.371 L769.029 436.055 L755.748 436.371 L755.748 431.312 L763.232 431.312 L763.232 371.602 Q763.232 368.546 762.073 367.966 Q760.966 367.386 755.748 367.386 L755.748 362.327 L774.879 361.484 L774.879 431.312 L782.309 431.312 L782.309 436.371 Z" fill="#000000" fill-rule="nonzero" fill-opacity="1" /><path clip-path="url(#clip800)" d="M840.981 423.723 Q840.981 424.408 840.401 425.831 Q839.822 427.201 838.188 429.204 Q836.607 431.154 834.288 432.893 Q832.022 434.58 828.017 435.792 Q824.064 437.004 819.268 437.004 Q806.409 437.004 798.768 430.047 Q791.126 423.091 791.126 412.076 Q791.126 406.964 792.865 402.538 Q794.657 398.111 797.925 394.738 Q801.192 391.365 806.304 389.415 Q811.416 387.465 817.74 387.465 Q828.913 387.465 834.92 393.315 Q837.397 395.792 838.82 399.376 Q840.296 402.907 840.612 405.278 Q840.981 407.65 840.981 409.916 Q840.981 411.918 840.243 412.393 Q839.558 412.867 837.503 412.867 L804.934 412.867 Q804.934 414.606 804.934 415.765 Q804.986 416.872 805.303 419.138 Q805.619 421.404 806.146 423.038 Q806.673 424.619 807.78 426.569 Q808.939 428.519 810.52 429.784 Q812.101 430.996 814.578 431.839 Q817.055 432.682 820.217 432.682 Q825.487 432.682 829.703 430.311 Q833.972 427.939 835.658 424.092 Q836.185 422.669 836.607 422.248 Q837.081 421.826 838.399 421.826 Q840.981 421.826 840.981 423.723 M830.704 409.283 Q830.23 391.365 817.74 391.365 Q815 391.365 812.206 392.683 Q809.413 394 807.516 396.951 Q806.462 398.638 805.882 401.062 Q805.303 403.434 805.197 404.804 Q805.092 406.121 804.934 409.283 L830.704 409.283 Z" fill="#000000" fill-rule="nonzero" fill-opacity="1" /><path clip-path="url(#clip800)" d="M888.971 396.635 Q888.971 399.692 886.968 401.484 Q884.966 403.223 882.383 403.223 Q879.801 403.223 877.798 401.484 Q875.796 399.745 875.796 396.635 Q875.796 395.265 876.27 394.053 Q876.797 392.788 877.324 392.208 L877.851 391.681 Q874.742 391.681 872.318 393.157 Q869.893 394.58 868.418 396.793 Q866.942 399.007 865.993 401.905 Q865.045 404.751 864.676 407.333 Q864.36 409.916 864.36 412.393 L864.36 431.312 L873.74 431.312 L873.74 436.371 Q869.841 436.055 858.879 436.055 L845.282 436.371 L845.282 431.312 L852.713 431.312 L852.713 397.953 Q852.713 394.896 851.606 394.316 Q850.5 393.737 845.282 393.737 L845.282 388.677 L863.2 387.781 L863.2 400.008 Q867.68 387.781 877.535 387.781 Q882.067 387.781 885.493 390.206 Q888.971 392.577 888.971 396.635 Z" fill="#000000" fill-rule="nonzero" fill-opacity="1" /><path clip-path="url(#clip800)" d="M1201.9 1119.48 Q1201.9 1120.22 1201.42 1121.96 L1191.09 1163.17 Q1188.83 1172.34 1181.45 1178.77 Q1174.12 1185.2 1165.8 1185.2 Q1160.79 1185.2 1157.57 1182.51 Q1154.36 1179.88 1154.36 1175.82 Q1154.36 1172.23 1156.26 1170.5 Q1158.15 1168.81 1160.42 1168.81 Q1161.16 1168.81 1161.95 1169.02 Q1162.74 1169.23 1163.58 1170.13 Q1164.43 1171.02 1164.43 1172.55 Q1164.43 1175.03 1162.26 1176.98 Q1161.21 1177.87 1160.21 1178.08 Q1159.26 1178.29 1157.63 1178.29 Q1158.26 1179.77 1159.42 1180.77 Q1160.58 1181.77 1161.9 1182.14 Q1163.21 1182.56 1164.06 1182.67 Q1164.95 1182.83 1165.8 1182.83 Q1172.54 1182.83 1177.71 1176.03 Q1179.23 1173.97 1180.34 1171.92 Q1181.5 1169.92 1182.34 1167.44 Q1183.19 1165.01 1183.56 1163.7 Q1183.98 1162.38 1184.71 1159.38 Q1179.81 1164.28 1173.81 1164.28 Q1171.28 1164.28 1169.01 1163.59 Q1166.8 1162.91 1164.85 1161.48 Q1162.9 1160.01 1161.74 1157.43 Q1160.63 1154.84 1160.63 1151.42 Q1160.63 1147.78 1162.05 1142.83 Q1163.48 1137.87 1166.9 1128.76 Q1168.75 1123.64 1168.75 1121.17 Q1168.75 1119.96 1168.48 1119.22 Q1168.22 1118.43 1167.69 1118.16 Q1167.17 1117.85 1166.85 1117.79 Q1166.59 1117.74 1166.06 1117.74 Q1162.95 1117.74 1160.05 1120.9 Q1157.15 1124.07 1155.15 1131.13 Q1154.73 1132.45 1154.46 1132.76 Q1154.2 1133.08 1153.41 1133.08 Q1152.09 1133.03 1152.09 1131.97 Q1152.09 1131.55 1152.57 1129.92 Q1153.04 1128.23 1154.15 1125.75 Q1155.31 1123.22 1156.89 1120.96 Q1158.47 1118.64 1160.95 1117 Q1163.48 1115.37 1166.37 1115.37 Q1170.33 1115.37 1172.75 1117.95 Q1175.23 1120.48 1175.23 1124.22 Q1175.23 1125.75 1174.81 1127.12 Q1174.44 1128.44 1173.07 1131.97 Q1167.53 1146.2 1167.53 1153.16 Q1167.53 1154.84 1167.8 1156.27 Q1168.11 1157.64 1168.8 1159.01 Q1169.48 1160.32 1170.85 1161.11 Q1172.28 1161.85 1174.23 1161.85 Q1176.7 1161.85 1179.02 1160.69 Q1181.39 1159.48 1182.87 1157.85 Q1184.4 1156.21 1185.29 1154.84 Q1186.24 1153.42 1186.45 1152.68 L1191.3 1133.29 L1193.46 1124.65 Q1194.46 1119.96 1194.94 1118.8 Q1195.57 1117.69 1196.68 1117.11 Q1197.78 1116.53 1198.73 1116.53 Q1200.05 1116.53 1200.95 1117.32 Q1201.9 1118.11 1201.9 1119.48 Z" fill="#000000" fill-rule="nonzero" fill-opacity="1" /><path clip-path="url(#clip800)" d="M1234.39 1146.67 Q1234.49 1145.36 1236.55 1145.36 L1302.69 1145.36 Q1305.79 1145.36 1305.85 1146.57 Q1305.85 1147.89 1302.9 1147.83 L1237.28 1147.83 Q1234.39 1147.89 1234.39 1146.67 M1234.39 1125.59 Q1234.39 1124.28 1236.65 1124.33 L1302.58 1124.33 Q1305.79 1124.33 1305.85 1125.59 Q1305.85 1126.81 1303.11 1126.81 L1236.55 1126.81 Q1234.39 1126.81 1234.39 1125.59 Z" fill="#000000" fill-rule="nonzero" fill-opacity="1" /><path clip-path="url(#clip800)" d="M1420.88 1091.18 Q1420.88 1092.18 1420.67 1093.03 L1417.72 1111.79 Q1417.56 1113.21 1417.25 1113.74 Q1416.98 1114.26 1416.14 1114.26 Q1414.82 1114.26 1414.82 1112.89 Q1414.82 1112.1 1415.14 1110.84 Q1416.03 1104.88 1416.03 1102.2 Q1416.03 1100.4 1415.67 1099.09 Q1415.35 1097.72 1414.82 1096.77 Q1414.35 1095.82 1413.24 1095.19 Q1412.13 1094.55 1411.08 1094.18 Q1410.03 1093.82 1408.13 1093.66 Q1406.23 1093.45 1404.6 1093.39 Q1402.96 1093.34 1400.28 1093.34 Q1394.43 1093.34 1393.48 1093.55 Q1392.48 1093.82 1391.95 1094.61 Q1391.48 1095.34 1390.95 1097.56 L1376.61 1154.84 L1376.19 1157.11 Q1376.19 1158.37 1376.98 1158.8 Q1377.77 1159.22 1380.2 1159.48 Q1383.68 1159.74 1387.1 1159.74 Q1387.21 1159.74 1387.42 1159.74 Q1388.58 1159.74 1389.05 1159.8 Q1389.53 1159.8 1390 1159.9 Q1390.47 1160.01 1390.58 1160.27 Q1390.74 1160.48 1390.74 1160.9 Q1390.74 1161.9 1390.32 1162.43 Q1389.89 1162.91 1389.47 1163.01 Q1389.1 1163.06 1388.37 1163.06 Q1386.89 1163.06 1383.73 1162.96 Q1380.57 1162.85 1378.99 1162.85 L1370.03 1162.75 L1360.86 1162.85 Q1359.43 1162.85 1356.43 1162.96 Q1353.43 1163.06 1352 1163.06 Q1350.16 1163.06 1350.16 1161.75 Q1350.16 1160.27 1350.84 1160.01 Q1351.58 1159.74 1354.69 1159.74 Q1359.07 1159.74 1361.44 1159.53 Q1363.81 1159.32 1365.07 1158.58 Q1366.39 1157.85 1366.76 1157.11 Q1367.13 1156.32 1367.55 1154.53 L1382.04 1096.93 Q1382.46 1095.66 1382.46 1094.66 Q1382.46 1094.13 1382.31 1093.92 Q1382.2 1093.71 1381.52 1093.55 Q1380.83 1093.34 1379.41 1093.34 L1375.19 1093.34 Q1370.87 1093.34 1368.18 1093.55 Q1365.55 1093.71 1363.02 1094.5 Q1360.54 1095.29 1359.07 1096.4 Q1357.64 1097.5 1356.06 1099.77 Q1354.48 1102.04 1353.32 1104.78 Q1352.21 1107.52 1350.63 1112 Q1350.11 1113.47 1349.79 1113.89 Q1349.53 1114.26 1348.79 1114.26 Q1348.26 1114.26 1347.84 1113.95 Q1347.47 1113.58 1347.47 1113.1 Q1348 1111.37 1348.1 1111.15 L1354.59 1092.13 Q1355.11 1090.6 1355.59 1090.34 Q1356.11 1090.02 1358.06 1090.02 L1417.93 1090.02 Q1418.88 1090.02 1419.2 1090.02 Q1419.51 1090.02 1420.04 1090.13 Q1420.57 1090.23 1420.72 1090.5 Q1420.88 1090.76 1420.88 1091.18 Z" fill="#000000" fill-rule="nonzero" fill-opacity="1" /><path clip-path="url(#clip800)" d="M1432.36 1136.08 Q1432.36 1117.85 1439.16 1103.14 Q1442.05 1096.98 1446.11 1091.81 Q1450.17 1086.65 1452.86 1084.38 Q1455.55 1082.12 1456.28 1082.12 Q1457.34 1082.12 1457.39 1083.17 Q1457.39 1083.7 1455.97 1085.01 Q1438.58 1102.72 1438.63 1136.08 Q1438.63 1169.55 1455.55 1186.57 Q1457.39 1188.41 1457.39 1188.99 Q1457.39 1190.05 1456.28 1190.05 Q1455.55 1190.05 1452.96 1187.89 Q1450.38 1185.73 1446.38 1180.77 Q1442.37 1175.82 1439.47 1169.76 Q1432.36 1155.05 1432.36 1136.08 Z" fill="#000000" fill-rule="nonzero" fill-opacity="1" /><path clip-path="url(#clip800)" d="M1498.74 1117.74 Q1498.74 1119.22 1498.05 1119.59 Q1497.37 1119.9 1495.47 1119.9 L1485.35 1119.9 L1477.34 1151.73 Q1476.71 1154.53 1476.71 1156.9 Q1476.71 1159.53 1477.5 1160.69 Q1478.34 1161.85 1480.08 1161.85 Q1483.51 1161.85 1487.2 1158.74 Q1490.94 1155.63 1494.1 1148.04 Q1494.52 1147.04 1494.73 1146.83 Q1495 1146.57 1495.68 1146.57 Q1497 1146.57 1497 1147.62 Q1497 1147.99 1496.26 1149.68 Q1495.58 1151.36 1494.05 1153.84 Q1492.57 1156.32 1490.62 1158.64 Q1488.73 1160.96 1485.83 1162.64 Q1482.93 1164.28 1479.82 1164.28 Q1475.45 1164.28 1472.65 1161.48 Q1469.91 1158.69 1469.91 1154.32 Q1469.91 1152.89 1471.02 1148.36 Q1472.13 1143.78 1478.13 1119.9 L1468.59 1119.9 Q1467.28 1119.9 1466.75 1119.85 Q1466.28 1119.8 1465.91 1119.53 Q1465.59 1119.22 1465.59 1118.59 Q1465.59 1117.58 1466.01 1117.16 Q1466.43 1116.69 1466.96 1116.64 Q1467.54 1116.53 1468.86 1116.53 L1478.98 1116.53 L1483.19 1099.4 Q1483.61 1097.72 1484.67 1096.77 Q1485.77 1095.77 1486.41 1095.66 Q1487.04 1095.5 1487.51 1095.5 Q1488.94 1095.5 1489.78 1096.29 Q1490.62 1097.03 1490.62 1098.4 Q1490.62 1099.14 1486.2 1116.53 L1495.68 1116.53 Q1496.89 1116.53 1497.37 1116.58 Q1497.9 1116.64 1498.32 1116.9 Q1498.74 1117.16 1498.74 1117.74 Z" fill="#000000" fill-rule="nonzero" fill-opacity="1" /><path clip-path="url(#clip800)" d="M1507.18 1188.99 Q1507.18 1188.47 1508.56 1187.15 Q1525.95 1169.44 1525.95 1136.08 Q1525.95 1102.62 1509.24 1085.7 Q1507.18 1083.75 1507.18 1083.17 Q1507.18 1082.12 1508.24 1082.12 Q1508.98 1082.12 1511.56 1084.28 Q1514.19 1086.44 1518.15 1091.39 Q1522.15 1096.35 1525.1 1102.41 Q1532.22 1117.11 1532.22 1136.08 Q1532.22 1154.32 1525.42 1169.02 Q1522.52 1175.19 1518.46 1180.35 Q1514.4 1185.51 1511.72 1187.78 Q1509.03 1190.05 1508.24 1190.05 Q1507.18 1190.05 1507.18 1188.99 Z" fill="#000000" fill-rule="nonzero" fill-opacity="1" /><path clip-path="url(#clip800)" d="M2051.16 619.087 Q2051.58 619.561 2051.58 620.035 Q2051.58 620.509 2050.52 621.88 Q2049.52 623.25 2047.36 625.094 Q2045.2 626.939 2042.41 628.678 Q2039.62 630.417 2035.51 631.577 Q2031.39 632.789 2027.07 632.789 Q2019.33 632.789 2014.69 627.255 Q2010.1 621.722 2010.1 613.237 Q2010.1 607.809 2011.9 603.013 Q2013.69 598.164 2016.59 594.739 Q2019.54 591.313 2023.23 588.836 Q2026.97 586.307 2030.87 585.095 Q2034.77 583.883 2038.4 583.883 Q2043.73 583.883 2046.84 586.57 Q2049.95 589.258 2049.95 593.052 Q2049.95 593.948 2049.68 595.055 Q2049.47 596.162 2048.73 597.901 Q2048.05 599.64 2046.26 601.379 Q2044.46 603.066 2041.83 604.172 Q2035.98 606.649 2025.33 606.649 L2019.59 606.649 Q2017.9 613.448 2017.9 617.874 Q2017.9 619.614 2018.22 621.405 Q2018.54 623.144 2019.38 625.358 Q2020.27 627.571 2022.28 628.994 Q2024.33 630.364 2027.28 630.364 Q2028.23 630.364 2029.23 630.312 Q2030.29 630.259 2032.92 629.679 Q2035.61 629.1 2037.98 628.098 Q2040.35 627.097 2043.36 624.936 Q2046.41 622.723 2048.84 619.719 Q2049.68 618.612 2050.26 618.612 Q2050.74 618.612 2051.16 619.087 M2046.36 593.052 Q2046.36 590.154 2044.2 588.204 Q2042.09 586.254 2038.4 586.254 Q2037.24 586.254 2035.82 586.518 Q2034.4 586.781 2032.03 587.888 Q2029.71 588.995 2027.65 590.839 Q2025.6 592.631 2023.54 596.162 Q2021.49 599.64 2020.27 604.278 L2024.7 604.278 Q2026.23 604.278 2027.34 604.278 Q2028.44 604.225 2030.87 604.014 Q2033.34 603.803 2035.14 603.434 Q2036.93 603.013 2039.19 602.17 Q2041.46 601.326 2042.88 600.22 Q2044.36 599.06 2045.36 597.216 Q2046.36 595.371 2046.36 593.052 Z" fill="#ff0000" fill-rule="nonzero" fill-opacity="1" /><path clip-path="url(#clip800)" d="M2081.98 615.242 Q2081.98 616.865 2080.65 618.083 Q2079.36 619.263 2077.96 619.263 Q2076.67 619.263 2075.86 618.489 Q2075.08 617.677 2075.08 616.533 Q2075.08 615.021 2076.37 613.767 Q2077.66 612.512 2079.18 612.512 Q2080.43 612.512 2081.21 613.287 Q2081.98 614.062 2081.98 615.242 M2082.64 651.653 Q2082.64 651.948 2082.31 653.129 Q2081.98 654.272 2081.17 656.043 Q2080.39 657.777 2079.32 659.4 Q2078.25 661.023 2076.48 662.167 Q2074.75 663.31 2072.76 663.31 Q2070.06 663.31 2068.29 661.54 Q2066.56 659.769 2066.56 657.113 Q2066.56 655.674 2068.29 651.063 Q2073.31 637.635 2073.5 637.081 Q2074.34 634.979 2074.34 633.134 Q2074.34 632.286 2074.16 631.769 Q2073.97 631.216 2073.61 631.031 Q2073.24 630.81 2073.02 630.773 Q2072.83 630.736 2072.46 630.736 Q2070.29 630.736 2068.26 632.95 Q2066.23 635.163 2064.83 640.106 Q2064.53 641.029 2064.35 641.25 Q2064.16 641.471 2063.61 641.471 Q2062.69 641.434 2062.69 640.697 Q2062.69 640.475 2062.94 639.627 Q2063.2 638.741 2063.68 637.413 Q2064.16 636.048 2065.01 634.647 Q2065.86 633.208 2066.89 631.954 Q2067.96 630.699 2069.47 629.888 Q2070.99 629.076 2072.68 629.076 Q2075.45 629.076 2077.15 630.884 Q2078.88 632.654 2078.88 635.274 Q2078.88 636.712 2077.89 639.258 Q2076.67 642.578 2076.22 643.648 L2073.27 651.579 Q2072.2 654.457 2071.87 655.342 Q2071.58 656.19 2071.32 657.223 Q2071.1 658.219 2071.1 659.142 Q2071.1 660.433 2071.5 661.023 Q2071.95 661.613 2072.9 661.613 Q2075.56 661.613 2077.52 658.994 Q2079.47 656.338 2080.61 652.28 Q2080.65 652.169 2080.69 651.985 Q2080.98 651.063 2081.28 650.952 Q2081.43 650.915 2081.72 650.915 Q2082.64 650.915 2082.64 651.653 Z" fill="#ff0000" fill-rule="nonzero" fill-opacity="1" /></svg>
