<?xml version="1.0" encoding="utf-8"?>
<svg xmlns="http://www.w3.org/2000/svg" xmlns:xlink="http://www.w3.org/1999/xlink" width="600" height="400" viewBox="0 0 2400 1600">
<defs>
  <clipPath id="clip350">
    <rect x="0" y="0" width="2400" height="1600"/>
  </clipPath>
</defs>
<path clip-path="url(#clip350)" d="M0 1600 L2400 1600 L2400 8.88178e-14 L0 8.88178e-14  Z" fill="#ffffff" fill-rule="evenodd" fill-opacity="1"/>
<defs>
  <clipPath id="clip351">
    <rect x="480" y="0" width="1681" height="1600"/>
  </clipPath>
</defs>
<path clip-path="url(#clip350)" d="M47.2441 1552.76 L2352.76 1552.76 L2352.76 47.2441 L47.2441 47.2441  Z" fill="#ffffff" fill-rule="evenodd" fill-opacity="1"/>
<defs>
  <clipPath id="clip352">
    <rect x="47" y="47" width="2307" height="1507"/>
  </clipPath>
</defs>
<path clip-path="url(#clip352)" d="M571.224 1415.89 L581.81 1415.89 L592.395 1415.89 L602.98 1415.89 L613.566 1415.89 L624.151 1415.89 L634.737 1415.89 L645.322 1415.89 L655.908 1415.89 L666.493 1415.89 L677.079 1415.89 L687.664 1415.89 L698.249 1415.89 L708.835 1415.89 L719.42 1415.89 L730.006 1415.89 L740.591 1415.89 L751.177 1415.89 L761.762 1415.89 L772.348 1415.89 L782.933 1415.89 L793.519 1415.89 L804.104 1415.89 L814.689 1415.89 L825.275 1415.89 L835.86 1415.89 L846.446 1415.89 L857.031 1415.89 L867.617 1415.89 L878.202 1415.89 L888.788 1415.89 L899.373 1415.89 L909.959 1415.89 L920.544 1415.89 L931.129 1415.89 L941.715 1415.89 L952.3 1415.89 L962.886 1415.89 L973.471 1415.89 L984.057 1415.89 L994.642 1415.89 L1005.23 1415.89 L1015.81 1415.89 L1026.4 1415.89 L1036.98 1415.89 L1047.57 1415.89 L1058.15 1415.89 L1068.74 1415.89 L1079.33 1415.89 L1089.91 1415.89 L1100.5 1415.89 L1111.08 1415.89 L1121.67 1415.89 L1132.25 1415.89 L1142.84 1415.89 L1153.42 1415.89 L1164.01 1415.89 L1174.59 1415.89 L1185.18 1415.89 L1195.77 1415.89 L1206.35 1415.89 L1216.94 1415.89 L1227.52 1415.89 L1238.11 1415.89 L1248.69 1415.89 L1259.28 1415.89 L1269.86 1415.89 L1280.45 1415.89 L1291.03 1415.89 L1301.62 1415.89 L1312.21 1415.89 L1322.79 1415.89 L1333.38 1415.89 L1343.96 1415.89 L1354.55 1415.89 L1365.13 1415.89 L1375.72 1415.89 L1386.3 1415.89 L1396.89 1415.89 L1407.47 1415.89 L1418.06 1415.89 L1428.65 1415.89 L1439.23 1415.89 L1449.82 1415.89 L1460.4 1415.89 L1470.99 1415.89 L1481.57 1415.89 L1492.16 1415.89 L1502.74 1415.89 L1513.33 1415.89 L1523.91 1415.89 L1534.5 1415.89 L1545.09 1415.89 L1555.67 1415.89 L1566.26 1415.89 L1576.84 1415.89 L1587.43 1415.89 L1598.01 1415.89 L1608.6 1415.89 L1619.18 1415.89 L1619.18 358.611 L1608.6 367.562 L1598.01 376.444 L1587.43 385.255 L1576.84 393.997 L1566.26 402.669 L1555.67 411.271 L1545.09 419.803 L1534.5 428.266 L1523.91 436.658 L1513.33 444.981 L1502.74 453.234 L1492.16 461.417 L1481.57 469.53 L1470.99 477.574 L1460.4 485.547 L1449.82 493.451 L1439.23 501.285 L1428.65 509.049 L1418.06 516.744 L1407.47 524.368 L1396.89 531.923 L1386.3 539.408 L1375.72 546.823 L1365.13 554.168 L1354.55 561.444 L1343.96 568.649 L1333.38 575.785 L1322.79 582.851 L1312.21 589.847 L1301.62 596.774 L1291.03 603.63 L1280.45 610.417 L1269.86 617.134 L1259.28 623.781 L1248.69 630.358 L1238.11 636.865 L1227.52 643.303 L1216.94 649.671 L1206.35 655.968 L1195.77 662.197 L1185.18 668.355 L1174.59 674.443 L1164.01 680.462 L1153.42 686.411 L1142.84 692.29 L1132.25 698.099 L1121.67 703.838 L1111.08 709.508 L1100.5 715.108 L1089.91 720.637 L1079.33 726.097 L1068.74 731.488 L1058.15 736.808 L1047.57 742.059 L1036.98 747.239 L1026.4 752.35 L1015.81 757.392 L1005.23 762.363 L994.642 767.264 L984.057 772.096 L973.471 776.858 L962.886 781.55 L952.3 786.172 L941.715 790.725 L931.129 795.207 L920.544 799.62 L909.959 803.963 L899.373 808.236 L888.788 812.439 L878.202 816.573 L867.617 820.636 L857.031 824.63 L846.446 828.554 L835.86 832.408 L825.275 836.192 L814.689 839.907 L804.104 843.552 L793.519 847.127 L782.933 850.632 L772.348 854.067 L761.762 857.432 L751.177 860.728 L740.591 863.954 L730.006 867.11 L719.42 870.196 L708.835 873.212 L698.249 876.158 L687.664 879.035 L677.079 881.842 L666.493 884.579 L655.908 887.246 L645.322 889.844 L634.737 892.371 L624.151 894.829 L613.566 897.217 L602.98 899.535 L592.395 901.783 L581.81 903.962 L571.224 906.07  Z" fill="#ff00ff" fill-rule="evenodd" fill-opacity="0.1"/>
<polyline clip-path="url(#clip352)" style="stroke:#ff00ff; stroke-linecap:round; stroke-linejoin:round; stroke-width:4; stroke-opacity:1; fill:none" points="571.224,1415.89 581.81,1415.89 592.395,1415.89 602.98,1415.89 613.566,1415.89 624.151,1415.89 634.737,1415.89 645.322,1415.89 655.908,1415.89 666.493,1415.89 677.079,1415.89 687.664,1415.89 698.249,1415.89 708.835,1415.89 719.42,1415.89 730.006,1415.89 740.591,1415.89 751.177,1415.89 761.762,1415.89 772.348,1415.89 782.933,1415.89 793.519,1415.89 804.104,1415.89 814.689,1415.89 825.275,1415.89 835.86,1415.89 846.446,1415.89 857.031,1415.89 867.617,1415.89 878.202,1415.89 888.788,1415.89 899.373,1415.89 909.959,1415.89 920.544,1415.89 931.129,1415.89 941.715,1415.89 952.3,1415.89 962.886,1415.89 973.471,1415.89 984.057,1415.89 994.642,1415.89 1005.23,1415.89 1015.81,1415.89 1026.4,1415.89 1036.98,1415.89 1047.57,1415.89 1058.15,1415.89 1068.74,1415.89 1079.33,1415.89 1089.91,1415.89 1100.5,1415.89 1111.08,1415.89 1121.67,1415.89 1132.25,1415.89 1142.84,1415.89 1153.42,1415.89 1164.01,1415.89 1174.59,1415.89 1185.18,1415.89 1195.77,1415.89 1206.35,1415.89 1216.94,1415.89 1227.52,1415.89 1238.11,1415.89 1248.69,1415.89 1259.28,1415.89 1269.86,1415.89 1280.45,1415.89 1291.03,1415.89 1301.62,1415.89 1312.21,1415.89 1322.79,1415.89 1333.38,1415.89 1343.96,1415.89 1354.55,1415.89 1365.13,1415.89 1375.72,1415.89 1386.3,1415.89 1396.89,1415.89 1407.47,1415.89 1418.06,1415.89 1428.65,1415.89 1439.23,1415.89 1449.82,1415.89 1460.4,1415.89 1470.99,1415.89 1481.57,1415.89 1492.16,1415.89 1502.74,1415.89 1513.33,1415.89 1523.91,1415.89 1534.5,1415.89 1545.09,1415.89 1555.67,1415.89 1566.26,1415.89 1576.84,1415.89 1587.43,1415.89 1598.01,1415.89 1608.6,1415.89 1619.18,1415.89 "/>
<polyline clip-path="url(#clip352)" style="stroke:#000000; stroke-linecap:round; stroke-linejoin:round; stroke-width:12; stroke-opacity:1; fill:none" points="571.224,717.881 581.81,717.881 592.395,717.881 602.98,717.881 613.566,717.881 624.151,717.881 634.737,717.881 645.322,717.881 655.908,717.881 666.493,717.881 677.079,717.881 687.664,717.881 698.249,717.881 708.835,717.881 719.42,717.881 730.006,717.881 740.591,717.881 751.177,717.881 761.762,717.881 772.348,717.881 782.933,717.881 793.519,717.881 804.104,717.881 814.689,717.881 825.275,717.881 835.86,717.881 846.446,717.881 857.031,717.881 867.617,717.881 878.202,717.881 888.788,717.881 899.373,717.881 909.959,717.881 920.544,717.881 931.129,717.881 941.715,717.881 952.3,717.881 962.886,717.881 973.471,717.881 984.057,717.881 994.642,717.881 1005.23,717.881 1015.81,717.881 1026.4,717.881 1036.98,717.881 1047.57,717.881 1058.15,717.881 1068.74,717.881 1079.33,717.881 1089.91,717.881 1100.5,717.881 1111.08,717.881 1121.67,717.881 1132.25,717.881 1142.84,717.881 1153.42,717.881 1164.01,717.881 1174.59,717.881 1185.18,717.881 1195.77,717.881 1206.35,717.881 1216.94,717.881 1227.52,717.881 1238.11,717.881 1248.69,717.881 1259.28,717.881 1269.86,717.881 1280.45,717.881 1291.03,717.881 1301.62,717.881 1312.21,717.881 1322.79,717.881 1333.38,717.881 1343.96,717.881 1354.55,717.881 1365.13,717.881 1375.72,717.881 1386.3,717.881 1396.89,717.881 1407.47,717.881 1418.06,717.881 1428.65,717.881 1439.23,717.881 1449.82,717.881 1460.4,717.881 1470.99,717.881 1481.57,717.881 1492.16,717.881 1502.74,717.881 1513.33,717.881 1523.91,717.881 1534.5,717.881 1545.09,717.881 1555.67,717.881 1566.26,717.881 1576.84,717.881 1587.43,717.881 1598.01,717.881 1608.6,717.881 1619.18,717.881 "/>
<path clip-path="url(#clip352)" d="M571.224 1415.89 L581.81 1415.89 L592.395 1415.89 L602.98 1415.89 L613.566 1415.89 L624.151 1415.89 L634.737 1415.89 L645.322 1415.89 L655.908 1415.89 L666.493 1415.89 L677.079 1415.89 L687.664 1415.89 L698.249 1415.89 L708.835 1415.89 L719.42 1415.89 L730.006 1415.89 L740.591 1415.89 L751.177 1415.89 L761.762 1415.89 L772.348 1415.89 L782.933 1415.89 L793.519 1415.89 L804.104 1415.89 L814.689 1415.89 L825.275 1415.89 L835.86 1415.89 L846.446 1415.89 L857.031 1415.89 L867.617 1415.89 L878.202 1415.89 L888.788 1415.89 L899.373 1415.89 L909.959 1415.89 L920.544 1415.89 L931.129 1415.89 L941.715 1415.89 L952.3 1415.89 L962.886 1415.89 L973.471 1415.89 L984.057 1415.89 L994.642 1415.89 L1005.23 1415.89 L1015.81 1415.89 L1026.4 1415.89 L1036.98 1415.89 L1047.57 1415.89 L1058.15 1415.89 L1068.74 1415.89 L1079.33 1415.89 L1089.91 1415.89 L1100.5 1415.89 L1111.08 1415.89 L1121.67 1415.89 L1132.25 1415.89 L1142.84 1415.89 L1153.42 1415.89 L1164.01 1415.89 L1174.59 1415.89 L1185.18 1415.89 L1195.77 1415.89 L1206.35 1415.89 L1216.94 1415.89 L1227.52 1415.89 L1238.11 1415.89 L1248.69 1415.89 L1259.28 1415.89 L1269.86 1415.89 L1280.45 1415.89 L1291.03 1415.89 L1301.62 1415.89 L1312.21 1415.89 L1322.79 1415.89 L1333.38 1415.89 L1343.96 1415.89 L1354.55 1415.89 L1365.13 1415.89 L1375.72 1415.89 L1386.3 1415.89 L1396.89 1415.89 L1407.47 1415.89 L1418.06 1415.89 L1428.65 1415.89 L1439.23 1415.89 L1449.82 1415.89 L1460.4 1415.89 L1470.99 1415.89 L1481.57 1415.89 L1492.16 1415.89 L1502.74 1415.89 L1513.33 1415.89 L1523.91 1415.89 L1534.5 1415.89 L1545.09 1415.89 L1555.67 1415.89 L1566.26 1415.89 L1576.84 1415.89 L1587.43 1415.89 L1598.01 1415.89 L1608.6 1415.89 L1619.18 1415.89 L1619.18 717.881 L1608.6 717.881 L1598.01 717.881 L1587.43 717.881 L1576.84 717.881 L1566.26 717.881 L1555.67 717.881 L1545.09 717.881 L1534.5 717.881 L1523.91 717.881 L1513.33 717.881 L1502.74 717.881 L1492.16 717.881 L1481.57 717.881 L1470.99 717.881 L1460.4 717.881 L1449.82 717.881 L1439.23 717.881 L1428.65 717.881 L1418.06 717.881 L1407.47 717.881 L1396.89 717.881 L1386.3 717.881 L1375.72 717.881 L1365.13 717.881 L1354.55 717.881 L1343.96 717.881 L1333.38 717.881 L1322.79 717.881 L1312.21 717.881 L1301.62 717.881 L1291.03 717.881 L1280.45 717.881 L1269.86 717.881 L1259.28 717.881 L1248.69 717.881 L1238.11 717.881 L1227.52 717.881 L1216.94 717.881 L1206.35 717.881 L1195.77 717.881 L1185.18 717.881 L1174.59 717.881 L1164.01 717.881 L1153.42 717.881 L1142.84 717.881 L1132.25 717.881 L1121.67 717.881 L1111.08 717.881 L1100.5 717.881 L1089.91 717.881 L1079.33 717.881 L1068.74 717.881 L1058.15 717.881 L1047.57 717.881 L1036.98 717.881 L1026.4 717.881 L1015.81 717.881 L1005.23 717.881 L994.642 717.881 L984.057 717.881 L973.471 717.881 L962.886 717.881 L952.3 717.881 L941.715 717.881 L931.129 717.881 L920.544 717.881 L909.959 717.881 L899.373 717.881 L888.788 717.881 L878.202 717.881 L867.617 717.881 L857.031 717.881 L846.446 717.881 L835.86 717.881 L825.275 717.881 L814.689 717.881 L804.104 717.881 L793.519 717.881 L782.933 717.881 L772.348 717.881 L761.762 717.881 L751.177 717.881 L740.591 717.881 L730.006 717.881 L719.42 717.881 L708.835 717.881 L698.249 717.881 L687.664 717.881 L677.079 717.881 L666.493 717.881 L655.908 717.881 L645.322 717.881 L634.737 717.881 L624.151 717.881 L613.566 717.881 L602.98 717.881 L592.395 717.881 L581.81 717.881 L571.224 717.881  Z" fill="#009af9" fill-rule="evenodd" fill-opacity="0.3"/>
<polyline clip-path="url(#clip352)" style="stroke:#009af9; stroke-linecap:round; stroke-linejoin:round; stroke-width:4; stroke-opacity:1; fill:none" points="571.224,1415.89 581.81,1415.89 592.395,1415.89 602.98,1415.89 613.566,1415.89 624.151,1415.89 634.737,1415.89 645.322,1415.89 655.908,1415.89 666.493,1415.89 677.079,1415.89 687.664,1415.89 698.249,1415.89 708.835,1415.89 719.42,1415.89 730.006,1415.89 740.591,1415.89 751.177,1415.89 761.762,1415.89 772.348,1415.89 782.933,1415.89 793.519,1415.89 804.104,1415.89 814.689,1415.89 825.275,1415.89 835.86,1415.89 846.446,1415.89 857.031,1415.89 867.617,1415.89 878.202,1415.89 888.788,1415.89 899.373,1415.89 909.959,1415.89 920.544,1415.89 931.129,1415.89 941.715,1415.89 952.3,1415.89 962.886,1415.89 973.471,1415.89 984.057,1415.89 994.642,1415.89 1005.23,1415.89 1015.81,1415.89 1026.4,1415.89 1036.98,1415.89 1047.57,1415.89 1058.15,1415.89 1068.74,1415.89 1079.33,1415.89 1089.91,1415.89 1100.5,1415.89 1111.08,1415.89 1121.67,1415.89 1132.25,1415.89 1142.84,1415.89 1153.42,1415.89 1164.01,1415.89 1174.59,1415.89 1185.18,1415.89 1195.77,1415.89 1206.35,1415.89 1216.94,1415.89 1227.52,1415.89 1238.11,1415.89 1248.69,1415.89 1259.28,1415.89 1269.86,1415.89 1280.45,1415.89 1291.03,1415.89 1301.62,1415.89 1312.21,1415.89 1322.79,1415.89 1333.38,1415.89 1343.96,1415.89 1354.55,1415.89 1365.13,1415.89 1375.72,1415.89 1386.3,1415.89 1396.89,1415.89 1407.47,1415.89 1418.06,1415.89 1428.65,1415.89 1439.23,1415.89 1449.82,1415.89 1460.4,1415.89 1470.99,1415.89 1481.57,1415.89 1492.16,1415.89 1502.74,1415.89 1513.33,1415.89 1523.91,1415.89 1534.5,1415.89 1545.09,1415.89 1555.67,1415.89 1566.26,1415.89 1576.84,1415.89 1587.43,1415.89 1598.01,1415.89 1608.6,1415.89 1619.18,1415.89 "/>
<polyline clip-path="url(#clip352)" style="stroke:#000000; stroke-linecap:round; stroke-linejoin:round; stroke-width:4; stroke-opacity:1; fill:none" points="256.836,1552.76 256.836,47.2441 "/>
<polyline clip-path="url(#clip352)" style="stroke:#000000; stroke-linecap:round; stroke-linejoin:round; stroke-width:4; stroke-opacity:1; fill:none" points="238.836,83.2441 256.836,47.2441 274.836,83.2441 "/>
<polyline clip-path="url(#clip352)" style="stroke:#000000; stroke-linecap:round; stroke-linejoin:round; stroke-width:4; stroke-opacity:1; fill:none" points="256.836,47.2441 256.836,1552.76 "/>
<polyline clip-path="url(#clip352)" style="stroke:#0000ff; stroke-linecap:round; stroke-linejoin:round; stroke-width:12; stroke-opacity:1; fill:none" points="571.224,906.07 581.81,903.962 592.395,901.783 602.98,899.535 613.566,897.217 624.151,894.829 634.737,892.371 645.322,889.844 655.908,887.246 666.493,884.579 677.079,881.842 687.664,879.035 698.249,876.158 708.835,873.212 719.42,870.196 730.006,867.11 740.591,863.954 751.177,860.728 761.762,857.432 772.348,854.067 782.933,850.632 793.519,847.127 804.104,843.552 814.689,839.907 825.275,836.192 835.86,832.408 846.446,828.554 857.031,824.63 867.617,820.636 878.202,816.573 888.788,812.439 899.373,808.236 909.959,803.963 920.544,799.62 931.129,795.207 941.715,790.725 952.3,786.172 962.886,781.55 973.471,776.858 984.057,772.096 994.642,767.264 1005.23,762.363 1015.81,757.392 1026.4,752.35 1036.98,747.239 1047.57,742.059 1058.15,736.808 1068.74,731.488 1079.33,726.097 1089.91,720.637 1100.5,715.108 1111.08,709.508 1121.67,703.838 1132.25,698.099 1142.84,692.29 1153.42,686.411 1164.01,680.462 1174.59,674.443 1185.18,668.355 1195.77,662.197 1206.35,655.968 1216.94,649.671 1227.52,643.303 1238.11,636.865 1248.69,630.358 1259.28,623.781 1269.86,617.134 1280.45,610.417 1291.03,603.63 1301.62,596.774 1312.21,589.847 1322.79,582.851 1333.38,575.785 1343.96,568.649 1354.55,561.444 1365.13,554.168 1375.72,546.823 1386.3,539.408 1396.89,531.923 1407.47,524.368 1418.06,516.744 1428.65,509.049 1439.23,501.285 1449.82,493.451 1460.4,485.547 1470.99,477.574 1481.57,469.53 1492.16,461.417 1502.74,453.234 1513.33,444.981 1523.91,436.658 1534.5,428.266 1545.09,419.803 1555.67,411.271 1566.26,402.669 1576.84,393.997 1587.43,385.255 1598.01,376.444 1608.6,367.562 1619.18,358.611 "/>
<circle clip-path="url(#clip352)" cx="1095.2" cy="717.881" r="14.4" fill="#000000" fill-rule="evenodd" fill-opacity="1" stroke="none"/>
<polyline clip-path="url(#clip352)" style="stroke:#000000; stroke-linecap:round; stroke-linejoin:round; stroke-width:4; stroke-opacity:1; fill:none" stroke-dasharray="16, 10" points="571.224,717.881 1619.18,717.881 "/>
<polyline clip-path="url(#clip352)" style="stroke:#000000; stroke-linecap:round; stroke-linejoin:round; stroke-width:4; stroke-opacity:1; fill:none" stroke-dasharray="16, 10" points="1095.2,1415.89 1095.2,717.881 "/>
<polyline clip-path="url(#clip352)" style="stroke:#000000; stroke-linecap:round; stroke-linejoin:round; stroke-width:4; stroke-opacity:1; fill:none" stroke-dasharray="16, 10" points="1619.18,1415.89 1619.18,358.611 "/>
<polyline clip-path="url(#clip352)" style="stroke:#000000; stroke-linecap:round; stroke-linejoin:round; stroke-width:4; stroke-opacity:1; fill:none" stroke-dasharray="16, 10" points="571.224,1415.89 571.224,717.881 "/>
<polyline clip-path="url(#clip352)" style="stroke:#000000; stroke-linecap:round; stroke-linejoin:round; stroke-width:4; stroke-opacity:1; fill:none" points="47.2441,1415.89 2352.76,1415.89 "/>
<polyline clip-path="url(#clip352)" style="stroke:#000000; stroke-linecap:round; stroke-linejoin:round; stroke-width:4; stroke-opacity:1; fill:none" points="2316.76,1397.89 2352.76,1415.89 2316.76,1433.89 "/>
<polyline clip-path="url(#clip352)" style="stroke:#000000; stroke-linecap:round; stroke-linejoin:round; stroke-width:4; stroke-opacity:1; fill:none" points="2352.76,1415.89 47.2441,1415.89 "/>
<path clip-path="url(#clip350)" d="M2366.62 1499.23 Q2366.62 1500.7 2365.93 1501.07 Q2365.25 1501.39 2363.35 1501.39 L2353.23 1501.39 L2345.22 1533.22 Q2344.59 1536.01 2344.59 1538.38 Q2344.59 1541.02 2345.38 1542.18 Q2346.22 1543.34 2347.96 1543.34 Q2351.39 1543.34 2355.08 1540.23 Q2358.82 1537.12 2361.98 1529.53 Q2362.4 1528.53 2362.61 1528.32 Q2362.88 1528.05 2363.56 1528.05 Q2364.88 1528.05 2364.88 1529.11 Q2364.88 1529.48 2364.14 1531.16 Q2363.46 1532.85 2361.93 1535.33 Q2360.45 1537.8 2358.5 1540.12 Q2356.61 1542.44 2353.71 1544.13 Q2350.81 1545.76 2347.7 1545.76 Q2343.33 1545.76 2340.53 1542.97 Q2337.79 1540.17 2337.79 1535.8 Q2337.79 1534.38 2338.9 1529.84 Q2340.01 1525.26 2346.01 1501.39 L2336.47 1501.39 Q2335.16 1501.39 2334.63 1501.33 Q2334.16 1501.28 2333.79 1501.02 Q2333.47 1500.7 2333.47 1500.07 Q2333.47 1499.07 2333.89 1498.65 Q2334.31 1498.17 2334.84 1498.12 Q2335.42 1498.01 2336.74 1498.01 L2346.86 1498.01 L2351.07 1480.89 Q2351.49 1479.2 2352.55 1478.25 Q2353.66 1477.25 2354.29 1477.14 Q2354.92 1476.99 2355.39 1476.99 Q2356.82 1476.99 2357.66 1477.78 Q2358.5 1478.51 2358.5 1479.88 Q2358.5 1480.62 2354.08 1498.01 L2363.56 1498.01 Q2364.77 1498.01 2365.25 1498.07 Q2365.78 1498.12 2366.2 1498.38 Q2366.62 1498.65 2366.62 1499.23 Z" fill="#000000" fill-rule="nonzero" fill-opacity="1" /><path clip-path="url(#clip350)" d="M196.627 30.0035 Q196.627 30.7413 196.152 32.4804 L185.823 73.6922 Q183.557 82.8621 176.179 89.2916 Q168.853 95.721 160.527 95.721 Q155.52 95.721 152.306 93.0333 Q149.091 90.3983 149.091 86.3403 Q149.091 82.7567 150.988 81.0176 Q152.885 79.3312 155.151 79.3312 Q155.889 79.3312 156.68 79.542 Q157.47 79.7528 158.313 80.6487 Q159.157 81.5446 159.157 83.0729 Q159.157 85.5498 156.996 87.4997 Q155.942 88.3957 154.941 88.6065 Q153.992 88.8173 152.358 88.8173 Q152.991 90.2929 154.15 91.2942 Q155.309 92.2955 156.627 92.6644 Q157.944 93.086 158.788 93.1914 Q159.684 93.3495 160.527 93.3495 Q167.272 93.3495 172.437 86.5511 Q173.965 84.4958 175.072 82.4405 Q176.232 80.4379 177.075 77.961 Q177.918 75.5367 178.287 74.2192 Q178.708 72.9017 179.446 69.8978 Q174.545 74.7989 168.537 74.7989 Q166.008 74.7989 163.742 74.1138 Q161.528 73.4287 159.578 72.0058 Q157.628 70.5302 156.469 67.9479 Q155.362 65.3655 155.362 61.94 Q155.362 58.3037 156.785 53.3498 Q158.208 48.396 161.633 39.2788 Q163.478 34.1668 163.478 31.6899 Q163.478 30.4778 163.215 29.74 Q162.951 28.9495 162.424 28.686 Q161.897 28.3698 161.581 28.3171 Q161.317 28.2644 160.79 28.2644 Q157.681 28.2644 154.782 31.4264 Q151.884 34.5884 149.881 41.6503 Q149.46 42.9678 149.196 43.284 Q148.933 43.6002 148.142 43.6002 Q146.825 43.5475 146.825 42.4935 Q146.825 42.0719 147.299 40.4382 Q147.773 38.7518 148.88 36.2749 Q150.039 33.7452 151.62 31.4791 Q153.201 29.1603 155.678 27.5266 Q158.208 25.8929 161.106 25.8929 Q165.059 25.8929 167.483 28.4752 Q169.96 31.0048 169.96 34.7465 Q169.96 36.2749 169.539 37.6451 Q169.17 38.9626 167.799 42.4935 Q162.266 56.7227 162.266 63.6791 Q162.266 65.3655 162.529 66.7885 Q162.846 68.1587 163.531 69.5289 Q164.216 70.8464 165.586 71.6369 Q167.009 72.3747 168.959 72.3747 Q171.436 72.3747 173.755 71.2153 Q176.126 70.0032 177.602 68.3695 Q179.13 66.7358 180.026 65.3655 Q180.975 63.9426 181.185 63.2048 L186.034 43.811 L188.195 35.1682 Q189.196 30.4778 189.67 29.3184 Q190.303 28.2117 191.409 27.632 Q192.516 27.0523 193.465 27.0523 Q194.782 27.0523 195.678 27.8428 Q196.627 28.6333 196.627 30.0035 Z" fill="#000000" fill-rule="nonzero" fill-opacity="1" /><path clip-path="url(#clip350)" d="M1405.95 259.636 Q1405.95 260.374 1405.47 262.113 L1395.14 303.324 Q1392.88 312.494 1385.5 318.924 Q1378.17 325.353 1369.85 325.353 Q1364.84 325.353 1361.63 322.666 Q1358.41 320.031 1358.41 315.973 Q1358.41 312.389 1360.31 310.65 Q1362.21 308.963 1364.47 308.963 Q1365.21 308.963 1366 309.174 Q1366.79 309.385 1367.63 310.281 Q1368.48 311.177 1368.48 312.705 Q1368.48 315.182 1366.32 317.132 Q1365.26 318.028 1364.26 318.239 Q1363.31 318.449 1361.68 318.449 Q1362.31 319.925 1363.47 320.926 Q1364.63 321.928 1365.95 322.297 Q1367.27 322.718 1368.11 322.824 Q1369 322.982 1369.85 322.982 Q1376.59 322.982 1381.76 316.183 Q1383.29 314.128 1384.39 312.073 Q1385.55 310.07 1386.4 307.593 Q1387.24 305.169 1387.61 303.851 Q1388.03 302.534 1388.77 299.53 Q1383.87 304.431 1377.86 304.431 Q1375.33 304.431 1373.06 303.746 Q1370.85 303.061 1368.9 301.638 Q1366.95 300.162 1365.79 297.58 Q1364.68 294.998 1364.68 291.572 Q1364.68 287.936 1366.11 282.982 Q1367.53 278.028 1370.95 268.911 Q1372.8 263.799 1372.8 261.322 Q1372.8 260.11 1372.54 259.372 Q1372.27 258.582 1371.74 258.318 Q1371.22 258.002 1370.9 257.949 Q1370.64 257.897 1370.11 257.897 Q1367 257.897 1364.1 261.059 Q1361.2 264.221 1359.2 271.283 Q1358.78 272.6 1358.52 272.916 Q1358.25 273.232 1357.46 273.232 Q1356.15 273.18 1356.15 272.126 Q1356.15 271.704 1356.62 270.07 Q1357.09 268.384 1358.2 265.907 Q1359.36 263.377 1360.94 261.111 Q1362.52 258.793 1365 257.159 Q1367.53 255.525 1370.43 255.525 Q1374.38 255.525 1376.8 258.107 Q1379.28 260.637 1379.28 264.379 Q1379.28 265.907 1378.86 267.277 Q1378.49 268.595 1377.12 272.126 Q1371.59 286.355 1371.59 293.311 Q1371.59 294.998 1371.85 296.421 Q1372.17 297.791 1372.85 299.161 Q1373.54 300.479 1374.91 301.269 Q1376.33 302.007 1378.28 302.007 Q1380.76 302.007 1383.08 300.848 Q1385.45 299.635 1386.92 298.002 Q1388.45 296.368 1389.35 294.998 Q1390.3 293.575 1390.51 292.837 L1395.35 273.443 L1397.52 264.8 Q1398.52 260.11 1398.99 258.951 Q1399.62 257.844 1400.73 257.264 Q1401.84 256.685 1402.79 256.685 Q1404.1 256.685 1405 257.475 Q1405.95 258.266 1405.95 259.636 Z" fill="#0000ff" fill-rule="nonzero" fill-opacity="1" /><path clip-path="url(#clip350)" d="M1438.44 286.829 Q1438.54 285.512 1440.6 285.512 L1506.74 285.512 Q1509.85 285.512 1509.9 286.724 Q1509.9 288.041 1506.95 287.989 L1441.34 287.989 Q1438.44 288.041 1438.44 286.829 M1438.44 265.749 Q1438.44 264.431 1440.7 264.484 L1506.63 264.484 Q1509.85 264.484 1509.9 265.749 Q1509.9 266.961 1507.16 266.961 L1440.6 266.961 Q1438.44 266.961 1438.44 265.749 Z" fill="#0000ff" fill-rule="nonzero" fill-opacity="1" /><path clip-path="url(#clip350)" d="M1601.06 260.584 Q1601.06 260.637 1600.75 262.534 L1588.73 310.439 Q1588.1 312.969 1586.31 315.498 Q1584.57 318.081 1581.77 320.294 Q1579.03 322.56 1574.82 323.93 Q1570.65 325.353 1565.86 325.353 Q1558.22 325.353 1554.84 323.72 Q1551.52 322.139 1551.52 318.766 Q1551.52 315.814 1553.37 314.128 Q1555.21 312.494 1557.32 312.494 Q1559.32 312.494 1560.38 313.654 Q1561.43 314.813 1561.43 316.289 Q1561.43 317.922 1560.32 319.556 Q1559.22 321.243 1557 321.875 Q1560.54 322.982 1565.65 322.982 Q1576.45 322.982 1581.09 311.546 Q1581.19 311.388 1581.19 311.335 L1584.78 297.053 L1584.62 296.948 Q1583.72 298.002 1582.3 299.214 Q1580.93 300.373 1577.98 301.796 Q1575.03 303.219 1572.13 303.219 Q1566.07 303.219 1561.91 298.581 Q1557.79 293.891 1557.79 286.144 Q1557.79 280.505 1560.06 274.866 Q1562.38 269.175 1565.96 265.011 Q1569.6 260.795 1574.24 258.16 Q1578.93 255.525 1583.46 255.525 Q1586.62 255.525 1589.31 257.422 Q1592 259.267 1593.47 262.323 Q1593.74 259.794 1595.16 258.74 Q1596.64 257.686 1597.9 257.686 Q1599.32 257.686 1600.17 258.476 Q1601.06 259.214 1601.06 260.584 M1592.21 267.172 Q1592.21 266.856 1592 266.012 Q1591.79 265.117 1591.15 263.694 Q1590.57 262.271 1589.68 261.006 Q1588.78 259.741 1587.15 258.845 Q1585.57 257.897 1583.57 257.897 Q1580.3 257.897 1577.03 260.637 Q1573.76 263.325 1571.5 267.488 Q1569.39 271.493 1567.39 279.24 Q1565.44 286.987 1565.44 290.94 Q1565.44 294.84 1567.12 297.844 Q1568.81 300.848 1572.45 300.848 Q1576.66 300.848 1581.19 296.948 Q1585.88 292.89 1586.67 289.412 L1591.89 268.806 Q1592.21 267.541 1592.21 267.172 Z" fill="#0000ff" fill-rule="nonzero" fill-opacity="1" /><path clip-path="url(#clip350)" d="M1615.86 276.236 Q1615.86 258.002 1622.65 243.299 Q1625.55 237.133 1629.61 231.968 Q1633.67 226.803 1636.36 224.537 Q1639.04 222.271 1639.78 222.271 Q1640.84 222.271 1640.89 223.325 Q1640.89 223.852 1639.47 225.17 Q1622.07 242.877 1622.13 276.236 Q1622.13 309.701 1639.04 326.723 Q1640.89 328.568 1640.89 329.148 Q1640.89 330.202 1639.78 330.202 Q1639.04 330.202 1636.46 328.041 Q1633.88 325.88 1629.87 320.926 Q1625.87 315.973 1622.97 309.912 Q1615.86 295.209 1615.86 276.236 Z" fill="#0000ff" fill-rule="nonzero" fill-opacity="1" /><path clip-path="url(#clip350)" d="M1682.24 257.897 Q1682.24 259.372 1681.55 259.741 Q1680.87 260.057 1678.97 260.057 L1668.85 260.057 L1660.84 291.888 Q1660.21 294.682 1660.21 297.053 Q1660.21 299.688 1661 300.848 Q1661.84 302.007 1663.58 302.007 Q1667.01 302.007 1670.7 298.898 Q1674.44 295.788 1677.6 288.199 Q1678.02 287.198 1678.23 286.987 Q1678.5 286.724 1679.18 286.724 Q1680.5 286.724 1680.5 287.778 Q1680.5 288.147 1679.76 289.833 Q1679.08 291.52 1677.55 293.996 Q1676.07 296.473 1674.12 298.792 Q1672.22 301.111 1669.33 302.797 Q1666.43 304.431 1663.32 304.431 Q1658.94 304.431 1656.15 301.638 Q1653.41 298.845 1653.41 294.471 Q1653.41 293.048 1654.52 288.516 Q1655.62 283.931 1661.63 260.057 L1652.09 260.057 Q1650.78 260.057 1650.25 260.005 Q1649.77 259.952 1649.4 259.688 Q1649.09 259.372 1649.09 258.74 Q1649.09 257.739 1649.51 257.317 Q1649.93 256.843 1650.46 256.79 Q1651.04 256.685 1652.36 256.685 L1662.47 256.685 L1666.69 239.557 Q1667.11 237.87 1668.17 236.922 Q1669.27 235.921 1669.91 235.815 Q1670.54 235.657 1671.01 235.657 Q1672.43 235.657 1673.28 236.448 Q1674.12 237.185 1674.12 238.556 Q1674.12 239.293 1669.69 256.685 L1679.18 256.685 Q1680.39 256.685 1680.87 256.737 Q1681.39 256.79 1681.82 257.053 Q1682.24 257.317 1682.24 257.897 Z" fill="#0000ff" fill-rule="nonzero" fill-opacity="1" /><path clip-path="url(#clip350)" d="M1690.68 329.148 Q1690.68 328.621 1692.05 327.303 Q1709.44 309.596 1709.44 276.236 Q1709.44 242.772 1692.74 225.855 Q1690.68 223.905 1690.68 223.325 Q1690.68 222.271 1691.74 222.271 Q1692.47 222.271 1695.06 224.432 Q1697.69 226.593 1701.64 231.546 Q1705.65 236.5 1708.6 242.561 Q1715.72 257.264 1715.72 276.236 Q1715.72 294.471 1708.92 309.174 Q1706.02 315.34 1701.96 320.505 Q1697.9 325.669 1695.22 327.936 Q1692.53 330.202 1691.74 330.202 Q1690.68 330.202 1690.68 329.148 Z" fill="#0000ff" fill-rule="nonzero" fill-opacity="1" /><path clip-path="url(#clip350)" d="M1847.13 264.221 Q1847.76 264.853 1847.76 265.749 Q1847.76 266.645 1847.13 267.277 Q1846.49 267.91 1845.6 267.91 L1789.47 267.91 Q1788.58 267.91 1787.94 267.277 Q1787.31 266.645 1787.31 265.749 Q1787.31 264.853 1787.94 264.221 Q1788.58 263.588 1789.47 263.588 L1845.6 263.588 Q1846.49 263.588 1847.13 264.221 M1847.13 285.195 Q1847.76 285.828 1847.76 286.724 Q1847.76 287.62 1847.13 288.252 Q1846.49 288.885 1845.6 288.885 L1789.47 288.885 Q1788.58 288.885 1787.94 288.252 Q1787.31 287.62 1787.31 286.724 Q1787.31 285.828 1787.94 285.195 Q1788.58 284.563 1789.47 284.563 L1845.6 284.563 Q1846.49 284.563 1847.13 285.195 M1771.76 259.372 Q1773.5 261.059 1773.5 263.377 Q1773.5 265.696 1771.76 267.435 Q1770.08 269.122 1767.76 269.122 Q1765.44 269.122 1763.75 267.435 Q1762.07 265.696 1762.07 263.377 Q1762.07 261.059 1763.75 259.372 Q1765.44 257.686 1767.76 257.686 Q1770.08 257.686 1771.76 259.372 M1771.76 285.09 Q1773.5 286.776 1773.5 289.095 Q1773.5 291.414 1771.76 293.101 Q1770.08 294.787 1767.76 294.787 Q1765.44 294.787 1763.75 293.101 Q1762.07 291.414 1762.07 289.095 Q1762.07 286.776 1763.75 285.09 Q1765.44 283.351 1767.76 283.351 Q1770.08 283.351 1771.76 285.09 Z" fill="#0000ff" fill-rule="nonzero" fill-opacity="1" /><path clip-path="url(#clip350)" d="M1942.63 234.55 Q1942.63 237.449 1940.79 239.241 Q1939 241.032 1936.73 241.032 Q1935.1 241.032 1933.89 240.031 Q1932.73 239.03 1932.73 237.291 Q1932.73 235.499 1934.1 233.602 Q1935.47 231.704 1938.58 231.441 Q1936.52 229.491 1933.25 229.491 Q1931.62 229.491 1930.25 230.545 Q1928.93 231.546 1928.19 233.18 Q1927.4 234.866 1925.61 244.405 Q1925.03 247.515 1924.51 250.519 Q1923.98 253.522 1923.35 256.685 L1932.31 256.685 Q1933.46 256.685 1933.94 256.737 Q1934.41 256.79 1934.78 257.053 Q1935.2 257.317 1935.2 257.897 Q1935.2 259.372 1934.52 259.741 Q1933.89 260.057 1931.99 260.057 L1922.71 260.057 L1916.23 294.26 Q1916.07 295.261 1915.39 298.423 Q1914.76 301.533 1913.23 306.645 Q1911.7 311.809 1910.17 314.866 Q1909.33 316.605 1908.22 318.239 Q1907.17 319.925 1905.64 321.612 Q1904.11 323.298 1902.11 324.299 Q1900.11 325.353 1898 325.353 Q1894.41 325.353 1891.62 323.351 Q1888.83 321.348 1888.83 317.922 Q1888.83 315.024 1890.62 313.232 Q1892.46 311.44 1894.73 311.44 Q1896.36 311.44 1897.52 312.442 Q1898.73 313.443 1898.73 315.182 Q1898.73 315.92 1898.47 316.763 Q1898.21 317.606 1897.63 318.555 Q1897.05 319.556 1895.78 320.241 Q1894.52 320.926 1892.78 321.032 Q1894.84 322.982 1898 322.982 Q1899 322.982 1899.89 322.56 Q1900.79 322.191 1901.53 321.243 Q1902.32 320.294 1902.9 319.345 Q1903.48 318.449 1904.06 316.71 Q1904.64 315.024 1905.01 313.759 Q1905.38 312.494 1905.85 310.228 Q1906.38 307.962 1906.64 306.592 Q1906.9 305.274 1907.38 302.692 L1915.44 260.057 L1908.33 260.057 Q1907.06 260.057 1906.53 260.005 Q1906.06 259.952 1905.69 259.688 Q1905.32 259.372 1905.32 258.74 Q1905.32 257.739 1905.74 257.317 Q1906.22 256.843 1906.75 256.79 Q1907.27 256.685 1908.54 256.685 L1916.02 256.685 Q1918.55 243.351 1919.55 239.768 Q1920.71 235.973 1922.5 233.338 Q1924.29 230.65 1926.3 229.386 Q1928.3 228.121 1929.93 227.647 Q1931.62 227.12 1933.25 227.12 Q1936.94 227.12 1939.79 229.122 Q1942.63 231.072 1942.63 234.55 Z" fill="#0000ff" fill-rule="nonzero" fill-opacity="1" /><path clip-path="url(#clip350)" d="M1957.16 276.236 Q1957.16 258.002 1963.96 243.299 Q1966.86 237.133 1970.92 231.968 Q1974.97 226.803 1977.66 224.537 Q1980.35 222.271 1981.09 222.271 Q1982.14 222.271 1982.19 223.325 Q1982.19 223.852 1980.77 225.17 Q1963.38 242.877 1963.43 276.236 Q1963.43 309.701 1980.35 326.723 Q1982.19 328.568 1982.19 329.148 Q1982.19 330.202 1981.09 330.202 Q1980.35 330.202 1977.77 328.041 Q1975.18 325.88 1971.18 320.926 Q1967.17 315.973 1964.27 309.912 Q1957.16 295.209 1957.16 276.236 Z" fill="#0000ff" fill-rule="nonzero" fill-opacity="1" /><path clip-path="url(#clip350)" d="M2023.54 257.897 Q2023.54 259.372 2022.86 259.741 Q2022.17 260.057 2020.27 260.057 L2010.16 260.057 L2002.15 291.888 Q2001.51 294.682 2001.51 297.053 Q2001.51 299.688 2002.3 300.848 Q2003.15 302.007 2004.89 302.007 Q2008.31 302.007 2012 298.898 Q2015.74 295.788 2018.9 288.199 Q2019.33 287.198 2019.54 286.987 Q2019.8 286.724 2020.49 286.724 Q2021.8 286.724 2021.8 287.778 Q2021.8 288.147 2021.07 289.833 Q2020.38 291.52 2018.85 293.996 Q2017.38 296.473 2015.43 298.792 Q2013.53 301.111 2010.63 302.797 Q2007.73 304.431 2004.62 304.431 Q2000.25 304.431 1997.46 301.638 Q1994.71 298.845 1994.71 294.471 Q1994.71 293.048 1995.82 288.516 Q1996.93 283.931 2002.94 260.057 L1993.4 260.057 Q1992.08 260.057 1991.55 260.005 Q1991.08 259.952 1990.71 259.688 Q1990.39 259.372 1990.39 258.74 Q1990.39 257.739 1990.82 257.317 Q1991.24 256.843 1991.76 256.79 Q1992.34 256.685 1993.66 256.685 L2003.78 256.685 L2008 239.557 Q2008.42 237.87 2009.47 236.922 Q2010.58 235.921 2011.21 235.815 Q2011.84 235.657 2012.32 235.657 Q2013.74 235.657 2014.58 236.448 Q2015.43 237.185 2015.43 238.556 Q2015.43 239.293 2011 256.685 L2020.49 256.685 Q2021.7 256.685 2022.17 256.737 Q2022.7 256.79 2023.12 257.053 Q2023.54 257.317 2023.54 257.897 Z" fill="#0000ff" fill-rule="nonzero" fill-opacity="1" /><path clip-path="url(#clip350)" d="M2030.49 301.48 Q2028.96 299.741 2028.96 297.475 Q2028.96 295.209 2030.44 293.522 Q2031.97 291.783 2034.71 291.783 Q2037.92 291.783 2039.77 294.892 Q2041.61 297.949 2041.61 303.114 Q2041.61 308.7 2039.35 313.865 Q2037.08 319.082 2034.87 321.559 Q2032.65 324.036 2031.76 324.036 Q2030.7 324.036 2030.7 322.876 Q2030.7 322.455 2031.44 321.664 Q2039.19 313.338 2039.24 303.114 Q2039.24 301.48 2039.03 301.48 L2038.77 301.691 Q2036.92 303.219 2034.71 303.219 Q2032.02 303.219 2030.49 301.48 Z" fill="#0000ff" fill-rule="nonzero" fill-opacity="1" /><path clip-path="url(#clip350)" d="M2129.42 262.64 Q2129.42 265.591 2127.58 267.277 Q2125.73 268.911 2123.62 268.911 Q2121.62 268.911 2120.57 267.752 Q2119.51 266.592 2119.51 265.117 Q2119.51 263.114 2120.99 261.375 Q2122.47 259.636 2124.68 259.267 Q2122.52 257.897 2119.3 257.897 Q2117.2 257.897 2115.35 259.003 Q2113.56 260.11 2112.45 261.533 Q2111.4 262.956 2110.45 265.011 Q2109.55 267.014 2109.18 268.226 Q2108.87 269.385 2108.61 270.65 L2104.92 285.406 Q2103.12 292.415 2103.12 294.892 Q2103.12 297.949 2104.6 300.004 Q2106.08 302.007 2109.03 302.007 Q2110.19 302.007 2111.5 301.691 Q2112.82 301.322 2114.51 300.373 Q2116.25 299.372 2117.77 297.896 Q2119.36 296.368 2120.88 293.786 Q2122.41 291.203 2123.41 287.883 Q2123.73 286.724 2124.78 286.724 Q2126.1 286.724 2126.1 287.778 Q2126.1 288.674 2125.36 290.571 Q2124.68 292.415 2123.15 294.84 Q2121.67 297.211 2119.72 299.372 Q2117.77 301.48 2114.88 302.956 Q2111.98 304.431 2108.82 304.431 Q2104.28 304.431 2101.28 302.007 Q2098.28 299.583 2097.17 296.21 Q2096.91 296.684 2096.54 297.317 Q2096.17 297.949 2095.06 299.372 Q2094.01 300.742 2092.79 301.796 Q2091.58 302.797 2089.69 303.588 Q2087.84 304.431 2085.84 304.431 Q2083.31 304.431 2081.04 303.693 Q2078.83 302.956 2077.25 301.269 Q2075.67 299.583 2075.67 297.264 Q2075.67 294.682 2077.41 292.89 Q2079.2 291.045 2081.62 291.045 Q2083.15 291.045 2084.36 291.941 Q2085.63 292.837 2085.63 294.787 Q2085.63 296.948 2084.15 298.581 Q2082.68 300.215 2080.57 300.637 Q2082.73 302.007 2085.94 302.007 Q2089.42 302.007 2092.16 298.95 Q2094.9 295.894 2096.22 290.782 Q2099.49 278.503 2100.75 273.022 Q2102.02 267.488 2102.02 265.117 Q2102.02 262.903 2101.44 261.375 Q2100.86 259.847 2099.86 259.161 Q2098.91 258.424 2098.01 258.16 Q2097.17 257.897 2096.22 257.897 Q2094.64 257.897 2092.85 258.529 Q2091.11 259.161 2089 260.637 Q2086.95 262.06 2085 265.011 Q2083.05 267.962 2081.73 272.02 Q2081.46 273.232 2080.3 273.232 Q2079.04 273.18 2079.04 272.126 Q2079.04 271.23 2079.73 269.385 Q2080.46 267.488 2081.94 265.117 Q2083.47 262.745 2085.42 260.637 Q2087.42 258.476 2090.32 257.001 Q2093.27 255.525 2096.43 255.525 Q2097.85 255.525 2099.22 255.841 Q2100.65 256.105 2102.33 256.895 Q2104.07 257.686 2105.6 259.425 Q2107.13 261.164 2108.08 263.694 Q2108.71 262.482 2109.55 261.322 Q2110.45 260.163 2111.82 258.74 Q2113.24 257.264 2115.19 256.421 Q2117.2 255.525 2119.41 255.525 Q2121.57 255.525 2123.68 256.105 Q2125.79 256.632 2127.58 258.371 Q2129.42 260.057 2129.42 262.64 Z" fill="#0000ff" fill-rule="nonzero" fill-opacity="1" /><path clip-path="url(#clip350)" d="M2143.7 276.236 Q2143.7 258.002 2150.5 243.299 Q2153.39 237.133 2157.45 231.968 Q2161.51 226.803 2164.2 224.537 Q2166.89 222.271 2167.62 222.271 Q2168.68 222.271 2168.73 223.325 Q2168.73 223.852 2167.31 225.17 Q2149.92 242.877 2149.97 276.236 Q2149.97 309.701 2166.89 326.723 Q2168.73 328.568 2168.73 329.148 Q2168.73 330.202 2167.62 330.202 Q2166.89 330.202 2164.3 328.041 Q2161.72 325.88 2157.72 320.926 Q2153.71 315.973 2150.81 309.912 Q2143.7 295.209 2143.7 276.236 Z" fill="#0000ff" fill-rule="nonzero" fill-opacity="1" /><path clip-path="url(#clip350)" d="M2210.08 257.897 Q2210.08 259.372 2209.39 259.741 Q2208.71 260.057 2206.81 260.057 L2196.69 260.057 L2188.68 291.888 Q2188.05 294.682 2188.05 297.053 Q2188.05 299.688 2188.84 300.848 Q2189.68 302.007 2191.42 302.007 Q2194.85 302.007 2198.54 298.898 Q2202.28 295.788 2205.44 288.199 Q2205.86 287.198 2206.07 286.987 Q2206.34 286.724 2207.02 286.724 Q2208.34 286.724 2208.34 287.778 Q2208.34 288.147 2207.6 289.833 Q2206.92 291.52 2205.39 293.996 Q2203.91 296.473 2201.96 298.792 Q2200.07 301.111 2197.17 302.797 Q2194.27 304.431 2191.16 304.431 Q2186.78 304.431 2183.99 301.638 Q2181.25 298.845 2181.25 294.471 Q2181.25 293.048 2182.36 288.516 Q2183.46 283.931 2189.47 260.057 L2179.93 260.057 Q2178.62 260.057 2178.09 260.005 Q2177.61 259.952 2177.25 259.688 Q2176.93 259.372 2176.93 258.74 Q2176.93 257.739 2177.35 257.317 Q2177.77 256.843 2178.3 256.79 Q2178.88 256.685 2180.2 256.685 L2190.32 256.685 L2194.53 239.557 Q2194.95 237.87 2196.01 236.922 Q2197.11 235.921 2197.75 235.815 Q2198.38 235.657 2198.85 235.657 Q2200.28 235.657 2201.12 236.448 Q2201.96 237.185 2201.96 238.556 Q2201.96 239.293 2197.54 256.685 L2207.02 256.685 Q2208.23 256.685 2208.71 256.737 Q2209.24 256.79 2209.66 257.053 Q2210.08 257.317 2210.08 257.897 Z" fill="#0000ff" fill-rule="nonzero" fill-opacity="1" /><path clip-path="url(#clip350)" d="M2218.52 329.148 Q2218.52 328.621 2219.89 327.303 Q2237.29 309.596 2237.29 276.236 Q2237.29 242.772 2220.58 225.855 Q2218.52 223.905 2218.52 223.325 Q2218.52 222.271 2219.58 222.271 Q2220.32 222.271 2222.9 224.432 Q2225.53 226.593 2229.49 231.546 Q2233.49 236.5 2236.44 242.561 Q2243.56 257.264 2243.56 276.236 Q2243.56 294.471 2236.76 309.174 Q2233.86 315.34 2229.8 320.505 Q2225.74 325.669 2223.06 327.936 Q2220.37 330.202 2219.58 330.202 Q2218.52 330.202 2218.52 329.148 Z" fill="#0000ff" fill-rule="nonzero" fill-opacity="1" /><path clip-path="url(#clip350)" d="M2259.97 329.148 Q2259.97 328.621 2261.34 327.303 Q2278.73 309.596 2278.73 276.236 Q2278.73 242.772 2262.02 225.855 Q2259.97 223.905 2259.97 223.325 Q2259.97 222.271 2261.02 222.271 Q2261.76 222.271 2264.34 224.432 Q2266.97 226.593 2270.93 231.546 Q2274.93 236.5 2277.88 242.561 Q2285 257.264 2285 276.236 Q2285 294.471 2278.2 309.174 Q2275.3 315.34 2271.24 320.505 Q2267.19 325.669 2264.5 327.936 Q2261.81 330.202 2261.02 330.202 Q2259.97 330.202 2259.97 329.148 Z" fill="#0000ff" fill-rule="nonzero" fill-opacity="1" /><path clip-path="url(#clip350)" d="M566.557 1483.96 Q566.557 1485.44 565.871 1485.81 Q565.186 1486.12 563.289 1486.12 L553.171 1486.12 L545.16 1517.96 Q544.528 1520.75 544.528 1523.12 Q544.528 1525.75 545.318 1526.91 Q546.161 1528.07 547.901 1528.07 Q551.326 1528.07 555.015 1524.96 Q558.757 1521.86 561.919 1514.27 Q562.341 1513.26 562.551 1513.05 Q562.815 1512.79 563.5 1512.79 Q564.817 1512.79 564.817 1513.84 Q564.817 1514.21 564.08 1515.9 Q563.395 1517.59 561.866 1520.06 Q560.391 1522.54 558.441 1524.86 Q556.543 1527.18 553.645 1528.86 Q550.746 1530.5 547.637 1530.5 Q543.263 1530.5 540.47 1527.7 Q537.729 1524.91 537.729 1520.54 Q537.729 1519.11 538.836 1514.58 Q539.943 1510 545.951 1486.12 L536.412 1486.12 Q535.094 1486.12 534.567 1486.07 Q534.093 1486.02 533.724 1485.76 Q533.408 1485.44 533.408 1484.81 Q533.408 1483.81 533.83 1483.38 Q534.251 1482.91 534.778 1482.86 Q535.358 1482.75 536.675 1482.75 L546.794 1482.75 L551.01 1465.62 Q551.432 1463.94 552.486 1462.99 Q553.592 1461.99 554.225 1461.88 Q554.857 1461.72 555.331 1461.72 Q556.754 1461.72 557.597 1462.51 Q558.441 1463.25 558.441 1464.62 Q558.441 1465.36 554.014 1482.75 L563.5 1482.75 Q564.712 1482.75 565.186 1482.8 Q565.713 1482.86 566.135 1483.12 Q566.557 1483.38 566.557 1483.96 Z" fill="#000000" fill-rule="nonzero" fill-opacity="1" /><path clip-path="url(#clip350)" d="M597.05 1512.95 Q597.05 1514.57 595.722 1515.79 Q594.431 1516.97 593.029 1516.97 Q591.738 1516.97 590.926 1516.2 Q590.151 1515.39 590.151 1514.24 Q590.151 1512.73 591.442 1511.48 Q592.734 1510.22 594.246 1510.22 Q595.5 1510.22 596.275 1511 Q597.05 1511.77 597.05 1512.95 M597.714 1549.36 Q597.714 1549.66 597.382 1550.84 Q597.05 1551.98 596.238 1553.75 Q595.463 1555.49 594.394 1557.11 Q593.324 1558.73 591.553 1559.88 Q589.819 1561.02 587.827 1561.02 Q585.134 1561.02 583.363 1559.25 Q581.63 1557.48 581.63 1554.82 Q581.63 1553.38 583.363 1548.77 Q588.381 1535.34 588.565 1534.79 Q589.413 1532.69 589.413 1530.84 Q589.413 1529.99 589.229 1529.48 Q589.045 1528.93 588.676 1528.74 Q588.307 1528.52 588.085 1528.48 Q587.901 1528.45 587.532 1528.45 Q585.355 1528.45 583.327 1530.66 Q581.298 1532.87 579.896 1537.82 Q579.601 1538.74 579.416 1538.96 Q579.232 1539.18 578.678 1539.18 Q577.756 1539.14 577.756 1538.41 Q577.756 1538.18 578.014 1537.34 Q578.273 1536.45 578.752 1535.12 Q579.232 1533.76 580.08 1532.36 Q580.929 1530.92 581.962 1529.66 Q583.031 1528.41 584.544 1527.6 Q586.056 1526.79 587.753 1526.79 Q590.52 1526.79 592.217 1528.59 Q593.951 1530.36 593.951 1532.98 Q593.951 1534.42 592.955 1536.97 Q591.738 1540.29 591.295 1541.36 L588.344 1549.29 Q587.274 1552.17 586.942 1553.05 Q586.647 1553.9 586.388 1554.93 Q586.167 1555.93 586.167 1556.85 Q586.167 1558.14 586.573 1558.73 Q587.016 1559.32 587.975 1559.32 Q590.631 1559.32 592.586 1556.7 Q594.541 1554.05 595.685 1549.99 Q595.722 1549.88 595.759 1549.69 Q596.054 1548.77 596.349 1548.66 Q596.496 1548.62 596.792 1548.62 Q597.714 1548.62 597.714 1549.36 Z" fill="#000000" fill-rule="nonzero" fill-opacity="1" /><path clip-path="url(#clip350)" d="M957.339 1495.2 Q957.339 1496.35 956.807 1496.63 Q956.274 1496.88 954.798 1496.88 L946.928 1496.88 L940.698 1521.64 Q940.206 1523.81 940.206 1525.65 Q940.206 1527.7 940.821 1528.61 Q941.477 1529.51 942.829 1529.51 Q945.494 1529.51 948.363 1527.09 Q951.273 1524.67 953.732 1518.77 Q954.06 1517.99 954.224 1517.83 Q954.429 1517.62 954.962 1517.62 Q955.987 1517.62 955.987 1518.44 Q955.987 1518.73 955.413 1520.04 Q954.88 1521.35 953.691 1523.28 Q952.544 1525.2 951.027 1527.01 Q949.552 1528.81 947.297 1530.12 Q945.043 1531.39 942.624 1531.39 Q939.222 1531.39 937.05 1529.22 Q934.918 1527.05 934.918 1523.65 Q934.918 1522.54 935.779 1519.01 Q936.64 1515.45 941.313 1496.88 L933.894 1496.88 Q932.869 1496.88 932.459 1496.84 Q932.09 1496.8 931.803 1496.59 Q931.557 1496.35 931.557 1495.85 Q931.557 1495.08 931.885 1494.75 Q932.213 1494.38 932.623 1494.34 Q933.074 1494.26 934.099 1494.26 L941.968 1494.26 L945.248 1480.93 Q945.576 1479.62 946.395 1478.89 Q947.256 1478.11 947.748 1478.02 Q948.24 1477.9 948.609 1477.9 Q949.715 1477.9 950.371 1478.52 Q951.027 1479.09 951.027 1480.16 Q951.027 1480.73 947.584 1494.26 L954.962 1494.26 Q955.905 1494.26 956.274 1494.3 Q956.684 1494.34 957.012 1494.54 Q957.339 1494.75 957.339 1495.2 Z" fill="#000000" fill-rule="nonzero" fill-opacity="1" /><path clip-path="url(#clip350)" d="M981.055 1517.75 Q981.055 1519.01 980.022 1519.96 Q979.017 1520.88 977.927 1520.88 Q976.923 1520.88 976.292 1520.27 Q975.689 1519.64 975.689 1518.75 Q975.689 1517.58 976.693 1516.6 Q977.698 1515.62 978.874 1515.62 Q979.85 1515.62 980.452 1516.23 Q981.055 1516.83 981.055 1517.75 M981.571 1546.07 Q981.571 1546.3 981.313 1547.22 Q981.055 1548.1 980.423 1549.48 Q979.821 1550.83 978.989 1552.09 Q978.157 1553.36 976.779 1554.24 Q975.431 1555.13 973.882 1555.13 Q971.787 1555.13 970.41 1553.76 Q969.061 1552.38 969.061 1550.31 Q969.061 1549.19 970.41 1545.61 Q974.312 1535.16 974.455 1534.73 Q975.115 1533.1 975.115 1531.66 Q975.115 1531 974.972 1530.6 Q974.828 1530.17 974.541 1530.03 Q974.255 1529.86 974.082 1529.83 Q973.939 1529.8 973.652 1529.8 Q971.959 1529.8 970.381 1531.52 Q968.803 1533.24 967.713 1537.09 Q967.483 1537.8 967.34 1537.98 Q967.196 1538.15 966.766 1538.15 Q966.048 1538.12 966.048 1537.55 Q966.048 1537.37 966.249 1536.71 Q966.45 1536.03 966.823 1534.99 Q967.196 1533.93 967.856 1532.84 Q968.516 1531.72 969.319 1530.75 Q970.151 1529.77 971.328 1529.14 Q972.504 1528.51 973.824 1528.51 Q975.976 1528.51 977.296 1529.91 Q978.644 1531.29 978.644 1533.33 Q978.644 1534.45 977.87 1536.43 Q976.923 1539.01 976.579 1539.84 L974.283 1546.01 Q973.451 1548.25 973.193 1548.94 Q972.963 1549.6 972.763 1550.4 Q972.59 1551.17 972.59 1551.89 Q972.59 1552.9 972.906 1553.36 Q973.25 1553.81 973.996 1553.81 Q976.062 1553.81 977.583 1551.78 Q979.104 1549.71 979.993 1546.56 Q980.022 1546.47 980.05 1546.33 Q980.28 1545.61 980.509 1545.52 Q980.624 1545.49 980.854 1545.49 Q981.571 1545.49 981.571 1546.07 Z" fill="#000000" fill-rule="nonzero" fill-opacity="1" /><path clip-path="url(#clip350)" d="M1015.59 1510.49 Q1013.67 1510.49 1013.67 1509.46 Q1013.67 1508.44 1015.67 1508.44 Q1015.92 1508.44 1016.33 1508.48 Q1016.78 1508.52 1016.86 1508.52 L1040.51 1508.52 L1040.51 1484.79 Q1040.51 1484.71 1040.47 1484.34 Q1040.43 1483.93 1040.43 1483.68 Q1040.43 1481.67 1041.42 1481.67 Q1042.44 1481.67 1042.44 1483.68 L1042.44 1508.52 L1066.13 1508.52 Q1066.21 1508.52 1066.62 1508.48 Q1067.03 1508.44 1067.28 1508.44 Q1069.21 1508.44 1069.21 1509.46 Q1069.25 1510.49 1067.2 1510.49 Q1066.95 1510.49 1066.58 1510.45 Q1066.21 1510.41 1066.13 1510.41 L1042.44 1510.41 L1042.44 1535.33 Q1042.44 1537.25 1041.42 1537.25 Q1040.43 1537.25 1040.43 1535.25 Q1040.43 1535 1040.47 1534.59 Q1040.51 1534.22 1040.51 1534.14 L1040.51 1510.41 L1016.86 1510.41 Q1016.78 1510.41 1016.29 1510.45 Q1015.84 1510.49 1015.59 1510.49 Z" fill="#000000" fill-rule="nonzero" fill-opacity="1" /><path clip-path="url(#clip350)" d="M1142.82 1518.44 Q1142.82 1518.77 1142.45 1520.04 Q1142.08 1521.31 1141.18 1523.28 Q1140.32 1525.24 1139.13 1527.05 Q1137.94 1528.81 1135.98 1530.12 Q1134.05 1531.39 1131.84 1531.39 Q1128.88 1531.39 1126.92 1529.43 Q1124.95 1527.46 1124.95 1524.51 Q1124.95 1524.1 1124.99 1523.69 Q1125.03 1523.28 1125.07 1523.03 Q1125.11 1522.74 1125.24 1522.29 Q1125.4 1521.8 1125.44 1521.6 Q1125.52 1521.39 1125.73 1520.78 Q1125.97 1520.12 1126.06 1519.87 Q1131.26 1506.59 1131.26 1501.06 Q1131.26 1495.2 1126.71 1495.2 Q1122.65 1495.2 1118.64 1498.15 Q1116.79 1499.63 1115.03 1502.25 Q1113.27 1504.87 1112.94 1505.86 Q1112.57 1507.99 1112.04 1509.63 Q1111.79 1510.78 1110.6 1515.24 L1108.76 1522.83 L1107.16 1529.18 Q1106.83 1530.08 1105.93 1530.74 Q1105.03 1531.39 1104.04 1531.39 Q1103.22 1531.39 1102.4 1530.82 Q1101.63 1530.29 1101.63 1529.02 Q1101.63 1528.36 1101.95 1527.17 L1114.13 1478.8 L1114.37 1477.16 Q1114.37 1476.67 1114.17 1476.43 Q1114 1476.14 1113.02 1475.93 Q1112.08 1475.73 1110.19 1475.73 Q1109.41 1475.73 1109.05 1475.69 Q1108.72 1475.65 1108.43 1475.44 Q1108.14 1475.2 1108.14 1474.7 Q1108.14 1474.01 1108.43 1473.64 Q1108.76 1473.23 1109 1473.15 Q1109.25 1473.06 1109.74 1473.02 Q1110.44 1472.98 1112.78 1472.78 Q1115.11 1472.53 1117.12 1472.37 Q1119.13 1472.2 1119.99 1472.2 Q1120.48 1472.2 1120.73 1472.45 Q1121.01 1472.66 1121.06 1472.9 L1121.1 1473.11 L1114.54 1499.79 Q1119.74 1493.35 1126.96 1493.35 Q1131.63 1493.35 1134.13 1495.77 Q1136.63 1498.15 1136.63 1502.33 Q1136.63 1507.13 1131.51 1520.78 Q1129.99 1524.59 1129.99 1526.76 Q1129.99 1528.2 1130.44 1528.85 Q1130.93 1529.51 1132 1529.51 Q1133.64 1529.51 1135.07 1528.56 Q1136.55 1527.58 1137.57 1525.98 Q1138.6 1524.34 1139.3 1522.7 Q1140.03 1521.02 1140.57 1519.14 Q1140.89 1518.11 1141.06 1517.87 Q1141.26 1517.62 1141.84 1517.62 Q1142.82 1517.62 1142.82 1518.44 Z" fill="#000000" fill-rule="nonzero" fill-opacity="1" /><path clip-path="url(#clip350)" d="M1166.39 1517.75 Q1166.39 1519.01 1165.36 1519.96 Q1164.35 1520.88 1163.26 1520.88 Q1162.26 1520.88 1161.63 1520.27 Q1161.02 1519.64 1161.02 1518.75 Q1161.02 1517.58 1162.03 1516.6 Q1163.03 1515.62 1164.21 1515.62 Q1165.18 1515.62 1165.79 1516.23 Q1166.39 1516.83 1166.39 1517.75 M1166.91 1546.07 Q1166.91 1546.3 1166.65 1547.22 Q1166.39 1548.1 1165.76 1549.48 Q1165.16 1550.83 1164.32 1552.09 Q1163.49 1553.36 1162.11 1554.24 Q1160.77 1555.13 1159.22 1555.13 Q1157.12 1555.13 1155.74 1553.76 Q1154.4 1552.38 1154.4 1550.31 Q1154.4 1549.19 1155.74 1545.61 Q1159.65 1535.16 1159.79 1534.73 Q1160.45 1533.1 1160.45 1531.66 Q1160.45 1531 1160.31 1530.6 Q1160.16 1530.17 1159.88 1530.03 Q1159.59 1529.86 1159.42 1529.83 Q1159.27 1529.8 1158.99 1529.8 Q1157.29 1529.8 1155.72 1531.52 Q1154.14 1533.24 1153.05 1537.09 Q1152.82 1537.8 1152.67 1537.98 Q1152.53 1538.15 1152.1 1538.15 Q1151.38 1538.12 1151.38 1537.55 Q1151.38 1537.37 1151.58 1536.71 Q1151.78 1536.03 1152.16 1534.99 Q1152.53 1533.93 1153.19 1532.84 Q1153.85 1531.72 1154.65 1530.75 Q1155.49 1529.77 1156.66 1529.14 Q1157.84 1528.51 1159.16 1528.51 Q1161.31 1528.51 1162.63 1529.91 Q1163.98 1531.29 1163.98 1533.33 Q1163.98 1534.45 1163.2 1536.43 Q1162.26 1539.01 1161.91 1539.84 L1159.62 1546.01 Q1158.79 1548.25 1158.53 1548.94 Q1158.3 1549.6 1158.1 1550.4 Q1157.92 1551.17 1157.92 1551.89 Q1157.92 1552.9 1158.24 1553.36 Q1158.58 1553.81 1159.33 1553.81 Q1161.4 1553.81 1162.92 1551.78 Q1164.44 1549.71 1165.33 1546.56 Q1165.36 1546.47 1165.38 1546.33 Q1165.61 1545.61 1165.84 1545.52 Q1165.96 1545.49 1166.19 1545.49 Q1166.91 1545.49 1166.91 1546.07 Z" fill="#000000" fill-rule="nonzero" fill-opacity="1" /><path clip-path="url(#clip350)" d="M1175.71 1550.25 Q1175.71 1549.84 1176.04 1548.94 L1205.67 1469.74 Q1205.67 1469.66 1205.88 1469.21 Q1206.08 1468.76 1206.21 1468.47 Q1206.33 1468.15 1206.58 1467.9 Q1206.86 1467.65 1207.19 1467.65 Q1208.01 1467.65 1208.01 1468.68 Q1208.01 1468.76 1207.76 1469.74 L1178.05 1549.02 Q1177.55 1550.45 1177.23 1550.86 Q1176.94 1551.27 1176.45 1551.27 Q1175.71 1551.27 1175.71 1550.25 Z" fill="#000000" fill-rule="nonzero" fill-opacity="1" /><path clip-path="url(#clip350)" d="M1217.28 1530.45 Q1217.28 1528.93 1217.4 1528.48 Q1217.57 1528.03 1218.22 1527.33 L1234.33 1509.38 Q1243.14 1499.46 1243.14 1490.81 Q1243.14 1485.2 1240.19 1481.18 Q1237.28 1477.16 1231.91 1477.16 Q1228.22 1477.16 1225.11 1479.42 Q1221.99 1481.67 1220.56 1485.69 Q1220.81 1485.61 1221.67 1485.61 Q1223.76 1485.61 1224.9 1486.92 Q1226.09 1488.23 1226.09 1489.99 Q1226.09 1492.25 1224.62 1493.35 Q1223.18 1494.42 1221.75 1494.42 Q1221.17 1494.42 1220.4 1494.3 Q1219.66 1494.17 1218.47 1493.03 Q1217.28 1491.84 1217.28 1489.75 Q1217.28 1483.89 1221.71 1479.21 Q1226.18 1474.54 1232.98 1474.54 Q1240.69 1474.54 1245.73 1479.13 Q1250.81 1483.68 1250.81 1490.81 Q1250.81 1493.31 1250.03 1495.61 Q1249.29 1497.86 1248.27 1499.63 Q1247.28 1501.39 1244.58 1504.22 Q1241.87 1507.05 1239.7 1509.05 Q1237.53 1511.06 1232.65 1515.32 L1223.76 1523.97 L1238.88 1523.97 Q1246.26 1523.97 1246.83 1523.32 Q1247.65 1522.13 1248.68 1515.86 L1250.81 1515.86 L1248.43 1530.45 L1217.28 1530.45 Z" fill="#000000" fill-rule="nonzero" fill-opacity="1" /><path clip-path="url(#clip350)" d="M1495.37 1487.6 Q1495.37 1489.07 1494.69 1489.44 Q1494 1489.76 1492.11 1489.76 L1481.99 1489.76 L1473.98 1521.59 Q1473.34 1524.38 1473.34 1526.75 Q1473.34 1529.39 1474.14 1530.55 Q1474.98 1531.71 1476.72 1531.71 Q1480.14 1531.71 1483.83 1528.6 Q1487.57 1525.49 1490.74 1517.9 Q1491.16 1516.9 1491.37 1516.69 Q1491.63 1516.42 1492.32 1516.42 Q1493.63 1516.42 1493.63 1517.48 Q1493.63 1517.85 1492.9 1519.53 Q1492.21 1521.22 1490.68 1523.7 Q1489.21 1526.17 1487.26 1528.49 Q1485.36 1530.81 1482.46 1532.5 Q1479.56 1534.13 1476.45 1534.13 Q1472.08 1534.13 1469.29 1531.34 Q1466.55 1528.54 1466.55 1524.17 Q1466.55 1522.75 1467.65 1518.22 Q1468.76 1513.63 1474.77 1489.76 L1465.23 1489.76 Q1463.91 1489.76 1463.38 1489.7 Q1462.91 1489.65 1462.54 1489.39 Q1462.22 1489.07 1462.22 1488.44 Q1462.22 1487.44 1462.65 1487.02 Q1463.07 1486.54 1463.6 1486.49 Q1464.17 1486.38 1465.49 1486.38 L1475.61 1486.38 L1479.83 1469.26 Q1480.25 1467.57 1481.3 1466.62 Q1482.41 1465.62 1483.04 1465.51 Q1483.67 1465.36 1484.15 1465.36 Q1485.57 1465.36 1486.41 1466.15 Q1487.26 1466.88 1487.26 1468.26 Q1487.26 1468.99 1482.83 1486.38 L1492.32 1486.38 Q1493.53 1486.38 1494 1486.44 Q1494.53 1486.49 1494.95 1486.75 Q1495.37 1487.02 1495.37 1487.6 Z" fill="#000000" fill-rule="nonzero" fill-opacity="1" /><path clip-path="url(#clip350)" d="M1525.87 1516.58 Q1525.87 1518.21 1524.54 1519.42 Q1523.25 1520.61 1521.85 1520.61 Q1520.55 1520.61 1519.74 1519.83 Q1518.97 1519.02 1518.97 1517.88 Q1518.97 1516.36 1520.26 1515.11 Q1521.55 1513.85 1523.06 1513.85 Q1524.32 1513.85 1525.09 1514.63 Q1525.87 1515.4 1525.87 1516.58 M1526.53 1553 Q1526.53 1553.29 1526.2 1554.47 Q1525.87 1555.61 1525.06 1557.39 Q1524.28 1559.12 1523.21 1560.74 Q1522.14 1562.37 1520.37 1563.51 Q1518.64 1564.65 1516.64 1564.65 Q1513.95 1564.65 1512.18 1562.88 Q1510.45 1561.11 1510.45 1558.45 Q1510.45 1557.02 1512.18 1552.4 Q1517.2 1538.98 1517.38 1538.42 Q1518.23 1536.32 1518.23 1534.48 Q1518.23 1533.63 1518.05 1533.11 Q1517.86 1532.56 1517.49 1532.37 Q1517.12 1532.15 1516.9 1532.12 Q1516.72 1532.08 1516.35 1532.08 Q1514.17 1532.08 1512.14 1534.29 Q1510.11 1536.51 1508.71 1541.45 Q1508.42 1542.37 1508.23 1542.59 Q1508.05 1542.81 1507.5 1542.81 Q1506.57 1542.78 1506.57 1542.04 Q1506.57 1541.82 1506.83 1540.97 Q1507.09 1540.08 1507.57 1538.76 Q1508.05 1537.39 1508.9 1535.99 Q1509.75 1534.55 1510.78 1533.3 Q1511.85 1532.04 1513.36 1531.23 Q1514.87 1530.42 1516.57 1530.42 Q1519.34 1530.42 1521.03 1532.23 Q1522.77 1534 1522.77 1536.62 Q1522.77 1538.05 1521.77 1540.6 Q1520.55 1543.92 1520.11 1544.99 L1517.16 1552.92 Q1516.09 1555.8 1515.76 1556.68 Q1515.46 1557.53 1515.21 1558.57 Q1514.98 1559.56 1514.98 1560.48 Q1514.98 1561.78 1515.39 1562.37 Q1515.83 1562.96 1516.79 1562.96 Q1519.45 1562.96 1521.4 1560.34 Q1523.36 1557.68 1524.5 1553.62 Q1524.54 1553.51 1524.58 1553.33 Q1524.87 1552.4 1525.17 1552.29 Q1525.31 1552.26 1525.61 1552.26 Q1526.53 1552.26 1526.53 1553 Z" fill="#000000" fill-rule="nonzero" fill-opacity="1" /><path clip-path="url(#clip350)" d="M1570.28 1507.25 Q1567.8 1507.25 1567.8 1505.94 Q1567.8 1504.62 1570.38 1504.62 Q1570.7 1504.62 1571.23 1504.67 Q1571.81 1504.72 1571.91 1504.72 L1602.32 1504.72 L1602.32 1474.21 Q1602.32 1474.1 1602.27 1473.63 Q1602.21 1473.1 1602.21 1472.79 Q1602.21 1470.21 1603.48 1470.21 Q1604.8 1470.21 1604.8 1472.79 L1604.8 1504.72 L1635.26 1504.72 Q1635.36 1504.72 1635.89 1504.67 Q1636.42 1504.62 1636.73 1504.62 Q1639.21 1504.62 1639.21 1505.94 Q1639.26 1507.25 1636.63 1507.25 Q1636.31 1507.25 1635.84 1507.2 Q1635.36 1507.15 1635.26 1507.15 L1604.8 1507.15 L1604.8 1539.19 Q1604.8 1541.67 1603.48 1541.67 Q1602.21 1541.67 1602.21 1539.08 Q1602.21 1538.77 1602.27 1538.24 Q1602.32 1537.77 1602.32 1537.66 L1602.32 1507.15 L1571.91 1507.15 Q1571.81 1507.15 1571.17 1507.2 Q1570.59 1507.25 1570.28 1507.25 Z" fill="#000000" fill-rule="nonzero" fill-opacity="1" /><path clip-path="url(#clip350)" d="M1733.85 1517.48 Q1733.85 1517.9 1733.38 1519.53 Q1732.9 1521.17 1731.74 1523.7 Q1730.64 1526.23 1729.11 1528.54 Q1727.58 1530.81 1725.05 1532.5 Q1722.57 1534.13 1719.73 1534.13 Q1715.93 1534.13 1713.4 1531.6 Q1710.87 1529.07 1710.87 1525.28 Q1710.87 1524.75 1710.93 1524.22 Q1710.98 1523.7 1711.03 1523.38 Q1711.08 1523.01 1711.24 1522.43 Q1711.45 1521.8 1711.5 1521.54 Q1711.61 1521.27 1711.87 1520.48 Q1712.19 1519.64 1712.3 1519.32 Q1718.99 1502.25 1718.99 1495.13 Q1718.99 1487.6 1713.14 1487.6 Q1707.92 1487.6 1702.76 1491.39 Q1700.38 1493.29 1698.12 1496.66 Q1695.85 1500.03 1695.43 1501.3 Q1694.96 1504.04 1694.27 1506.15 Q1693.96 1507.62 1692.43 1513.37 L1690.06 1523.12 L1688 1531.28 Q1687.58 1532.44 1686.42 1533.29 Q1685.26 1534.13 1684 1534.13 Q1682.94 1534.13 1681.89 1533.39 Q1680.89 1532.71 1680.89 1531.07 Q1680.89 1530.23 1681.31 1528.7 L1696.96 1466.52 L1697.28 1464.41 Q1697.28 1463.78 1697.01 1463.46 Q1696.8 1463.09 1695.54 1462.83 Q1694.32 1462.56 1691.9 1462.56 Q1690.9 1462.56 1690.42 1462.51 Q1690 1462.46 1689.63 1462.19 Q1689.27 1461.88 1689.27 1461.25 Q1689.27 1460.35 1689.63 1459.88 Q1690.06 1459.35 1690.37 1459.24 Q1690.69 1459.14 1691.32 1459.09 Q1692.22 1459.03 1695.22 1458.77 Q1698.22 1458.45 1700.81 1458.24 Q1703.39 1458.03 1704.5 1458.03 Q1705.13 1458.03 1705.44 1458.35 Q1705.81 1458.61 1705.87 1458.93 L1705.92 1459.19 L1697.49 1493.5 Q1704.18 1485.22 1713.45 1485.22 Q1719.46 1485.22 1722.68 1488.33 Q1725.89 1491.39 1725.89 1496.77 Q1725.89 1502.93 1719.3 1520.48 Q1717.35 1525.38 1717.35 1528.18 Q1717.35 1530.02 1717.93 1530.86 Q1718.57 1531.71 1719.94 1531.71 Q1722.04 1531.71 1723.89 1530.49 Q1725.79 1529.23 1727.1 1527.17 Q1728.42 1525.07 1729.32 1522.96 Q1730.27 1520.8 1730.95 1518.37 Q1731.37 1517.06 1731.58 1516.74 Q1731.85 1516.42 1732.58 1516.42 Q1733.85 1516.42 1733.85 1517.48 Z" fill="#000000" fill-rule="nonzero" fill-opacity="1" /><path clip-path="url(#clip350)" d="M1764.15 1516.58 Q1764.15 1518.21 1762.82 1519.42 Q1761.53 1520.61 1760.13 1520.61 Q1758.84 1520.61 1758.03 1519.83 Q1757.25 1519.02 1757.25 1517.88 Q1757.25 1516.36 1758.55 1515.11 Q1759.84 1513.85 1761.35 1513.85 Q1762.6 1513.85 1763.38 1514.63 Q1764.15 1515.4 1764.15 1516.58 M1764.82 1553 Q1764.82 1553.29 1764.48 1554.47 Q1764.15 1555.61 1763.34 1557.39 Q1762.57 1559.12 1761.5 1560.74 Q1760.43 1562.37 1758.66 1563.51 Q1756.92 1564.65 1754.93 1564.65 Q1752.24 1564.65 1750.47 1562.88 Q1748.73 1561.11 1748.73 1558.45 Q1748.73 1557.02 1750.47 1552.4 Q1755.48 1538.98 1755.67 1538.42 Q1756.52 1536.32 1756.52 1534.48 Q1756.52 1533.63 1756.33 1533.11 Q1756.15 1532.56 1755.78 1532.37 Q1755.41 1532.15 1755.19 1532.12 Q1755 1532.08 1754.63 1532.08 Q1752.46 1532.08 1750.43 1534.29 Q1748.4 1536.51 1747 1541.45 Q1746.7 1542.37 1746.52 1542.59 Q1746.33 1542.81 1745.78 1542.81 Q1744.86 1542.78 1744.86 1542.04 Q1744.86 1541.82 1745.12 1540.97 Q1745.38 1540.08 1745.85 1538.76 Q1746.33 1537.39 1747.18 1535.99 Q1748.03 1534.55 1749.06 1533.3 Q1750.13 1532.04 1751.65 1531.23 Q1753.16 1530.42 1754.86 1530.42 Q1757.62 1530.42 1759.32 1532.23 Q1761.05 1534 1761.05 1536.62 Q1761.05 1538.05 1760.06 1540.6 Q1758.84 1543.92 1758.4 1544.99 L1755.45 1552.92 Q1754.38 1555.8 1754.04 1556.68 Q1753.75 1557.53 1753.49 1558.57 Q1753.27 1559.56 1753.27 1560.48 Q1753.27 1561.78 1753.68 1562.37 Q1754.12 1562.96 1755.08 1562.96 Q1757.73 1562.96 1759.69 1560.34 Q1761.64 1557.68 1762.79 1553.62 Q1762.82 1553.51 1762.86 1553.33 Q1763.16 1552.4 1763.45 1552.29 Q1763.6 1552.26 1763.89 1552.26 Q1764.82 1552.26 1764.82 1553 Z" fill="#000000" fill-rule="nonzero" fill-opacity="1" /><path clip-path="url(#clip350)" d="M1694.96 718.373 Q1694.96 719.11 1694.48 720.849 L1684.15 762.061 Q1681.89 771.231 1674.51 777.661 Q1667.18 784.09 1658.86 784.09 Q1653.85 784.09 1650.64 781.402 Q1647.42 778.767 1647.42 774.709 Q1647.42 771.126 1649.32 769.387 Q1651.22 767.7 1653.48 767.7 Q1654.22 767.7 1655.01 767.911 Q1655.8 768.122 1656.64 769.018 Q1657.49 769.914 1657.49 771.442 Q1657.49 773.919 1655.33 775.869 Q1654.27 776.765 1653.27 776.976 Q1652.32 777.186 1650.69 777.186 Q1651.32 778.662 1652.48 779.663 Q1653.64 780.665 1654.96 781.033 Q1656.27 781.455 1657.12 781.56 Q1658.01 781.719 1658.86 781.719 Q1665.6 781.719 1670.77 774.92 Q1672.3 772.865 1673.4 770.81 Q1674.56 768.807 1675.4 766.33 Q1676.25 763.906 1676.62 762.588 Q1677.04 761.271 1677.78 758.267 Q1672.87 763.168 1666.87 763.168 Q1664.34 763.168 1662.07 762.483 Q1659.86 761.798 1657.91 760.375 Q1655.96 758.899 1654.8 756.317 Q1653.69 753.735 1653.69 750.309 Q1653.69 746.673 1655.11 741.719 Q1656.54 736.765 1659.96 727.648 Q1661.81 722.536 1661.81 720.059 Q1661.81 718.847 1661.54 718.109 Q1661.28 717.319 1660.75 717.055 Q1660.23 716.739 1659.91 716.686 Q1659.65 716.633 1659.12 716.633 Q1656.01 716.633 1653.11 719.795 Q1650.21 722.957 1648.21 730.019 Q1647.79 731.337 1647.53 731.653 Q1647.26 731.969 1646.47 731.969 Q1645.15 731.917 1645.15 730.863 Q1645.15 730.441 1645.63 728.807 Q1646.1 727.121 1647.21 724.644 Q1648.37 722.114 1649.95 719.848 Q1651.53 717.529 1654.01 715.896 Q1656.54 714.262 1659.44 714.262 Q1663.39 714.262 1665.81 716.844 Q1668.29 719.374 1668.29 723.116 Q1668.29 724.644 1667.87 726.014 Q1667.5 727.332 1666.13 730.863 Q1660.6 745.092 1660.6 752.048 Q1660.6 753.735 1660.86 755.157 Q1661.18 756.528 1661.86 757.898 Q1662.55 759.215 1663.92 760.006 Q1665.34 760.744 1667.29 760.744 Q1669.77 760.744 1672.08 759.584 Q1674.46 758.372 1675.93 756.739 Q1677.46 755.105 1678.36 753.735 Q1679.3 752.312 1679.52 751.574 L1684.36 732.18 L1686.52 723.537 Q1687.53 718.847 1688 717.687 Q1688.63 716.581 1689.74 716.001 Q1690.85 715.421 1691.79 715.421 Q1693.11 715.421 1694.01 716.212 Q1694.96 717.002 1694.96 718.373 Z" fill="#000000" fill-rule="nonzero" fill-opacity="1" /><path clip-path="url(#clip350)" d="M1727.45 745.566 Q1727.55 744.248 1729.61 744.248 L1795.75 744.248 Q1798.86 744.248 1798.91 745.461 Q1798.91 746.778 1795.96 746.725 L1730.35 746.725 Q1727.45 746.778 1727.45 745.566 M1727.45 724.486 Q1727.45 723.168 1729.71 723.221 L1795.64 723.221 Q1798.86 723.221 1798.91 724.486 Q1798.91 725.698 1796.17 725.698 L1729.61 725.698 Q1727.45 725.698 1727.45 724.486 Z" fill="#000000" fill-rule="nonzero" fill-opacity="1" /><path clip-path="url(#clip350)" d="M1890.07 719.321 Q1890.07 719.374 1889.75 721.271 L1877.74 769.176 Q1877.11 771.705 1875.31 774.235 Q1873.58 776.817 1870.78 779.031 Q1868.04 781.297 1863.83 782.667 Q1859.66 784.09 1854.87 784.09 Q1847.23 784.09 1843.85 782.456 Q1840.53 780.875 1840.53 777.503 Q1840.53 774.551 1842.38 772.865 Q1844.22 771.231 1846.33 771.231 Q1848.33 771.231 1849.39 772.391 Q1850.44 773.55 1850.44 775.026 Q1850.44 776.659 1849.33 778.293 Q1848.23 779.979 1846.01 780.612 Q1849.54 781.719 1854.66 781.719 Q1865.46 781.719 1870.1 770.283 Q1870.2 770.124 1870.2 770.072 L1873.79 755.79 L1873.63 755.685 Q1872.73 756.739 1871.31 757.951 Q1869.94 759.11 1866.99 760.533 Q1864.04 761.956 1861.14 761.956 Q1855.08 761.956 1850.91 757.318 Q1846.8 752.628 1846.8 744.881 Q1846.8 739.242 1849.07 733.603 Q1851.39 727.911 1854.97 723.748 Q1858.61 719.532 1863.25 716.897 Q1867.94 714.262 1872.47 714.262 Q1875.63 714.262 1878.32 716.159 Q1881.01 718.004 1882.48 721.06 Q1882.75 718.531 1884.17 717.477 Q1885.64 716.423 1886.91 716.423 Q1888.33 716.423 1889.18 717.213 Q1890.07 717.951 1890.07 719.321 M1881.22 725.909 Q1881.22 725.593 1881.01 724.749 Q1880.8 723.853 1880.16 722.43 Q1879.58 721.008 1878.69 719.743 Q1877.79 718.478 1876.16 717.582 Q1874.58 716.633 1872.57 716.633 Q1869.31 716.633 1866.04 719.374 Q1862.77 722.062 1860.51 726.225 Q1858.4 730.23 1856.4 737.977 Q1854.45 745.724 1854.45 749.677 Q1854.45 753.576 1856.13 756.58 Q1857.82 759.584 1861.45 759.584 Q1865.67 759.584 1870.2 755.685 Q1874.89 751.627 1875.68 748.148 L1880.9 727.542 Q1881.22 726.278 1881.22 725.909 Z" fill="#000000" fill-rule="nonzero" fill-opacity="1" /><path clip-path="url(#clip350)" d="M1904.86 734.973 Q1904.86 716.739 1911.66 702.035 Q1914.56 695.869 1918.62 690.705 Q1922.68 685.54 1925.37 683.274 Q1928.05 681.008 1928.79 681.008 Q1929.84 681.008 1929.9 682.062 Q1929.9 682.589 1928.47 683.906 Q1911.08 701.614 1911.14 734.973 Q1911.14 768.438 1928.05 785.46 Q1929.9 787.305 1929.9 787.885 Q1929.9 788.939 1928.79 788.939 Q1928.05 788.939 1925.47 786.778 Q1922.89 784.617 1918.88 779.663 Q1914.88 774.709 1911.98 768.649 Q1904.86 753.945 1904.86 734.973 Z" fill="#000000" fill-rule="nonzero" fill-opacity="1" /><path clip-path="url(#clip350)" d="M1979.45 716.633 Q1979.45 718.109 1978.77 718.478 Q1978.08 718.794 1976.19 718.794 L1966.07 718.794 L1958.06 750.625 Q1957.43 753.418 1957.43 755.79 Q1957.43 758.425 1958.22 759.584 Q1959.06 760.744 1960.8 760.744 Q1964.22 760.744 1967.91 757.634 Q1971.65 754.525 1974.82 746.936 Q1975.24 745.935 1975.45 745.724 Q1975.71 745.461 1976.4 745.461 Q1977.72 745.461 1977.72 746.515 Q1977.72 746.884 1976.98 748.57 Q1976.29 750.256 1974.76 752.733 Q1973.29 755.21 1971.34 757.529 Q1969.44 759.848 1966.54 761.534 Q1963.64 763.168 1960.53 763.168 Q1956.16 763.168 1953.37 760.375 Q1950.63 757.582 1950.63 753.208 Q1950.63 751.785 1951.73 747.252 Q1952.84 742.667 1958.85 718.794 L1949.31 718.794 Q1947.99 718.794 1947.46 718.741 Q1946.99 718.689 1946.62 718.425 Q1946.31 718.109 1946.31 717.477 Q1946.31 716.475 1946.73 716.054 Q1947.15 715.579 1947.68 715.527 Q1948.26 715.421 1949.57 715.421 L1959.69 715.421 L1963.91 698.294 Q1964.33 696.607 1965.38 695.659 Q1966.49 694.657 1967.12 694.552 Q1967.75 694.394 1968.23 694.394 Q1969.65 694.394 1970.5 695.184 Q1971.34 695.922 1971.34 697.292 Q1971.34 698.03 1966.91 715.421 L1976.4 715.421 Q1977.61 715.421 1978.08 715.474 Q1978.61 715.527 1979.03 715.79 Q1979.45 716.054 1979.45 716.633 Z" fill="#000000" fill-rule="nonzero" fill-opacity="1" /><path clip-path="url(#clip350)" d="M2009.95 745.622 Q2009.95 747.245 2008.62 748.462 Q2007.33 749.643 2005.93 749.643 Q2004.64 749.643 2003.82 748.868 Q2003.05 748.056 2003.05 746.913 Q2003.05 745.4 2004.34 744.146 Q2005.63 742.892 2007.14 742.892 Q2008.4 742.892 2009.17 743.666 Q2009.95 744.441 2009.95 745.622 M2010.61 782.032 Q2010.61 782.327 2010.28 783.508 Q2009.95 784.652 2009.14 786.422 Q2008.36 788.156 2007.29 789.779 Q2006.22 791.402 2004.45 792.546 Q2002.72 793.69 2000.72 793.69 Q1998.03 793.69 1996.26 791.919 Q1994.53 790.148 1994.53 787.492 Q1994.53 786.053 1996.26 781.442 Q2001.28 768.014 2001.46 767.461 Q2002.31 765.358 2002.31 763.513 Q2002.31 762.665 2002.13 762.148 Q2001.94 761.595 2001.57 761.411 Q2001.2 761.189 2000.98 761.152 Q2000.8 761.115 2000.43 761.115 Q1998.25 761.115 1996.22 763.329 Q1994.2 765.542 1992.79 770.486 Q1992.5 771.408 1992.31 771.629 Q1992.13 771.851 1991.58 771.851 Q1990.65 771.814 1990.65 771.076 Q1990.65 770.855 1990.91 770.006 Q1991.17 769.121 1991.65 767.793 Q1992.13 766.428 1992.98 765.026 Q1993.83 763.587 1994.86 762.333 Q1995.93 761.079 1997.44 760.267 Q1998.95 759.455 2000.65 759.455 Q2003.42 759.455 2005.11 761.263 Q2006.85 763.034 2006.85 765.653 Q2006.85 767.092 2005.85 769.637 Q2004.64 772.957 2004.19 774.027 L2001.24 781.959 Q2000.17 784.836 1999.84 785.721 Q1999.54 786.57 1999.29 787.603 Q1999.06 788.599 1999.06 789.521 Q1999.06 790.812 1999.47 791.402 Q1999.91 791.993 2000.87 791.993 Q2003.53 791.993 2005.48 789.373 Q2007.44 786.717 2008.58 782.659 Q2008.62 782.549 2008.66 782.364 Q2008.95 781.442 2009.25 781.331 Q2009.39 781.294 2009.69 781.294 Q2010.61 781.294 2010.61 782.032 Z" fill="#000000" fill-rule="nonzero" fill-opacity="1" /><path clip-path="url(#clip350)" d="M2054.36 736.291 Q2051.88 736.291 2051.88 734.973 Q2051.88 733.656 2054.46 733.656 Q2054.78 733.656 2055.31 733.708 Q2055.89 733.761 2055.99 733.761 L2086.4 733.761 L2086.4 703.248 Q2086.4 703.142 2086.35 702.668 Q2086.29 702.141 2086.29 701.825 Q2086.29 699.242 2087.56 699.242 Q2088.88 699.242 2088.88 701.825 L2088.88 733.761 L2119.34 733.761 Q2119.44 733.761 2119.97 733.708 Q2120.5 733.656 2120.81 733.656 Q2123.29 733.656 2123.29 734.973 Q2123.34 736.291 2120.71 736.291 Q2120.39 736.291 2119.92 736.238 Q2119.44 736.185 2119.34 736.185 L2088.88 736.185 L2088.88 768.227 Q2088.88 770.704 2087.56 770.704 Q2086.29 770.704 2086.29 768.122 Q2086.29 767.806 2086.35 767.279 Q2086.4 766.804 2086.4 766.699 L2086.4 736.185 L2055.99 736.185 Q2055.89 736.185 2055.25 736.238 Q2054.67 736.291 2054.36 736.291 Z" fill="#000000" fill-rule="nonzero" fill-opacity="1" /><path clip-path="url(#clip350)" d="M2240.97 662.148 Q2240.97 662.57 2240.5 664.204 Q2240.02 665.837 2238.86 668.367 Q2237.76 670.897 2236.23 673.215 Q2234.7 675.482 2232.17 677.168 Q2229.69 678.802 2226.85 678.802 Q2223.05 678.802 2220.52 676.272 Q2217.99 673.742 2217.99 669.948 Q2217.99 669.421 2218.05 668.894 Q2218.1 668.367 2218.15 668.051 Q2218.2 667.682 2218.36 667.102 Q2218.57 666.47 2218.63 666.206 Q2218.73 665.943 2218.99 665.152 Q2219.31 664.309 2219.42 663.993 Q2226.11 646.918 2226.11 639.803 Q2226.11 632.267 2220.26 632.267 Q2215.04 632.267 2209.88 636.062 Q2207.51 637.959 2205.24 641.332 Q2202.97 644.704 2202.55 645.969 Q2202.08 648.71 2201.39 650.818 Q2201.08 652.293 2199.55 658.038 L2197.18 667.787 L2195.12 675.956 Q2194.7 677.115 2193.54 677.959 Q2192.38 678.802 2191.12 678.802 Q2190.06 678.802 2189.01 678.064 Q2188.01 677.379 2188.01 675.745 Q2188.01 674.902 2188.43 673.374 L2204.08 611.187 L2204.4 609.079 Q2204.4 608.447 2204.13 608.13 Q2203.92 607.761 2202.66 607.498 Q2201.44 607.234 2199.02 607.234 Q2198.02 607.234 2197.55 607.182 Q2197.12 607.129 2196.75 606.866 Q2196.39 606.549 2196.39 605.917 Q2196.39 605.021 2196.75 604.547 Q2197.18 604.02 2197.49 603.914 Q2197.81 603.809 2198.44 603.756 Q2199.34 603.704 2202.34 603.44 Q2205.34 603.124 2207.93 602.913 Q2210.51 602.702 2211.62 602.702 Q2212.25 602.702 2212.56 603.018 Q2212.93 603.282 2212.99 603.598 L2213.04 603.862 L2204.61 638.17 Q2211.3 629.896 2220.58 629.896 Q2226.58 629.896 2229.8 633.005 Q2233.01 636.062 2233.01 641.437 Q2233.01 647.603 2226.43 665.152 Q2224.48 670.053 2224.48 672.847 Q2224.48 674.691 2225.05 675.534 Q2225.69 676.377 2227.06 676.377 Q2229.17 676.377 2231.01 675.165 Q2232.91 673.901 2234.22 671.845 Q2235.54 669.737 2236.44 667.629 Q2237.39 665.468 2238.07 663.044 Q2238.49 661.727 2238.7 661.411 Q2238.97 661.094 2239.71 661.094 Q2240.97 661.094 2240.97 662.148 Z" fill="#000000" fill-rule="nonzero" fill-opacity="1" /><path clip-path="url(#clip350)" d="M2271.27 661.255 Q2271.27 662.878 2269.95 664.096 Q2268.65 665.276 2267.25 665.276 Q2265.96 665.276 2265.15 664.502 Q2264.37 663.69 2264.37 662.546 Q2264.37 661.034 2265.67 659.78 Q2266.96 658.525 2268.47 658.525 Q2269.72 658.525 2270.5 659.3 Q2271.27 660.075 2271.27 661.255 M2271.94 697.666 Q2271.94 697.961 2271.61 699.142 Q2271.27 700.285 2270.46 702.056 Q2269.69 703.79 2268.62 705.413 Q2267.55 707.036 2265.78 708.18 Q2264.04 709.323 2262.05 709.323 Q2259.36 709.323 2257.59 707.553 Q2255.85 705.782 2255.85 703.126 Q2255.85 701.687 2257.59 697.076 Q2262.6 683.648 2262.79 683.094 Q2263.64 680.992 2263.64 679.147 Q2263.64 678.299 2263.45 677.782 Q2263.27 677.229 2262.9 677.044 Q2262.53 676.823 2262.31 676.786 Q2262.12 676.749 2261.76 676.749 Q2259.58 676.749 2257.55 678.963 Q2255.52 681.176 2254.12 686.119 Q2253.82 687.042 2253.64 687.263 Q2253.46 687.484 2252.9 687.484 Q2251.98 687.447 2251.98 686.71 Q2251.98 686.488 2252.24 685.64 Q2252.5 684.754 2252.98 683.426 Q2253.46 682.061 2254.3 680.66 Q2255.15 679.221 2256.18 677.967 Q2257.25 676.712 2258.77 675.901 Q2260.28 675.089 2261.98 675.089 Q2264.74 675.089 2266.44 676.897 Q2268.17 678.668 2268.17 681.287 Q2268.17 682.725 2267.18 685.271 Q2265.96 688.591 2265.52 689.661 L2262.57 697.592 Q2261.5 700.47 2261.17 701.355 Q2260.87 702.204 2260.61 703.236 Q2260.39 704.233 2260.39 705.155 Q2260.39 706.446 2260.8 707.036 Q2261.24 707.626 2262.2 707.626 Q2264.85 707.626 2266.81 705.007 Q2268.76 702.351 2269.91 698.293 Q2269.95 698.183 2269.98 697.998 Q2270.28 697.076 2270.57 696.965 Q2270.72 696.928 2271.01 696.928 Q2271.94 696.928 2271.94 697.666 Z" fill="#000000" fill-rule="nonzero" fill-opacity="1" /><path clip-path="url(#clip350)" d="M2188.01 738.117 L2294.78 738.117 L2294.78 732.357 L2188.01 732.357  Z" fill="#000000" fill-rule="evenodd" fill-opacity="1"/>
<path clip-path="url(#clip350)" d="M2214.01 832.345 Q2214.01 830.395 2214.16 829.815 Q2214.38 829.235 2215.22 828.339 L2235.93 805.257 Q2247.26 792.503 2247.26 781.383 Q2247.26 774.163 2243.47 768.999 Q2239.72 763.834 2232.82 763.834 Q2228.08 763.834 2224.07 766.732 Q2220.07 769.631 2218.22 774.796 Q2218.54 774.69 2219.65 774.69 Q2222.33 774.69 2223.81 776.377 Q2225.34 778.063 2225.34 780.329 Q2225.34 783.228 2223.44 784.651 Q2221.6 786.021 2219.75 786.021 Q2219.01 786.021 2218.01 785.863 Q2217.06 785.705 2215.53 784.229 Q2214.01 782.701 2214.01 780.013 Q2214.01 772.477 2219.7 766.469 Q2225.44 760.461 2234.19 760.461 Q2244.1 760.461 2250.58 766.364 Q2257.12 772.213 2257.12 781.383 Q2257.12 784.598 2256.11 787.549 Q2255.17 790.448 2253.85 792.714 Q2252.58 794.98 2249.1 798.616 Q2245.63 802.253 2242.83 804.835 Q2240.04 807.417 2233.77 812.898 L2222.33 824.018 L2241.78 824.018 Q2251.27 824.018 2252 823.175 Q2253.06 821.646 2254.37 813.583 L2257.12 813.583 L2254.06 832.345 L2214.01 832.345 Z" fill="#000000" fill-rule="nonzero" fill-opacity="1" /><path clip-path="url(#clip350)" d="M2306.3 787.885 Q2306.3 787.358 2307.67 786.04 Q2325.06 768.333 2325.06 734.973 Q2325.06 701.508 2308.36 684.592 Q2306.3 682.642 2306.3 682.062 Q2306.3 681.008 2307.36 681.008 Q2308.1 681.008 2310.68 683.169 Q2313.31 685.329 2317.27 690.283 Q2321.27 695.237 2324.22 701.298 Q2331.34 716.001 2331.34 734.973 Q2331.34 753.208 2324.54 767.911 Q2321.64 774.077 2317.58 779.242 Q2313.52 784.406 2310.84 786.672 Q2308.15 788.939 2307.36 788.939 Q2306.3 788.939 2306.3 787.885 Z" fill="#000000" fill-rule="nonzero" fill-opacity="1" /><path clip-path="url(#clip350)" d="M606.864 494.612 Q602.964 494.295 588.419 494.295 Q573.979 494.295 570.079 494.612 L570.079 489.552 L581.726 489.552 L581.726 425.627 L581.62 425.627 L551.528 492.029 Q550.369 494.612 548.05 494.612 Q545.784 494.612 544.625 491.924 L515.27 427.05 L515.165 427.05 L515.165 486.39 Q515.165 488.182 515.587 488.604 Q516.061 489.025 518.38 489.236 Q521.278 489.552 524.124 489.552 L526.812 489.552 L526.812 494.612 Q522.385 494.295 512.214 494.295 Q501.885 494.295 497.774 494.612 L497.774 489.552 L500.462 489.552 Q503.729 489.552 506.311 489.236 Q508.525 489.025 508.946 488.604 Q509.421 488.182 509.421 486.39 L509.421 425.627 L497.774 425.627 L497.774 420.567 L521.753 420.567 Q523.176 420.567 523.808 420.673 Q524.44 420.778 525.178 421.358 Q525.916 421.938 526.496 423.255 L552.372 480.383 L578.3 423.255 Q578.88 421.938 579.618 421.358 Q580.356 420.778 580.988 420.673 Q581.62 420.567 583.043 420.567 L606.864 420.567 L606.864 425.627 L595.217 425.627 L595.217 489.552 L606.864 489.552 L606.864 494.612 Z" fill="#000000" fill-rule="nonzero" fill-opacity="1" /><path clip-path="url(#clip350)" d="M650.236 494.612 L637.588 494.295 L624.413 494.612 L624.413 489.552 L631.896 489.552 L631.896 456.193 Q631.896 453.136 630.79 452.557 Q629.683 451.977 624.729 451.977 L624.729 446.918 L643.543 446.022 L643.543 489.552 L650.236 489.552 L650.236 494.612 M642.542 423.15 Q645.019 425.627 645.019 429.105 Q645.019 432.583 642.542 435.06 Q640.118 437.537 636.639 437.537 Q633.161 437.537 630.684 435.06 Q628.207 432.583 628.207 429.105 Q628.207 425.627 630.684 423.15 Q633.161 420.673 636.639 420.673 Q640.118 420.673 642.542 423.15 Z" fill="#000000" fill-rule="nonzero" fill-opacity="1" /><path clip-path="url(#clip350)" d="M688.08 494.612 L674.799 494.295 L661.519 494.612 L661.519 489.552 L669.002 489.552 L669.002 429.843 Q669.002 426.786 667.843 426.206 Q666.736 425.627 661.519 425.627 L661.519 420.567 L680.649 419.724 L680.649 489.552 L688.08 489.552 L688.08 494.612 Z" fill="#000000" fill-rule="nonzero" fill-opacity="1" /><path clip-path="url(#clip350)" d="M720.56 494.612 L707.912 494.295 L694.736 494.612 L694.736 489.552 L702.22 489.552 L702.22 456.193 Q702.22 453.136 701.113 452.557 Q700.006 451.977 695.053 451.977 L695.053 446.918 L713.867 446.022 L713.867 489.552 L720.56 489.552 L720.56 494.612 M712.865 423.15 Q715.342 425.627 715.342 429.105 Q715.342 432.583 712.865 435.06 Q710.441 437.537 706.963 437.537 Q703.485 437.537 701.008 435.06 Q698.531 432.583 698.531 429.105 Q698.531 425.627 701.008 423.15 Q703.485 420.673 706.963 420.673 Q710.441 420.673 712.865 423.15 Z" fill="#000000" fill-rule="nonzero" fill-opacity="1" /><path clip-path="url(#clip350)" d="M781.697 481.964 Q781.697 482.649 781.117 484.072 Q780.537 485.442 778.904 487.444 Q777.323 489.394 775.004 491.133 Q772.738 492.82 768.733 494.032 Q764.78 495.244 759.984 495.244 Q747.125 495.244 739.484 488.288 Q731.842 481.331 731.842 470.317 Q731.842 465.205 733.581 460.778 Q735.373 456.351 738.641 452.978 Q741.908 449.605 747.02 447.656 Q752.132 445.706 758.456 445.706 Q769.628 445.706 775.636 451.555 Q778.113 454.032 779.536 457.616 Q781.012 461.147 781.328 463.518 Q781.697 465.89 781.697 468.156 Q781.697 470.159 780.959 470.633 Q780.274 471.107 778.219 471.107 L745.65 471.107 Q745.65 472.846 745.65 474.006 Q745.702 475.112 746.019 477.379 Q746.335 479.645 746.862 481.278 Q747.389 482.859 748.496 484.809 Q749.655 486.759 751.236 488.024 Q752.817 489.236 755.294 490.079 Q757.771 490.923 760.933 490.923 Q766.203 490.923 770.419 488.551 Q774.688 486.18 776.374 482.332 Q776.901 480.91 777.323 480.488 Q777.797 480.066 779.115 480.066 Q781.697 480.066 781.697 481.964 M771.42 467.524 Q770.946 449.605 758.456 449.605 Q755.716 449.605 752.922 450.923 Q750.129 452.24 748.232 455.192 Q747.178 456.878 746.598 459.302 Q746.019 461.674 745.913 463.044 Q745.808 464.362 745.65 467.524 L771.42 467.524 Z" fill="#000000" fill-rule="nonzero" fill-opacity="1" /><path clip-path="url(#clip350)" d="M847.552 494.612 L828.422 495.244 L828.422 486.865 Q823.521 495.244 812.875 495.244 Q808.501 495.244 805.234 494.664 Q802.019 494.085 799.173 492.662 Q796.38 491.186 794.905 488.34 Q793.429 485.494 793.429 481.331 L793.429 456.193 Q793.429 453.136 792.322 452.557 Q791.215 451.977 785.998 451.977 L785.998 446.918 L805.761 446.022 L805.761 482.859 Q805.761 485.442 805.919 486.759 Q806.13 488.024 806.92 489.289 Q807.763 490.501 809.555 490.975 Q811.347 491.397 814.404 491.397 Q820.359 491.397 824.048 487.392 Q827.79 483.386 827.79 476.799 L827.79 456.193 Q827.79 453.136 826.63 452.557 Q825.524 451.977 820.306 451.977 L820.306 446.918 L840.069 446.022 L840.069 485.336 Q840.069 488.393 841.176 488.973 Q842.335 489.552 847.552 489.552 L847.552 494.612 Z" fill="#000000" fill-rule="nonzero" fill-opacity="1" /></svg>
